<?xml version="1.0" encoding="utf-8"?>
<!-- Generator: Adobe Illustrator 17.0.0, SVG Export Plug-In . SVG Version: 6.00 Build 0)  -->
<!DOCTYPE svg PUBLIC "-//W3C//DTD SVG 1.1//EN" "http://www.w3.org/Graphics/SVG/1.1/DTD/svg11.dtd">
<svg version="1.1" id="design" xmlns="http://www.w3.org/2000/svg" xmlns:xlink="http://www.w3.org/1999/xlink" x="0px" y="0px"
	 width="354.3px" height="226.8px" viewBox="0 0 354.3 226.8" style="enable-background:new 0 0 354.3 226.8;" xml:space="preserve"
	>
<linearGradient id="SVGID_1_" gradientUnits="userSpaceOnUse" x1="185.51" y1="50.855" x2="185.51" y2="224.055" gradientTransform="matrix(1 0 0 -1 -8.36 250.855)">
	<stop  offset="0.1595" style="stop-color:#59663A"/>
	<stop  offset="0.2761" style="stop-color:#616E40"/>
	<stop  offset="0.4987" style="stop-color:#79844E"/>
	<stop  offset="0.8018" style="stop-color:#9FA563"/>
	<stop  offset="0.8896" style="stop-color:#ACAF6A"/>
</linearGradient>
<rect x="39.6" y="26.8" style="fill:url(#SVGID_1_);" width="275.1" height="173.2"/>
<text transform="matrix(1 0 0 1 160.0076 103.7687)" style="fill:#DCE5B2; font-family:'GillSans'; font-size:8.5;">79 James Street, Brooklyn East</text>
<text transform="matrix(1 0 0 1 160.0076 114.7687)" style="fill:#DCE5B2; font-family:'GillSans'; font-size:8.5;">New York City 1289</text>
<text transform="matrix(1 0 0 1 160.0076 131.7687)" style="fill:#DCE5B2; font-family:'GillSans'; font-size:8.5;">Tel: 079-5889-3344</text>
<text transform="matrix(1 0 0 1 160.0076 142.7687)" style="fill:#DCE5B2; font-family:'GillSans'; font-size:8.5;">Email: johnamiel@kmail.com</text>
<text transform="matrix(1 0 0 1 160.0076 153.7687)" style="fill:#DCE5B2; font-family:'GillSans'; font-size:8.5;">Facebook: John_Amiel</text>
<text transform="matrix(1 0 0 1 160.0076 164.7687)" style="fill:#DCE5B2; font-family:'GillSans'; font-size:8.5;">Twitter: @johnamiel</text>
<text transform="matrix(1 0 0 1 160.0076 180.7687)" style="fill:#DCE5B2; font-family:'GillSans'; font-size:8.5;">www.freshlybaked.com</text>
<text transform="matrix(1 0 0 1 160.0077 74.2405)" style="fill:#DCE5B2; font-family:'Handwriting-Dakota'; font-size:15;">John Amiel</text>
<text transform="matrix(1 0 0 1 160.0077 86.2405)" style="fill:#DCE5B2; font-family:'GillSans-Italic'; font-size:8.5;">Chief Baker</text>
<path style="fill:#DCE5B2;" d="M136.4,183.4h-0.6v-1.9h0.6V183.4z M136.4,179.6h-0.6v-1.9h0.6V179.6z M136.4,175.8h-0.6v-1.9h0.6
	V175.8z M136.4,172h-0.6v-1.9h0.6V172z M136.4,168.1h-0.6v-1.9h0.6V168.1z M136.4,164.3h-0.6v-1.9h0.6V164.3z M136.4,160.5h-0.6
	v-1.9h0.6V160.5z M136.4,156.7h-0.6v-1.9h0.6V156.7z M136.4,152.9h-0.6V151h0.6V152.9z M136.4,149.1h-0.6v-1.9h0.6V149.1z
	 M136.4,145.2h-0.6v-1.9h0.6V145.2z M136.4,141.4h-0.6v-1.9h0.6V141.4z M136.4,137.6h-0.6v-1.9h0.6V137.6z M136.4,133.8h-0.6v-1.9
	h0.6V133.8z M136.4,130h-0.6v-1.9h0.6V130z M136.4,126.2h-0.6v-1.9h0.6V126.2z M136.4,122.3h-0.6v-1.9h0.6V122.3z M136.4,118.5h-0.6
	v-1.9h0.6V118.5z M136.4,114.7h-0.6v-1.9h0.6V114.7z M136.4,110.9h-0.6V109h0.6V110.9z M136.4,107.1h-0.6v-1.9h0.6V107.1z
	 M136.4,103.2h-0.6v-1.9h0.6V103.2z M136.4,99.4h-0.6v-1.9h0.6V99.4z M136.4,95.6h-0.6v-1.9h0.6V95.6z M136.4,91.8h-0.6v-1.9h0.6
	V91.8z M136.4,88h-0.6v-1.9h0.6V88z M136.4,84.2h-0.6v-1.9h0.6V84.2z M136.4,80.3h-0.6v-1.9h0.6V80.3z M136.4,76.5h-0.6v-1.9h0.6
	V76.5z"/>
<path style="fill:#DCE5B2;" d="M151,57.8c0,0,0,0.1-0.1,0.2c-0.1,0.1-0.1,0.2-0.3,0.4c-0.1,0.2-0.3,0.4-0.5,0.6
	c-0.2,0.2-0.5,0.4-0.8,0.7c-0.2,0.1-0.3,0.2-0.5,0.3s-0.4,0.2-0.6,0.2c-0.2,0.1-0.4,0.1-0.7,0.1c-0.2,0-0.5,0-0.7,0
	c-0.5-0.1-1-0.3-1.4-0.5c-0.1,0-0.1-0.1-0.2-0.1l0,0l0,0h-0.1c0,0-0.1-0.1-0.2-0.1l-0.2-0.1c-0.2-0.2-0.4-0.4-0.6-0.6
	c-0.3-0.4-0.6-0.9-0.8-1.4s-0.3-1-0.3-1.5s0.1-1,0.2-1.4c0.1-0.4,0.3-0.8,0.5-1.2c0.2-0.3,0.4-0.6,0.6-0.9c0.2-0.2,0.4-0.4,0.6-0.5
	c0.2-0.1,0.3-0.2,0.4-0.3c0.1,0,0.1,0,0.1-0.1l0,0l0.1,0.3c0,0,0,0-0.1,0.1s-0.2,0.2-0.4,0.3c-0.1,0.1-0.3,0.3-0.5,0.5
	s-0.3,0.5-0.5,0.8c-0.3,0.6-0.5,1.4-0.4,2.3c0,0.4,0.1,0.8,0.2,1.3c0.1,0.4,0.4,0.8,0.6,1.1c0.1,0.2,0.3,0.3,0.5,0.5l0.1,0.1
	l0.1,0.1l0.1,0.1l0,0l0,0l0.1,0.1c0.4,0.2,0.8,0.4,1.2,0.5s0.8,0.1,1.2,0.1c0.4-0.1,0.7-0.2,1-0.3c0.3-0.2,0.6-0.3,0.8-0.5
	s0.4-0.3,0.6-0.5C150.9,58,151,57.8,151,57.8z"/>
<path style="fill:#DCE5B2;" d="M147,53.8c-0.2-0.2-0.4-0.5-0.6-0.7c-0.2-0.3-0.4-0.5-0.5-0.8c-0.2-0.3-0.3-0.6-0.4-0.9
	c-0.1-0.3-0.2-0.6-0.3-0.9c-0.1-0.3-0.1-0.6-0.1-1c0-0.3,0-0.7,0.1-1s0.1-0.6,0.2-1c0.1-0.3,0.2-0.6,0.4-0.9l0.1-0.2
	c0-0.1,0.1-0.1,0.1-0.2c0.1-0.1,0.2-0.3,0.3-0.4c0.2-0.3,0.4-0.5,0.7-0.7s0.5-0.4,0.9-0.6c0.3-0.2,0.6-0.3,1-0.4
	c0.3-0.1,0.7-0.1,1-0.2c0.3,0,0.7,0,1,0s0.7,0.1,1,0.1c0.2,0,0.3,0.1,0.5,0.1c0.1,0,0.2,0,0.2,0.1c0.1,0,0.2,0.1,0.2,0.1l-0.5,0.1
	c0.1-0.1,0.1-0.1,0.2-0.2c0.1-0.1,0.1-0.1,0.2-0.2c0.1-0.1,0.2-0.2,0.4-0.3c0.3-0.2,0.5-0.4,0.8-0.5c0.6-0.3,1.2-0.6,1.8-0.6
	c0.3,0,0.7,0,1,0c0.3,0.1,0.7,0.1,1,0.3c0.1,0,0.1,0.1,0.2,0.1c0.1,0,0.1,0.1,0.2,0.1l0.2,0.1l0.2,0.1l0.1,0.1l0.1,0.1l0.2,0.1
	c0.1,0.1,0.2,0.2,0.3,0.4c0.2,0.2,0.4,0.5,0.6,0.8c0.2,0.3,0.3,0.6,0.3,0.9c0.1,0.3,0.1,0.6,0.1,1c0,0.3,0,0.6-0.1,0.9
	c-0.1,0.6-0.4,1.2-0.7,1.7c-0.2,0.3-0.3,0.5-0.5,0.7s-0.4,0.4-0.7,0.6c0.2-0.2,0.4-0.5,0.6-0.7c0.2-0.2,0.3-0.5,0.4-0.8
	c0.2-0.5,0.4-1.1,0.5-1.7c0-0.3,0.1-0.6,0-0.9c0-0.3-0.1-0.6-0.1-0.8c-0.1-0.3-0.2-0.5-0.3-0.8c-0.1-0.2-0.3-0.5-0.5-0.6
	c-0.1-0.1-0.2-0.2-0.3-0.3l-0.2-0.1l-0.1-0.1l0,0l0,0l0,0l0,0l0,0l0,0l-0.2-0.1l-0.2-0.1c-0.1,0-0.1-0.1-0.2-0.1
	c-0.1,0-0.1-0.1-0.2-0.1c-0.3-0.1-0.5-0.2-0.8-0.2s-0.5,0-0.8,0c-0.5,0.1-1,0.3-1.5,0.6c-0.2,0.1-0.5,0.3-0.7,0.5
	c-0.1,0.1-0.2,0.2-0.3,0.3c-0.1,0-0.1,0.1-0.2,0.1l-0.1,0.1l-0.2,0.2l-0.3-0.1c-0.1,0-0.1,0-0.2-0.1c-0.1,0-0.1,0-0.2-0.1
	c-0.1,0-0.3-0.1-0.4-0.1c-0.3-0.1-0.6-0.1-0.9-0.1c-0.3,0-0.6,0-0.9,0c-0.3,0-0.6,0.1-0.9,0.1c-0.3,0.1-0.6,0.2-0.8,0.3
	c-0.3,0.1-0.5,0.3-0.7,0.5s-0.4,0.4-0.6,0.6c-0.1,0.1-0.2,0.2-0.3,0.3c0,0.1-0.1,0.1-0.1,0.2l-0.1,0.2c-0.1,0.3-0.3,0.5-0.4,0.8
	c-0.1,0.3-0.2,0.6-0.3,0.9c-0.1,0.3-0.1,0.6-0.1,0.9c0,0.3,0,0.6,0,0.9c0,0.3,0.1,0.6,0.2,0.9c0.1,0.3,0.2,0.6,0.3,0.9
	c0.1,0.3,0.3,0.6,0.4,0.8C146.6,53.3,146.8,53.5,147,53.8z"/>
<path style="fill:#DCE5B2;" d="M159.2,49.3l0.3,0.1c0.1,0,0.2,0.1,0.3,0.1s0.2,0.1,0.3,0.1c0.1,0.1,0.2,0.1,0.3,0.2l0.3,0.2
	c0.1,0.1,0.2,0.1,0.3,0.2c0.1,0.1,0.2,0.1,0.3,0.2c0.1,0.1,0.2,0.1,0.3,0.2c0.2,0.1,0.4,0.3,0.6,0.4c0.2,0.1,0.4,0.3,0.6,0.4
	c0.2,0.1,0.4,0.3,0.6,0.4c0.2,0.1,0.4,0.3,0.6,0.5l0.2,0.2l-0.1,0.2c-0.2,0.3-0.3,0.6-0.5,0.9c-0.2,0.3-0.3,0.6-0.5,0.8
	c-0.2,0.3-0.4,0.5-0.6,0.8l-0.6,0.8c-0.1,0.1-0.2,0.3-0.3,0.4c-0.1,0.1-0.2,0.3-0.3,0.4c-0.1,0.1-0.2,0.3-0.3,0.4l-0.3,0.4
	c-0.1,0.1-0.2,0.3-0.3,0.4c-0.1,0.1-0.2,0.3-0.3,0.4l-0.3,0.4c-0.1,0.1-0.2,0.2-0.3,0.4c-0.2,0.2-0.4,0.5-0.7,0.7l-0.3,0.4l-0.3,0.3
	c-0.2,0.2-0.5,0.5-0.7,0.7s-0.5,0.4-0.7,0.6l-0.4,0.3c-0.1,0.1-0.3,0.2-0.4,0.3c-0.1,0.1-0.3,0.2-0.4,0.3c-0.1,0.1-0.3,0.2-0.4,0.3
	c-0.3,0.2-0.5,0.4-0.8,0.6c-0.3,0.2-0.6,0.4-0.9,0.5l-0.2,0.1l-0.2-0.2c-0.1-0.1-0.2-0.2-0.3-0.3s-0.2-0.2-0.3-0.3
	c-0.2-0.2-0.3-0.4-0.5-0.6c-0.1-0.1-0.2-0.2-0.2-0.3l-0.2-0.3c-0.1-0.1-0.1-0.2-0.2-0.3c-0.1-0.1-0.1-0.2-0.2-0.3
	c-0.1-0.2-0.3-0.4-0.4-0.6c-0.1-0.2-0.2-0.4-0.4-0.7c-0.1-0.1-0.1-0.2-0.2-0.3c-0.1-0.1-0.1-0.2-0.1-0.3s-0.1-0.2-0.1-0.4
	c0-0.1-0.1-0.2-0.1-0.4h0.1c0.1,0.1,0.1,0.2,0.2,0.3c0.1,0.1,0.1,0.2,0.2,0.3c0.1,0.1,0.1,0.2,0.2,0.3c0.1,0.1,0.1,0.2,0.2,0.3
	c0.1,0.1,0.1,0.2,0.2,0.3c0.1,0.1,0.1,0.2,0.2,0.3c0.1,0.2,0.3,0.4,0.5,0.6c0.2,0.2,0.3,0.4,0.5,0.6c0.2,0.2,0.3,0.4,0.5,0.5
	c0.2,0.2,0.3,0.4,0.5,0.5l0.3,0.3c0.1,0.1,0.2,0.2,0.3,0.2h-0.4c0.3-0.2,0.5-0.3,0.8-0.5c0.1-0.1,0.3-0.2,0.4-0.3
	c0.1-0.1,0.3-0.2,0.4-0.3c0.3-0.2,0.5-0.4,0.8-0.6c0.3-0.2,0.5-0.4,0.8-0.6c0.3-0.2,0.5-0.4,0.8-0.6L158,60l0.4-0.3l0.4-0.3
	c0.2-0.2,0.5-0.4,0.7-0.6c0.2-0.2,0.5-0.4,0.7-0.7c0.1-0.1,0.2-0.2,0.3-0.4c0.1-0.1,0.2-0.2,0.3-0.4l0.3-0.4
	c0.1-0.1,0.2-0.3,0.3-0.4c0.1-0.1,0.2-0.3,0.3-0.4c0.1-0.1,0.2-0.3,0.3-0.4c0.1-0.1,0.2-0.3,0.3-0.4l0.2-0.4
	c0.2-0.3,0.3-0.6,0.5-0.9c0.1-0.3,0.3-0.6,0.4-0.9c0.1-0.3,0.3-0.6,0.4-0.9l0.1,0.3l-0.6-0.4c-0.2-0.1-0.4-0.3-0.6-0.4l-0.6-0.4
	c-0.2-0.1-0.4-0.3-0.6-0.4c-0.2-0.1-0.4-0.3-0.6-0.4c-0.1-0.1-0.2-0.1-0.3-0.2l-0.3-0.2c-0.1-0.1-0.2-0.1-0.3-0.2
	c-0.1-0.1-0.2-0.1-0.3-0.2c-0.1-0.1-0.2-0.1-0.3-0.2L159.2,49.3L159.2,49.3z"/>
<path style="fill:#DCE5B2;" d="M152.8,57.3C152.8,57.3,152.9,57.4,152.8,57.3c0.1,0,0.1,0.1,0.2,0.1c0.1,0.1,0.2,0.2,0.4,0.3
	s0.3,0.3,0.5,0.4c0.1,0.1,0.2,0.2,0.3,0.3s0.2,0.2,0.3,0.3s0.2,0.2,0.2,0.3c0.1,0.1,0.1,0.2,0.2,0.3c0.1,0.2,0.3,0.4,0.3,0.6
	c0.1,0.2,0.2,0.3,0.2,0.4c0,0.1,0,0.1,0,0.1l0,0l0,0c0,0-0.1,0-0.1-0.1c-0.1-0.1-0.2-0.2-0.4-0.3s-0.3-0.3-0.5-0.4
	c-0.1-0.1-0.2-0.2-0.3-0.3s-0.2-0.2-0.3-0.3s-0.2-0.2-0.2-0.3c-0.1-0.1-0.1-0.2-0.2-0.3c-0.1-0.2-0.3-0.4-0.3-0.6
	C153,57.6,152.9,57.5,152.8,57.3C152.9,57.5,152.9,57.4,152.8,57.3C152.9,57.4,152.8,57.3,152.8,57.3z"/>
<path style="fill:#DCE5B2;" d="M155.2,55L155.2,55c0.1,0,0.1,0.1,0.2,0.1c0.1,0.1,0.2,0.1,0.4,0.2c0.2,0.1,0.3,0.2,0.5,0.4
	c0.1,0.1,0.2,0.2,0.3,0.2c0.1,0.1,0.2,0.2,0.3,0.3s0.2,0.2,0.3,0.3s0.2,0.2,0.2,0.3c0.2,0.2,0.3,0.4,0.4,0.5
	c0.1,0.2,0.2,0.3,0.2,0.4c0,0.1,0,0.1,0.1,0.1l0,0l0,0c0,0-0.1,0-0.1-0.1c-0.1-0.1-0.3-0.1-0.4-0.2c-0.2-0.1-0.3-0.2-0.5-0.4
	c-0.1-0.1-0.2-0.2-0.3-0.2c-0.1-0.1-0.2-0.2-0.3-0.3s-0.2-0.2-0.3-0.3S156,56.1,156,56c-0.2-0.2-0.3-0.4-0.4-0.5
	c-0.1-0.2-0.2-0.3-0.2-0.4C155.2,55.2,155.2,55.1,155.2,55C155.2,55.1,155.2,55,155.2,55z"/>
<path style="fill:#DCE5B2;" d="M157.4,52.8L157.4,52.8c0.1,0,0.1,0,0.2,0.1c0.1,0,0.3,0.1,0.4,0.2c0.2,0.1,0.4,0.2,0.6,0.3
	c0.1,0.1,0.2,0.1,0.3,0.2c0.1,0.1,0.2,0.2,0.3,0.2c0.1,0.1,0.2,0.2,0.3,0.2c0.1,0.1,0.2,0.2,0.3,0.3c0.2,0.2,0.3,0.3,0.4,0.5
	c0.1,0.2,0.2,0.3,0.3,0.4l0.1,0.1l0,0l0,0h-0.1c-0.1,0-0.3-0.1-0.4-0.2c-0.2-0.1-0.4-0.2-0.6-0.3c-0.1-0.1-0.2-0.1-0.3-0.2
	c-0.1-0.1-0.2-0.2-0.3-0.2c-0.1-0.1-0.2-0.2-0.3-0.2c-0.1-0.1-0.2-0.2-0.3-0.3c-0.2-0.2-0.3-0.3-0.4-0.5c-0.1-0.2-0.2-0.3-0.3-0.4
	C157.5,52.9,157.5,52.8,157.4,52.8L157.4,52.8z"/>
<g>
	<g>
		<g>
			<path style="fill:#DCE5B2;" d="M94.8,135.6c-0.3-0.2-0.8-0.4-1.3-0.6c-0.5-0.2-1.2-0.3-1.9-0.3c-0.7,0-1.3,0.1-1.4,0.1
				s-0.1,0-0.2,0c0,0.1,0,0.3,0,0.4c0.2,0,0.4,0,0.7,0c1.4,0,2.5,0.5,3.1,1.4C94.1,136.2,94.4,135.9,94.8,135.6z"/>
		</g>
		<g>
			<path style="fill:#DCE5B2;" d="M90.1,134.7c0.3-0.1,1.3-0.3,2.2-0.3c0.6,0,1.1,0.1,1.5,0.2c0.6,0.2,1.1,0.5,1.4,0.8
				c0.1-0.1,0.3-0.2,0.4-0.4c-0.4-0.2-1-0.6-1.7-0.8c-0.5-0.2-1.2-0.3-1.9-0.3c-0.8,0-1.4,0.1-1.4,0.1c-0.1,0-0.2,0-0.2-0.1l0,0l0,0
				c0-0.1,1.2-0.4,2.3-0.4c0.6,0,1.1,0.1,1.5,0.2c0.9,0.3,1.5,0.8,1.8,1.1c0.3-0.2,0.5-0.4,0.8-0.6c-0.6-0.8-1.8-1.5-3.2-1.8
				c-0.4-0.1-0.8-0.1-1.3-0.1c-1.4,0-2.3,0.5-2.8,0.8c0.1,0.1,0.3,0.2,0.4,0.4C89.9,133.8,90.1,134.2,90.1,134.7z M90.4,132.9
				c0-0.1,1.3-0.4,2.2-0.4c0.6,0,1.1,0.1,1.5,0.2c1.4,0.5,1.9,1.3,2,1.5l0,0l0,0l0,0l0,0c0,0,0,0-0.2-0.1c-0.3-0.2-1-0.7-2-1.1
				c-0.5-0.2-1.2-0.3-1.9-0.3c-0.8,0-1.4,0.1-1.4,0.1C90.5,133.1,90.4,133,90.4,132.9L90.4,132.9L90.4,132.9z"/>
		</g>
		<g>
			<path style="fill:#DCE5B2;" d="M89.3,141.4c-0.1,0-0.2,0-0.3,0c0.1,0.2,0.1,0.3,0.1,0.4C89.2,141.7,89.2,141.5,89.3,141.4
				C89.3,141.4,89.3,141.4,89.3,141.4z"/>
		</g>
		<g>
			<path style="fill:#DCE5B2;" d="M84,138.1L84,138.1L84,138.1z"/>
		</g>
		<g>
			<path style="fill:#DCE5B2;" d="M83.6,137c0.1,0,0.2,0,0.3,0.1c0,0,0,0,0.1,0c0,0,0,0,0.1,0c0,0,0,0,0.1,0c0,0,0,0,0.1,0
				c0,0,0,0,0.1,0c0.2,0,0.3,0.1,0.5,0.2l0,0c0.1-0.1,0.2-0.1,0.3,0c0,0,0,0.1,0,0.2c0.3,0.1,0.7,0.3,1,0.5c0.1-0.3,0.3-0.7,0.6-1
				c0.2-0.2,0.4-0.4,0.6-0.6c0,0,0,0,0.1,0c0,0,0,0,0.1,0c0.5-0.4,1.2-0.7,1.9-0.9c0,0,0,0,0.1,0h0.1h0.1c0.2,0,0.3-0.1,0.5-0.1
				c0.1-0.6,0-1.3-0.3-1.7c-0.1-0.1-0.2-0.3-0.4-0.4c0,0,0,0-0.1,0c0,0,0,0-0.1,0c-0.3-0.2-0.8-0.3-1.3-0.3c-0.8,0-1.8,0.3-2.6,0.9
				l-0.1,0.1c0,0,0,0-0.1,0c0,0,0,0-0.1,0C83.9,134.8,83.4,136,83.6,137z M84.4,136.5C84.4,136.6,84.4,136.6,84.4,136.5
				C84.3,136.6,84.3,136.6,84.4,136.5c-0.1,0.1-0.1,0.1-0.2,0.1l0,0c0,0-0.1,0-0.1-0.1l0,0v-0.1c0-0.1,0-0.1,0.1-0.1l0,0
				c0.1-0.1,0.1-0.1,0.2,0c0,0,0,0,0.1,0l0,0v0.1l0,0C84.4,136.5,84.4,136.5,84.4,136.5z M84.5,135.9L84.5,135.9
				C84.5,135.9,84.5,136,84.5,135.9c-0.1,0.1-0.2,0.1-0.2,0.1h-0.1l0,0l0,0c0,0,0,0,0-0.1s0-0.1,0.1-0.2l0,0h0.1c0.1,0,0.1,0,0.2,0
				C84.6,135.8,84.5,135.8,84.5,135.9z M85,136.8c0,0-0.1,0.1-0.2,0.1s-0.1,0-0.1-0.1c-0.1-0.1,0-0.2,0.1-0.3s0.2-0.1,0.3,0
				C85.2,136.6,85.1,136.7,85,136.8z M85.3,136c0,0-0.1,0.1-0.2,0.1s-0.1,0-0.1-0.1c0,0,0-0.1,0-0.2l0.1-0.1c0.1-0.1,0.2-0.1,0.3,0
				C85.4,135.8,85.4,135.9,85.3,136z M85.9,137.6c0,0-0.1,0.1-0.2,0.1s-0.1,0-0.1-0.1c-0.1-0.1,0-0.2,0.1-0.3s0.2-0.1,0.3,0v0.1
				C86,137.5,85.9,137.6,85.9,137.6z M85.5,135.8c0-0.1,0-0.1,0.1-0.2c0.1-0.1,0.2-0.1,0.3,0v0.1c0,0.1,0,0.1-0.1,0.2
				c-0.1,0-0.1,0.1-0.2,0.1s-0.1,0-0.1-0.1C85.6,135.9,85.5,135.8,85.5,135.8z M85.9,136.9c0,0-0.1,0.1-0.2,0.1s-0.1,0-0.1-0.1
				c-0.1-0.1,0-0.2,0.1-0.3s0.2-0.1,0.3,0v0.1C86,136.7,86,136.8,85.9,136.9z M86.6,136.1c0,0.1-0.1,0.2-0.2,0.2l0,0
				c0,0-0.1,0-0.1-0.1s0-0.1,0-0.2c0-0.1,0.1-0.2,0.2-0.2l0,0c0,0,0.1,0,0.1,0.1C86.7,136,86.7,136,86.6,136.1z M86.7,135.5
				C86.7,135.5,86.6,135.5,86.7,135.5c-0.1,0-0.1,0.1-0.1,0.1l0,0c-0.1,0-0.1,0-0.1-0.1v-0.1c0,0,0,0,0-0.1c0,0,0,0,0.1-0.1
				c-0.1,0-0.1,0-0.1-0.1V135c0-0.1,0-0.1,0.1-0.2c0.1-0.1,0.2-0.1,0.3,0c0.1,0.1,0,0.2-0.1,0.3c0.1,0,0.1,0,0.1,0.1
				C86.8,135.3,86.8,135.4,86.7,135.5z M86.8,134.7c-0.1-0.1,0-0.2,0.1-0.3s0.2-0.1,0.3,0v0.1c0,0.1,0,0.1-0.1,0.2
				c0,0-0.1,0.1-0.2,0.1C86.9,134.8,86.9,134.8,86.8,134.7z M87.3,136.3L87.3,136.3C87.2,136.3,87.2,136.3,87.3,136.3L87.3,136.3
				L87.3,136.3h-0.2v-0.1l0,0c0,0,0,0,0-0.1c0,0,0,0,0-0.1l0,0c0.1-0.1,0.2-0.1,0.3,0C87.4,136.1,87.4,136.2,87.3,136.3z
				 M87.9,134.7c0,0.1-0.1,0.2-0.2,0.2l0,0c0,0-0.1,0-0.1-0.1s0-0.1,0-0.2c0-0.1,0.1-0.2,0.2-0.2l0,0c0,0,0.1,0,0.1,0.1
				S87.9,134.6,87.9,134.7z M88.4,135.6c-0.1,0-0.1,0.1-0.2,0.1s-0.1,0-0.1-0.1c-0.1-0.1,0-0.2,0.1-0.3s0.2-0.1,0.3,0
				C88.5,135.4,88.5,135.5,88.4,135.6z M88.6,134.4L88.6,134.4C88.6,134.3,88.6,134.4,88.6,134.4c0.1-0.1,0.3-0.1,0.3,0v0.1
				c0,0.1,0,0.1-0.1,0.2l0,0c0,0,0,0-0.1,0c0,0,0,0-0.1,0l0,0c-0.1,0-0.1,0-0.1-0.1L88.6,134.4C88.5,134.5,88.5,134.5,88.6,134.4
				L88.6,134.4z M88.2,133.3c0.1-0.1,0.2-0.1,0.3,0c0.1,0.1,0,0.2-0.1,0.3c0,0-0.1,0.1-0.2,0.1s-0.1,0-0.1-0.1
				C88.1,133.5,88.1,133.4,88.2,133.3z M88,133.9c0.1-0.1,0.2-0.1,0.3,0v0.1c0,0.1,0,0.1-0.1,0.2c0,0-0.1,0.1-0.2,0.1
				s-0.1,0-0.1-0.1C87.8,134.1,87.9,134,88,133.9z M87.5,134.1c0-0.1,0.1-0.2,0.2-0.2l0,0c0,0,0.1,0,0.1,0.1s0,0.1,0,0.2
				c0,0.1-0.1,0.2-0.2,0.2l0,0c0,0-0.1,0-0.1-0.1C87.4,134.2,87.4,134.2,87.5,134.1z M87.6,135.2c0.1,0.1,0,0.2-0.1,0.3
				c-0.1,0-0.1,0.1-0.2,0.1s-0.1,0-0.1-0.1c-0.1-0.1,0-0.2,0.1-0.3C87.4,135.1,87.5,135.1,87.6,135.2z M87,133.2c0,0,0-0.1,0.1-0.1
				c0.1-0.1,0.2-0.1,0.3,0c0.1,0.1,0,0.2-0.1,0.3c-0.1,0-0.1,0.1-0.2,0.1s-0.1,0-0.1-0.1C87,133.3,87,133.3,87,133.2z M86.7,134
				c0-0.1,0.1-0.2,0.2-0.2l0,0c0,0,0.1,0,0.1,0.1s0,0.1,0,0.2c0,0.1-0.1,0.2-0.2,0.2l0,0c0,0-0.1,0-0.1-0.1
				C86.6,134.1,86.6,134,86.7,134z M86.2,133.3c0-0.1,0.1-0.2,0.2-0.2c0,0,0.1,0,0.1,0.1c0,0,0,0.1,0,0.2c0,0.1-0.1,0.2-0.2,0.2l0,0
				c0,0-0.1,0-0.1-0.1S86.2,133.4,86.2,133.3z M86.2,134c0-0.1,0.1-0.2,0.2-0.2l0,0c0,0,0.1,0,0.1,0.1s0,0.1,0,0.2
				c0,0.1-0.1,0.2-0.2,0.2l0,0c0,0-0.1,0-0.1-0.1C86.2,134.1,86.2,134,86.2,134z M86.1,134.2c0,0,0.1,0,0.1,0.1c0,0,0,0.1,0,0.2
				c0,0.1-0.1,0.2-0.2,0.2l0,0c0,0-0.1,0-0.1-0.1s0-0.1,0-0.2S86,134.2,86.1,134.2z M85.5,133.7c0-0.1,0.1-0.2,0.2-0.2
				c0,0,0.1,0,0.1,0.1c0,0,0,0.1,0,0.2c0,0.1-0.1,0.2-0.2,0.2l0,0c0,0-0.1,0-0.1-0.1C85.5,133.8,85.5,133.8,85.5,133.7z M85.4,135.1
				C85.5,135.1,85.5,135.1,85.4,135.1C85.5,135.1,85.5,135.1,85.4,135.1c0.1,0.1,0.1,0.1,0.1,0.2c0,0.1,0,0.1-0.1,0.2
				c0,0-0.1,0.1-0.2,0.1s-0.1,0-0.1-0.1c0,0,0,0,0-0.1v-0.1c0,0,0-0.1,0.1-0.1C85.3,135.1,85.4,135.1,85.4,135.1z M85,134.2
				c0.1-0.1,0.1-0.1,0.2,0h0.1c0,0,0,0,0,0.1l0,0c0,0.1,0,0.1-0.1,0.2c-0.1,0-0.1,0.1-0.2,0.1s-0.1,0-0.1-0.1v-0.1
				C84.9,134.3,85,134.2,85,134.2z M84.8,134.9C84.8,134.9,84.9,134.9,84.8,134.9c0.1,0,0.1,0,0.1,0.1l0,0v0.1c0,0.1,0,0.1-0.1,0.2
				c0,0-0.1,0.1-0.2,0.1h-0.1l0,0l0,0c0,0,0,0,0-0.1l0,0c0-0.1,0-0.1,0.1-0.2C84.7,134.9,84.8,134.9,84.8,134.9z"/>
		</g>
		<g>
			<path style="fill:#DCE5B2;" d="M83.9,137.8L83.9,137.8L83.9,137.8L83.9,137.8z"/>
		</g>
		<g>
			<path style="fill:#DCE5B2;" d="M91.6,138.5L91.6,138.5c0.3-0.2,0.7-0.6,1.1-1c0,0,0,0,0.1-0.1c0,0,0,0,0.1-0.1
				c0.2-0.2,0.5-0.5,0.8-0.7c-0.5-0.8-1.6-1.3-3-1.3c-0.2,0-0.5,0-0.7,0c0,0,0,0-0.1,0h-0.1c-0.1,0-0.2,0-0.3,0.1h-0.1h-0.1h-0.1
				c-0.5,0.1-0.9,0.3-1.3,0.5l0,0l0,0c-0.2,0.1-0.4,0.2-0.6,0.4c0,0,0,0-0.1,0c0,0,0,0-0.1,0c-0.2,0.2-0.4,0.4-0.6,0.6
				c-0.3,0.3-0.4,0.6-0.6,0.9c0,0,0.1,0,0.1,0.1c0.1,0.1,0.3,0.2,0.4,0.3c0,0,0,0,0.1,0l0,0l0,0l0,0c0,0,0,0,0.1,0.1l0.1,0.1
				c0,0,0,0,0.1,0c0,0,0,0,0.1,0c0.4,0.3,0.7,0.6,0.9,0.9c0,0,0.1,0,0.1-0.1c0.1,0,0.3,0,0.3,0.1v0.1c0,0.1-0.1,0.1-0.2,0.1
				c0.3,0.5,0.6,0.9,0.7,1.3c0.1,0,0.2,0,0.3,0c0.1,0,0.1,0,0.2,0c0.2-0.2,0.3-0.5,0.5-0.7c0,0,0,0,0-0.1c0,0,0,0,0-0.1
				c0.3-0.4,0.6-0.7,0.8-1l0,0l0.1-0.1c0.2-0.2,0.3-0.3,0.4-0.5l0,0C91.4,138.7,91.5,138.6,91.6,138.5z M88.6,136.1
				c0-0.1,0.1-0.1,0.2-0.1s0.3,0,0.3,0.1v0.1c0,0.1-0.1,0.1-0.2,0.1h-0.1c-0.1,0-0.2-0.1-0.2-0.1C88.6,136.2,88.6,136.1,88.6,136.1z
				 M88.6,137.1c0.1,0,0.2,0,0.2,0s0,0,0.1,0c0,0,0,0,0,0.1l0,0v0.1c0,0.1-0.1,0.1-0.2,0.1l0,0l0,0l0,0h-0.1l-0.1-0.1
				C88.4,137.2,88.5,137.1,88.6,137.1z M87.2,138C87.2,138,87.2,138.1,87.2,138L87.2,138c0,0.1-0.1,0.2-0.2,0.2l0,0c0,0,0,0-0.1,0
				l0,0h-0.1l-0.1-0.1V138c0-0.1,0.1-0.1,0.2-0.1C87,137.8,87.1,137.8,87.2,138C87.2,137.9,87.2,137.9,87.2,138L87.2,138z
				 M87.3,137.6c-0.1,0-0.2-0.1-0.2-0.1v-0.1c0-0.1,0.1-0.1,0.2-0.1s0.3,0,0.3,0.1C87.6,137.5,87.5,137.6,87.3,137.6L87.3,137.6z
				 M87.7,138.7C87.6,138.7,87.6,138.7,87.7,138.7c-0.2,0-0.3,0-0.3-0.1v-0.1l0,0c0-0.1,0.1-0.1,0.2-0.1c0,0,0,0,0.1,0
				s0.2,0,0.2,0.1C87.9,138.6,87.8,138.7,87.7,138.7z M87.9,136.8c0-0.1,0.1-0.1,0.2-0.1h0.1c0.1,0,0.2,0.1,0.2,0.1v0.1
				c0,0.1-0.1,0.1-0.2,0.1h-0.1c-0.1,0-0.2-0.1-0.2-0.1C87.9,136.9,87.9,136.8,87.9,136.8z M88.1,138L88.1,138
				C88,138,88,138,88.1,138L88.1,138L88.1,138L88.1,138L88.1,138c-0.1-0.1,0-0.2,0.1-0.2l0,0h0.1l0,0c0,0,0,0,0.1,0l0,0
				c0,0,0,0,0.1,0c0,0,0,0,0,0.1l0,0v0.1c0,0,0,0,0,0.1C88.3,138,88.3,138,88.1,138C88.2,138,88.2,138,88.1,138z M88.7,139.1
				c0,0.1-0.1,0.1-0.2,0.1h-0.1c-0.1,0-0.2,0-0.2-0.1s0.1-0.2,0.2-0.2S88.7,138.9,88.7,139.1C88.8,139,88.7,139,88.7,139.1z
				 M89.1,138c0,0.1-0.1,0.1-0.2,0.1h-0.1c-0.1,0-0.2-0.1-0.2-0.1v-0.1c0-0.1,0.1-0.1,0.2-0.1s0.3,0,0.3,0.1
				C89.1,138,89.1,138,89.1,138z M92.6,136.5c0.1,0,0.3,0,0.3,0.1s-0.1,0.2-0.2,0.2h-0.1c-0.1,0-0.2-0.1-0.2-0.1
				C92.4,136.6,92.5,136.5,92.6,136.5z M91.9,137.2C91.9,137.1,91.9,137.1,91.9,137.2C91.9,137.1,91.9,137.1,91.9,137.2
				c0.1-0.1,0.1-0.1,0.1-0.1s0,0,0.1,0s0.3,0,0.3,0.1c0,0,0,0,0,0.1c0,0,0,0,0,0.1c0,0,0,0,0,0.1l-0.1,0.1h-0.1
				c-0.1,0-0.2-0.1-0.2-0.1C91.8,137.2,91.8,137.2,91.9,137.2z M91.8,137.1L91.8,137.1c0,0.1,0,0.1-0.1,0.2
				c-0.1,0.1-0.1,0.1-0.2,0.1h-0.1l-0.1-0.1c0-0.1,0-0.1,0.1-0.2l0,0c0,0,0,0,0.1,0h0.1H91.8C91.8,136.9,91.8,136.9,91.8,137.1
				C91.8,137,91.8,137,91.8,137.1C91.8,137,91.8,137,91.8,137.1z M91.3,135.9c0-0.1,0.1-0.1,0.2-0.1s0.3,0,0.3,0.1s-0.1,0.2-0.2,0.2
				h-0.1C91.4,136.1,91.3,136.1,91.3,135.9C91.3,136,91.3,135.9,91.3,135.9z M91,136.5L91,136.5c0,0.1,0,0.1,0,0.1s0,0,0,0.1l0,0
				c-0.1,0.1-0.1,0.1-0.2,0.1h-0.1l-0.1-0.1c0-0.1,0-0.1,0.1-0.2l0,0l0,0c0,0,0,0,0.1,0S91,136.5,91,136.5
				C91,136.4,91,136.5,91,136.5z M90.5,135.6c0.1-0.1,0.2-0.1,0.3-0.1l0.1,0.1c0,0.1,0,0.1-0.1,0.2c-0.1,0.1-0.1,0.1-0.2,0.1h-0.1
				l-0.1-0.1C90.4,135.7,90.4,135.6,90.5,135.6z M90.1,136.3C90.2,136.2,90.2,136.2,90.1,136.3c0.1-0.1,0.1-0.1,0.2-0.1s0.1,0,0.2,0
				l0,0l0.1,0.1l0,0v0.1c0,0,0,0.1-0.1,0.1c-0.1,0.1-0.1,0.1-0.2,0.1h-0.1l-0.1-0.1C90.1,136.4,90.1,136.3,90.1,136.3z M90,136.6
				c0,0.1,0,0.1-0.1,0.2c-0.1,0.1-0.1,0.1-0.2,0.1h-0.1l-0.1-0.1c0-0.1,0-0.1,0.1-0.2c0.1-0.1,0.2-0.1,0.3-0.1
				C89.9,136.5,89.9,136.6,90,136.6z M89.5,135.7L89.5,135.7C89.6,135.7,89.6,135.6,89.5,135.7c0.1-0.1,0.1-0.1,0.2-0.1h0.1
				c0,0,0,0,0.1,0l0,0c0,0,0,0,0,0.1l0,0c0,0,0,0,0,0.1c0,0,0,0,0,0.1c0,0,0,0,0,0.1l0,0l0,0h-0.1c0,0,0,0-0.1,0l0,0h-0.1l-0.1-0.1
				C89.4,135.8,89.5,135.7,89.5,135.7z M89.5,138.8L89.5,138.8l-0.2-0.1c0-0.1,0-0.1,0.1-0.2c0.1-0.1,0.2-0.1,0.3-0.1l0.1,0.1
				c0,0.1,0,0.1-0.1,0.2C89.6,138.8,89.5,138.8,89.5,138.8z M90,139.9l-0.1,0.1l0,0l0,0c0,0,0,0-0.1,0l0,0c-0.1,0-0.2-0.1-0.2-0.1
				c0-0.1,0-0.1,0-0.1s0,0,0.1,0c0,0,0,0,0.1,0l0,0c0.1,0,0.3,0,0.3,0.1C90,139.8,90,139.8,90,139.9z M89.9,138.1
				c-0.1,0-0.2,0-0.2-0.1s0.1-0.2,0.2-0.2l0,0c-0.1,0-0.1-0.1-0.2-0.1v-0.1c0-0.1,0.1-0.1,0.2-0.1s0.3,0,0.3,0.1s-0.1,0.2-0.2,0.2
				l0,0c0.1,0,0.1,0.1,0.2,0.1C90.2,137.9,90.1,138,89.9,138.1C90,138.1,89.9,138.1,89.9,138.1z M90.3,139.2
				C90.3,139.2,90.2,139.2,90.3,139.2c-0.2,0-0.3,0-0.3-0.1V139c0-0.1,0.1-0.1,0.2-0.1s0.3,0,0.3,0.1
				C90.5,139,90.4,139.1,90.3,139.2z M90.7,137.1c0.1,0,0.3,0,0.3,0.1v0.1c0,0.1-0.1,0.1-0.2,0.1h-0.1c-0.1,0-0.2,0-0.2-0.1
				C90.5,137.2,90.5,137.1,90.7,137.1z M90.8,138.4C90.8,138.5,90.8,138.5,90.8,138.4c-0.2,0-0.3,0-0.3-0.1v-0.1
				c0-0.1,0.1-0.1,0.2-0.1s0.3,0,0.3,0.1C91.1,138.3,91,138.4,90.8,138.4z M91.4,137.9L91.4,137.9l-0.2-0.1c0-0.1,0-0.1,0.1-0.2
				c0.1-0.1,0.2-0.1,0.3-0.1l0.1,0.1c0,0.1,0,0.1-0.1,0.2C91.5,137.8,91.5,137.9,91.4,137.9z"/>
		</g>
		<g>
			<path style="fill:#DCE5B2;" d="M102.6,134.4c-0.6-0.8-1.6-1.3-2.8-1.3c-0.2,0-0.4,0-0.7,0c-0.7,0.1-1.5,0.5-2.4,1.1
				c0,0,0,0-0.1,0c0,0,0,0-0.1,0c-0.3,0.2-0.5,0.4-0.8,0.6c0,0,0,0-0.1,0l-0.1,0.1c0,0,0,0-0.1,0c-0.2,0.1-0.3,0.2-0.5,0.4
				c0,0,0,0-0.1,0c0,0,0,0-0.1,0c0,0-0.1,0-0.1,0.1c0,0,0,0-0.1,0c0,0,0,0-0.1,0c-0.4,0.3-0.8,0.7-1.1,1l0,0c0,0,0,0-0.1,0.1
				c-0.2,0.2-0.5,0.5-0.7,0.7c0,0,0,0-0.1,0.1c0,0,0,0-0.1,0.1s-0.1,0.1-0.2,0.2c0,0,0,0-0.1,0.1s-0.1,0.1-0.2,0.2c0,0,0,0-0.1,0
				c-0.2,0.2-0.4,0.4-0.5,0.5c0,0,0,0-0.1,0.1l0,0c0,0,0,0-0.1,0.1l-0.1,0.1l-0.1,0.1l0,0c-0.1,0.1-0.2,0.2-0.3,0.4c0,0,0,0-0.1,0.1
				c0,0,0,0-0.1,0.1l-0.1,0.1l0,0c0,0,0,0-0.1,0.1c-0.3,0.3-0.5,0.6-0.8,1c0,0,0,0,0,0.1c0,0,0,0-0.1,0.1c-0.1,0.2-0.3,0.4-0.4,0.6
				c0,0,0,0.1-0.1,0.1c0,0,0,0,0,0.1c-0.1,0.2-0.2,0.4-0.3,0.6c0.1,0.3,0.1,0.5,0.1,0.7c0,0.4,0,0.9,0,1.3l0,0l0,0l0,0l0,0l0,0
				c0,0,0,0,0,0.1c0.2,0.2,0.4,0.3,0.7,0.4c0.5,0.2,1.1,0.2,1.9,0.2l0,0c2.8,0,6.9-1.1,7.6-1.8c0.2-0.3,0.6-0.8,0.9-1.5
				c0-0.1,0.1-0.1,0.1-0.2c0.9-1.7,2-4.1,2.4-5C103.1,135.6,103,135,102.6,134.4z M95.5,142.1L95.5,142.1
				C95.4,142.1,95.4,142.1,95.5,142.1c-0.1,0-1.1-1.4-2.2-1.9c-0.1-0.1-0.2-0.1-0.4-0.1c0,0,0,0-0.1,0h-0.1
				c-0.5-0.1-0.9-0.2-1.2-0.2c-0.2,0-0.3,0-0.3,0h-0.1v-0.1c0.1-0.1,0.5-0.3,1-0.3c0.3,0,0.6,0.1,0.9,0.2h0.1c0,0,0,0,0.1,0h0.1
				c0.9,0.3,1.6,1.1,2,2.3C95.5,142,95.5,142,95.5,142.1C95.5,142,95.5,142.1,95.5,142.1z M98,139.7C98,139.7,97.9,139.7,98,139.7
				C97.9,139.7,97.9,139.7,98,139.7c-0.1-0.1-0.9-1.5-1.9-2.1l0,0c0,0,0,0-0.1,0c0,0,0,0-0.1,0c-0.9-0.5-1.6-0.5-1.8-0.5l0,0l0,0H94
				V137l0,0c0.2-0.1,0.5-0.2,0.8-0.2c0.4,0,0.9,0.1,1.4,0.4c0,0,0.1,0,0.1,0.1c0,0,0,0,0.1,0c0,0,0,0,0.1,0c0.5,0.3,1.2,1,1.5,2.3
				C98,139.6,98,139.6,98,139.7C98,139.6,98,139.7,98,139.7z M100.7,137.3L100.7,137.3C100.7,137.3,100.6,137.3,100.7,137.3
				c-0.1,0-1.1-1.4-2.2-1.9c-0.6-0.2-1-0.3-1.4-0.3c0,0,0,0-0.1,0c0,0,0,0-0.1,0h-0.1c-0.2,0-0.3,0-0.3,0h-0.1V135
				c0.1-0.1,0.2-0.2,0.4-0.2c0,0,0,0,0.1,0c0,0,0,0,0.1,0s0.3-0.1,0.5-0.1c0.4,0,0.7,0.1,1.2,0.2c0.9,0.3,1.6,1.1,2,2.3
				C100.7,137.2,100.7,137.2,100.7,137.3C100.8,137.3,100.7,137.3,100.7,137.3z"/>
		</g>
		<g>
			<path style="fill:#DCE5B2;" d="M89.1,142.3v-0.1v-0.1c-0.1-0.2-0.1-0.4-0.2-0.6c0,0,0,0,0-0.1v-0.1c-0.2-0.4-0.4-0.9-0.8-1.3
				c0-0.1-0.1-0.1-0.1-0.2c-0.3-0.3-0.6-0.6-0.9-0.9c0,0,0,0-0.1,0l0,0c-0.1-0.1-0.1-0.1-0.2-0.2l0,0c0,0,0,0-0.1,0l0,0
				c0,0,0,0-0.1,0l0,0c-0.1-0.1-0.3-0.2-0.4-0.3h-0.1c0,0,0,0-0.1,0c0,0,0,0-0.1,0c-0.3-0.2-0.6-0.4-1-0.5h-0.1
				c-0.1,0-0.1,0-0.2-0.1c0,0,0,0-0.1,0c-0.1-0.1-0.3-0.1-0.4-0.1c0,0,0,0-0.1,0c0,0,0,0-0.1,0l0,0c0,0,0,0-0.1,0c0,0,0,0-0.1,0
				s-0.2,0-0.2-0.1h-0.1c0,0,0,0-0.1,0c-0.4-0.1-0.8-0.1-1.1-0.1c-0.8,0-1.5,0.3-2,0.6c0,0,0,0-0.1,0c-1.4,1.1-1.6,2.8-1.1,3.8
				c0.1,0.2,0.3,0.4,0.6,0.7c0,0,0,0,0.1,0c0.5,0.4,1.1,0.8,1.9,1.3c1.1,0.5,2.9,0.9,4.1,1.1c0,0,0.3,0,0.6,0c0.5,0,1.4-0.1,2.1-0.3
				c0.1,0,0.1,0,0.2-0.1c0.1,0,0.1-0.1,0.2-0.1c0,0,0,0,0.1,0c0,0,0,0,0.1,0c0,0,0,0,0.1,0l0,0c0-0.4,0.1-0.8,0-1.2
				C89.2,142.6,89.2,142.5,89.1,142.3z M86.9,143.5L86.9,143.5c-0.2,0-0.2-0.1-0.3-0.1c-0.1-0.1-1.4-2-3.1-2.7
				c-0.5-0.2-1-0.4-1.4-0.5H82h-0.1c-0.6-0.1-1-0.2-1.2-0.2s-0.2,0-0.2-0.1v-0.1h0.1c0.1,0,0.5-0.1,1-0.1l0,0h0.1h0.1
				c0.7,0,1.3,0.2,2,0.5C85.6,140.8,87,143.3,86.9,143.5L86.9,143.5z M87.5,142.3L87.5,142.3c-0.2,0-0.2-0.1-0.3-0.1
				c0,0-0.4-0.6-1-1.2c0,0,0,0-0.1-0.1l0,0c0,0,0,0-0.1-0.1c-0.5-0.5-1.2-1.1-2-1.4c-1.3-0.5-2.4-0.7-2.8-0.8h-0.1H81
				c0,0-0.1,0-0.1-0.1l0,0l0,0l0,0l0,0c0.1,0,0.5-0.1,1-0.1c0.7,0,1.5,0.2,2.2,0.5s1.3,0.8,1.8,1.3c0,0,0,0,0.1,0.1l0.1,0.1
				c0,0,0,0,0.1,0.1C87,141.3,87.5,142.2,87.5,142.3L87.5,142.3z M88.3,141.4L88.3,141.4c-0.2,0-0.2-0.1-0.3-0.1c0,0,0,0,0-0.1
				c0,0,0-0.1-0.1-0.1l-0.1-0.1c-0.2-0.3-0.7-0.8-1.3-1.4c0,0,0,0-0.1,0c0,0,0,0-0.1,0l-0.1-0.1c0,0,0,0-0.1,0c0,0,0,0-0.1,0
				s-0.1-0.1-0.2-0.1c0,0-0.1,0-0.1-0.1c0,0-0.1,0-0.1-0.1c-0.3-0.2-0.6-0.4-0.9-0.5h-0.1c-0.1-0.1-0.3-0.1-0.4-0.2
				c-0.1-0.1-0.3-0.1-0.4-0.1c0,0,0,0-0.1,0l0,0c0,0,0,0-0.1,0c-0.8-0.3-1.5-0.4-1.8-0.4c-0.2,0-0.2,0-0.2-0.1v-0.1h0.1
				c0.1,0,0.5-0.1,1-0.1c0.2,0,0.5,0,0.8,0.1h0.1h0.1c0,0,0,0,0.1,0c0,0,0,0,0.1,0H84c0,0,0,0,0.1,0c0.3,0.1,0.7,0.2,1,0.3
				s0.5,0.3,0.7,0.4c0,0,0,0,0.1,0c0,0,0,0,0.1,0c0,0,0.1,0,0.1,0.1c0,0,0,0,0.1,0.1c0,0,0.1,0,0.1,0.1c0.1,0,0.1,0.1,0.2,0.1
				c0,0,0,0,0.1,0c0,0,0,0,0.1,0.1s0.1,0.1,0.2,0.2l0,0c0,0,0,0,0,0.1l0.1,0.1c0,0,0,0,0.1,0.1c0,0,0,0.1,0.1,0.1c0,0,0,0.1,0.1,0.1
				C87.9,140.3,88.3,141,88.3,141.4L88.3,141.4l0.1,0.1C88.3,141.3,88.3,141.4,88.3,141.4L88.3,141.4z"/>
		</g>
		<g>
			<path style="fill:#DCE5B2;" d="M90,145.1c-0.3,0-0.7,0-1,0c0.2,0.4,0.4,0.9,0.7,1.3c0.1,0.1,0.2,0.2,0.3,0.3l0,0
				c0.6,0,1.2,0,1.8-0.1l0,0c-0.4-0.5-0.7-1.1-0.8-1.5C90.6,145.1,90.3,145.1,90,145.1z"/>
		</g>
		<g>
			<path style="fill:#DCE5B2;" d="M84.2,144.6c0.2,0.4,0.4,0.8,0.8,1.2c0.2,0.2,0.4,0.4,0.6,0.6c0.6,0.1,1.1,0.1,1.7,0.2
				c-0.1-0.1-0.2-0.2-0.2-0.2c-0.4-0.5-0.6-1-0.8-1.4C85.6,144.8,84.9,144.7,84.2,144.6z"/>
		</g>
		<g>
			<path style="fill:#DCE5B2;" d="M79.6,142.7c0.1,0.4,0.3,0.8,0.6,1.1c0.4,0.6,1.1,1.2,1.4,1.5c0.4,0.1,0.7,0.3,1.2,0.4
				c-0.1-0.1-0.3-0.2-0.4-0.4c-0.5-0.5-0.8-1.1-0.9-1.6C80.6,143.5,80,143.1,79.6,142.7z"/>
		</g>
		<g>
			<path style="fill:#DCE5B2;" d="M99.5,143.3c-0.4,0.2-0.9,0.4-1.4,0.6c0.3,0.3,0.5,0.6,0.8,0.7c0.1,0.1,0.3,0.2,0.4,0.3
				c0.5-0.3,1-0.5,1.4-0.8C100.2,143.9,99.8,143.6,99.5,143.3z"/>
		</g>
		<g>
			<path style="fill:#DCE5B2;" d="M100.8,142.2c-0.2,0.3-0.5,0.6-1,0.9c0.4,0.3,0.8,0.6,1.2,0.7l0,0c0.4-0.4,0.7-0.7,0.8-1.1
				c-0.1,0-0.2-0.1-0.2-0.1C101.3,142.5,101.1,142.4,100.8,142.2z"/>
		</g>
		<g>
			<path style="fill:#DCE5B2;" d="M91.3,145.1c0.1,0.4,0.4,0.9,0.7,1.3c0.1,0.1,0.1,0.2,0.2,0.2c0.7-0.1,1.5-0.1,2.2-0.2
				c-0.1-0.1-0.2-0.2-0.3-0.4c-0.2-0.3-0.5-0.6-0.7-1C92.8,145,92.1,145,91.3,145.1z"/>
		</g>
		<g>
			<path style="fill:#DCE5B2;" d="M81.9,143.9c0.2,0.4,0.4,0.8,0.7,1.2c0.2,0.3,0.5,0.5,0.9,0.8c0.5,0.1,1,0.2,1.5,0.3
				c-0.1-0.1-0.2-0.2-0.2-0.2c-0.5-0.5-0.8-1.1-0.9-1.5C83.1,144.3,82.4,144.2,81.9,143.9z"/>
		</g>
		<g>
			<path style="fill:#DCE5B2;" d="M88.6,145.1c-0.6,0-1.3-0.1-1.9-0.1c0.2,0.5,0.4,0.8,0.7,1.1c0.1,0.2,0.3,0.3,0.5,0.5
				c0.5,0,1.1,0.1,1.6,0.1l-0.1-0.1C89,146.1,88.7,145.5,88.6,145.1z"/>
		</g>
		<g>
			<path style="fill:#DCE5B2;" d="M80.6,145c-0.3-0.3-0.6-0.6-0.8-0.9c-0.6-0.9-0.9-2.5-0.9-2.6c0,0-0.2,0-0.3,0
				c-0.2,0.2-0.5,0.4-0.5,1C78.2,143.5,79.1,144.2,80.6,145z"/>
		</g>
		<g>
			<path style="fill:#DCE5B2;" d="M100.9,141.1c0,0.1,0.1,0.3,0.1,0.4c0,0.1,0,0.2-0.1,0.4c0.3,0.2,0.5,0.3,0.8,0.4
				c0.1,0,0.1,0.1,0.2,0.1c0-0.1,0-0.2,0-0.3c0-0.3,0-1.2-0.5-1.6C101.3,140.6,101,141.1,100.9,141.1z"/>
		</g>
		<g>
			<path style="fill:#DCE5B2;" d="M96,144.5c0.3,0.4,0.5,0.6,0.8,0.9c0.1,0.1,0.3,0.2,0.5,0.3c0.6-0.2,1.2-0.4,1.7-0.6
				c-0.1,0-0.2-0.1-0.2-0.1c-0.3-0.2-0.7-0.5-1-0.9C97.2,144.2,96.6,144.4,96,144.5z"/>
		</g>
		<g>
			<path style="fill:#DCE5B2;" d="M93.8,144.9c0.2,0.3,0.3,0.6,0.5,0.9c0.1,0.2,0.3,0.3,0.5,0.5c0.7-0.1,1.3-0.3,1.9-0.4
				c-0.1-0.1-0.2-0.1-0.2-0.2c-0.3-0.3-0.6-0.6-0.9-1.1C95,144.7,94.4,144.8,93.8,144.9z"/>
		</g>
		<g>
			<path style="fill:#DCE5B2;" d="M96.7,149.5c-1.1,0.3-2.3,0.6-3.5,0.7c0,0.5-0.1,0.9-0.1,1.4c1.2-0.1,2.4-0.4,3.5-0.7
				C96.6,150.4,96.6,150,96.7,149.5z"/>
		</g>
		<g>
			<path style="fill:#DCE5B2;" d="M96.5,151.3c-1.1,0.3-2.3,0.5-3.5,0.7c0,0.4-0.1,0.8-0.1,1.2c1.2-0.1,2.4-0.3,3.4-0.6
				C96.4,152.2,96.4,151.8,96.5,151.3z"/>
		</g>
		<g>
			<path style="fill:#DCE5B2;" d="M87.8,151.6c0-0.5-0.1-0.9-0.1-1.4c-1.2-0.1-2.4-0.3-3.5-0.5c0,0.5,0.1,1,0.1,1.4
				C85.4,151.3,86.6,151.5,87.8,151.6z"/>
		</g>
		<g>
			<path style="fill:#DCE5B2;" d="M83.7,147.6c0-0.5-0.1-0.9-0.1-1.3c-1.1-0.3-2-0.6-2.9-1c0,0.4,0.1,0.8,0.1,1.2
				C81.7,147,82.6,147.3,83.7,147.6z"/>
		</g>
		<g>
			<path style="fill:#DCE5B2;" d="M88.2,151.6c1.5,0.1,3,0.1,4.5,0c0-0.5,0.1-0.9,0.1-1.4c-1.6,0.2-3.2,0.1-4.8,0
				C88.1,150.7,88.1,151.2,88.2,151.6z"/>
		</g>
		<g>
			<path style="fill:#DCE5B2;" d="M92.9,148.6c-1.7,0.2-3.4,0.2-5,0c0,0.4,0.1,0.8,0.1,1.2c1.5,0.1,3.2,0.1,4.8,0
				C92.9,149.4,92.9,149,92.9,148.6z"/>
		</g>
		<g>
			<path style="fill:#DCE5B2;" d="M84,147.7c1.1,0.3,2.3,0.5,3.5,0.6c0-0.5-0.1-1-0.1-1.4c-1.2-0.1-2.4-0.3-3.5-0.5
				C84,146.8,84,147.2,84,147.7z"/>
		</g>
		<g>
			<path style="fill:#DCE5B2;" d="M87.6,148.6c-1.2-0.1-2.4-0.3-3.5-0.6c0,0.4,0.1,0.8,0.1,1.2c1.1,0.3,2.3,0.4,3.5,0.6
				C87.6,149.4,87.6,149,87.6,148.6z"/>
		</g>
		<g>
			<path style="fill:#DCE5B2;" d="M88.2,152c0,0.5,0.1,0.9,0.1,1.2c1.4,0.1,2.8,0.1,4.2,0c0-0.3,0.1-0.7,0.1-1.2
				C91.2,152.1,89.6,152.1,88.2,152z"/>
		</g>
		<g>
			<path style="fill:#DCE5B2;" d="M88.4,153.5c0.1,0.5,0.1,0.8,0.2,1c0,0.1,0,0.1,0.1,0.2c0.8,0.1,1.5,0.1,2.1,0.1
				c0.5,0,1,0,1.5-0.1c0.1-0.2,0.1-0.7,0.2-1.3C91.1,153.6,89.7,153.6,88.4,153.5z"/>
		</g>
		<g>
			<path style="fill:#DCE5B2;" d="M88,153.2c0-0.3-0.1-0.7-0.1-1.2c-1.2-0.1-2.4-0.3-3.5-0.5c0.1,0.6,0.1,1,0.2,1.2
				C85.6,152.9,86.8,153.1,88,153.2z"/>
		</g>
		<g>
			<path style="fill:#DCE5B2;" d="M96.3,152.9c-1.1,0.3-2.2,0.5-3.4,0.6c-0.1,0.6-0.1,1-0.2,1.3c1-0.1,2.1-0.3,3-0.5
				c0.2-0.3,0.4-0.7,0.5-1.1C96.2,153.1,96.2,153,96.3,152.9z"/>
		</g>
		<g>
			<path style="fill:#DCE5B2;" d="M96.6,152.8c0,0.2-0.1,0.4-0.1,0.5c-0.1,0.3-0.2,0.6-0.4,0.9c1.1-0.3,2-0.7,2.5-0.9
				c0.3-0.3,0.4-0.7,0.6-1.2c0-0.1,0-0.1,0.1-0.2C98.5,152.2,97.6,152.5,96.6,152.8z"/>
		</g>
		<g>
			<path style="fill:#DCE5B2;" d="M88,153.5c-1.2-0.1-2.3-0.2-3.3-0.5c0.2,0.4,0.4,0.8,0.6,1.2c1,0.2,2,0.4,2.9,0.5c0,0,0,0,0-0.1
				C88.2,154.5,88.1,154.1,88,153.5z"/>
		</g>
		<g>
			<path style="fill:#DCE5B2;" d="M96.9,146.2c-1.1,0.3-2.3,0.5-3.5,0.6c0,0.4-0.1,0.9-0.1,1.4c1.2-0.1,2.4-0.4,3.5-0.7
				C96.8,147,96.9,146.6,96.9,146.2z"/>
		</g>
		<g>
			<path style="fill:#DCE5B2;" d="M96.8,147.9c-1.1,0.3-2.3,0.6-3.5,0.7c0,0.4-0.1,0.8-0.1,1.2c1.2-0.1,2.4-0.4,3.5-0.7
				C96.7,148.7,96.8,148.3,96.8,147.9z"/>
		</g>
		<g>
			<path style="fill:#DCE5B2;" d="M84.3,153c-1-0.2-1.9-0.5-2.7-0.8c0.2,0.6,0.5,1,1,1.4c0.5,0.2,1.3,0.4,2.3,0.6
				C84.6,153.8,84.4,153.4,84.3,153L84.3,153z"/>
		</g>
		<g>
			<path style="fill:#DCE5B2;" d="M99.9,149.5c0.6-0.3,1-0.6,1.3-0.8c0-0.4,0.1-0.9,0.1-1.4c-0.3,0.2-0.7,0.5-1.2,0.8
				C100,148.6,100,149.1,99.9,149.5z"/>
		</g>
		<g>
			<path style="fill:#DCE5B2;" d="M79.7,151.2c0.4,0.9,1,1.6,1.8,1.9c0.1,0,0.2,0.1,0.3,0.1c-0.3-0.4-0.5-0.8-0.7-1.3
				C80.6,151.7,80.1,151.5,79.7,151.2z"/>
		</g>
		<g>
			<path style="fill:#DCE5B2;" d="M83.8,149.2c0-0.4-0.1-0.8-0.1-1.2c-1-0.3-2-0.6-2.9-1c0,0.4,0.1,0.8,0.1,1.2
				C81.8,148.6,82.8,148.9,83.8,149.2z"/>
		</g>
		<g>
			<path style="fill:#DCE5B2;" d="M80.6,148.4c-0.7-0.3-1.2-0.7-1.6-0.9c0.1,0.5,0.1,1,0.2,1.4c0.3,0.2,0.8,0.6,1.5,0.9
				C80.7,149.4,80.7,148.9,80.6,148.4z"/>
		</g>
		<g>
			<path style="fill:#DCE5B2;" d="M80.5,146.8c-0.8-0.4-1.3-0.7-1.6-1c0,0.4,0.1,0.8,0.1,1.2c0.3,0.2,0.8,0.6,1.6,1
				C80.6,147.6,80.5,147.2,80.5,146.8z"/>
		</g>
		<g>
			<path style="fill:#DCE5B2;" d="M99.6,152.1c-0.1,0.3-0.2,0.6-0.3,0.8c0.5-0.3,1.3-0.7,1.7-2c-0.4,0.2-0.8,0.5-1.3,0.7
				C99.6,151.8,99.6,152,99.6,152.1z"/>
		</g>
		<g>
			<path style="fill:#DCE5B2;" d="M100.3,144.8c0,0.4-0.1,0.8-0.1,1.3c0.6-0.4,1-0.7,1.2-0.8c0-0.5,0-1,0.1-1.4
				C101.2,144.2,100.8,144.5,100.3,144.8z"/>
		</g>
		<g>
			<path style="fill:#DCE5B2;" d="M100.1,147.7c0.6-0.3,1-0.6,1.2-0.8c0-0.4,0-0.8,0.1-1.2c-0.2,0.2-0.6,0.4-1.2,0.8
				C100.2,146.9,100.1,147.3,100.1,147.7z"/>
		</g>
		<g>
			<path style="fill:#DCE5B2;" d="M99.7,151.2c0.6-0.3,1-0.6,1.3-0.8c0-0.2,0.1-0.6,0.1-1.2c-0.3,0.2-0.7,0.5-1.3,0.8
				C99.8,150.4,99.8,150.8,99.7,151.2z"/>
		</g>
		<g>
			<path style="fill:#DCE5B2;" d="M80.8,150.2c-0.6-0.3-1.1-0.5-1.5-0.8c0.1,0.6,0.1,1,0.2,1.2v0.1l0,0c0.4,0.3,0.9,0.6,1.5,0.8
				C80.9,151.2,80.9,150.8,80.8,150.2z"/>
		</g>
		<g>
			<path style="fill:#DCE5B2;" d="M80.4,145.2c-0.7-0.4-1.3-0.8-1.7-1.2c0,0.4,0.1,0.9,0.1,1.3c0.2,0.2,0.8,0.6,1.7,1.1
				C80.4,146,80.4,145.6,80.4,145.2z"/>
		</g>
		<g>
			<path style="fill:#DCE5B2;" d="M99.5,150.1c-0.8,0.4-1.7,0.8-2.7,1c-0.1,0.5-0.1,0.9-0.2,1.2c0.9-0.3,1.8-0.6,2.7-1
				C99.4,151,99.5,150.6,99.5,150.1z"/>
		</g>
		<g>
			<path style="fill:#DCE5B2;" d="M99.7,148.3c-0.8,0.4-1.7,0.8-2.7,1.1c0,0.5-0.1,1-0.1,1.4c1-0.3,1.9-0.7,2.7-1.1
				C99.6,149.3,99.6,148.8,99.7,148.3z"/>
		</g>
		<g>
			<path style="fill:#DCE5B2;" d="M84,151c0-0.4-0.1-0.9-0.1-1.4c-1-0.3-2-0.6-2.9-1c0,0.5,0.1,1,0.1,1.4C82,150.4,83,150.7,84,151z
				"/>
		</g>
		<g>
			<path style="fill:#DCE5B2;" d="M84.2,152.6c-0.1-0.3-0.1-0.7-0.2-1.2c-1-0.3-2-0.6-2.8-0.9c0.1,0.6,0.1,1,0.2,1.3
				C82.2,152,83.2,152.3,84.2,152.6z"/>
		</g>
		<g>
			<path style="fill:#DCE5B2;" d="M87.9,148.3c1.6,0.1,3.4,0.1,5.1,0c0-0.5,0.1-1,0.1-1.4c-1.7,0.2-3.5,0.2-5.3,0.1
				C87.8,147.3,87.8,147.8,87.9,148.3z"/>
		</g>
		<g>
			<path style="fill:#DCE5B2;" d="M99.8,146.7c-0.8,0.4-1.7,0.8-2.7,1.1c0,0.4-0.1,0.8-0.1,1.2c1-0.3,1.9-0.7,2.7-1.1
				C99.8,147.5,99.8,147.1,99.8,146.7z"/>
		</g>
		<g>
			<path style="fill:#DCE5B2;" d="M99.9,145c-0.7,0.4-1.6,0.8-2.7,1.1c0,0.4-0.1,0.9-0.1,1.3c1-0.3,1.9-0.7,2.7-1.1
				C99.9,145.8,99.9,145.4,99.9,145z"/>
		</g>
		<g>
			<path style="fill:#DCE5B2;" d="M79.9,137.7c0.6-0.6,0.9-0.7,1.8-0.8c0.5-0.1,1.3,0,1.7,0.1c-0.2-1,0.4-2.3,1.5-3.2
				c-0.9-1-1.8-1.9-2.4-2.2c-0.7-0.4-1.5-0.7-2.3-0.7s-1.4,0.3-1.7,0.8c-0.5,0.7-0.3,1.9,0.2,3.5C79,135.9,79.9,137.7,79.9,137.7z
				 M83.1,132.6c0.2,0,0.5,0.1,0.7,0.3v0.1c0,0,0,0-0.1,0l0,0c0,0,0,0-0.1,0c-0.2,0-0.6,0.1-1,0.5c-0.6,0.6-0.9,2.2-0.9,2.3
				c0,0,0,0.1-0.1,0.1l0,0c0,0-0.1,0-0.1-0.1c0,0,0,0,0-0.1c0-1.4,0.3-2.3,0.8-2.8C82.6,132.8,82.9,132.6,83.1,132.6z M81,132.1
				c0.2-0.2,0.5-0.3,0.7-0.3c0.1,0,0.3,0,0.4,0.1c-0.2,0-0.6,0.1-1.1,0.6c-0.4,0.4-0.6,1.1-0.8,1.6C80.4,133.1,80.6,132.4,81,132.1z
				"/>
		</g>
	</g>
</g>
<text transform="matrix(1 0 0 1 72.4096 165.7452)" style="fill:#DCE5B2; font-family:'Handwriting-Dakota'; font-size:10;">Freshly</text>
<text transform="matrix(1 0 0 1 68.4096 180.5452)" style="fill:#DCE5B2; font-family:'GillSans-Light'; font-size:15;">BAKED</text>
<g>
	<path style="fill:#DCE5B2;" d="M294.6,91.1c0.3-0.3,0.9-0.7,1.8-1.2s1.6-0.7,2-0.8c-0.6,0-1.3,0.3-2.1,0.7
		C295.5,90.2,294.9,90.7,294.6,91.1z"/>
	<path style="fill:#DCE5B2;" d="M295.9,85.6c-0.4,0-0.9,0.2-1.5,0.5s-1,0.6-1.2,0.9c0.2-0.2,0.7-0.5,1.3-0.8
		C295.1,85.9,295.6,85.7,295.9,85.6z"/>
	<path style="fill:#DCE5B2;" d="M297.1,94.5c0.2-0.2,0.7-0.5,1.3-0.8c0.6-0.3,1.1-0.5,1.4-0.6c-0.4,0-0.9,0.2-1.5,0.5
		C297.7,93.9,297.3,94.2,297.1,94.5z"/>
	<path style="fill:#DCE5B2;" d="M297.4,87.2c-0.6,0-1.3,0.3-2.1,0.7c-0.8,0.4-1.4,0.9-1.7,1.3c0.3-0.3,0.9-0.7,1.8-1.2
		C296.3,87.6,297,87.3,297.4,87.2z"/>
	<path style="fill:#DCE5B2;" d="M299.4,91c-0.6,0-1.3,0.3-2.1,0.7c-0.8,0.4-1.4,0.9-1.7,1.3c0.3-0.2,0.9-0.7,1.8-1.2
		C298.3,91.3,299,91.1,299.4,91z"/>
	<path style="fill:#DCE5B2;" d="M293.9,84.1c-1.8,0.9-1.8,4.5,0,7.9s4.7,5.4,6.4,4.5c1.8-0.9,1.8-4.5,0-7.9
		C298.6,85.2,295.7,83.1,293.9,84.1z M292.9,87.3c0.2-0.4,0.7-0.8,1.5-1.2c0.8-0.4,1.4-0.6,1.9-0.5l0,0v0.1c0,0-0.7,0.1-1.8,0.7
		C293.4,86.8,293,87.3,292.9,87.3L292.9,87.3L292.9,87.3z M293.4,89.4c0.2-0.5,0.9-1.1,1.9-1.6s1.9-0.8,2.5-0.7l0,0v0.1
		c0,0-1,0.2-2.4,0.9C294.1,88.9,293.5,89.5,293.4,89.4L293.4,89.4L293.4,89.4z M300.2,93c0,0-0.7,0.1-1.8,0.7c-1.1,0.6-1.5,1-1.5,1
		l-0.1-0.1l0,0c0.2-0.4,0.7-0.8,1.5-1.2C299,93.1,299.7,92.9,300.2,93C300.2,92.9,300.2,92.9,300.2,93L300.2,93z M299.8,91
		c0,0-1,0.2-2.4,0.9c-1.4,0.7-2,1.3-2,1.4l0,0l0,0l0,0c0.2-0.5,0.9-1.1,1.9-1.6C298.2,91.1,299.1,90.8,299.8,91
		C299.8,90.9,299.8,90.9,299.8,91L299.8,91z M298.8,89.1c0,0-1,0.2-2.4,0.9c-1.4,0.7-2,1.3-2,1.4l-0.1-0.1l0,0
		c0.2-0.5,0.9-1.1,1.9-1.6s1.9-0.8,2.5-0.7C298.8,89,298.8,89,298.8,89.1L298.8,89.1z"/>
</g>
<g>
	<path style="fill:#DCE5B2;" d="M299.6,186.6c-0.3-0.3-0.9-0.7-1.8-1.2s-1.6-0.7-2-0.8c0.6,0,1.3,0.3,2.1,0.7
		C298.7,185.7,299.3,186.2,299.6,186.6z"/>
	<path style="fill:#DCE5B2;" d="M298.3,181.1c0.4,0.1,0.9,0.2,1.5,0.5s1,0.6,1.2,0.9c-0.2-0.2-0.7-0.5-1.3-0.8
		C299.2,181.4,298.7,181.2,298.3,181.1z"/>
	<path style="fill:#DCE5B2;" d="M297.2,190c-0.2-0.2-0.7-0.5-1.3-0.8c-0.6-0.3-1.1-0.5-1.4-0.6c0.4,0,0.9,0.2,1.5,0.5
		C296.5,189.4,296.9,189.7,297.2,190z"/>
	<path style="fill:#DCE5B2;" d="M296.8,182.8c0.6,0,1.3,0.3,2.1,0.7c0.8,0.4,1.4,0.9,1.7,1.3c-0.3-0.3-0.9-0.7-1.8-1.2
		C297.9,183.1,297.2,182.9,296.8,182.8z"/>
	<path style="fill:#DCE5B2;" d="M294.9,186.5c0.6,0,1.3,0.3,2.1,0.7c0.8,0.4,1.4,0.9,1.7,1.3c-0.3-0.3-0.9-0.7-1.8-1.1
		C296,186.9,295.3,186.6,294.9,186.5z"/>
	<path style="fill:#DCE5B2;" d="M293.9,184.1c-1.8,3.4-1.8,6.9,0,7.9c1.8,0.9,4.7-1.1,6.4-4.5c1.8-3.4,1.8-6.9,0-7.9
		C298.6,178.7,295.7,180.7,293.9,184.1z M301.4,182.8L301.4,182.8c-0.1,0-0.5-0.4-1.6-1s-1.8-0.7-1.8-0.7V181l0,0
		c0.5,0,1.2,0.1,1.9,0.5C300.7,182,301.2,182.4,301.4,182.8L301.4,182.8z M300.9,185L300.9,185c-0.1,0-0.7-0.6-2.1-1.3
		s-2.4-0.9-2.4-0.9v-0.1l0,0c0.6-0.1,1.5,0.2,2.5,0.7S300.6,184.5,300.9,185L300.9,185z M294,188.5L294,188.5c0.5,0,1.2,0.1,2,0.5
		s1.3,0.8,1.5,1.2l0,0l-0.1,0.1c0,0-0.5-0.5-1.5-1C294.8,188.7,294,188.6,294,188.5L294,188.5z M294.5,186.4L294.5,186.4
		c0.7-0.1,1.5,0.2,2.5,0.7s1.7,1.1,1.9,1.6l0,0l0,0l0,0c0,0-0.6-0.6-2-1.4C295.4,186.7,294.5,186.5,294.5,186.4L294.5,186.4z
		 M295.4,184.5C295.4,184.5,295.5,184.5,295.4,184.5c0.7-0.1,1.5,0.2,2.5,0.7s1.7,1.1,1.9,1.6l0,0l-0.1,0.1c0,0-0.6-0.6-2-1.4
		C296.4,184.8,295.5,184.6,295.4,184.5L295.4,184.5z"/>
</g>
<path style="fill:#DCE5B2;" d="M302.6,59c-0.4-2.7-2.5-4.4-5.5-4.4s-5.5,1.6-5.5,4.1s2.9,3.5,5.9,3.5C300.4,62.2,303,61.4,302.6,59z
	 M295.6,58.3c-2.2-0.5-3.5-0.3-3.5-0.3c0.1,0,1-0.9,3.6-0.2c2.6,0.6,3.2,1.9,3.3,1.9C299,59.8,297.8,58.9,295.6,58.3z M296.6,56.9
	c-2.2-0.5-3.5-0.3-3.5-0.3c0.1,0,1-0.9,3.6-0.2c2.6,0.6,3.2,1.9,3.3,1.9C299.9,58.4,298.8,57.5,296.6,56.9z M297.7,55.6
	c-2.2-0.5-3.5-0.3-3.5-0.3c0.1,0,1-0.9,3.6-0.2c2.6,0.6,3.2,1.9,3.3,1.9C301.1,57.1,300,56.2,297.7,55.6z"/>
<path style="fill:#DCE5B2;" d="M299.3,124.7c2.1-2.1,3.4-4.9,1.7-6.6c-1.7-1.7-4.7-1.1-6.8,1c-2.1,2.1-2.4,4.8-0.8,7
	C294.9,128.1,297.3,126.8,299.3,124.7z M296.6,124.1c0-0.1-0.4-1.4,0.9-3.7c1.4-2.3,2.7-2.4,2.7-2.4s-1.1,0.7-2.3,2.7
	C296.8,122.6,296.6,124.1,296.6,124.1z M294.9,123.8c0-0.1-0.4-1.4,0.9-3.7c1.4-2.3,2.7-2.4,2.7-2.4s-1.1,0.7-2.3,2.7
	C295.1,122.3,294.9,123.8,294.9,123.8z M293.1,123.7c0-0.1-0.4-1.4,0.9-3.7c1.4-2.3,2.7-2.4,2.7-2.4s-1.1,0.7-2.3,2.7
	C293.3,122.2,293.1,123.7,293.1,123.7z"/>
<path style="fill:#DCE5B2;" d="M299.1,101.6c-2.4-0.1-5,1.6-6.3,4.3c-1.3,2.7-0.2,5,2.2,5c2.7,0,5.8-1.7,6.8-4.5
	C303.2,102.2,299.5,101.6,299.1,101.6z M298.6,102c0.2,0,0.3,0.2,0.2,0.4c-0.1,0.2-0.4,0.4-0.6,0.4s-0.3-0.2-0.2-0.4
	C298.1,102.2,298.4,102,298.6,102z M298,103.2c0.2,0,0.3,0.2,0.2,0.4c-0.1,0.2-0.4,0.4-0.6,0.4s-0.3-0.2-0.2-0.4
	C297.5,103.4,297.8,103.2,298,103.2z M296.4,104.6c0.2,0,0.3,0.2,0.2,0.4c-0.1,0.2-0.4,0.4-0.6,0.4s-0.3-0.2-0.2-0.4
	C295.9,104.7,296.2,104.5,296.4,104.6z M296.5,102.5c0.2,0,0.3,0.2,0.2,0.4c-0.1,0.2-0.4,0.4-0.6,0.4s-0.3-0.2-0.2-0.4
	C296,102.7,296.3,102.5,296.5,102.5z M293,106.7c-0.2,0-0.3-0.2-0.2-0.4c0.1-0.2,0.4-0.4,0.6-0.4s0.3,0.2,0.2,0.4
	C293.5,106.5,293.2,106.7,293,106.7z M293,107.9c-0.2,0-0.3-0.2-0.2-0.4c0.1-0.2,0.4-0.4,0.6-0.4s0.3,0.2,0.2,0.4
	C293.4,107.8,293.2,108,293,107.9z M294.8,104.6c-0.2,0-0.3-0.2-0.2-0.4c0.1-0.2,0.4-0.4,0.6-0.4s0.3,0.2,0.2,0.4
	C295.2,104.4,295,104.6,294.8,104.6z M294.4,106.1c0.1-0.2,0.4-0.4,0.6-0.4s0.3,0.2,0.2,0.4c-0.1,0.2-0.4,0.4-0.6,0.4
	C294.3,106.5,294.3,106.3,294.4,106.1z M293.8,108.7c-0.2,0-0.3-0.2-0.2-0.4c0.1-0.2,0.4-0.4,0.6-0.4s0.3,0.2,0.2,0.4
	C294.2,108.5,294,108.7,293.8,108.7z M295.4,106.4c0.1-0.2,0.4-0.4,0.6-0.4s0.3,0.2,0.2,0.4c-0.1,0.2-0.4,0.4-0.6,0.4
	S295.3,106.6,295.4,106.4z M295.4,108c-0.2,0-0.3-0.2-0.2-0.4c0.1-0.2,0.4-0.4,0.6-0.4s0.3,0.2,0.2,0.4
	C295.8,107.9,295.6,108.1,295.4,108z M297.5,104.7c0.1-0.2,0.4-0.4,0.6-0.4s0.3,0.2,0.2,0.4c-0.1,0.2-0.4,0.4-0.6,0.4
	C297.4,105.1,297.4,104.9,297.5,104.7z M297.5,106c0.2,0,0.3,0.2,0.2,0.4c-0.1,0.2-0.4,0.4-0.6,0.4s-0.3-0.2-0.2-0.4
	C297.1,106.2,297.3,106,297.5,106z M295.8,109.6c-0.2,0-0.3-0.2-0.2-0.4c0.1-0.2,0.4-0.4,0.6-0.4s0.3,0.2,0.2,0.4
	C296.2,109.4,296,109.6,295.8,109.6z M296.9,108.1c-0.2,0-0.3-0.2-0.2-0.4c0.1-0.2,0.4-0.4,0.6-0.4s0.3,0.2,0.2,0.4
	C297.3,107.9,297.1,108.1,296.9,108.1z M298.4,105.8c-0.2,0-0.3-0.2-0.2-0.4c0.1-0.2,0.4-0.4,0.6-0.4s0.3,0.2,0.2,0.4
	C298.8,105.7,298.6,105.9,298.4,105.8z M299.5,103.7c-0.2,0-0.3-0.2-0.2-0.4c0.1-0.2,0.4-0.4,0.6-0.4s0.3,0.2,0.2,0.4
	C299.9,103.5,299.7,103.7,299.5,103.7z M299.6,104.3c0.1-0.2,0.4-0.4,0.6-0.4s0.3,0.2,0.2,0.4c-0.1,0.2-0.4,0.4-0.6,0.4
	C299.6,104.7,299.5,104.5,299.6,104.3z M298.4,107.8c-0.2,0-0.3-0.2-0.2-0.4c0.1-0.2,0.4-0.4,0.6-0.4s0.3,0.2,0.2,0.4
	C298.8,107.6,298.6,107.8,298.4,107.8z M299.2,106.6c-0.2,0-0.3-0.2-0.2-0.4c0.1-0.2,0.4-0.4,0.6-0.4s0.3,0.2,0.2,0.4
	C299.6,106.4,299.4,106.6,299.2,106.6z"/>
<path style="fill:#DCE5B2;" d="M301.9,167.9c-1.6-1.7-4.7-2.4-7.5-1.5s-3.7,3.4-2,5c1.9,1.9,5.3,2.9,8,1.6
	C304.3,171.3,302.1,168.2,301.9,167.9z M301.2,167.9c0.1,0.1,0.1,0.3-0.2,0.4c-0.2,0.1-0.5,0-0.7-0.1c-0.1-0.1-0.1-0.3,0.2-0.4
	C300.7,167.7,301,167.8,301.2,167.9z M299.9,168.3c0.1,0.1,0.1,0.3-0.2,0.4c-0.2,0.1-0.5,0-0.7-0.1c-0.1-0.1-0.1-0.3,0.2-0.4
	S299.8,168.2,299.9,168.3z M297.8,168.1c0.1,0.1,0.1,0.3-0.2,0.4c-0.2,0.1-0.5,0-0.7-0.1c-0.1-0.1-0.1-0.3,0.2-0.4
	C297.4,167.9,297.7,168,297.8,168.1z M299.3,166.7c0.1,0.1,0.1,0.3-0.2,0.4s-0.5,0-0.7-0.1c-0.1-0.1-0.1-0.3,0.2-0.4
	S299.2,166.6,299.3,166.7z M294,167.3c-0.1-0.1-0.1-0.3,0.2-0.4c0.2-0.1,0.5,0,0.7,0.1c0.1,0.1,0.1,0.3-0.2,0.4
	S294.1,167.4,294,167.3z M293,168.1c-0.1-0.1-0.1-0.3,0.2-0.4c0.2-0.1,0.5,0,0.7,0.1c0.1,0.1,0.1,0.3-0.2,0.4
	C293.5,168.3,293.2,168.3,293,168.1z M296.7,167c-0.1-0.1-0.1-0.3,0.2-0.4c0.2-0.1,0.5,0,0.7,0.1c0.1,0.1,0.1,0.3-0.2,0.4
	S296.8,167.2,296.7,167z M295.3,167.8c0.2-0.1,0.5,0,0.7,0.1c0.1,0.1,0.1,0.3-0.2,0.4c-0.2,0.1-0.5,0-0.7-0.1
	C295,168,295.1,167.9,295.3,167.8z M293.1,169.2c-0.1-0.1-0.1-0.3,0.2-0.4c0.2-0.1,0.5,0,0.7,0.1c0.1,0.1,0.1,0.3-0.2,0.4
	S293.2,169.4,293.1,169.2z M295.8,168.8c0.2-0.1,0.5,0,0.7,0.1c0.1,0.1,0.1,0.3-0.2,0.4c-0.2,0.1-0.5,0-0.7-0.1
	C295.5,169,295.6,168.9,295.8,168.8z M294.7,169.9c-0.1-0.1-0.1-0.3,0.2-0.4c0.2-0.1,0.5,0,0.7,0.1c0.1,0.1,0.1,0.3-0.2,0.4
	C295.1,170.1,294.8,170,294.7,169.9z M298.5,169c0.2-0.1,0.5,0,0.7,0.1c0.1,0.1,0.1,0.3-0.2,0.4c-0.2,0.1-0.5,0-0.7-0.1
	C298.2,169.3,298.3,169.1,298.5,169z M297.6,170c0.1,0.1,0.1,0.3-0.2,0.4c-0.2,0.1-0.5,0-0.7-0.1c-0.1-0.1-0.1-0.3,0.2-0.4
	S297.5,169.8,297.6,170z M293.9,171.3c-0.1-0.1-0.1-0.3,0.2-0.4c0.2-0.1,0.5,0,0.7,0.1c0.1,0.1,0.1,0.3-0.2,0.4
	S294,171.4,293.9,171.3z M295.7,171c-0.1-0.1-0.1-0.3,0.2-0.4c0.2-0.1,0.5,0,0.7,0.1c0.1,0.1,0.1,0.3-0.2,0.4S295.8,171.1,295.7,171
	z M298.3,170.5c-0.1-0.1-0.1-0.3,0.2-0.4c0.2-0.1,0.5,0,0.7,0.1c0.1,0.1,0.1,0.3-0.2,0.4C298.8,170.7,298.5,170.6,298.3,170.5z
	 M300.6,169.7c-0.1-0.1-0.1-0.3,0.2-0.4c0.2-0.1,0.5,0,0.7,0.1c0.1,0.1,0.1,0.3-0.2,0.4C301.1,169.9,300.8,169.9,300.6,169.7z
	 M300.3,170.2c0.2-0.1,0.5,0,0.7,0.1c0.1,0.1,0.1,0.3-0.2,0.4c-0.2,0.1-0.5,0-0.7-0.1C300,170.5,300.1,170.3,300.3,170.2z
	 M297,171.8c-0.1-0.1-0.1-0.3,0.2-0.4c0.2-0.1,0.5,0,0.7,0.1c0.1,0.1,0.1,0.3-0.2,0.4S297.1,171.9,297,171.8z M298.4,171.5
	c-0.1-0.1-0.1-0.3,0.2-0.4c0.2-0.1,0.5,0,0.7,0.1c0.1,0.1,0,0.3-0.2,0.4C298.8,171.7,298.5,171.7,298.4,171.5z"/>
<path style="fill:#DCE5B2;" d="M303.9,36.4c-0.7-0.3-2.2,0.2-4.1,1.4c2.3-0.6,3.3-0.1,3.4-0.1c0,0-1.5,0-3.8,0.7
	c-0.4,0.1-0.7,0.2-1,0.4c-0.6,0.4-1.2,0.9-1.8,1.4c0.2-0.1,0.4-0.2,0.6-0.2c2.7-0.9,3.9-0.3,4-0.3c0,0-1.5,0-3.8,0.7
	c-0.8,0.3-1.4,0.5-1.9,0.8c-0.2,0.1-0.3,0.3-0.5,0.4c-0.2,0.2-0.5,0.4-0.7,0.7c0.2-0.1,0.5-0.2,0.8-0.3c2.7-0.9,3.9-0.3,4-0.3
	c0,0-1.5,0-3.8,0.7c-0.7,0.2-1.3,0.5-1.7,0.7c-0.5,0.5-0.9,1-1.3,1.4c0.2-0.1,0.5-0.2,0.8-0.3c2.7-0.9,3.9-0.3,4-0.3
	c0,0-1.5,0-3.8,0.7c-0.6,0.2-1,0.4-1.4,0.6c-1.4,1.8-1.8,3.2-1.1,3.5c1.3,0.6,5.3-1.7,9-5.1C303.2,40.1,305.1,36.9,303.9,36.4z"/>
<path style="fill:#DCE5B2;" d="M290.4,131.9c0.7-0.3,2.2,0.2,4.1,1.4c-2.3-0.6-3.3-0.1-3.4-0.1c0,0,1.5,0,3.8,0.7
	c0.4,0.1,0.7,0.2,1,0.4c0.6,0.4,1.2,0.9,1.8,1.4c-0.2-0.1-0.4-0.2-0.6-0.2c-2.7-0.9-3.9-0.3-4-0.3c0,0,1.5,0,3.8,0.7
	c0.8,0.3,1.4,0.5,1.9,0.8c0.2,0.1,0.3,0.3,0.5,0.4c0.2,0.2,0.5,0.4,0.7,0.7c-0.2-0.1-0.5-0.2-0.8-0.3c-2.7-0.9-3.9-0.3-4-0.3
	c0,0,1.5,0,3.8,0.7c0.7,0.2,1.3,0.5,1.7,0.7c0.5,0.5,0.9,1,1.3,1.4c-0.2-0.1-0.5-0.2-0.8-0.3c-2.7-0.9-3.9-0.3-4-0.3
	c0,0,1.5,0,3.8,0.7c0.6,0.2,1,0.4,1.4,0.6c1.4,1.8,1.8,3.2,1.1,3.5c-1.3,0.6-5.3-1.7-9-5.1C291.1,135.7,289.1,132.5,290.4,131.9z"/>
<path style="fill:#DCE5B2;" d="M302.6,72.3c-0.7,2.3-3.5,3.2-6.4,3.2c-0.4,0-0.7,0-1.1,0c-1.6-0.1-2.6-0.7-2.9-1.5
	c-0.1-0.3-0.1-0.9,0.4-1.6c0.9-1.1,3.3-1.8,5.3-1.6c1,0.1,1.7,0.4,1.9,1c0.1,0.2,0.1,0.6-0.3,1.1c-0.6,0.7-2.1,1.2-3.4,1.1
	c-0.7-0.1-1.2-0.3-1.3-0.7c0-0.1-0.1-0.4,0.2-0.8c0.4-0.5,1.4-0.8,2.3-0.7c0.5,0,0.8,0.2,0.9,0.5c0,0.1,0.1,0.3-0.1,0.6
	c-0.3,0.3-0.9,0.5-1.5,0.5c-0.3,0-0.6-0.2-0.6-0.4c0-0.1,0-0.3,0.1-0.4l0.3,0.3l0,0c0,0,0.1,0,0.3,0.1c0.5,0,1-0.1,1.2-0.3
	c0-0.1,0.1-0.1,0.1-0.1c0-0.1-0.2-0.2-0.6-0.2c-0.7-0.1-1.6,0.2-2,0.6c-0.1,0.1-0.2,0.2-0.1,0.3c0.1,0.2,0.4,0.4,1,0.4
	c1.2,0.1,2.6-0.3,3.1-0.9c0.1-0.2,0.3-0.4,0.2-0.6c-0.1-0.4-0.8-0.6-1.6-0.7c-1.9-0.2-4.1,0.5-5,1.5c-0.2,0.3-0.5,0.7-0.4,1.1
	c0.2,0.6,1.2,1.1,2.6,1.2c2.4,0.2,6.6-0.3,7.2-3.1c-1.1-1.2-3.1-1.7-5.1-1.7c-3.3,0-6.4,1.7-6.2,4.7c0.2,2.9,3.1,3.7,6.4,3.5
	c3.9-0.3,5.4-1.5,5.7-3.6C303.3,73.8,303.1,72.9,302.6,72.3z"/>
<path style="fill:#DCE5B2;" d="M300.8,149.4c0.5,2.3-1.5,4.5-4,5.9c-0.3,0.2-0.7,0.3-1,0.5c-1.4,0.6-2.6,0.7-3.2,0.1
	c-0.3-0.2-0.6-0.7-0.4-1.6c0.3-1.4,2-3.2,3.9-4c0.9-0.4,1.7-0.4,2.2-0.1c0.2,0.1,0.4,0.5,0.3,1.1c-0.2,0.9-1.3,2.1-2.5,2.6
	c-0.6,0.3-1.2,0.3-1.5,0c-0.1-0.1-0.3-0.3-0.2-0.8c0.1-0.6,0.9-1.4,1.6-1.7c0.4-0.2,0.8-0.2,1,0c0.1,0.1,0.2,0.3,0.1,0.6
	c-0.1,0.4-0.6,0.9-1.1,1.1c-0.3,0.1-0.6,0.1-0.7,0s-0.2-0.3-0.1-0.4l0.4,0.1l0,0c0,0,0.1,0,0.3-0.1c0.5-0.2,0.8-0.6,0.9-0.9
	c0-0.1,0-0.1,0-0.1c-0.1,0-0.3-0.1-0.6,0.1c-0.7,0.3-1.3,1-1.4,1.5c0,0.1,0,0.3,0.1,0.3c0.1,0.1,0.5,0.1,1-0.1
	c1.1-0.5,2.1-1.6,2.3-2.3c0-0.2,0.1-0.5-0.1-0.7c-0.3-0.3-1-0.2-1.7,0.1c-1.7,0.8-3.4,2.4-3.7,3.7c-0.1,0.4-0.1,0.8,0.2,1.1
	c0.5,0.4,1.6,0.4,2.8-0.2c2.2-1,5.6-3.4,4.8-6.2c-1.5-0.5-3.5,0-5.3,1c-2.9,1.6-4.8,4.6-3.1,7.1c1.6,2.4,4.5,1.8,7.3,0
	c3.3-2.1,4-3.9,3.3-5.9C302.2,150.4,301.6,149.8,300.8,149.4z"/>
<g id="New_Symbol">
</g>
</svg>
