<?xml version="1.0" encoding="UTF-8"?>
<svg width="354.3" height="226.8" xmlns="http://www.w3.org/2000/svg" xmlns:svg="http://www.w3.org/2000/svg">
 <linearGradient y2="0" x2="0.5" y1="1" x1="0.5" id="SVGID_1_">
  <stop stop-color="#58321B" offset="0"/>
  <stop stop-color="#B56639" offset="1"/>
 </linearGradient>
 <g>
  <title>Layer 1</title>
  <g id="New_Symbol"/>
  <rect id="svg_1" fill="url(#SVGID_1_)" height="173.2" width="275.1" y="26.8" x="39.6"/>
  <g id="svg_2">
   <path id="svg_3" fill="#D2CD96" d="m149,57.900002c0,0 0,0.099998 -0.100006,0.199997c-0.099991,0.100002 -0.099991,0.200001 -0.299988,0.400002c-0.100006,0.200001 -0.300003,0.400002 -0.5,0.599998c-0.200012,0.200001 -0.5,0.400002 -0.800003,0.700001c-0.199997,0.100002 -0.300003,0.200001 -0.5,0.299999s-0.400009,0.200001 -0.600006,0.200001c-0.199997,0.100002 -0.399994,0.100002 -0.699997,0.100002c-0.199997,0 -0.5,0 -0.699997,0c-0.5,-0.100002 -1,-0.300003 -1.400009,-0.5c-0.099991,0 -0.099991,-0.100002 -0.199997,-0.100002l0,0l0,0l-0.099991,0c0,0 -0.100006,-0.099998 -0.200012,-0.099998l-0.199997,-0.100002c-0.199997,-0.199997 -0.399994,-0.399998 -0.599991,-0.599998c-0.300003,-0.400002 -0.600006,-0.900002 -0.800003,-1.400002s-0.300003,-1 -0.300003,-1.5s0.100006,-1 0.199997,-1.399998c0.100006,-0.400002 0.300003,-0.799999 0.5,-1.200001c0.199997,-0.299999 0.400009,-0.599998 0.600006,-0.900002c0.199997,-0.199997 0.399994,-0.399998 0.599991,-0.5c0.200012,-0.099998 0.300003,-0.199997 0.400009,-0.299999c0.099991,0 0.099991,0 0.099991,-0.099998l0,0l0.100006,0.299999c0,0 0,0 -0.100006,0.099998s-0.199997,0.200001 -0.399994,0.300003c-0.100006,0.099998 -0.300003,0.299999 -0.5,0.5s-0.300003,0.5 -0.5,0.799999c-0.300003,0.599998 -0.5,1.399998 -0.399994,2.299999c0,0.400002 0.099991,0.799999 0.199997,1.299999c0.099991,0.400002 0.399994,0.799999 0.599991,1.100002c0.100006,0.199997 0.300003,0.299999 0.5,0.5l0.100006,0.099998l0.100006,0.099998l0.099991,0.100002l0,0l0,0l0.100006,0.099998c0.399994,0.200001 0.800003,0.400002 1.199997,0.5s0.800003,0.100002 1.199997,0.100002c0.400009,-0.100002 0.699997,-0.200001 1,-0.300003c0.300003,-0.199997 0.600006,-0.299999 0.800003,-0.5s0.399994,-0.299999 0.600006,-0.5c0.799988,-0.5 0.899994,-0.699997 0.899994,-0.699997z"/>
   <path id="svg_4" fill="#D2CD96" d="m145,53.900002c-0.199997,-0.200001 -0.399994,-0.5 -0.600006,-0.700001c-0.199997,-0.299999 -0.399994,-0.5 -0.5,-0.799999c-0.199997,-0.300003 -0.299988,-0.600002 -0.399994,-0.900002c-0.100006,-0.299999 -0.199997,-0.599998 -0.300003,-0.900002c-0.099991,-0.299999 -0.099991,-0.599998 -0.099991,-1c0,-0.299999 0,-0.699997 0.099991,-1s0.100006,-0.599998 0.199997,-1c0.100006,-0.299999 0.200012,-0.599998 0.400009,-0.899998l0.099991,-0.200001c0,-0.099998 0.100006,-0.099998 0.100006,-0.200001c0.100006,-0.099998 0.199997,-0.299999 0.300003,-0.399998c0.199997,-0.300003 0.399994,-0.5 0.699997,-0.700001s0.5,-0.400002 0.899994,-0.600002c0.300003,-0.199997 0.600006,-0.299999 1,-0.399998c0.300003,-0.100002 0.700012,-0.100002 1,-0.200001c0.300003,0 0.700012,0 1,0s0.700012,0.099998 1,0.099998c0.200012,0 0.300003,0.100002 0.5,0.100002c0.100006,0 0.200012,0 0.200012,0.099998c0.099991,0 0.199997,0.100002 0.199997,0.100002l-0.5,0.099998c0.099991,-0.099998 0.099991,-0.099998 0.199997,-0.200001c0.100006,-0.099998 0.100006,-0.099998 0.199997,-0.200001c0.100006,-0.099998 0.199997,-0.199997 0.400009,-0.299999c0.299988,-0.200001 0.5,-0.399998 0.799988,-0.5c0.600006,-0.299999 1.200012,-0.599998 1.800003,-0.599998c0.300003,0 0.699997,0 1,0c0.300003,0.099998 0.699997,0.099998 1,0.299999c0.100006,0 0.100006,0.099998 0.199997,0.099998c0.100006,0 0.100006,0.100002 0.200012,0.100002l0.199997,0.099998l0.199997,0.100002l0.100006,0.099998l0.099991,0.099998l0.199997,0.100002c0.100006,0.099998 0.200012,0.200001 0.300003,0.399998c0.199997,0.200001 0.400009,0.5 0.600006,0.800003c0.199997,0.299999 0.300003,0.599998 0.300003,0.899998c0.099991,0.299999 0.099991,0.600002 0.099991,1c0,0.299999 0,0.600002 -0.099991,0.900002c-0.100006,0.599998 -0.400009,1.200001 -0.700012,1.700001c-0.199997,0.299999 -0.299988,0.5 -0.5,0.699997s-0.399994,0.400002 -0.699997,0.600002c0.199997,-0.200001 0.400009,-0.5 0.600006,-0.700001c0.199997,-0.200001 0.300003,-0.5 0.399994,-0.799999c0.199997,-0.5 0.400009,-1.100002 0.5,-1.700001c0,-0.299999 0.100006,-0.599998 0,-0.900002c0,-0.299999 -0.099991,-0.599998 -0.099991,-0.799999c-0.100006,-0.299999 -0.200012,-0.5 -0.300003,-0.799999c-0.100006,-0.200001 -0.300003,-0.5 -0.5,-0.599998c-0.100006,-0.100002 -0.199997,-0.200001 -0.300003,-0.300003l-0.199997,-0.099998l-0.100006,-0.099998l0,0l0,0l0,0l0,0l0,0l0,0l-0.199997,-0.100002l-0.199997,-0.099998c-0.100006,0 -0.100006,-0.100002 -0.199997,-0.100002c-0.100006,0 -0.100006,-0.099998 -0.200012,-0.099998c-0.299988,-0.099998 -0.5,-0.200001 -0.799988,-0.200001s-0.5,0 -0.800003,0c-0.5,0.100002 -1,0.299999 -1.5,0.600002c-0.199997,0.099998 -0.5,0.299999 -0.699997,0.5c-0.100006,0.099998 -0.200012,0.199997 -0.300003,0.299999c-0.100006,0 -0.100006,0.099998 -0.199997,0.099998l-0.100006,0.100002l-0.199997,0.199997l-0.300003,-0.099998c-0.100006,0 -0.100006,0 -0.199997,-0.099998c-0.100006,0 -0.100006,0 -0.199997,-0.100002c-0.100006,0 -0.300003,-0.099998 -0.400009,-0.099998c-0.300003,-0.100002 -0.599991,-0.100002 -0.899994,-0.100002c-0.300003,0 -0.600006,0 -0.900009,0c-0.299988,0 -0.599991,0.100002 -0.899994,0.100002c-0.300003,0.099998 -0.600006,0.200001 -0.800003,0.299999c-0.300003,0.099998 -0.5,0.299999 -0.699997,0.5s-0.399994,0.400002 -0.600006,0.599998c-0.099991,0.100002 -0.199997,0.200001 -0.299988,0.300003c0,0.099998 -0.100006,0.099998 -0.100006,0.199997l-0.100006,0.200001c-0.099991,0.299999 -0.299988,0.5 -0.399994,0.799999c-0.100006,0.300003 -0.199997,0.600002 -0.300003,0.900002c-0.099991,0.299999 -0.099991,0.599998 -0.099991,0.900002c0,0.299999 0,0.599998 0,0.899998c0,0.299999 0.099991,0.600002 0.199997,0.900002c0.099991,0.299999 0.199997,0.599998 0.300003,0.899998c0.099991,0.300003 0.299988,0.600002 0.399994,0.800003c0.100006,0.5 0.300003,0.699997 0.5,1z"/>
   <path id="svg_5" fill="#D2CD96" d="m157.199997,49.400002l0.300003,0.099998c0.100006,0 0.199997,0.099998 0.300003,0.099998s0.199997,0.100002 0.300003,0.100002c0.099991,0.099998 0.199997,0.099998 0.299988,0.200001l0.300003,0.199997c0.100006,0.100002 0.199997,0.100002 0.300003,0.200001c0.100006,0.100002 0.199997,0.100002 0.300003,0.200001c0.099991,0.099998 0.199997,0.099998 0.300003,0.200001c0.199997,0.099998 0.399994,0.299999 0.599991,0.399998c0.199997,0.100002 0.400009,0.300003 0.600006,0.400002c0.199997,0.099998 0.399994,0.299999 0.599991,0.400002c0.200012,0.099998 0.400009,0.299999 0.600006,0.5l0.199997,0.199997l-0.099991,0.200001c-0.200012,0.299999 -0.300003,0.600002 -0.5,0.900002c-0.200012,0.299999 -0.300003,0.599998 -0.5,0.799999c-0.200012,0.299999 -0.400009,0.5 -0.600006,0.799999l-0.600006,0.799999c-0.099991,0.100002 -0.199997,0.300003 -0.299988,0.400002c-0.100006,0.099998 -0.200012,0.299999 -0.300003,0.400002c-0.100006,0.099998 -0.199997,0.299999 -0.300003,0.399998l-0.300003,0.400002c-0.099991,0.099998 -0.199997,0.299999 -0.300003,0.399998c-0.099991,0.100002 -0.199997,0.300003 -0.299988,0.400002l-0.300003,0.400002c-0.100006,0.099998 -0.199997,0.199997 -0.300003,0.399998c-0.199997,0.200001 -0.399994,0.5 -0.699997,0.700001l-0.300003,0.400002l-0.300003,0.299999c-0.199997,0.200001 -0.5,0.5 -0.699997,0.700001s-0.5,0.399998 -0.699997,0.599998l-0.400009,0.299999c-0.099991,0.100002 -0.299988,0.200001 -0.399994,0.299999c-0.100006,0.100002 -0.300003,0.200001 -0.399994,0.300003c-0.100006,0.099998 -0.300003,0.199997 -0.400009,0.299999c-0.300003,0.200001 -0.5,0.399998 -0.800003,0.599998c-0.299988,0.200001 -0.599991,0.399998 -0.899994,0.500004l-0.199997,0.099998l-0.199997,-0.200005c-0.100006,-0.099998 -0.200012,-0.199997 -0.300003,-0.299995c-0.100006,-0.100002 -0.199997,-0.200001 -0.300003,-0.300003c-0.199997,-0.199997 -0.300003,-0.399998 -0.5,-0.599998c-0.100006,-0.099998 -0.199997,-0.200001 -0.199997,-0.299999l-0.199997,-0.299999c-0.100006,-0.100002 -0.100006,-0.200001 -0.200012,-0.300003c-0.099991,-0.099998 -0.099991,-0.199997 -0.199997,-0.299999c-0.099991,-0.200001 -0.300003,-0.399998 -0.399994,-0.599998c-0.100006,-0.200001 -0.199997,-0.400002 -0.400009,-0.700001c-0.099991,-0.099998 -0.099991,-0.200001 -0.199997,-0.299999c-0.099991,-0.100002 -0.099991,-0.200001 -0.099991,-0.299999s-0.100006,-0.200001 -0.100006,-0.400002c0,-0.099998 -0.100006,-0.200001 -0.100006,-0.400002l0.100006,0c0.100006,0.100002 0.100006,0.200001 0.199997,0.300003c0.100006,0.099998 0.100006,0.199997 0.199997,0.299999c0.100006,0.099998 0.100006,0.200001 0.200012,0.299999c0.099991,0.099998 0.099991,0.200001 0.199997,0.299999c0.099991,0.100002 0.099991,0.200001 0.199997,0.299999c0.100006,0.100002 0.100006,0.200001 0.199997,0.300003c0.100006,0.199997 0.300003,0.399998 0.5,0.599998c0.199997,0.200001 0.300003,0.400002 0.5,0.599998c0.199997,0.200001 0.300003,0.400002 0.5,0.5c0.199997,0.200001 0.300003,0.400002 0.5,0.5l0.300003,0.300003c0.100006,0.099998 0.199997,0.199997 0.300003,0.199997l-0.400009,0c0.300003,-0.199997 0.5,-0.299999 0.800003,-0.5c0.100006,-0.099998 0.300003,-0.199997 0.400009,-0.299999c0.099991,-0.099998 0.299988,-0.200001 0.399994,-0.299999c0.300003,-0.200001 0.5,-0.400002 0.800003,-0.599998c0.300003,-0.200001 0.5,-0.400002 0.800003,-0.600002c0.299988,-0.200001 0.5,-0.399998 0.799988,-0.599998l0.700012,-0.600002l0.399994,-0.299999l0.399994,-0.299999c0.200012,-0.200001 0.5,-0.400002 0.700012,-0.599998c0.199997,-0.200001 0.5,-0.400002 0.699997,-0.700001c0.099991,-0.100002 0.199997,-0.200001 0.300003,-0.400002c0.099991,-0.099998 0.199997,-0.200001 0.299988,-0.399998l0.300003,-0.400002c0.100006,-0.099998 0.199997,-0.299999 0.300003,-0.400002c0.100006,-0.099998 0.199997,-0.299999 0.300003,-0.399998c0.099991,-0.100002 0.199997,-0.299999 0.300003,-0.400002c0.099991,-0.099998 0.199997,-0.299999 0.299988,-0.399998l0.200012,-0.400002c0.199997,-0.299999 0.299988,-0.599998 0.5,-0.900002c0.099991,-0.299999 0.299988,-0.599998 0.399994,-0.899998c0.100006,-0.299999 0.300003,-0.600002 0.399994,-0.900002l0.100006,0.299999l-0.600006,-0.399998c-0.199997,-0.100002 -0.399994,-0.299999 -0.599991,-0.400002l-0.600006,-0.399998c-0.199997,-0.100002 -0.399994,-0.300003 -0.599991,-0.400002c-0.200012,-0.099998 -0.400009,-0.299999 -0.600006,-0.400002c-0.100006,-0.099998 -0.199997,-0.099998 -0.300003,-0.199997l-0.300003,-0.200001c-0.099991,-0.100002 -0.199997,-0.100002 -0.299988,-0.200001c-0.100006,-0.099998 -0.200012,-0.099998 -0.300003,-0.200001c-0.100006,-0.099998 -0.199997,-0.099998 -0.300003,-0.200001l-0.300003,-0.199997l0,0z"/>
   <path id="svg_6" fill="#D2CD96" d="m150.899994,57.400002l0,0c0.099991,0 0.099991,0.099998 0.199997,0.099998c0.100006,0.099998 0.199997,0.200001 0.399994,0.299999s0.300003,0.299999 0.5,0.400002c0.100006,0.099998 0.200012,0.200001 0.300003,0.299999s0.199997,0.200001 0.300003,0.299999s0.199997,0.200001 0.199997,0.299999c0.100006,0.100002 0.100006,0.200001 0.199997,0.300003c0.100006,0.199997 0.300003,0.399998 0.300003,0.599998c0.100006,0.200001 0.199997,0.299999 0.199997,0.400002c0,0.099998 0,0.099998 0,0.099998l0,0l0,0c0,0 -0.099991,0 -0.099991,-0.099998c-0.100006,-0.100002 -0.199997,-0.200001 -0.400009,-0.300003s-0.299988,-0.299999 -0.5,-0.399998c-0.099991,-0.100002 -0.199997,-0.200001 -0.299988,-0.299999s-0.200012,-0.200001 -0.300003,-0.300003s-0.199997,-0.199997 -0.199997,-0.299999c-0.100006,-0.099998 -0.100006,-0.200001 -0.200012,-0.299999c-0.099991,-0.200001 -0.299988,-0.400002 -0.299988,-0.599998c-0.099991,-0.200001 -0.199997,-0.300003 -0.300003,-0.5c0,0.099998 0,0.099998 0,0l0,0z"/>
   <path id="svg_7" fill="#D2CD96" d="m153.199997,55.099998l0,0c0.100006,0 0.100006,0.100002 0.199997,0.100002c0.100006,0.099998 0.200012,0.099998 0.400009,0.200001c0.199997,0.099998 0.300003,0.199997 0.5,0.399998c0.099991,0.100002 0.199997,0.200001 0.300003,0.200001c0.099991,0.099998 0.199997,0.200001 0.299988,0.299999s0.200012,0.200001 0.300003,0.299999s0.199997,0.200001 0.199997,0.300003c0.200012,0.199997 0.300003,0.399998 0.400009,0.5c0.099991,0.199997 0.199997,0.299999 0.199997,0.399998c0,0.100002 0,0.100002 0.100006,0.100002l0,0l0,0c0,0 -0.100006,0 -0.100006,-0.100002c-0.100006,-0.099998 -0.300003,-0.099998 -0.399994,-0.200001c-0.200012,-0.099998 -0.300003,-0.199997 -0.5,-0.399998c-0.100006,-0.100002 -0.200012,-0.200001 -0.300003,-0.200001c-0.100006,-0.099998 -0.199997,-0.200001 -0.300003,-0.299999s-0.199997,-0.200001 -0.300003,-0.299999s-0.199997,-0.200001 -0.199997,-0.300003c-0.199997,-0.199997 -0.300003,-0.399998 -0.399994,-0.5c-0.100006,-0.199997 -0.200012,-0.299999 -0.200012,-0.399998c-0.199997,0 -0.199997,0 -0.199997,-0.100002l0,0z"/>
   <path id="svg_8" fill="#D2CD96" d="m155.399994,52.900002c0,0 0.100006,0 0,0c0.099991,0 0.099991,0 0.199997,0.099998c0.100006,0 0.300003,0.099998 0.399994,0.200001c0.200012,0.099998 0.400009,0.200001 0.600006,0.299999c0.100006,0.099998 0.199997,0.099998 0.300003,0.200001c0.099991,0.099998 0.199997,0.200001 0.300003,0.200001c0.099991,0.099998 0.199997,0.199997 0.299988,0.199997c0.100006,0.100002 0.200012,0.200001 0.300003,0.300003c0.199997,0.199997 0.300003,0.299999 0.400009,0.5c0.099991,0.199997 0.199997,0.299999 0.299988,0.399998l0.100006,0.100002l0,0l0,0l-0.100006,0c-0.099991,0 -0.299988,-0.100002 -0.399994,-0.200001c-0.199997,-0.100002 -0.399994,-0.200001 -0.600006,-0.299999c-0.099991,-0.100002 -0.199997,-0.100002 -0.299988,-0.200001c-0.100006,-0.100002 -0.200012,-0.200001 -0.300003,-0.200001c-0.100006,-0.099998 -0.199997,-0.200001 -0.300003,-0.200001c-0.100006,-0.099998 -0.199997,-0.200001 -0.300003,-0.299999c-0.199997,-0.200001 -0.300003,-0.299999 -0.399994,-0.5c-0.100006,-0.200001 -0.199997,-0.299999 -0.300003,-0.400002c-0.099991,-0.099998 -0.099991,-0.199997 -0.199997,-0.199997l0,0z"/>
  </g>
  <g id="svg_9" opacity="0.4">
   <g id="svg_10">
    <g id="svg_11">
     <path id="svg_12" fill="#DFDBB0" d="m295.600006,90.099998c0.300018,-0.299995 0.899994,-0.699997 1.800018,-1.199997s1.599976,-0.700005 2,-0.800003c-0.600006,0 -1.300018,0.300003 -2.100006,0.700005c-0.800018,0.399994 -1.400024,0.899994 -1.700012,1.299995z"/>
     <path id="svg_13" fill="#DFDBB0" d="m296.899994,84.599998c-0.399994,0 -0.899994,0.200005 -1.5,0.5s-1,0.599998 -1.200012,0.900002c0.200012,-0.199997 0.700012,-0.5 1.300018,-0.800003c0.600006,-0.299995 1.100006,-0.5 1.399994,-0.599998z"/>
     <path id="svg_14" fill="#DFDBB0" d="m298.100006,93.5c0.200012,-0.199997 0.700012,-0.5 1.300018,-0.800003c0.599976,-0.299995 1.099976,-0.5 1.399994,-0.599998c-0.399994,0 -0.899994,0.200005 -1.5,0.5c-0.600006,0.300003 -1.000031,0.599998 -1.200012,0.900002z"/>
     <path id="svg_15" fill="#DFDBB0" d="m298.399994,86.199997c-0.600006,0 -1.300018,0.300003 -2.100006,0.700005c-0.799988,0.400002 -1.399994,0.900002 -1.700012,1.299995c0.300018,-0.299995 0.900024,-0.699997 1.800018,-1.199997c0.899994,-0.400002 1.600006,-0.699997 2,-0.800003z"/>
     <path id="svg_16" fill="#DFDBB0" d="m300.399994,90c-0.600006,0 -1.300018,0.300003 -2.100006,0.699997c-0.799988,0.400002 -1.399994,0.900002 -1.700012,1.300003c0.300018,-0.199997 0.900024,-0.699997 1.800018,-1.199997c0.899994,-0.5 1.600006,-0.700005 2,-0.800003z"/>
     <path id="svg_17" fill="#DFDBB0" d="m294.899994,83.099998c-1.800018,0.900002 -1.800018,4.5 0,7.900002s4.699982,5.400002 6.399994,4.5c1.799988,-0.900002 1.799988,-4.5 0,-7.900002c-1.699982,-3.400002 -4.599976,-5.5 -6.399994,-4.5zm-1,3.200005c0.199982,-0.400002 0.699982,-0.800003 1.5,-1.200005c0.799988,-0.400002 1.399994,-0.599998 1.899994,-0.5l0,0l0,0.099998c0,0 -0.700012,0.100006 -1.799988,0.700005c-1.100006,0.400002 -1.5,0.900002 -1.600006,0.900002l0,0l0,0zm0.5,2.099998c0.199982,-0.5 0.899994,-1.099998 1.899994,-1.599998s1.899994,-0.800003 2.5,-0.700005l0,0l0,0.099998c0,0 -1,0.200005 -2.399994,0.900002c-1.299988,0.800003 -1.899994,1.400002 -2,1.300003l0,0l0,0zm6.800018,3.599998c0,0 -0.700012,0.099998 -1.799988,0.699997c-1.100006,0.600006 -1.5,1 -1.5,1l-0.100006,-0.099998l0,0c0.199982,-0.400002 0.699982,-0.799995 1.5,-1.199997c0.699982,-0.300003 1.399994,-0.5 1.899994,-0.400002c0,-0.099998 0,-0.099998 0,0l0,0zm-0.400024,-2c0,0 -1,0.199997 -2.399994,0.900002c-1.399994,0.699997 -2,1.299995 -2,1.400002l0,0l0,0l0,0c0.199982,-0.5 0.899994,-1.100006 1.899994,-1.600006c0.900024,-0.599998 1.800018,-0.899994 2.5,-0.699997c0,-0.099998 0,-0.099998 0,0l0,0zm-1,-1.900002c0,0 -1,0.200005 -2.399994,0.900002c-1.399994,0.699997 -2,1.300003 -2,1.400002l-0.100006,-0.099998l0,0c0.200012,-0.5 0.899994,-1.100006 1.899994,-1.600006s1.899994,-0.799995 2.5,-0.699997c0.100006,0 0.100006,0 0.100006,0.099998l0,0z"/>
    </g>
    <g id="svg_18">
     <path id="svg_19" fill="#DFDBB0" d="m300.600006,185.600006c-0.299988,-0.300003 -0.899994,-0.699997 -1.799988,-1.199997s-1.600006,-0.699997 -2,-0.800003c0.600006,0 1.299988,0.300003 2.100006,0.699997c0.799988,0.399994 1.399963,0.899994 1.699982,1.300003z"/>
     <path id="svg_20" fill="#DFDBB0" d="m299.299988,180.100006c0.399994,0.100006 0.899994,0.199997 1.5,0.5s1,0.600006 1.200012,0.900009c-0.200012,-0.200012 -0.700012,-0.5 -1.300018,-0.800003c-0.499969,-0.300018 -0.999969,-0.500015 -1.399994,-0.600006z"/>
     <path id="svg_21" fill="#DFDBB0" d="m298.200012,189c-0.200012,-0.199997 -0.700012,-0.5 -1.299988,-0.800003c-0.600006,-0.300003 -1.100006,-0.5 -1.400024,-0.599991c0.400024,0 0.900024,0.199997 1.5,0.5c0.5,0.299988 0.899994,0.599991 1.200012,0.899994z"/>
     <path id="svg_22" fill="#DFDBB0" d="m297.799988,181.800003c0.600006,0 1.299988,0.300003 2.100006,0.699997c0.799988,0.399994 1.399994,0.899994 1.699982,1.300003c-0.299988,-0.300003 -0.899994,-0.699997 -1.799988,-1.199997c-0.899994,-0.5 -1.599976,-0.700012 -2,-0.800003z"/>
     <path id="svg_23" fill="#DFDBB0" d="m295.899994,185.5c0.600006,0 1.299988,0.300003 2.100006,0.699997c0.799988,0.400009 1.399994,0.900009 1.699982,1.300003c-0.299988,-0.300003 -0.899994,-0.699997 -1.799988,-1.100006c-0.899994,-0.5 -1.600006,-0.799988 -2,-0.899994z"/>
     <path id="svg_24" fill="#DFDBB0" d="m294.899994,183.100006c-1.800018,3.400009 -1.800018,6.900009 0,7.900009c1.799988,0.899994 4.699982,-1.100006 6.399994,-4.5c1.799988,-3.400009 1.799988,-6.900009 0,-7.900009c-1.699982,-0.900009 -4.599976,1.099991 -6.399994,4.5zm7.5,-1.300003l0,0c-0.100006,0 -0.5,-0.400009 -1.600006,-1s-1.799988,-0.699997 -1.799988,-0.699997l0,-0.100006l0,0c0.5,0 1.199982,0.100006 1.899994,0.5c0.800018,0.5 1.300018,0.899994 1.5,1.300003l0,0zm-0.5,2.199997l0,0c-0.100006,0 -0.700012,-0.600006 -2.100006,-1.300003s-2.399994,-0.899994 -2.399994,-0.899994l0,-0.100006l0,0c0.600006,-0.099991 1.5,0.199997 2.5,0.699997s1.700012,1.100006 2,1.600006l0,0zm-6.899994,3.5l0,0c0.5,0 1.200012,0.100006 2,0.5s1.299988,0.800003 1.5,1.199997l0,0l-0.100006,0.100006c0,0 -0.5,-0.5 -1.5,-1c-1.100006,-0.600006 -1.899994,-0.699997 -1.899994,-0.800003l0,0zm0.5,-2.100006l0,0c0.700012,-0.100006 1.5,0.199997 2.5,0.699997s1.700012,1.100006 1.899994,1.600006l0,0l0,0l0,0c0,0 -0.600006,-0.600006 -2,-1.400009c-1.5,-0.599991 -2.399994,-0.799988 -2.399994,-0.899994l0,0zm0.899994,-1.899994c0,0 0.100006,0 0,0c0.699982,-0.100006 1.5,0.199997 2.5,0.699997s1.699982,1.100006 1.899994,1.600006l0,0l-0.100006,0.099991c0,0 -0.600006,-0.599991 -2,-1.399994c-1.299988,-0.699997 -2.199982,-0.899994 -2.299988,-1l0,0z"/>
    </g>
    <path id="svg_25" fill="#DFDBB0" d="m303.600006,58c-0.399994,-2.700001 -2.5,-4.400002 -5.5,-4.400002s-5.5,1.600002 -5.5,4.100002s2.899994,3.5 5.899994,3.5c2.899994,0 5.5,-0.799999 5.100006,-3.200001zm-7,-0.700001c-2.199982,-0.5 -3.5,-0.299999 -3.5,-0.299999c0.100006,0 1,-0.900002 3.600006,-0.200001c2.600006,0.600002 3.200012,1.900002 3.299988,1.900002c0,0.099998 -1.200012,-0.799999 -3.399994,-1.400002zm1,-1.399998c-2.199982,-0.5 -3.5,-0.300003 -3.5,-0.300003c0.100006,0 1,-0.899998 3.600006,-0.199997c2.600006,0.599998 3.200012,1.899998 3.299988,1.899998c-0.100006,0.100002 -1.200012,-0.799999 -3.399994,-1.399998zm1.100006,-1.300003c-2.200012,-0.5 -3.5,-0.299999 -3.5,-0.299999c0.100006,0 1,-0.899998 3.600006,-0.200001c2.600006,0.600002 3.199982,1.900002 3.299988,1.900002c0,0.099998 -1.100006,-0.799999 -3.399994,-1.400002z"/>
    <path id="svg_26" fill="#DFDBB0" d="m300.299988,123.699997c2.100006,-2.099998 3.399994,-4.899994 1.700012,-6.599998c-1.700012,-1.699997 -4.700012,-1.099998 -6.800018,1c-2.100006,2.099998 -2.399994,4.800003 -0.799988,7c1.5,2 3.899994,0.700005 5.899994,-1.400002zm-2.699982,-0.599998c0,-0.099998 -0.399994,-1.400002 0.899994,-3.699997c1.400024,-2.300003 2.700012,-2.400002 2.700012,-2.400002s-1.100006,0.699997 -2.299988,2.699997c-1.100037,1.900002 -1.300018,3.400002 -1.300018,3.400002zm-1.700012,-0.299995c0,-0.100006 -0.399994,-1.400002 0.899994,-3.700005c1.399994,-2.299995 2.700012,-2.400002 2.700012,-2.400002s-1.100006,0.700005 -2.300018,2.700005c-1.099976,1.900002 -1.299988,3.400002 -1.299988,3.400002zm-1.799988,-0.100006c0,-0.099998 -0.399994,-1.399994 0.899994,-3.699997c1.400024,-2.300003 2.700012,-2.400002 2.700012,-2.400002s-1.100006,0.700005 -2.299988,2.700005c-1.100037,1.899994 -1.300018,3.399994 -1.300018,3.399994z"/>
    <path id="svg_27" fill="#DFDBB0" d="m300.100006,100.599998c-2.399994,-0.099998 -5,1.599998 -6.299988,4.300003c-1.300018,2.699997 -0.200012,5 2.199982,5c2.700012,0 5.800018,-1.700005 6.800018,-4.5c1.399994,-4.200005 -2.300018,-4.800003 -2.700012,-4.800003zm-0.5,0.400002c0.200012,0 0.300018,0.199997 0.200012,0.400002c-0.100006,0.199997 -0.399994,0.400002 -0.600006,0.400002s-0.299988,-0.200005 -0.200012,-0.400002c0.100006,-0.200005 0.399994,-0.400002 0.600006,-0.400002zm-0.600006,1.199997c0.200012,0 0.299988,0.200005 0.200012,0.400002c-0.100006,0.200005 -0.400024,0.400002 -0.600006,0.400002s-0.300018,-0.199997 -0.200012,-0.400002c0.100006,-0.199997 0.399994,-0.400002 0.600006,-0.400002zm-1.600006,1.400002c0.199982,0 0.299988,0.200005 0.199982,0.400002c-0.099976,0.199997 -0.399994,0.400002 -0.599976,0.400002s-0.300018,-0.200005 -0.200012,-0.400002c0.100006,-0.300003 0.400024,-0.5 0.600006,-0.400002zm0.100006,-2.099998c0.200012,0 0.299988,0.199997 0.200012,0.400002c-0.100006,0.199997 -0.400024,0.400002 -0.600006,0.400002s-0.300018,-0.200005 -0.200012,-0.400002c0.100006,-0.200005 0.399994,-0.400002 0.600006,-0.400002zm-3.5,4.199997c-0.200012,0 -0.299988,-0.199997 -0.200012,-0.399994c0.100006,-0.200005 0.400024,-0.400002 0.600006,-0.400002s0.300018,0.199997 0.200012,0.400002c-0.100006,0.199997 -0.399994,0.399994 -0.600006,0.399994zm0,1.200005c-0.200012,0 -0.299988,-0.200005 -0.200012,-0.400002c0.100006,-0.199997 0.400024,-0.400002 0.600006,-0.400002s0.300018,0.200005 0.200012,0.400002c-0.200012,0.300003 -0.399994,0.5 -0.600006,0.400002zm1.799988,-3.300003c-0.200012,0 -0.299988,-0.199997 -0.200012,-0.400002c0.100006,-0.199997 0.400024,-0.399994 0.600006,-0.399994s0.300018,0.199997 0.200012,0.399994c-0.199982,0.200005 -0.399994,0.400002 -0.600006,0.400002zm-0.399994,1.5c0.100006,-0.199997 0.399994,-0.400002 0.600006,-0.400002s0.299988,0.200005 0.199982,0.400002c-0.100006,0.200005 -0.399994,0.400002 -0.600006,0.400002c-0.299988,0 -0.299988,-0.199997 -0.199982,-0.400002zm-0.600006,2.599998c-0.200012,0 -0.299988,-0.199997 -0.200012,-0.399994c0.100006,-0.200005 0.400024,-0.400002 0.600006,-0.400002s0.300018,0.199997 0.200012,0.400002c-0.199982,0.199997 -0.399994,0.399994 -0.600006,0.399994zm1.600006,-2.299995c0.100006,-0.200005 0.399994,-0.400002 0.600006,-0.400002s0.299988,0.199997 0.199982,0.400002c-0.100006,0.199997 -0.399994,0.400002 -0.600006,0.400002s-0.299988,-0.200005 -0.199982,-0.400002zm0,1.599998c-0.200012,0 -0.300018,-0.199997 -0.200012,-0.400002c0.100006,-0.199997 0.399994,-0.400002 0.600006,-0.400002s0.299988,0.200005 0.200012,0.400002c-0.200012,0.300003 -0.399994,0.5 -0.600006,0.400002zm2.100006,-3.300003c0.100006,-0.199997 0.399994,-0.399994 0.600006,-0.399994s0.299988,0.199997 0.199982,0.399994c-0.099976,0.200005 -0.399994,0.400002 -0.599976,0.400002c-0.300018,0 -0.300018,-0.199997 -0.200012,-0.400002zm0,1.300003c0.200012,0 0.299988,0.199997 0.200012,0.400002c-0.100006,0.199997 -0.400024,0.400002 -0.600006,0.400002s-0.300018,-0.200005 -0.200012,-0.400002c0.200012,-0.200005 0.399994,-0.400002 0.600006,-0.400002zm-1.700012,3.599998c-0.200012,0 -0.299988,-0.199997 -0.200012,-0.400002c0.100006,-0.199997 0.400024,-0.399994 0.600006,-0.399994s0.300018,0.199997 0.200012,0.399994c-0.199982,0.200005 -0.399994,0.400002 -0.600006,0.400002zm1.100006,-1.5c-0.200012,0 -0.300018,-0.199997 -0.200012,-0.400002c0.100006,-0.199997 0.399994,-0.399994 0.600006,-0.399994s0.299988,0.199997 0.200012,0.399994c-0.200012,0.200005 -0.399994,0.400002 -0.600006,0.400002zm1.5,-2.299995c-0.200012,0 -0.300018,-0.200005 -0.200012,-0.400002c0.100006,-0.200005 0.399994,-0.400002 0.600006,-0.400002s0.299988,0.199997 0.200012,0.400002c-0.200012,0.299995 -0.399994,0.5 -0.600006,0.400002zm1.100006,-2.100006c-0.200012,0 -0.299988,-0.199997 -0.200012,-0.399994c0.100006,-0.200005 0.400024,-0.400002 0.600006,-0.400002s0.300018,0.199997 0.200012,0.400002c-0.200012,0.199997 -0.399994,0.399994 -0.600006,0.399994zm0.100006,0.600006c0.100006,-0.200005 0.399994,-0.400002 0.600006,-0.400002s0.299988,0.199997 0.200012,0.400002c-0.100006,0.199997 -0.400024,0.399994 -0.600006,0.399994c-0.200012,0 -0.300018,-0.199997 -0.200012,-0.399994zm-1.200012,3.5c-0.200012,0 -0.300018,-0.200005 -0.200012,-0.400002c0.100006,-0.200005 0.399994,-0.400002 0.600006,-0.400002s0.299988,0.199997 0.200012,0.400002c-0.200012,0.199997 -0.399994,0.400002 -0.600006,0.400002zm0.800018,-1.200005c-0.200012,0 -0.299988,-0.199997 -0.200012,-0.400002c0.100006,-0.199997 0.400024,-0.399994 0.600006,-0.399994s0.300018,0.199997 0.200012,0.399994c-0.200012,0.200005 -0.400024,0.400002 -0.600006,0.400002z"/>
    <path id="svg_28" fill="#DFDBB0" d="m302.899994,166.899994c-1.600006,-1.699997 -4.700012,-2.400009 -7.5,-1.5s-3.700012,3.399994 -2,5c1.899994,1.899994 5.299988,2.899994 8,1.599991c3.899994,-1.699982 1.700012,-4.799988 1.5,-5.099991zm-0.699982,0c0.100006,0.099991 0.100006,0.300003 -0.200012,0.399994c-0.199982,0.100006 -0.5,0 -0.699982,-0.099991c-0.100006,-0.100006 -0.100006,-0.300003 0.199982,-0.400009c0.200012,-0.099991 0.5,0.000015 0.700012,0.100006zm-1.300018,0.400009c0.100006,0.099991 0.100006,0.300003 -0.200012,0.399994c-0.199982,0.100006 -0.5,0 -0.699982,-0.099991c-0.100006,-0.100006 -0.100006,-0.300003 0.199982,-0.400009s0.600006,0 0.700012,0.100006zm-2.100006,-0.199997c0.100006,0.100006 0.100006,0.300003 -0.200012,0.400009c-0.199982,0.099991 -0.5,0 -0.699982,-0.100006c-0.100006,-0.100006 -0.100006,-0.300003 0.199982,-0.399994c0.300018,-0.100021 0.600037,-0.000015 0.700012,0.099991zm1.5,-1.400009c0.100006,0.100006 0.100006,0.300003 -0.200012,0.400009c-0.199982,0.099991 -0.5,0 -0.699982,-0.100006c-0.100006,-0.100006 -0.100006,-0.300003 0.199982,-0.399994s0.600037,0 0.700012,0.099991zm-5.299988,0.600006c-0.100006,-0.100006 -0.100006,-0.300003 0.200012,-0.400009c0.199982,-0.099991 0.5,0 0.699982,0.100006c0.100006,0.100006 0.100006,0.300003 -0.199982,0.399994s-0.600006,0 -0.700012,-0.099991zm-1,0.800003c-0.100006,-0.099991 -0.100006,-0.300003 0.200012,-0.399994c0.199982,-0.100006 0.5,0 0.699982,0.099991c0.100006,0.100006 0.100006,0.300003 -0.199982,0.400009c-0.200012,0.099991 -0.5,0.099991 -0.700012,-0.100006zm3.700012,-1.100006c-0.100006,-0.100006 -0.100006,-0.300003 0.200012,-0.399994c0.199982,-0.100006 0.5,0 0.699982,0.099991c0.100006,0.100006 0.100006,0.300003 -0.199982,0.400009s-0.600037,0.099991 -0.700012,-0.100006zm-1.400024,0.800003c0.200012,-0.100006 0.5,0 0.700012,0.099991c0.099976,0.100006 0.099976,0.300003 -0.200012,0.400009c-0.200012,0.099991 -0.5,0 -0.700012,-0.100006c-0.099976,-0.199997 0.000031,-0.300003 0.200012,-0.399994zm-2.199982,1.399994c-0.100006,-0.099991 -0.100006,-0.300003 0.200012,-0.399994c0.199982,-0.100006 0.5,0 0.699982,0.099991c0.100006,0.100006 0.100006,0.300003 -0.199982,0.400009s-0.600006,0.099991 -0.700012,-0.100006zm2.699982,-0.399994c0.200012,-0.100006 0.5,0 0.700012,0.099991c0.099976,0.100006 0.099976,0.300003 -0.200012,0.400009c-0.200012,0.099991 -0.5,0 -0.700012,-0.100006c-0.099976,-0.199997 0.000031,-0.300003 0.200012,-0.399994zm-1.099976,1.099991c-0.100006,-0.100006 -0.100006,-0.300003 0.200012,-0.400009c0.199982,-0.099991 0.5,0 0.699982,0.100006c0.100006,0.100006 0.100006,0.300003 -0.199982,0.399994c-0.300018,0.100021 -0.600037,0.000015 -0.700012,-0.099991zm3.799988,-0.899994c0.200012,-0.100006 0.5,0 0.700012,0.100006c0.099976,0.099991 0.099976,0.299988 -0.200012,0.399994c-0.200012,0.100006 -0.5,0 -0.700012,-0.100006c-0.099976,-0.099991 0,-0.299988 0.200012,-0.399994zm-0.899994,1c0.100006,0.100006 0.100006,0.300003 -0.199982,0.399994c-0.200012,0.100006 -0.5,0 -0.700012,-0.099991c-0.100006,-0.100006 -0.100006,-0.300003 0.200012,-0.400009s0.599976,-0.099991 0.699982,0.100006zm-3.700012,1.300003c-0.100006,-0.100006 -0.100006,-0.300003 0.199982,-0.400009c0.200012,-0.099991 0.5,0 0.700012,0.100006c0.100006,0.100006 0.100006,0.300003 -0.200012,0.399994s-0.599976,0 -0.699982,-0.099991zm1.800018,-0.300003c-0.100006,-0.100006 -0.100006,-0.300003 0.200012,-0.399994c0.199982,-0.100006 0.5,0 0.699982,0.099991c0.100006,0.100006 0.100006,0.300003 -0.199982,0.400009s-0.600037,0 -0.700012,-0.100006zm2.599976,-0.5c-0.100006,-0.100006 -0.100006,-0.300003 0.200012,-0.399994c0.199982,-0.100006 0.5,0 0.699982,0.099991c0.100006,0.100006 0.100006,0.300003 -0.199982,0.400009c-0.200012,0.099991 -0.5,0 -0.700012,-0.100006zm2.300018,-0.800003c-0.100006,-0.099991 -0.100006,-0.300003 0.200012,-0.399994c0.199982,-0.100006 0.5,0 0.699982,0.099991c0.100006,0.100006 0.100006,0.300003 -0.199982,0.400009c-0.200012,0.099991 -0.500031,0.099991 -0.700012,-0.100006zm-0.300018,0.5c0.200012,-0.099991 0.5,0 0.700012,0.100006c0.099976,0.099991 0.099976,0.300003 -0.200012,0.399994c-0.200012,0.100006 -0.5,0 -0.700012,-0.099991c-0.099976,-0.100006 0.000031,-0.300003 0.200012,-0.400009zm-3.299988,1.600006c-0.100006,-0.100006 -0.100006,-0.300003 0.200012,-0.400009c0.199982,-0.099991 0.5,0 0.699982,0.100006c0.100006,0.100006 0.100006,0.300003 -0.199982,0.399994s-0.600006,0 -0.700012,-0.099991zm1.399994,-0.300003c-0.100006,-0.100006 -0.100006,-0.300003 0.199982,-0.399994c0.200012,-0.100006 0.5,0 0.700012,0.099991c0.100006,0.100006 0,0.300003 -0.200012,0.400009c-0.299988,0.099991 -0.599976,0.099991 -0.699982,-0.100006z"/>
    <path id="svg_29" fill="#DFDBB0" d="m304.899994,35.400002c-0.700012,-0.300003 -2.200012,0.199997 -4.100006,1.399998c2.299988,-0.599998 3.299988,-0.099998 3.399994,-0.099998c0,0 -1.5,0 -3.799988,0.700001c-0.399994,0.099998 -0.700012,0.199997 -1,0.399998c-0.600006,0.400002 -1.200012,0.900002 -1.800018,1.400002c0.200012,-0.100002 0.400024,-0.200001 0.600006,-0.200001c2.700012,-0.900002 3.899994,-0.299999 4,-0.299999c0,0 -1.5,0 -3.799988,0.700001c-0.800018,0.299999 -1.399994,0.5 -1.899994,0.799999c-0.200012,0.099998 -0.300018,0.299999 -0.5,0.399998c-0.200012,0.200001 -0.5,0.400002 -0.700012,0.700001c0.200012,-0.099998 0.5,-0.200001 0.799988,-0.299999c2.700012,-0.900002 3.900024,-0.299999 4,-0.299999c0,0 -1.5,0 -3.799988,0.700001c-0.700012,0.199997 -1.299988,0.5 -1.700012,0.699997c-0.5,0.5 -0.899994,1 -1.299988,1.400002c0.200012,-0.099998 0.5,-0.200001 0.799988,-0.299999c2.700012,-0.900002 3.900024,-0.299999 4,-0.299999c0,0 -1.5,0 -3.799988,0.699997c-0.600006,0.200001 -1,0.400002 -1.399994,0.600002c-1.399994,1.799999 -1.800018,3.200001 -1.100006,3.5c1.299988,0.599998 5.299988,-1.700001 9,-5.100002c3.400024,-3.5 5.300018,-6.699997 4.100006,-7.199997z"/>
    <path id="svg_30" fill="#DFDBB0" d="m291.399994,130.899994c0.699982,-0.300003 2.199982,0.199997 4.100006,1.399994c-2.300018,-0.599991 -3.300018,-0.099991 -3.400024,-0.099991c0,0 1.5,0 3.800018,0.699997c0.399994,0.099991 0.699982,0.199997 1,0.399994c0.600006,0.400009 1.199982,0.900009 1.799988,1.400009c-0.199982,-0.100006 -0.399994,-0.200012 -0.600006,-0.200012c-2.699982,-0.899994 -3.899994,-0.299988 -4,-0.299988c0,0 1.5,0 3.800018,0.699997c0.799988,0.300003 1.399994,0.5 1.899994,0.800003c0.200012,0.099991 0.299988,0.299988 0.5,0.399994c0.200012,0.199997 0.5,0.399994 0.700012,0.699997c-0.200012,-0.099991 -0.5,-0.199997 -0.800018,-0.300003c-2.699982,-0.899994 -3.899994,-0.299988 -4,-0.299988c0,0 1.5,0 3.800018,0.699997c0.699982,0.199997 1.299988,0.5 1.699982,0.699997c0.5,0.5 0.899994,1 1.300018,1.399994c-0.200012,-0.099991 -0.5,-0.199997 -0.800018,-0.299988c-2.699982,-0.900009 -3.899994,-0.300003 -4,-0.300003c0,0 1.5,0 3.800018,0.699997c0.599976,0.199997 1,0.399994 1.399994,0.600006c1.399994,1.799988 1.799988,3.199997 1.100006,3.5c-1.300018,0.599991 -5.300018,-1.700012 -9,-5.100006c-3.399994,-3.399994 -5.399994,-6.599991 -4.100006,-7.199997z"/>
    <path id="svg_31" fill="#DFDBB0" d="m303.600006,71.300003c-0.699982,2.299995 -3.5,3.199997 -6.399994,3.199997c-0.399994,0 -0.700012,0 -1.100006,0c-1.600006,-0.099998 -2.600006,-0.699997 -2.899994,-1.5c-0.100006,-0.300003 -0.100006,-0.900002 0.399994,-1.599998c0.899994,-1.099998 3.300018,-1.800003 5.300018,-1.599998c1,0.099998 1.699982,0.399994 1.899994,1c0.100006,0.199997 0.100006,0.599998 -0.300018,1.099998c-0.599976,0.699997 -2.099976,1.199997 -3.399994,1.099998c-0.699982,-0.099998 -1.199982,-0.300003 -1.299988,-0.699997c0,-0.100006 -0.100006,-0.400002 0.199982,-0.800003c0.400024,-0.5 1.400024,-0.800003 2.300018,-0.699997c0.5,0 0.799988,0.199997 0.899994,0.5c0,0.099998 0.100006,0.299995 -0.100006,0.599998c-0.299988,0.299995 -0.899994,0.5 -1.5,0.5c-0.299988,0 -0.600006,-0.200005 -0.600006,-0.400002c0,-0.099998 0,-0.300003 0.100006,-0.400002l0.300018,0.300003l0,0c0,0 0.099976,0 0.299988,0.099998c0.5,0 1,-0.099998 1.200012,-0.300003c0,-0.099998 0.099976,-0.099998 0.099976,-0.099998c0,-0.099998 -0.199982,-0.199997 -0.599976,-0.199997c-0.700012,-0.099998 -1.600006,0.199997 -2,0.599998c-0.100006,0.099998 -0.200012,0.199997 -0.100006,0.300003c0.100006,0.199997 0.399994,0.399994 1,0.399994c1.199982,0.100006 2.600006,-0.299995 3.100006,-0.899994c0.099976,-0.200005 0.299988,-0.400002 0.199982,-0.600006c-0.100006,-0.399994 -0.799988,-0.599998 -1.600006,-0.699997c-1.899994,-0.199997 -4.099976,0.5 -5,1.5c-0.199982,0.300003 -0.5,0.699997 -0.399994,1.099998c0.200012,0.599998 1.200012,1.099998 2.600006,1.200005c2.399994,0.199997 6.600006,-0.300003 7.200012,-3.100006c-1.100006,-1.199997 -3.100006,-1.699997 -5.100006,-1.699997c-3.300018,0 -6.399994,1.699997 -6.200012,4.699997c0.200012,2.900002 3.100006,3.700005 6.399994,3.5c3.900024,-0.299995 5.400024,-1.5 5.700012,-3.599998c0.099976,-1.299995 -0.100006,-2.199997 -0.600006,-2.799995z"/>
    <path id="svg_32" fill="#DFDBB0" d="m301.799988,148.399994c0.5,2.300003 -1.5,4.5 -4,5.899994c-0.299988,0.199997 -0.700012,0.300003 -1,0.5c-1.399994,0.600006 -2.600006,0.699997 -3.200012,0.100006c-0.299988,-0.199997 -0.599976,-0.699997 -0.399994,-1.600006c0.300018,-1.399994 2,-3.199997 3.899994,-4c0.900024,-0.399994 1.700012,-0.399994 2.200012,-0.099991c0.200012,0.099991 0.399994,0.5 0.299988,1.099991c-0.199982,0.900009 -1.299988,2.100006 -2.5,2.600006c-0.599976,0.300003 -1.199982,0.300003 -1.5,0c-0.099976,-0.100006 -0.299988,-0.300003 -0.199982,-0.800003c0.100006,-0.600006 0.899994,-1.399994 1.600006,-1.699997c0.399994,-0.199997 0.799988,-0.199997 1,0c0.099976,0.099991 0.199982,0.300003 0.099976,0.599991c-0.099976,0.400009 -0.599976,0.900009 -1.099976,1.100006c-0.300018,0.100006 -0.600006,0.100006 -0.700012,0s-0.200012,-0.300003 -0.100006,-0.399994l0.399994,0.099991l0,0c0,0 0.100006,0 0.300018,-0.099991c0.5,-0.200012 0.799988,-0.600006 0.899994,-0.900009c0,-0.099991 0,-0.099991 0,-0.099991c-0.100006,0 -0.299988,-0.100006 -0.600006,0.099991c-0.699982,0.300003 -1.299988,1 -1.399994,1.5c0,0.100006 0,0.300003 0.100006,0.300003c0.100006,0.100006 0.5,0.100006 1,-0.100006c1.100006,-0.5 2.100006,-1.599991 2.299988,-2.299988c0,-0.200012 0.100006,-0.5 -0.100006,-0.700012c-0.299988,-0.299988 -1,-0.199997 -1.699982,0.100006c-1.700012,0.800003 -3.399994,2.399994 -3.700012,3.699997c-0.100006,0.400009 -0.100006,0.800003 0.200012,1.100006c0.5,0.399994 1.600006,0.399994 2.799988,-0.199997c2.200012,-1 5.600006,-3.400009 4.800018,-6.200012c-1.5,-0.5 -3.5,0 -5.300018,1c-2.899994,1.600006 -4.799988,4.600006 -3.100006,7.100006c1.600006,2.399994 4.5,1.800003 7.300018,0c3.299988,-2.100006 4,-3.899994 3.299988,-5.899994c-0.499969,-0.800003 -1.099976,-1.399994 -1.899994,-1.800003z"/>
   </g>
  </g>
  <text id="svg_33" fill="#D2CD96" font-family="&#x27;GillSans'" font-size="8.5" transform="matrix(1,0,0,1,158.0232,103.8514) ">79 James Street, Brooklyn East</text>
  <text id="svg_34" fill="#D2CD96" font-family="&#x27;GillSans'" font-size="8.5" transform="matrix(1,0,0,1,158.0232,114.8514) ">New York City 1289</text>
  <text id="svg_35" fill="#D2CD96" font-family="&#x27;GillSans'" font-size="8.5" transform="matrix(1,0,0,1,158.0232,131.8514) ">Tel: 079-5889-3344</text>
  <text id="svg_36" fill="#D2CD96" font-family="&#x27;GillSans'" font-size="8.5" transform="matrix(1,0,0,1,158.0232,142.8514) ">Email: johnamiel@kmail.com</text>
  <text id="svg_37" fill="#D2CD96" font-family="&#x27;GillSans'" font-size="8.5" transform="matrix(1,0,0,1,158.0232,153.8514) ">Facebook: John_Amiel</text>
  <text id="svg_38" fill="#D2CD96" font-family="&#x27;GillSans'" font-size="8.5" transform="matrix(1,0,0,1,158.0232,164.8514) ">Twitter: @johnamiel</text>
  <text id="svg_39" fill="#D2CD96" font-family="&#x27;GillSans'" font-size="8.5" transform="matrix(1,0,0,1,158.0232,180.8514) ">www.freshlybaked.com</text>
  <text id="svg_40" fill="#D2CD96" font-family="&#x27;Handwriting-Dakota'" font-size="15" transform="matrix(1,0,0,1,158.0233,74.3232) ">John Amiel</text>
  <text id="svg_41" fill="#D2CD96" font-family="&#x27;GillSans-Italic'" font-size="8.5" transform="matrix(1,0,0,1,158.0233,86.3232) ">Chief Baker</text>
  <path id="svg_42" fill="#D2CD96" d="m134.5,183.5l-0.600006,0l0,-1.899994l0.600006,0l0,1.899994zm0,-3.800003l-0.600006,0l0,-1.899994l0.600006,0l0,1.899994zm0,-3.800003l-0.600006,0l0,-1.899994l0.600006,0l0,1.899994zm0,-3.899994l-0.600006,0l0,-1.899994l0.600006,0l0,1.899994zm0,-3.800003l-0.600006,0l0,-1.899994l0.600006,0l0,1.899994zm0,-3.800003l-0.600006,0l0,-1.900009l0.600006,0l0,1.900009zm0,-3.799988l-0.600006,0l0,-1.899994l0.600006,0l0,1.899994zm0,-3.800003l-0.600006,0l0,-1.900009l0.600006,0l0,1.900009zm0,-3.800003l-0.600006,0l0,-2l0.600006,0l0,2zm0,-3.899994l-0.600006,0l0,-1.899994l0.600006,0l0,1.899994zm0,-3.800003l-0.600006,0l0,-1.900009l0.600006,0l0,1.900009zm0,-3.800003l-0.600006,0l0,-1.899994l0.600006,0l0,1.899994zm0,-3.800003l-0.600006,0l0,-1.899994l0.600006,0l0,1.899994zm0,-3.800003l-0.600006,0l0,-1.899994l0.600006,0l0,1.899994zm0,-3.799988l-0.600006,0l0,-1.899994l0.600006,0l0,1.899994zm0,-3.900009l-0.600006,0l0,-1.899994l0.600006,0l0,1.899994zm0,-3.799995l-0.600006,0l0,-1.900002l0.600006,0l0,1.900002zm0,-3.800003l-0.600006,0l0,-1.900002l0.600006,0l0,1.900002zm0,-3.799995l-0.600006,0l0,-1.900002l0.600006,0l0,1.900002zm0,-3.800003l-0.600006,0l0,-1.900002l0.600006,0l0,1.900002zm0,-3.900002l-0.600006,0l0,-1.900002l0.600006,0l0,1.900002zm0,-3.799995l-0.600006,0l0,-1.900002l0.600006,0l0,1.900002zm0,-3.800003l-0.600006,0l0,-1.900002l0.600006,0l0,1.900002zm0,-3.800003l-0.600006,0l0,-1.899994l0.600006,0l0,1.899994zm0,-3.799995l-0.600006,0l0,-1.900002l0.600006,0l0,1.900002zm0,-3.800003l-0.600006,0l0,-1.900002l0.600006,0l0,1.900002zm0,-3.900002l-0.600006,0l0,-1.899994l0.600006,0l0,1.899994zm0,-3.799995l-0.600006,0l0,-1.900002l0.600006,0l0,1.900002zm0,-3.800003l-0.600006,0l0,-1.900002l0.600006,0l0,1.900002z"/>
  <g id="svg_43">
   <g id="svg_44">
    <g id="svg_45">
     <g id="svg_46">
      <path id="svg_47" fill="#D2CD96" d="m94.800003,53.699997c-0.300003,-0.199997 -0.800003,-0.399994 -1.300003,-0.599991c-0.5,-0.200012 -1.199997,-0.300003 -1.900002,-0.300003c-0.699997,0 -1.299995,0.099991 -1.400002,0.099991s-0.099998,0 -0.199997,0c0,0.100006 0,0.300003 0,0.400009c0.199997,0 0.400002,0 0.699997,0c1.400002,0 2.5,0.5 3.100006,1.399994c0.299995,-0.399994 0.599998,-0.699997 1,-1z"/>
     </g>
     <g id="svg_48">
      <path id="svg_49" fill="#D2CD96" d="m90.099998,52.699997c0.300003,-0.099991 1.300003,-0.300003 2.200005,-0.300003c0.599998,0 1.099998,0.100006 1.5,0.200012c0.599998,0.199997 1.099998,0.5 1.399994,0.799988c0.100006,-0.099991 0.300003,-0.199997 0.400002,-0.399994c-0.400002,-0.199997 -1,-0.600006 -1.699997,-0.800003c-0.5,-0.199997 -1.200005,-0.300003 -1.900002,-0.300003c-0.800003,0 -1.400002,0.100006 -1.400002,0.100006c-0.099998,0 -0.199997,0 -0.199997,-0.100006l0,0l0,0c0,-0.099991 1.199997,-0.399994 2.299995,-0.399994c0.600006,0 1.100006,0.100006 1.5,0.199997c0.900002,0.300003 1.5,0.800003 1.800003,1.100006c0.300003,-0.199997 0.5,-0.400009 0.800003,-0.600006c-0.600006,-0.800003 -1.800003,-1.5 -3.200005,-1.800003c-0.400002,-0.099991 -0.799995,-0.099991 -1.299995,-0.099991c-1.400002,0 -2.300003,0.5 -2.800003,0.800003c0.099998,0.099991 0.300003,0.199997 0.400002,0.399994c0,0.399994 0.199997,0.800003 0.199997,1.199997zm0.300003,-1.699997c0,-0.100006 1.299995,-0.399994 2.199997,-0.399994c0.599998,0 1.099998,0.099991 1.5,0.199997c1.400002,0.5 1.900002,1.300003 2,1.5l0,0l0,0l0,0l0,0c0,0 0,0 -0.199997,-0.100006c-0.300003,-0.199997 -1,-0.699997 -2,-1.099991c-0.5,-0.200012 -1.200005,-0.300003 -1.900002,-0.300003c-0.800003,0 -1.400002,0.099991 -1.400002,0.099991c-0.099998,0.300003 -0.099998,0.200012 -0.199997,0.100006l0,0l0,0z"/>
     </g>
     <g id="svg_50">
      <path id="svg_51" fill="#D2CD96" d="m89.300003,59.5c-0.100006,0 -0.200005,0 -0.300003,0c0.099998,0.199997 0.099998,0.300003 0.099998,0.399994c0.099998,-0.099991 0.099998,-0.299988 0.200005,-0.399994c0.099998,0 0,0 0,0z"/>
     </g>
     <g id="svg_52">
      <path id="svg_53" fill="#D2CD96" d="m84,56.199997l0,0l0,0z"/>
     </g>
     <g id="svg_54">
      <path id="svg_55" fill="#D2CD96" d="m83.599998,55.100006c0.099998,0 0.200005,0 0.300003,0.100006c0,0 0,0 0.099998,0c0,0 0,0 0.099998,0c0,0 0,0 0.099998,0c0,0 0,0 0.100006,0c0,0 0,0 0.099998,0c0.199997,0 0.299995,0.099991 0.5,0.199997l0,0c0.099998,-0.100006 0.199997,-0.100006 0.299995,0c0,0 0,0.100006 0,0.199997c0.300003,0.100006 0.700005,0.300003 1,0.5c0.100006,-0.300003 0.300003,-0.699997 0.600006,-1c0.199997,-0.199997 0.399994,-0.399994 0.599998,-0.599991c0,0 0,0 0.099998,0c0,0 0,0 0.099998,0c0.5,-0.400009 1.200005,-0.700012 1.900002,-0.900009c0,0 0,0 0.099998,0l0.099998,0l0.100006,0c0.199997,0 0.299995,-0.099991 0.5,-0.099991c0.099998,-0.600006 0,-1.300003 -0.300003,-1.700012c-0.099998,-0.099991 -0.199997,-0.299988 -0.400002,-0.399994c0,0 0,0 -0.099998,0c0,0 0,0 -0.099998,0c-0.300003,-0.199997 -0.800003,-0.300003 -1.300003,-0.300003c-0.799995,0 -1.799995,0.300003 -2.599998,0.900009l-0.099998,0.099991c0,0 0,0 -0.099998,0c0,0 0,0 -0.100006,0c-1.299995,0.799988 -1.799995,2 -1.599998,3zm0.800003,-0.5c0,0 0,0.099991 0,0c-0.099998,0.099991 -0.099998,0.099991 0,0c-0.099998,0.100006 -0.099998,0.100006 -0.200005,0.100006l0,0c0,0 -0.099998,0 -0.099998,-0.100006l0,0l0,-0.099991c0,-0.100006 0,-0.100006 0.099998,-0.100006l0,0c0.100006,-0.100006 0.100006,-0.100006 0.200005,0c0,0 0,0 0.099998,0l0,0l0,0.100006l0,0c-0.099998,-0.000015 -0.099998,0.099991 -0.099998,0.099991zm0.099998,-0.600006l0,0l0,0c-0.099998,0.100006 -0.199997,0.100006 -0.199997,0.100006l-0.100006,0l0,0l0,0c0,0 0,0 0,-0.100006s0,-0.100006 0.100006,-0.199997l0,0l0.099998,0c0.099998,0 0.099998,0 0.199997,0c0,0 0,0.099991 -0.099998,0.199997zm0.599998,0.899994c0,0 -0.099998,0.099991 -0.199997,0.099991s-0.099998,0 -0.099998,-0.099991c-0.100006,-0.100006 0,-0.199997 0.099998,-0.300003s0.199997,-0.100006 0.299995,0c0,0.100006 0,0.200012 -0.099998,0.300003zm0.200005,-0.799988c0,0 -0.100006,0.100006 -0.200005,0.100006s-0.099998,0 -0.099998,-0.100006c0,0 0,-0.099991 0,-0.199997l0.099998,-0.100006c0.099998,-0.099991 0.200005,-0.099991 0.300003,0c0,0.099991 0,0.199997 -0.099998,0.300003zm0.599998,1.599991c0,0 -0.099998,0.100006 -0.200005,0.100006s-0.099998,0 -0.099998,-0.100006c-0.099998,-0.099991 0,-0.199997 0.099998,-0.300003s0.200005,-0.099991 0.300003,0l0,0.100006c0,0.100006 -0.099998,0.100006 -0.099998,0.199997zm-0.300003,-1.800003c0,-0.100006 0,-0.100006 0.099998,-0.199997c0.100006,-0.100006 0.200005,-0.100006 0.300003,0l0,0.099991c0,0.100006 0,0.100006 -0.099998,0.199997c-0.099998,0 -0.099998,0.100006 -0.200005,0.100006s-0.099998,0 -0.099998,-0.100006c0,0.000015 0,-0.099991 0,-0.099991zm0.300003,1c0,0 -0.099998,0.099991 -0.200005,0.099991s-0.099998,0 -0.099998,-0.099991c-0.099998,-0.100006 0,-0.199997 0.099998,-0.300003s0.200005,-0.100006 0.300003,0l0,0.100006c0,0.100006 0,0.199997 -0.099998,0.199997zm0.699997,-0.699997c0,0.100006 -0.099998,0.199997 -0.199997,0.199997l0,0c0,0 -0.099998,0 -0.099998,-0.099991s0,-0.100006 0,-0.199997c0,-0.100006 0.099998,-0.200012 0.199997,-0.200012l0,0c0,0 0.099998,0 0.099998,0.100006c0.099998,0 0.099998,0.100006 0,0.199997zm0.099998,-0.699997c0,0.100006 -0.099998,0.100006 0,0c-0.099998,0 -0.099998,0.100006 -0.099998,0.100006l0,0c-0.099998,0 -0.099998,0 -0.099998,-0.100006l0,-0.100006c0,0 0,0 0,-0.099991c0,0 0,0 0.099998,-0.100006c-0.099998,0 -0.099998,0 -0.099998,-0.099991l0,-0.100006c0,-0.100006 0,-0.100006 0.099998,-0.199997c0.099998,-0.100006 0.200005,-0.100006 0.300003,0c0.099998,0.099991 0,0.199997 -0.099998,0.300003c0.099998,0 0.099998,0 0.099998,0.099991c-0.099998,0.199997 -0.099998,0.300003 -0.200005,0.300003zm0.100006,-0.699997c-0.100006,-0.100006 0,-0.199997 0.099998,-0.300003s0.199997,-0.100006 0.299995,0l0,0.100006c0,0.099991 0,0.099991 -0.099998,0.199997c0,0 -0.099998,0.099991 -0.199997,0.099991c0,0 0,0 -0.099998,-0.099991zm0.5,1.5l0,0c-0.100006,0 -0.100006,0 0,0l0,0l0,0l-0.200005,0l0,-0.100006l0,0c0,0 0,0 0,-0.099991c0,0 0,0 0,-0.100006l0,0c0.099998,-0.100006 0.200005,-0.100006 0.300003,0c0,0.100006 0,0.300003 -0.099998,0.300003zm0.599998,-1.5c0,0.099991 -0.099998,0.199997 -0.200005,0.199997l0,0c0,0 -0.099998,0 -0.099998,-0.100006s0,-0.099991 0,-0.199997c0,-0.099991 0.099998,-0.199997 0.200005,-0.199997l0,0c0,0 0.099998,0 0.099998,0.100006c0,0.099991 0,0.099991 0,0.199997zm0.5,0.800003c-0.099998,0 -0.099998,0.100006 -0.200005,0.100006s-0.099998,0 -0.099998,-0.100006c-0.099998,-0.099991 0,-0.199997 0.099998,-0.300003s0.200005,-0.099991 0.300003,0c0,0.099991 0,0.300003 -0.099998,0.300003zm0.199997,-1.100006c0,0 0,-0.100006 0,0c0,-0.100006 0.099998,-0.100006 0,0c0.099998,-0.100006 0.300003,-0.100006 0.300003,0l0,0.100006c0,0.099991 0,0.099991 -0.099998,0.199997l0,0c0,0 0,0 -0.100006,0c0,0 0,0 -0.099998,0l0,0c-0.099998,0 -0.099998,0 -0.099998,-0.100006l0.099998,-0.199997c-0.099998,0.100006 -0.099998,0.100006 0,0l0,0zm-0.400002,-1.100006c0.100006,-0.100006 0.200005,-0.100006 0.300003,0c0.099998,0.099991 0,0.199997 -0.099998,0.300003c0,0 -0.099998,0.099991 -0.200005,0.099991s-0.099998,0 -0.099998,-0.099991c0,-0.099991 0,-0.199997 0.099998,-0.300003zm-0.199997,0.600006c0.099998,-0.100006 0.199997,-0.100006 0.300003,0l0,0.100006c0,0.099991 0,0.099991 -0.100006,0.199997c0,0 -0.099998,0.099991 -0.199997,0.099991s-0.099998,0 -0.099998,-0.099991c-0.099998,-0.100006 0,-0.199997 0.099998,-0.300003zm-0.5,0.199997c0,-0.099991 0.099998,-0.199997 0.199997,-0.199997l0,0c0,0 0.100006,0 0.100006,0.100006s0,0.099991 0,0.199997c0,0.099991 -0.100006,0.199997 -0.200005,0.199997l0,0c0,0 -0.099998,0 -0.099998,-0.100006c0,-0.099991 0,-0.099991 0,-0.199997zm0.099998,1.100006c0.099998,0.099991 0,0.199997 -0.099998,0.300003c-0.099998,0 -0.099998,0.099991 -0.199997,0.099991s-0.100006,0 -0.100006,-0.099991c-0.099998,-0.100006 0,-0.200012 0.100006,-0.300003s0.199997,-0.100006 0.299995,0zm-0.599998,-2c0,0 0,-0.100006 0.099998,-0.100006c0.099998,-0.099991 0.200005,-0.099991 0.300003,0c0.099998,0.100006 0,0.199997 -0.099998,0.300003c-0.100006,0 -0.100006,0.100006 -0.200005,0.100006s-0.099998,0 -0.099998,-0.100006c0,-0.100006 0,-0.100006 0,-0.199997zm-0.300003,0.699997c0,-0.100006 0.100006,-0.199997 0.200005,-0.199997l0,0c0,0 0.099998,0 0.099998,0.099991s0,0.100006 0,0.200012c0,0.099991 -0.099998,0.199997 -0.199997,0.199997l0,0c0,0 -0.100006,0 -0.100006,-0.100006c-0.099998,0 -0.099998,-0.099991 0,-0.199997zm-0.399994,-0.600006c0,-0.100006 0.099998,-0.199997 0.199997,-0.199997c0,0 0.099998,0 0.099998,0.099991c0,0 0,0.100006 0,0.199997c0,0.100006 -0.099998,0.200012 -0.199997,0.200012l0,0c0,0 -0.099998,0 -0.099998,-0.100006c-0.100006,-0.099991 -0.100006,-0.199997 0,-0.199997zm-0.100006,0.700012c0,-0.099991 0.100006,-0.199997 0.200005,-0.199997l0,0c0,0 0.099998,0 0.099998,0.100006s0,0.099991 0,0.199997c0,0.099991 -0.099998,0.199997 -0.199997,0.199997l0,0c0,0 -0.100006,0 -0.100006,-0.100006s0,-0.199997 0,-0.199997zm-0.099998,0.199997c0,0 0.099998,0 0.099998,0.099991c0,0 0,0.100006 0,0.200012c0,0.099991 -0.099998,0.199997 -0.199997,0.199997l0,0c0,0 -0.099998,0 -0.099998,-0.100006s0,-0.099991 0,-0.199997c0,-0.100006 0.099998,-0.199997 0.199997,-0.199997zm-0.599998,-0.5c0,-0.100006 0.099998,-0.199997 0.199997,-0.199997c0,0 0.100006,0 0.100006,0.099991c0,0 0,0.100006 0,0.199997c0,0.100006 -0.100006,0.200012 -0.200005,0.200012l0,0c0,0 -0.099998,0 -0.099998,-0.100006s0,-0.100006 0,-0.199997zm0,1.399994l0,0c0.099998,0 0.099998,0 0,0c0.099998,0.100006 0.099998,0.100006 0.099998,0.199997c0,0.100006 0,0.100006 -0.099998,0.200012c0,0 -0.099998,0.099991 -0.199997,0.099991s-0.100006,0 -0.100006,-0.099991c0,0 0,0 0,-0.100006l0,-0.100006c0,0 0,-0.099991 0.100006,-0.099991c0,-0.100006 0.099998,-0.100006 0.199997,-0.100006zm-0.5,-0.899994c0.099998,-0.100006 0.099998,-0.100006 0.199997,0l0.100006,0c0,0 0,0 0,0.099991l0,0c0,0.100006 0,0.100006 -0.100006,0.200012c-0.099998,0 -0.099998,0.099991 -0.199997,0.099991s-0.099998,0 -0.099998,-0.099991l0,-0.100006c0,-0.100006 0.099998,-0.199997 0.099998,-0.199997zm-0.199997,0.699997c0.099998,0 0.099998,0 0,0c0.099998,0 0.099998,0 0.099998,0.100006l0,0l0,0.099991c0,0.100006 0,0.100006 -0.099998,0.199997c0,0 -0.100006,0.100006 -0.200005,0.100006l-0.099998,0l0,0l0,0c0,0 0,0 0,-0.100006l0,0c0,-0.099991 0,-0.099991 0.099998,-0.199997c0.099998,-0.199997 0.200005,-0.199997 0.200005,-0.199997z"/>
     </g>
     <g id="svg_56">
      <path id="svg_57" fill="#D2CD96" d="m83.900002,55.899994l0,0l0,0l0,0z"/>
     </g>
     <g id="svg_58">
      <path id="svg_59" fill="#D2CD96" d="m91.599998,56.600006l0,0c0.300003,-0.199997 0.700005,-0.599991 1.099998,-1c0,0 0,0 0.100006,-0.099991c0,0 0,0 0.099998,-0.100006c0.199997,-0.199997 0.5,-0.5 0.799995,-0.699997c-0.5,-0.800003 -1.599998,-1.300003 -3,-1.300003c-0.199997,0 -0.5,0 -0.699997,0c0,0 0,0 -0.099998,0l-0.099998,0c-0.100006,0 -0.200005,0 -0.300003,0.100006l-0.099998,0l-0.099998,0l-0.100006,0c-0.5,0.099991 -0.899994,0.299988 -1.299995,0.5l0,0l0,0c-0.200005,0.099991 -0.400002,0.199997 -0.599998,0.399994c0,0 0,0 -0.100006,0c0,0 0,0 -0.099998,0c-0.199997,0.199997 -0.400002,0.399994 -0.599998,0.600006c-0.300003,0.299988 -0.400002,0.599991 -0.599998,0.899994c0,0 0.099998,0 0.099998,0.100006c0.099998,0.099991 0.300003,0.199997 0.400002,0.299988c0,0 0,0 0.099998,0l0,0l0,0l0,0c0,0 0,0 0.099998,0.100006l0.099998,0.100006c0,0 0,0 0.100006,0c0,0 0,0 0.099998,0c0.400002,0.299988 0.699997,0.599991 0.900002,0.899994c0,0 0.099998,0 0.099998,-0.100006c0.099998,0 0.299995,0 0.299995,0.100006l0,0.100006c0,0.099991 -0.099998,0.099991 -0.199997,0.099991c0.300003,0.5 0.599998,0.900009 0.699997,1.300003c0.100006,0 0.200005,0 0.300003,0c0.099998,0 0.099998,0 0.199997,0c0.200005,-0.199997 0.300003,-0.5 0.5,-0.699997c0,0 0,0 0,-0.100006c0,0 0,0 0,-0.099991c0.300003,-0.400009 0.600006,-0.700012 0.800003,-1l0,0l0.099998,-0.100006c0.200005,-0.199997 0.300003,-0.300003 0.400002,-0.5l0,0c0.400002,0.399994 0.5,0.299988 0.599998,0.199997zm-2.900002,-2.400009c0,-0.099991 0.100006,-0.099991 0.200005,-0.099991s0.299995,0 0.299995,0.099991l0,0.100006c0,0.099991 -0.099998,0.099991 -0.199997,0.099991l-0.099998,0c-0.099998,0 -0.200005,-0.099991 -0.200005,-0.099991c-0.099998,0 -0.099998,-0.100006 0,-0.100006zm0,1c0.100006,0 0.200005,0 0.200005,0s0,0 0.099998,0c0,0 0,0 0,0.100006l0,0l0,0.099991c0,0.100006 -0.099998,0.100006 -0.199997,0.100006l0,0l0,0l0,0l-0.100006,0l-0.099998,-0.100006c-0.199997,-0.099991 -0.099998,-0.199997 0.099998,-0.199997zm-1.5,0.900009l0,0l0,0c0,0.100006 -0.099998,0.199997 -0.199997,0.199997l0,0c0,0 0,0 -0.099998,0l0,0l-0.099998,0l-0.100006,-0.099991l0,-0.100006c0,-0.099991 0.100006,-0.099991 0.200005,-0.099991c0.099998,-0.100021 0.299995,-0.100021 0.299995,0.099991c0,-0.100006 0,-0.100006 0,0l0,0zm0.100006,-0.400009c-0.100006,0 -0.200005,-0.099991 -0.200005,-0.099991l0,-0.100006c0,-0.100006 0.099998,-0.100006 0.200005,-0.100006s0.299995,0 0.299995,0.100006c0,0 -0.099998,0.199997 -0.299995,0.199997c0.099998,0 0,0 0,0zm0.399994,1.100006c0,0 -0.099998,0 0,0c-0.199997,0 -0.299995,0 -0.299995,-0.100006l0,-0.099991l0,0c0,-0.100006 0.099998,-0.100006 0.199997,-0.100006c0,0 0,0 0.099998,0s0.200005,0 0.200005,0.100006c0,0.099991 -0.099998,0.199997 -0.200005,0.199997zm0.200005,-1.900009c0,-0.100006 0.099998,-0.100006 0.199997,-0.100006l0.099998,0c0.100006,0 0.200005,0.100006 0.200005,0.100006l0,0.099991c0,0.100006 -0.099998,0.100006 -0.200005,0.100006l-0.099998,0c-0.099998,0 -0.199997,-0.100006 -0.199997,-0.100006c0,-0.099991 0,-0.099991 0,-0.099991zm0.299995,1.200012c-0.099998,0 -0.099998,0 0,0c-0.099998,0 -0.099998,0 0,0l0,0l0,0l0,0l0,0c-0.099998,-0.099991 0,-0.199997 0.100006,-0.199997l0,0l0.099998,0l0,0c0,0 0,0 0.099998,0l0,0c0,0 0,0 0.099998,0c0,0 0,0 0,0.100006l0,0l0,0.099991c0,0 0,0 0,0.100006c-0.299995,-0.200012 -0.299995,-0.100006 -0.400002,-0.100006l0,0zm0.5,1c0,0.100006 -0.099998,0.100006 -0.199997,0.100006l-0.099998,0c-0.099998,0 -0.200005,0 -0.200005,-0.100006s0.100006,-0.199997 0.200005,-0.199997s0.299995,-0.000015 0.299995,0.199997c0.100006,0 0.100006,0 0,0zm0.400002,-1c0,0.100006 -0.099998,0.100006 -0.199997,0.100006l-0.099998,0c-0.100006,0 -0.200005,-0.100006 -0.200005,-0.100006l0,-0.100006c0,-0.100006 0.099998,-0.100006 0.200005,-0.100006s0.299995,0 0.299995,0.100006c0,0 0,0.100006 0,0.100006zm3.5,-1.600006c0.099998,0 0.300003,0 0.300003,0.100006s-0.099998,0.199997 -0.200005,0.199997l-0.099998,0c-0.099998,0 -0.199997,-0.100006 -0.199997,-0.100006c0,0 0.099998,-0.099991 0.199997,-0.199997zm-0.699997,0.699997l0,0l0,0c0.099998,-0.099991 0.099998,-0.099991 0.099998,-0.099991s0,0 0.099998,0s0.300003,0 0.300003,0.099991c0,0 0,0 0,0.100006c0,0 0,0 0,0.099991c0,0 0,0 0,0.100006l-0.099998,0.100006l-0.100006,0c-0.099998,0 -0.199997,-0.100006 -0.199997,-0.100006c-0.199997,-0.199997 -0.099998,-0.199997 -0.099998,-0.300003zm-0.099998,-0.099991c0,0.099991 0,0.099991 0,0c0,0.100006 0,0.100006 -0.100006,0.199997c-0.099998,0.100006 -0.099998,0.100006 -0.199997,0.100006l-0.099998,0l-0.099998,-0.100006c0,-0.099991 0,-0.099991 0.099998,-0.199997l0,0c0,0 0,0 0.099998,0l0.099998,0l0.200005,0c0,-0.100006 0,-0.100006 0,0l0,0l0,0zm-0.5,-1.100006c0,-0.100006 0.099998,-0.100006 0.199997,-0.100006s0.300003,0 0.300003,0.100006s-0.100006,0.199997 -0.200005,0.199997l-0.099998,0c-0.099998,0 -0.199997,0 -0.199997,-0.199997c0,0 0,0 0,0zm-0.300003,0.600006l0,0c0,0.100006 0,0.100006 0,0.100006s0,0 0,0.099991l0,0c-0.099998,0.100006 -0.099998,0.100006 -0.199997,0.100006l-0.100006,0l-0.099998,-0.100006c0,-0.099991 0,-0.099991 0.099998,-0.199997l0,0l0,0c0,0 0,0 0.100006,0s0.199997,0 0.199997,0c0,-0.100006 0,-0.100006 0,0zm-0.5,-1c0.099998,-0.099991 0.199997,-0.099991 0.300003,-0.099991l0.099998,0.099991c0,0.100006 0,0.100006 -0.099998,0.199997c-0.100006,0.100006 -0.100006,0.100006 -0.200005,0.100006l-0.099998,0l-0.099998,-0.100006c0,0 0.099998,-0.100006 0.099998,-0.199997zm-0.300003,0.699997l0,0c0.100006,-0.100006 0.100006,-0.100006 0.200005,-0.100006s0.099998,0 0.199997,0l0,0l0.099998,0.100006l0,0l0,0.099991c0,0 0,0.100006 -0.099998,0.100006c-0.099998,0.100006 -0.099998,0.100006 -0.199997,0.100006l-0.099998,0l-0.100006,-0.100006c-0.099998,0 -0.099998,-0.100006 0,-0.199997zm-0.199997,0.399994c0,0.100006 0,0.100006 -0.099998,0.199997c-0.099998,0.100006 -0.099998,0.100006 -0.200005,0.100006l-0.099998,0l-0.099998,-0.100006c0,-0.099991 0,-0.099991 0.099998,-0.199997c0.099998,-0.099991 0.200005,-0.099991 0.300003,-0.099991c0,0 0.099998,0 0.099998,0.099991zm-0.5,-0.899994l0,0c0.099998,-0.100006 0.099998,-0.100006 0,0c0.099998,-0.100006 0.099998,-0.100006 0.199997,-0.100006l0.100006,0c0,0 0,0 0.099998,0l0,0c0,0 0,0 0,0.100006l0,0c0,0 0,0 0,0.099991c0,0 0,0 0,0.100006c0,0 0,0 0,0.100006l0,0l0,0l-0.099998,0c0,0 0,0 -0.100006,0l0,0l-0.099998,0l-0.099998,-0.100006c0,-0.100006 0,-0.199997 0,-0.199997zm0,3.099991l0,0l-0.199997,-0.100006c0,-0.099991 0,-0.099991 0.099998,-0.199997c0.099998,-0.100006 0.199997,-0.100006 0.299995,-0.100006l0.100006,0.100006c0,0.100006 0,0.100006 -0.100006,0.199997c-0.099998,0.000015 -0.199997,0.100006 -0.199997,0.100006zm0.5,1.100006l-0.099998,0.100006l0,0l0,0c0,0 0,0 -0.099998,0l0,0c-0.100006,0 -0.200005,-0.100006 -0.200005,-0.100006c0,-0.100006 0,-0.100006 0,-0.100006s0,0 0.099998,0c0,0 0,0 0.100006,0l0,0c0.099998,0 0.299995,0 0.299995,0.100006c-0.099998,-0.100006 -0.099998,-0.100006 -0.099998,0zm-0.099998,-1.899994c-0.099998,0 -0.200005,0 -0.200005,-0.099991s0.100006,-0.200012 0.200005,-0.200012l0,0c-0.099998,0 -0.099998,-0.099991 -0.200005,-0.099991l0,-0.100006c0,-0.099991 0.100006,-0.099991 0.200005,-0.099991s0.299995,0 0.299995,0.099991s-0.099998,0.199997 -0.199997,0.199997l0,0c0.099998,0 0.099998,0.100006 0.199997,0.100006c0,0.099991 -0.099998,0.199997 -0.299995,0.199997c0.099998,0 0,0 0,0zm0.400002,1.099991c0,0.100006 -0.100006,0.100006 0,0c-0.200005,0 -0.300003,0 -0.300003,-0.099991l0,-0.100006c0,-0.100006 0.099998,-0.100006 0.199997,-0.100006s0.300003,0 0.300003,0.100006c0,0.100006 -0.099998,0.199997 -0.199997,0.199997zm0.399994,-2c0.100006,0 0.300003,0 0.300003,0.100006l0,0.099991c0,0.100006 -0.099998,0.100006 -0.199997,0.100006l-0.100006,0c-0.099998,0 -0.199997,0 -0.199997,-0.100006c0,-0.099991 0.099998,-0.199997 0.199997,-0.199997zm0.200005,1.300003c-0.099998,0 -0.099998,0 0,0c-0.200005,0 -0.300003,0 -0.300003,-0.100006l0,-0.099991c0,-0.100006 0.099998,-0.100006 0.200005,-0.100006s0.299995,0 0.299995,0.100006s-0.099998,0.199997 -0.199997,0.199997zm0.5,-0.600006l0,0l-0.200005,-0.100006c0,-0.099991 0,-0.099991 0.100006,-0.199997c0.099998,-0.100006 0.199997,-0.100006 0.299995,-0.100006l0.099998,0.100006c0,0.100006 0,0.100006 -0.099998,0.199997c-0.099998,0.100006 -0.099998,0.100006 -0.199997,0.100006z"/>
     </g>
     <g id="svg_60">
      <path id="svg_61" fill="#D2CD96" d="m102.599998,52.5c-0.599998,-0.800003 -1.599998,-1.300003 -2.799995,-1.300003c-0.200005,0 -0.400002,0 -0.700005,0c-0.699997,0.100006 -1.5,0.5 -2.400002,1.100006c0,0 0,0 -0.099998,0c0,0 0,0 -0.099998,0c-0.300003,0.199997 -0.5,0.399994 -0.800003,0.599991c0,0 0,0 -0.099998,0l-0.099998,0.100006c0,0 0,0 -0.099998,0c-0.200005,0.100006 -0.300003,0.199997 -0.5,0.399994c0,0 0,0 -0.099998,0c0,0 0,0 -0.100006,0c0,0 -0.099998,0 -0.099998,0.100006c0,0 0,0 -0.099998,0c0,0 0,0 -0.099998,0c-0.400002,0.300003 -0.800003,0.699997 -1.099998,1l0,0c0,0 0,0 -0.100006,0.100006c-0.199997,0.199997 -0.5,0.5 -0.699997,0.699997c0,0 0,0 -0.099998,0.099991c0,0 0,0 -0.099998,0.100006s-0.100006,0.100006 -0.200005,0.199997c0,0 0,0 -0.099998,0.100006s-0.099998,0.099991 -0.199997,0.199997c0,0 0,0 -0.100006,0c-0.199997,0.199997 -0.399994,0.399994 -0.5,0.5c0,0 0,0 -0.099998,0.100006l0,0c0,0 0,0 -0.099998,0.099991l-0.099998,0.100006l-0.099998,0.099991l0,0c-0.100006,0.100006 -0.200005,0.200012 -0.300003,0.400009c0,0 0,0 -0.099998,0.099991c0,0 0,0 -0.099998,0.100006l-0.100006,0.100006l0,0c0,0 0,0 -0.099998,0.099991c-0.299995,0.300003 -0.5,0.600006 -0.799995,1c0,0 0,0 0,0.100006c0,0 0,0 -0.100006,0.099991c-0.099998,0.200012 -0.299995,0.400009 -0.399994,0.600006c0,0 0,0.100006 -0.100006,0.100006c0,0 0,0 0,0.099991c-0.099998,0.199997 -0.199997,0.400009 -0.299995,0.600006c0.099998,0.300003 0.099998,0.5 0.099998,0.699997c0,0.399994 0,0.899994 0,1.300003l0,0l0,0l0,0l0,0l0,0c0,0 0,0 0,0.099991c0.199997,0.200012 0.400002,0.300003 0.699997,0.400009c0.5,0.199997 1.100006,0.199997 1.900002,0.199997l0,0c2.800003,0 6.900002,-1.100006 7.599998,-1.800003c0.200005,-0.300003 0.600006,-0.800003 0.900002,-1.5c0,-0.099991 0.099998,-0.099991 0.099998,-0.199997c0.900002,-1.699997 2,-4.100006 2.400002,-5c1,-0.800003 0.900002,-1.5 0.5,-2zm-7.099998,7.699997l0,0c-0.099998,0 -0.099998,0 0,0c-0.099998,0 -1.099998,-1.399994 -2.199997,-1.899994c-0.100006,-0.100006 -0.200005,-0.100006 -0.400002,-0.100006c0,0 0,0 -0.099998,0l-0.100006,0c-0.5,-0.099991 -0.899994,-0.199997 -1.199997,-0.199997c-0.199997,0 -0.300003,0 -0.300003,0l-0.099998,0l0,-0.100006c0.099998,-0.099991 0.5,-0.299988 1,-0.299988c0.300003,0 0.599998,0.099991 0.900002,0.199997l0.099998,0c0,0 0,0 0.099998,0l0.100006,0c0.899994,0.300003 1.599998,1.099991 2,2.300003c0.199997,-0.100006 0.199997,0 0.199997,0.099991c0,-0.099991 0,-0.099991 0,0zm2.5,-2.399994l0,0c-0.099998,0 -0.099998,0 0,0c-0.099998,-0.100006 -0.900002,-1.5 -1.900002,-2.100006l0,0c0,0 0,0 -0.099998,0c0,0 0,0 -0.099998,0c-0.900002,-0.5 -1.599998,-0.5 -1.800003,-0.5l0,0l0,0l-0.099998,0l0,-0.099991l0,0c0.199997,-0.100006 0.5,-0.200012 0.800003,-0.200012c0.399994,0 0.899994,0.100006 1.399994,0.400009c0,0 0.100006,0 0.100006,0.099991c0,0 0,0 0.099998,0c0,0 0,0 0.099998,0c0.5,0.300003 1.199997,1 1.5,2.300003c0,-0.099991 0,0 0,0.100006c0,-0.100006 0,-0.100006 0,0zm2.699997,-2.400009l0,0l0,0c-0.099998,0 -1.099998,-1.400009 -2.199997,-1.900009c-0.599998,-0.199997 -1,-0.299988 -1.400002,-0.299988c0,0 0,0 -0.099998,0c0,0 0,0 -0.099998,0l-0.099998,0c-0.200005,0 -0.300003,0 -0.300003,0l-0.099998,0l0,-0.100006c0.099998,-0.100006 0.199997,-0.199997 0.400002,-0.199997c0,0 0,0 0.099998,0c0,0 0,0 0.099998,0s0.300003,-0.100006 0.5,-0.100006c0.400002,0 0.699997,0.100006 1.199997,0.199997c0.900002,0.300003 1.600006,1.100006 2,2.300003c0,0.000015 0.100006,0.000015 0,0.100006c0.100006,-0.099991 0.100006,0 0,0z"/>
     </g>
     <g id="svg_62">
      <path id="svg_63" fill="#D2CD96" d="m89.099998,60.300003l0,-0.100006l0,-0.099991c-0.099998,-0.200012 -0.099998,-0.400009 -0.199997,-0.600006c0,0 0,0 0,-0.100006l0,-0.099991c-0.200005,-0.400009 -0.400002,-0.900009 -0.800003,-1.300003c0,-0.100006 -0.099998,-0.100006 -0.099998,-0.199997c-0.300003,-0.300003 -0.599998,-0.600006 -0.900002,-0.900009c0,0 0,0 -0.099998,0l0,0c-0.099998,-0.099991 -0.099998,-0.099991 -0.199997,-0.199997l0,0c0,0 0,0 -0.100006,0l0,0c0,0 0,0 -0.099998,0l0,0c-0.099998,-0.099991 -0.299995,-0.199997 -0.400002,-0.300003l-0.099998,0c0,0 0,0 -0.099998,0c0,0 0,0 -0.099998,0c-0.300003,-0.199997 -0.599998,-0.399994 -1,-0.5l-0.099998,0c-0.100006,0 -0.100006,0 -0.200005,-0.099991c0,0 0,0 -0.099998,0c-0.099998,-0.100006 -0.300003,-0.100006 -0.400002,-0.100006c0,0 0,0 -0.099998,0c0,0 0,0 -0.099998,0l0,0c0,0 0,0 -0.099998,0c0,0 0,0 -0.100006,0s-0.199997,0 -0.199997,-0.099991l-0.099998,0c0,0 0,0 -0.099998,0c-0.400002,-0.100006 -0.800003,-0.100006 -1.100006,-0.100006c-0.799995,0 -1.5,0.300003 -2,0.600006c0,0 0,0 -0.099998,0c-1.400002,1.099991 -1.599998,2.799988 -1.099998,3.799988c0.099998,0.200012 0.300003,0.400009 0.599998,0.700012c0,0 0,0 0.099998,0c0.5,0.399994 1.100006,0.799988 1.900002,1.299988c1.099998,0.5 2.900002,0.900009 4.099998,1.100006c0,0 0.300003,0 0.600006,0c0.5,0 1.399994,-0.100006 2.099998,-0.300003c0.099998,0 0.099998,0 0.199997,-0.099991c0.099998,0 0.099998,-0.100006 0.200005,-0.100006c0,0 0,0 0.099998,0c0,0 0,0 0.099998,0c0,0 0,0 0.099998,0l0,0c0,-0.399994 0.099998,-0.800003 0,-1.199997c0.099998,-0.600006 0.099998,-0.699997 0,-1zm-2.099998,1.300003l0,0c-0.199997,0 -0.199997,-0.099991 -0.300003,-0.099991c-0.099998,-0.100006 -1.399994,-2 -3.099998,-2.700012c-0.5,-0.199997 -1,-0.399994 -1.400002,-0.5l-0.099998,0l-0.099998,0c-0.599998,-0.099991 -1,-0.199997 -1.199997,-0.199997s-0.200005,0 -0.200005,-0.099991l0,-0.100006l0.099998,0c0.100006,0 0.5,-0.100006 1,-0.100006l0,0l0.100006,0l0.099998,0c0.699997,0 1.299995,0.200012 2,0.5c1.699997,0.599991 3.099998,3.099991 3.099998,3.300003l0,0zm0.5,-1.200012l0,0c-0.199997,0 -0.199997,-0.100006 -0.300003,-0.100006c0,0 -0.399994,-0.599991 -1,-1.199997c0,0 0,0 -0.099998,-0.100006l0,0c0,0 0,0 -0.099998,-0.099991c-0.5,-0.5 -1.199997,-1.100006 -2,-1.400009c-1.300003,-0.5 -2.400002,-0.699997 -2.800003,-0.799988l-0.099998,0l-0.099998,0c0,0 -0.099998,0 -0.099998,-0.100006l0,0l0,0l0,0l0,0c0.099998,0 0.5,-0.100006 1,-0.100006c0.699997,0 1.5,0.200012 2.199997,0.5s1.300003,0.800003 1.800003,1.300003c0,0 0,0 0.099998,0.100006l0.099998,0.099991c0,0 0,0 0.099998,0.100006c0.800003,0.800003 1.300003,1.700012 1.300003,1.800003l0,0zm0.800003,-0.899994l0,0c-0.200005,0 -0.200005,-0.100006 -0.300003,-0.100006c0,0 0,0 0,-0.099991c0,0 0,-0.100006 -0.099998,-0.100006l-0.099998,-0.099991c-0.200005,-0.300003 -0.700005,-0.800003 -1.300003,-1.400009c0,0 0,0 -0.099998,0c0,0 0,0 -0.099998,0l-0.100006,-0.099991c0,0 0,0 -0.099998,0c0,0 0,0 -0.099998,0s-0.099998,-0.100006 -0.199997,-0.100006c0,0 -0.100006,0 -0.100006,-0.100006c0,0 -0.099998,0 -0.099998,-0.099991c-0.299995,-0.199997 -0.599998,-0.400009 -0.900002,-0.5l-0.099998,0c-0.099998,-0.100006 -0.299995,-0.100006 -0.400002,-0.199997c-0.099998,-0.100006 -0.299995,-0.100006 -0.399994,-0.100006c0,0 0,0 -0.100006,0l0,0c0,0 0,0 -0.099998,0c-0.799995,-0.300003 -1.5,-0.399994 -1.799995,-0.399994c-0.200005,0 -0.200005,0 -0.200005,-0.100006l0,-0.100006l0.099998,0c0.100006,0 0.5,-0.099991 1,-0.099991c0.200005,0 0.5,0 0.800003,0.099991l0.099998,0l0.099998,0c0,0 0,0 0.100006,0c0,0 0,0 0.099998,0l0.099998,0c0,0 0,0 0.099998,0c0.300003,0.100006 0.700005,0.200012 1,0.300003s0.5,0.300003 0.700005,0.400009c0,0 0,0 0.099998,0c0,0 0,0 0.099998,0c0,0 0.099998,0 0.099998,0.099991c0,0 0,0 0.099998,0.100006c0,0 0.100006,0 0.100006,0.099991c0.099998,0 0.099998,0.100006 0.199997,0.100006c0,0 0,0 0.099998,0c0,0 0,0 0.099998,0.100006s0.100006,0.099991 0.200005,0.199997l0,0c0,0 0,0 0,0.099991l0.099998,0.100006c0,0 0,0 0.099998,0.100006c0,0 0,0.099991 0.099998,0.099991c0,0 0,0.100006 0.100006,0.100006c0.599998,0.599991 1,1.300003 1,1.699997l0,0l0.099998,0.100006c-0.099998,-0.200012 -0.099998,-0.200012 -0.099998,-0.100006l0,0z"/>
     </g>
     <g id="svg_64">
      <path id="svg_65" fill="#D2CD96" d="m90,63.199997c-0.300003,0 -0.699997,0 -1,0c0.199997,0.400009 0.400002,0.900009 0.699997,1.300003c0.100006,0.100006 0.200005,0.199997 0.300003,0.300003l0,0c0.599998,0 1.199997,0 1.800003,-0.100006l0,0c-0.400002,-0.5 -0.700005,-1.099991 -0.800003,-1.5c-0.400002,0 -0.699997,0 -1,0z"/>
     </g>
     <g id="svg_66">
      <path id="svg_67" fill="#D2CD96" d="m84.199997,62.699997c0.200005,0.400009 0.400002,0.800003 0.800003,1.199997c0.199997,0.200012 0.400002,0.400009 0.599998,0.600006c0.599998,0.100006 1.099998,0.100006 1.700005,0.199997c-0.100006,-0.099991 -0.200005,-0.199997 -0.200005,-0.199997c-0.400002,-0.5 -0.599998,-1 -0.799995,-1.399994c-0.700005,-0.200012 -1.400002,-0.300003 -2.100006,-0.400009z"/>
     </g>
     <g id="svg_68">
      <path id="svg_69" fill="#D2CD96" d="m79.599998,60.800003c0.099998,0.399994 0.300003,0.800003 0.599998,1.099991c0.400002,0.600006 1.100006,1.200012 1.400002,1.5c0.400002,0.100006 0.700005,0.300003 1.200005,0.400009c-0.100006,-0.100006 -0.300003,-0.199997 -0.400002,-0.400009c-0.5,-0.5 -0.800003,-1.099991 -0.900002,-1.599991c-0.900002,-0.300003 -1.5,-0.600006 -1.900002,-1z"/>
     </g>
     <g id="svg_70">
      <path id="svg_71" fill="#D2CD96" d="m99.5,61.399994c-0.400002,0.199997 -0.900002,0.399994 -1.400002,0.599991c0.300003,0.300003 0.5,0.600006 0.800003,0.700012c0.099998,0.099991 0.299995,0.199997 0.400002,0.299988c0.5,-0.299988 1,-0.5 1.399994,-0.799988c-0.5,-0.199997 -0.899994,-0.5 -1.199997,-0.800003z"/>
     </g>
     <g id="svg_72">
      <path id="svg_73" fill="#D2CD96" d="m100.800003,60.300003c-0.200005,0.300003 -0.5,0.599991 -1,0.899994c0.399994,0.300003 0.799995,0.600006 1.199997,0.699997l0,0c0.400002,-0.399994 0.699997,-0.699997 0.800003,-1.099991c-0.100006,0 -0.200005,-0.100006 -0.200005,-0.100006c-0.199997,-0.099991 -0.5,-0.199997 -0.799995,-0.399994z"/>
     </g>
     <g id="svg_74">
      <path id="svg_75" fill="#D2CD96" d="m91.400002,63.199997c0.099998,0.400009 0.400002,0.900009 0.699997,1.300003c0.099998,0.100006 0.099998,0.199997 0.200005,0.199997c0.699997,-0.099991 1.5,-0.099991 2.199997,-0.199997c-0.099998,-0.100006 -0.199997,-0.199997 -0.300003,-0.399994c-0.199997,-0.300003 -0.5,-0.600006 -0.699997,-1c-0.699997,0 -1.400002,0 -2.099998,0.099991z"/>
     </g>
     <g id="svg_76">
      <path id="svg_77" fill="#D2CD96" d="m81.900002,62c0.199997,0.399994 0.400002,0.800003 0.699997,1.199997c0.200005,0.300003 0.5,0.5 0.900002,0.800003c0.5,0.100006 1,0.199997 1.5,0.300003c-0.099998,-0.100006 -0.199997,-0.199997 -0.199997,-0.199997c-0.5,-0.5 -0.800003,-1.100006 -0.900002,-1.5c-0.800003,-0.200012 -1.400002,-0.400009 -2,-0.600006z"/>
     </g>
     <g id="svg_78">
      <path id="svg_79" fill="#D2CD96" d="m88.599998,63.199997c-0.599998,0 -1.299995,-0.099991 -1.900002,-0.099991c0.200005,0.5 0.400002,0.799988 0.700005,1.099991c0.099998,0.199997 0.299995,0.300003 0.5,0.5c0.5,0 1.099998,0.100006 1.599998,0.100006l-0.099998,-0.100006c-0.400002,-0.5 -0.700005,-1.099991 -0.800003,-1.5z"/>
     </g>
     <g id="svg_80">
      <path id="svg_81" fill="#D2CD96" d="m80.699997,63c-0.299995,-0.300003 -0.599998,-0.600006 -0.799995,-0.899994c-0.599998,-0.900009 -0.900002,-2.5 -0.900002,-2.600006c0,0 -0.199997,0 -0.300003,0c-0.199997,0.199997 -0.5,0.399994 -0.5,1c0,1.100006 0.900002,1.800003 2.5,2.5z"/>
     </g>
     <g id="svg_82">
      <path id="svg_83" fill="#D2CD96" d="m100.900002,59.199997c0,0.100006 0.099998,0.300003 0.099998,0.400009c0,0.099991 0,0.199997 -0.099998,0.399994c0.299995,0.199997 0.5,0.300003 0.799995,0.399994c0.100006,0 0.100006,0.100006 0.200005,0.100006c0,-0.100006 0,-0.199997 0,-0.300003c0,-0.300003 0,-1.199997 -0.5,-1.599991c-0.099998,0.099991 -0.400002,0.599991 -0.5,0.599991z"/>
     </g>
     <g id="svg_84">
      <path id="svg_85" fill="#D2CD96" d="m96,62.600006c0.300003,0.400009 0.5,0.600006 0.800003,0.900009c0.099998,0.099991 0.299995,0.199997 0.5,0.299988c0.599998,-0.199997 1.199997,-0.399994 1.699997,-0.599991c-0.099998,0 -0.199997,-0.100006 -0.199997,-0.100006c-0.300003,-0.199997 -0.700005,-0.5 -1,-0.899994c-0.600006,0.099991 -1.200005,0.299988 -1.800003,0.399994z"/>
     </g>
     <g id="svg_86">
      <path id="svg_87" fill="#D2CD96" d="m93.800003,63c0.199997,0.300003 0.299995,0.600006 0.5,0.899994c0.099998,0.200012 0.299995,0.300003 0.5,0.5c0.699997,-0.099991 1.299995,-0.299988 1.899994,-0.399994c-0.099998,-0.100006 -0.199997,-0.100006 -0.199997,-0.199997c-0.300003,-0.300003 -0.599998,-0.600006 -0.900002,-1.100006c-0.599998,0.100006 -1.199997,0.199997 -1.799995,0.300003z"/>
     </g>
     <g id="svg_88">
      <path id="svg_89" fill="#D2CD96" d="m96.699997,67.5c-1.099998,0.300003 -2.299995,0.600006 -3.5,0.699997c0,0.5 -0.099998,0.900009 -0.099998,1.400009c1.200005,-0.100006 2.400002,-0.400009 3.5,-0.700012c0,-0.399994 0,-0.899994 0.099998,-1.399994z"/>
     </g>
     <g id="svg_90">
      <path id="svg_91" fill="#D2CD96" d="m96.5,69.300003c-1.099998,0.300003 -2.300003,0.5 -3.5,0.699997c0,0.399994 -0.099998,0.800003 -0.099998,1.199997c1.199997,-0.099991 2.400002,-0.300003 3.400002,-0.599991c0.099998,-0.300003 0.099998,-0.800003 0.199997,-1.300003z"/>
     </g>
     <g id="svg_92">
      <path id="svg_93" fill="#D2CD96" d="m87.800003,69.699997c0,-0.5 -0.100006,-0.899994 -0.100006,-1.399994c-1.199997,-0.100006 -2.399994,-0.300003 -3.5,-0.5c0,0.5 0.100006,1 0.100006,1.399994c1.099998,0.199997 2.299995,0.400009 3.5,0.5z"/>
     </g>
     <g id="svg_94">
      <path id="svg_95" fill="#D2CD96" d="m83.699997,65.699997c0,-0.5 -0.099998,-0.899994 -0.099998,-1.300003c-1.099998,-0.299988 -2,-0.599991 -2.900002,-1c0,0.400009 0.100006,0.800003 0.100006,1.200012c0.899994,0.5 1.899994,0.799988 2.899994,1.099991z"/>
     </g>
     <g id="svg_96">
      <path id="svg_97" fill="#D2CD96" d="m88.199997,69.699997c1.5,0.100006 3,0.100006 4.5,0c0,-0.5 0.100006,-0.899994 0.100006,-1.399994c-1.600006,0.199997 -3.200005,0.099991 -4.800003,0c0.099998,0.5 0.099998,1 0.199997,1.399994z"/>
     </g>
     <g id="svg_98">
      <path id="svg_99" fill="#D2CD96" d="m92.900002,66.699997c-1.700005,0.199997 -3.400002,0.199997 -5,0c0,0.400009 0.099998,0.800003 0.099998,1.199997c1.5,0.100006 3.199997,0.100006 4.800003,0c0.099998,-0.399994 0.099998,-0.799988 0.099998,-1.199997z"/>
     </g>
     <g id="svg_100">
      <path id="svg_101" fill="#D2CD96" d="m84.099998,65.800003c1.099998,0.300003 2.300003,0.5 3.5,0.599991c0,-0.5 -0.099998,-1 -0.099998,-1.399994c-1.199997,-0.100006 -2.400002,-0.300003 -3.5,-0.5c0,0.399994 0,0.800003 0.099998,1.300003z"/>
     </g>
     <g id="svg_102">
      <path id="svg_103" fill="#D2CD96" d="m87.599998,66.699997c-1.199997,-0.099991 -2.400002,-0.300003 -3.5,-0.599991c0,0.399994 0.099998,0.799988 0.099998,1.199997c1.100006,0.300003 2.300003,0.399994 3.5,0.599991c-0.099998,-0.399994 -0.099998,-0.799988 -0.099998,-1.199997z"/>
     </g>
     <g id="svg_104">
      <path id="svg_105" fill="#D2CD96" d="m88.199997,70.100006c0,0.5 0.100006,0.900009 0.100006,1.199997c1.399994,0.100006 2.799995,0.100006 4.199997,0c0,-0.299988 0.099998,-0.699997 0.099998,-1.199997c-1.400002,0.099991 -3,0.099991 -4.400002,0z"/>
     </g>
     <g id="svg_106">
      <path id="svg_107" fill="#D2CD96" d="m88.400002,71.600006c0.099998,0.5 0.099998,0.800003 0.199997,1c0,0.100006 0,0.100006 0.099998,0.199997c0.800003,0.100006 1.5,0.100006 2.100006,0.100006c0.5,0 1,0 1.5,-0.100006c0.099998,-0.199997 0.099998,-0.699997 0.199997,-1.299988c-1.400002,0.199982 -2.800003,0.199982 -4.099998,0.099991z"/>
     </g>
     <g id="svg_108">
      <path id="svg_109" fill="#D2CD96" d="m88,71.199997c0,-0.300003 -0.099998,-0.699997 -0.099998,-1.199997c-1.200005,-0.100006 -2.400002,-0.300003 -3.5,-0.5c0.099998,0.600006 0.099998,1 0.199997,1.199997c1.099998,0.300003 2.200005,0.400009 3.400002,0.5z"/>
     </g>
     <g id="svg_110">
      <path id="svg_111" fill="#D2CD96" d="m96.300003,71c-1.100006,0.300003 -2.200005,0.5 -3.400002,0.600006c-0.099998,0.599991 -0.099998,1 -0.200005,1.299988c1,-0.099991 2.100006,-0.299988 3,-0.5c0.200005,-0.299988 0.400002,-0.699997 0.5,-1.099991c0,-0.100006 0.100006,-0.199997 0.100006,-0.300003z"/>
     </g>
     <g id="svg_112">
      <path id="svg_113" fill="#D2CD96" d="m96.599998,70.899994c0,0.199997 -0.099998,0.399994 -0.099998,0.5c-0.099998,0.300003 -0.199997,0.599991 -0.400002,0.899994c1.099998,-0.300003 2,-0.699997 2.5,-0.899994c0.300003,-0.300003 0.400002,-0.699997 0.599998,-1.199997c0,-0.100006 0,-0.100006 0.100006,-0.200012c-0.800003,0.300018 -1.700005,0.600021 -2.700005,0.900009z"/>
     </g>
     <g id="svg_114">
      <path id="svg_115" fill="#D2CD96" d="m88,71.600006c-1.199997,-0.099991 -2.300003,-0.199997 -3.300003,-0.5c0.200005,0.400009 0.400002,0.800003 0.600006,1.199997c1,0.200012 2,0.400009 2.899994,0.5c0,0 0,0 0,-0.099991c0,-0.200012 -0.099998,-0.600006 -0.199997,-1.100006z"/>
     </g>
     <g id="svg_116">
      <path id="svg_117" fill="#D2CD96" d="m96.900002,64.300003c-1.099998,0.300003 -2.300003,0.5 -3.5,0.599991c0,0.400009 -0.099998,0.900009 -0.099998,1.400009c1.199997,-0.100006 2.399994,-0.400009 3.5,-0.699997c0.099998,-0.5 0.099998,-0.900009 0.099998,-1.300003z"/>
     </g>
     <g id="svg_118">
      <path id="svg_119" fill="#D2CD96" d="m96.800003,66c-1.100006,0.300003 -2.300003,0.600006 -3.5,0.699997c0,0.400009 -0.100006,0.800003 -0.100006,1.199997c1.200005,-0.099991 2.400002,-0.399994 3.5,-0.699997c0,-0.399994 0.100006,-0.800003 0.100006,-1.199997z"/>
     </g>
     <g id="svg_120">
      <path id="svg_121" fill="#D2CD96" d="m84.300003,71c-1,-0.199997 -1.900002,-0.5 -2.700005,-0.800003c0.200005,0.600006 0.5,1 1,1.400009c0.5,0.199997 1.300003,0.399994 2.300003,0.599991c-0.300003,-0.399994 -0.5,-0.699997 -0.599998,-1.199997l0,0z"/>
     </g>
     <g id="svg_122">
      <path id="svg_123" fill="#D2CD96" d="m99.900002,67.600006c0.599998,-0.300003 1,-0.599991 1.299995,-0.800003c0,-0.399994 0.100006,-0.899994 0.100006,-1.399994c-0.300003,0.199997 -0.700005,0.5 -1.200005,0.800003c-0.099998,0.499985 -0.099998,0.899994 -0.199997,1.399994z"/>
     </g>
     <g id="svg_124">
      <path id="svg_125" fill="#D2CD96" d="m79.699997,69.300003c0.400002,0.899994 1,1.599991 1.800003,1.899994c0.099998,0 0.199997,0.100006 0.300003,0.100006c-0.300003,-0.400009 -0.5,-0.800003 -0.700005,-1.300003c-0.5,-0.199997 -1,-0.5 -1.400002,-0.699997z"/>
     </g>
     <g id="svg_126">
      <path id="svg_127" fill="#D2CD96" d="m83.800003,67.300003c0,-0.400009 -0.100006,-0.800003 -0.100006,-1.199997c-1,-0.300003 -2,-0.600006 -2.899994,-1c0,0.399994 0.099998,0.799988 0.099998,1.199997c0.900002,0.399994 1.900002,0.699997 2.900002,1z"/>
     </g>
     <g id="svg_128">
      <path id="svg_129" fill="#D2CD96" d="m80.599998,66.5c-0.699997,-0.300003 -1.199997,-0.699997 -1.599998,-0.899994c0.099998,0.5 0.099998,1 0.199997,1.399994c0.300003,0.199997 0.800003,0.600006 1.5,0.899994c0,-0.399994 0,-0.899994 -0.099998,-1.399994z"/>
     </g>
     <g id="svg_130">
      <path id="svg_131" fill="#D2CD96" d="m80.5,64.899994c-0.800003,-0.400009 -1.300003,-0.699997 -1.599998,-1c0,0.399994 0.099998,0.800003 0.099998,1.199997c0.300003,0.199997 0.800003,0.600006 1.599998,1c0,-0.399994 -0.099998,-0.799988 -0.099998,-1.199997z"/>
     </g>
     <g id="svg_132">
      <path id="svg_133" fill="#D2CD96" d="m99.599998,70.199997c-0.099998,0.300003 -0.199997,0.600006 -0.299995,0.800003c0.5,-0.300003 1.299995,-0.699997 1.699997,-2c-0.400002,0.199997 -0.800003,0.5 -1.300003,0.699997c-0.099998,0.199997 -0.099998,0.400009 -0.099998,0.5z"/>
     </g>
     <g id="svg_134">
      <path id="svg_135" fill="#D2CD96" d="m100.300003,62.899994c0,0.399994 -0.100006,0.800003 -0.100006,1.300003c0.600006,-0.400009 1,-0.700012 1.200005,-0.800003c0,-0.5 0,-1 0.099998,-1.400009c-0.300003,0.300018 -0.699997,0.600021 -1.199997,0.900009z"/>
     </g>
     <g id="svg_136">
      <path id="svg_137" fill="#D2CD96" d="m100.099998,65.800003c0.599998,-0.300003 1,-0.600006 1.200005,-0.800003c0,-0.399994 0,-0.800003 0.099998,-1.199997c-0.200005,0.199997 -0.599998,0.399994 -1.200005,0.800003c0,0.299988 -0.099998,0.799988 -0.099998,1.199997z"/>
     </g>
     <g id="svg_138">
      <path id="svg_139" fill="#D2CD96" d="m99.699997,69.300003c0.600006,-0.300003 1,-0.600006 1.300003,-0.800003c0,-0.199997 0.099998,-0.600006 0.099998,-1.199997c-0.299995,0.199997 -0.699997,0.5 -1.299995,0.800003c0,0.399994 0,0.799988 -0.100006,1.199997z"/>
     </g>
     <g id="svg_140">
      <path id="svg_141" fill="#D2CD96" d="m80.800003,68.300003c-0.600006,-0.300003 -1.100006,-0.5 -1.5,-0.800003c0.099998,0.600006 0.099998,1 0.199997,1.199997l0,0.100006l0,0c0.400002,0.300003 0.900002,0.599991 1.5,0.800003c0,-0.300003 -0.099998,-0.700012 -0.199997,-1.300003z"/>
     </g>
     <g id="svg_142">
      <path id="svg_143" fill="#D2CD96" d="m80.400002,63.300003c-0.700005,-0.400009 -1.300003,-0.800003 -1.700005,-1.199997c0,0.399994 0.100006,0.899994 0.100006,1.299988c0.199997,0.200012 0.799995,0.600006 1.699997,1.100006c-0.099998,-0.399994 -0.099998,-0.899994 -0.099998,-1.199997z"/>
     </g>
     <g id="svg_144">
      <path id="svg_145" fill="#D2CD96" d="m99.5,68.199997c-0.800003,0.400009 -1.699997,0.800003 -2.699997,1c-0.100006,0.5 -0.100006,0.900009 -0.200005,1.199997c0.900002,-0.299988 1.800003,-0.599991 2.700005,-1c0.099998,-0.299988 0.199997,-0.699997 0.199997,-1.199997z"/>
     </g>
     <g id="svg_146">
      <path id="svg_147" fill="#D2CD96" d="m99.699997,66.399994c-0.799995,0.399994 -1.699997,0.800003 -2.699997,1.099991c0,0.5 -0.099998,1 -0.099998,1.400009c1,-0.300003 1.900002,-0.699997 2.699997,-1.100006c0,-0.499985 0.099998,-0.899994 0.099998,-1.399994z"/>
     </g>
     <g id="svg_148">
      <path id="svg_149" fill="#D2CD96" d="m84,69.100006c0,-0.399994 -0.099998,-0.899994 -0.099998,-1.399994c-1,-0.300003 -2,-0.600006 -2.900002,-1c0,0.5 0.099998,1 0.099998,1.399994c0.900002,0.399994 1.900002,0.699997 2.900002,1z"/>
     </g>
     <g id="svg_150">
      <path id="svg_151" fill="#D2CD96" d="m84.199997,70.699997c-0.099998,-0.300003 -0.099998,-0.699997 -0.199997,-1.199997c-1,-0.199997 -2,-0.600006 -2.800003,-0.899994c0.100006,0.599991 0.100006,1 0.200005,1.299988c0.900002,0.200012 1.799995,0.5 2.799995,0.800003z"/>
     </g>
     <g id="svg_152">
      <path id="svg_153" fill="#D2CD96" d="m87.900002,66.399994c1.599998,0.099991 3.400002,0.099991 5.099998,0c0,-0.5 0.099998,-1 0.099998,-1.400009c-1.699997,0.200012 -3.5,0.200012 -5.299995,0.100006c0,0.300003 0.099998,0.800003 0.099998,1.300003z"/>
     </g>
     <g id="svg_154">
      <path id="svg_155" fill="#D2CD96" d="m99.800003,64.699997c-0.800003,0.400009 -1.700005,0.800003 -2.700005,1.100006c0,0.399994 -0.099998,0.800003 -0.099998,1.199997c1,-0.300003 1.900002,-0.699997 2.699997,-1.100006c0.100006,-0.299988 0.100006,-0.799988 0.100006,-1.199997z"/>
     </g>
     <g id="svg_156">
      <path id="svg_157" fill="#D2CD96" d="m100,63.100006c-0.699997,0.400009 -1.599998,0.800003 -2.699997,1.100006c0,0.399994 -0.100006,0.899994 -0.100006,1.300003c1,-0.300003 1.900002,-0.700012 2.700005,-1.100006c0,-0.500015 0,-0.900009 0.099998,-1.300003z"/>
     </g>
     <g id="svg_158">
      <path id="svg_159" fill="#D2CD96" d="m79.900002,55.800003c0.599998,-0.600006 0.900002,-0.699997 1.799995,-0.800003c0.5,-0.100006 1.300003,0 1.700005,0.100006c-0.200005,-1 0.400002,-2.300003 1.5,-3.200012c-0.900002,-1 -1.800003,-1.899994 -2.400002,-2.199997c-0.699997,-0.399994 -1.5,-0.699997 -2.300003,-0.699997s-1.399994,0.300003 -1.699997,0.800003c-0.5,0.699997 -0.300003,1.899994 0.199997,3.5c0.300003,0.699997 1.200005,2.5 1.200005,2.5zm3.199997,-5.100006c0.200005,0 0.5,0.100006 0.700005,0.300003l0,0.100006c0,0 0,0 -0.100006,0l0,0c0,0 0,0 -0.099998,0c-0.199997,0 -0.599998,0.099991 -1,0.5c-0.599998,0.599991 -0.900002,2.199997 -0.900002,2.299988c0,0 0,0.100006 -0.099998,0.100006l0,0c0,0 -0.099998,0 -0.099998,-0.100006c0,0 0,0 0,-0.099991c0,-1.400009 0.300003,-2.300003 0.800003,-2.800003c0.299995,-0.100006 0.599998,-0.300003 0.799995,-0.300003zm-2.099998,-0.599991c0.199997,-0.199997 0.5,-0.300003 0.699997,-0.300003c0.100006,0 0.300003,0 0.400002,0.100006c-0.199997,0 -0.599998,0.100006 -1.099998,0.600006c-0.400002,0.399994 -0.599998,1.099991 -0.800003,1.599991c0.200005,-0.900009 0.5,-1.600006 0.800003,-2z"/>
     </g>
    </g>
   </g>
   <text x="1" y="-82" id="svg_160" fill="#D2CD96" font-family="&#x27;Handwriting-Dakota'" font-size="10" transform="matrix(1,0,0,1,71.4258,165.8279) ">Freshly</text>
   <text x="1" y="-82" id="svg_161" fill="#D2CD96" font-family="&#x27;GillSans-Light'" font-size="15" transform="matrix(1,0,0,1,67.4258,180.6279) ">BAKED</text>
  </g>
 </g>
</svg>