<?xml version="1.0" encoding="utf-8"?>
<!-- Generator: Adobe Illustrator 17.0.0, SVG Export Plug-In . SVG Version: 6.00 Build 0)  -->
<!DOCTYPE svg PUBLIC "-//W3C//DTD SVG 1.1//EN" "http://www.w3.org/Graphics/SVG/1.1/DTD/svg11.dtd">
<svg version="1.1" id="design" xmlns="http://www.w3.org/2000/svg" xmlns:xlink="http://www.w3.org/1999/xlink" x="0px" y="0px"
	 width="354.3px" height="226.8px" viewBox="0 0 354.3 226.8" style="enable-background:new 0 0 354.3 226.8;" xml:space="preserve"
	>
<g id="New_Symbol">
</g>
<linearGradient id="SVGID_1_" gradientUnits="userSpaceOnUse" x1="185.51" y1="50.855" x2="185.51" y2="224.055" gradientTransform="matrix(1 0 0 -1 -8.36 250.855)">
	<stop  offset="0" style="stop-color:#58321B"/>
	<stop  offset="1" style="stop-color:#B56639"/>
</linearGradient>
<rect x="39.6" y="26.8" style="fill:url(#SVGID_1_);" width="275.1" height="173.2"/>
<g>
	<path style="fill:#D2CD96;" d="M149,57.9c0,0,0,0.1-0.1,0.2c-0.1,0.1-0.1,0.2-0.3,0.4c-0.1,0.2-0.3,0.4-0.5,0.6
		c-0.2,0.2-0.5,0.4-0.8,0.7c-0.2,0.1-0.3,0.2-0.5,0.3s-0.4,0.2-0.6,0.2c-0.2,0.1-0.4,0.1-0.7,0.1c-0.2,0-0.5,0-0.7,0
		c-0.5-0.1-1-0.3-1.4-0.5c-0.1,0-0.1-0.1-0.2-0.1l0,0l0,0h-0.1c0,0-0.1-0.1-0.2-0.1l-0.2-0.1c-0.2-0.2-0.4-0.4-0.6-0.6
		c-0.3-0.4-0.6-0.9-0.8-1.4s-0.3-1-0.3-1.5s0.1-1,0.2-1.4c0.1-0.4,0.3-0.8,0.5-1.2c0.2-0.3,0.4-0.6,0.6-0.9c0.2-0.2,0.4-0.4,0.6-0.5
		c0.2-0.1,0.3-0.2,0.4-0.3c0.1,0,0.1,0,0.1-0.1l0,0l0.1,0.3c0,0,0,0-0.1,0.1s-0.2,0.2-0.4,0.3c-0.1,0.1-0.3,0.3-0.5,0.5
		s-0.3,0.5-0.5,0.8c-0.3,0.6-0.5,1.4-0.4,2.3c0,0.4,0.1,0.8,0.2,1.3c0.1,0.4,0.4,0.8,0.6,1.1c0.1,0.2,0.3,0.3,0.5,0.5L143,59
		l0.1,0.1l0.1,0.1l0,0l0,0l0.1,0.1c0.4,0.2,0.8,0.4,1.2,0.5s0.8,0.1,1.2,0.1c0.4-0.1,0.7-0.2,1-0.3c0.3-0.2,0.6-0.3,0.8-0.5
		s0.4-0.3,0.6-0.5C148.9,58.1,149,57.9,149,57.9z"/>
	<path style="fill:#D2CD96;" d="M145,53.9c-0.2-0.2-0.4-0.5-0.6-0.7c-0.2-0.3-0.4-0.5-0.5-0.8c-0.2-0.3-0.3-0.6-0.4-0.9
		c-0.1-0.3-0.2-0.6-0.3-0.9c-0.1-0.3-0.1-0.6-0.1-1c0-0.3,0-0.7,0.1-1s0.1-0.6,0.2-1c0.1-0.3,0.2-0.6,0.4-0.9l0.1-0.2
		c0-0.1,0.1-0.1,0.1-0.2c0.1-0.1,0.2-0.3,0.3-0.4c0.2-0.3,0.4-0.5,0.7-0.7s0.5-0.4,0.9-0.6c0.3-0.2,0.6-0.3,1-0.4
		c0.3-0.1,0.7-0.1,1-0.2c0.3,0,0.7,0,1,0s0.7,0.1,1,0.1c0.2,0,0.3,0.1,0.5,0.1c0.1,0,0.2,0,0.2,0.1c0.1,0,0.2,0.1,0.2,0.1l-0.5,0.1
		c0.1-0.1,0.1-0.1,0.2-0.2c0.1-0.1,0.1-0.1,0.2-0.2c0.1-0.1,0.2-0.2,0.4-0.3c0.3-0.2,0.5-0.4,0.8-0.5c0.6-0.3,1.2-0.6,1.8-0.6
		c0.3,0,0.7,0,1,0c0.3,0.1,0.7,0.1,1,0.3c0.1,0,0.1,0.1,0.2,0.1c0.1,0,0.1,0.1,0.2,0.1l0.2,0.1l0.2,0.1l0.1,0.1l0.1,0.1l0.2,0.1
		c0.1,0.1,0.2,0.2,0.3,0.4c0.2,0.2,0.4,0.5,0.6,0.8c0.2,0.3,0.3,0.6,0.3,0.9c0.1,0.3,0.1,0.6,0.1,1c0,0.3,0,0.6-0.1,0.9
		c-0.1,0.6-0.4,1.2-0.7,1.7c-0.2,0.3-0.3,0.5-0.5,0.7s-0.4,0.4-0.7,0.6c0.2-0.2,0.4-0.5,0.6-0.7c0.2-0.2,0.3-0.5,0.4-0.8
		c0.2-0.5,0.4-1.1,0.5-1.7c0-0.3,0.1-0.6,0-0.9c0-0.3-0.1-0.6-0.1-0.8c-0.1-0.3-0.2-0.5-0.3-0.8c-0.1-0.2-0.3-0.5-0.5-0.6
		c-0.1-0.1-0.2-0.2-0.3-0.3l-0.2-0.1l-0.1-0.1l0,0l0,0l0,0l0,0l0,0l0,0l-0.2-0.1l-0.2-0.1c-0.1,0-0.1-0.1-0.2-0.1
		c-0.1,0-0.1-0.1-0.2-0.1c-0.3-0.1-0.5-0.2-0.8-0.2s-0.5,0-0.8,0c-0.5,0.1-1,0.3-1.5,0.6c-0.2,0.1-0.5,0.3-0.7,0.5
		c-0.1,0.1-0.2,0.2-0.3,0.3c-0.1,0-0.1,0.1-0.2,0.1l-0.1,0.1l-0.2,0.2l-0.3-0.1c-0.1,0-0.1,0-0.2-0.1c-0.1,0-0.1,0-0.2-0.1
		c-0.1,0-0.3-0.1-0.4-0.1c-0.3-0.1-0.6-0.1-0.9-0.1c-0.3,0-0.6,0-0.9,0c-0.3,0-0.6,0.1-0.9,0.1c-0.3,0.1-0.6,0.2-0.8,0.3
		c-0.3,0.1-0.5,0.3-0.7,0.5s-0.4,0.4-0.6,0.6c-0.1,0.1-0.2,0.2-0.3,0.3c0,0.1-0.1,0.1-0.1,0.2l-0.1,0.2c-0.1,0.3-0.3,0.5-0.4,0.8
		c-0.1,0.3-0.2,0.6-0.3,0.9c-0.1,0.3-0.1,0.6-0.1,0.9c0,0.3,0,0.6,0,0.9c0,0.3,0.1,0.6,0.2,0.9c0.1,0.3,0.2,0.6,0.3,0.9
		c0.1,0.3,0.3,0.6,0.4,0.8C144.6,53.4,144.8,53.6,145,53.9z"/>
	<path style="fill:#D2CD96;" d="M157.2,49.4l0.3,0.1c0.1,0,0.2,0.1,0.3,0.1s0.2,0.1,0.3,0.1c0.1,0.1,0.2,0.1,0.3,0.2l0.3,0.2
		c0.1,0.1,0.2,0.1,0.3,0.2c0.1,0.1,0.2,0.1,0.3,0.2c0.1,0.1,0.2,0.1,0.3,0.2c0.2,0.1,0.4,0.3,0.6,0.4c0.2,0.1,0.4,0.3,0.6,0.4
		c0.2,0.1,0.4,0.3,0.6,0.4c0.2,0.1,0.4,0.3,0.6,0.5l0.2,0.2l-0.1,0.2c-0.2,0.3-0.3,0.6-0.5,0.9c-0.2,0.3-0.3,0.6-0.5,0.8
		c-0.2,0.3-0.4,0.5-0.6,0.8l-0.6,0.8c-0.1,0.1-0.2,0.3-0.3,0.4c-0.1,0.1-0.2,0.3-0.3,0.4c-0.1,0.1-0.2,0.3-0.3,0.4l-0.3,0.4
		c-0.1,0.1-0.2,0.3-0.3,0.4c-0.1,0.1-0.2,0.3-0.3,0.4l-0.3,0.4c-0.1,0.1-0.2,0.2-0.3,0.4c-0.2,0.2-0.4,0.5-0.7,0.7l-0.3,0.4
		l-0.3,0.3c-0.2,0.2-0.5,0.5-0.7,0.7s-0.5,0.4-0.7,0.6l-0.4,0.3c-0.1,0.1-0.3,0.2-0.4,0.3c-0.1,0.1-0.3,0.2-0.4,0.3
		c-0.1,0.1-0.3,0.2-0.4,0.3c-0.3,0.2-0.5,0.4-0.8,0.6c-0.3,0.2-0.6,0.4-0.9,0.5l-0.2,0.1l-0.2-0.2c-0.1-0.1-0.2-0.2-0.3-0.3
		c-0.1-0.1-0.2-0.2-0.3-0.3c-0.2-0.2-0.3-0.4-0.5-0.6c-0.1-0.1-0.2-0.2-0.2-0.3l-0.2-0.3c-0.1-0.1-0.1-0.2-0.2-0.3
		c-0.1-0.1-0.1-0.2-0.2-0.3c-0.1-0.2-0.3-0.4-0.4-0.6c-0.1-0.2-0.2-0.4-0.4-0.7c-0.1-0.1-0.1-0.2-0.2-0.3c-0.1-0.1-0.1-0.2-0.1-0.3
		s-0.1-0.2-0.1-0.4c0-0.1-0.1-0.2-0.1-0.4h0.1c0.1,0.1,0.1,0.2,0.2,0.3c0.1,0.1,0.1,0.2,0.2,0.3c0.1,0.1,0.1,0.2,0.2,0.3
		c0.1,0.1,0.1,0.2,0.2,0.3c0.1,0.1,0.1,0.2,0.2,0.3c0.1,0.1,0.1,0.2,0.2,0.3c0.1,0.2,0.3,0.4,0.5,0.6c0.2,0.2,0.3,0.4,0.5,0.6
		c0.2,0.2,0.3,0.4,0.5,0.5c0.2,0.2,0.3,0.4,0.5,0.5l0.3,0.3c0.1,0.1,0.2,0.2,0.3,0.2h-0.4c0.3-0.2,0.5-0.3,0.8-0.5
		c0.1-0.1,0.3-0.2,0.4-0.3c0.1-0.1,0.3-0.2,0.4-0.3c0.3-0.2,0.5-0.4,0.8-0.6c0.3-0.2,0.5-0.4,0.8-0.6c0.3-0.2,0.5-0.4,0.8-0.6
		l0.7-0.6l0.4-0.3l0.4-0.3c0.2-0.2,0.5-0.4,0.7-0.6c0.2-0.2,0.5-0.4,0.7-0.7c0.1-0.1,0.2-0.2,0.3-0.4c0.1-0.1,0.2-0.2,0.3-0.4
		l0.3-0.4c0.1-0.1,0.2-0.3,0.3-0.4c0.1-0.1,0.2-0.3,0.3-0.4c0.1-0.1,0.2-0.3,0.3-0.4c0.1-0.1,0.2-0.3,0.3-0.4l0.2-0.4
		c0.2-0.3,0.3-0.6,0.5-0.9c0.1-0.3,0.3-0.6,0.4-0.9c0.1-0.3,0.3-0.6,0.4-0.9l0.1,0.3l-0.6-0.4c-0.2-0.1-0.4-0.3-0.6-0.4l-0.6-0.4
		c-0.2-0.1-0.4-0.3-0.6-0.4c-0.2-0.1-0.4-0.3-0.6-0.4c-0.1-0.1-0.2-0.1-0.3-0.2l-0.3-0.2c-0.1-0.1-0.2-0.1-0.3-0.2
		c-0.1-0.1-0.2-0.1-0.3-0.2c-0.1-0.1-0.2-0.1-0.3-0.2L157.2,49.4L157.2,49.4z"/>
	<path style="fill:#D2CD96;" d="M150.9,57.4L150.9,57.4c0.1,0,0.1,0.1,0.2,0.1c0.1,0.1,0.2,0.2,0.4,0.3s0.3,0.3,0.5,0.4
		c0.1,0.1,0.2,0.2,0.3,0.3s0.2,0.2,0.3,0.3s0.2,0.2,0.2,0.3c0.1,0.1,0.1,0.2,0.2,0.3c0.1,0.2,0.3,0.4,0.3,0.6
		c0.1,0.2,0.2,0.3,0.2,0.4c0,0.1,0,0.1,0,0.1l0,0l0,0c0,0-0.1,0-0.1-0.1c-0.1-0.1-0.2-0.2-0.4-0.3s-0.3-0.3-0.5-0.4
		c-0.1-0.1-0.2-0.2-0.3-0.3s-0.2-0.2-0.3-0.3s-0.2-0.2-0.2-0.3c-0.1-0.1-0.1-0.2-0.2-0.3c-0.1-0.2-0.3-0.4-0.3-0.6
		C151.1,57.7,151,57.6,150.9,57.4C150.9,57.5,150.9,57.5,150.9,57.4L150.9,57.4z"/>
	<path style="fill:#D2CD96;" d="M153.2,55.1L153.2,55.1c0.1,0,0.1,0.1,0.2,0.1c0.1,0.1,0.2,0.1,0.4,0.2c0.2,0.1,0.3,0.2,0.5,0.4
		c0.1,0.1,0.2,0.2,0.3,0.2c0.1,0.1,0.2,0.2,0.3,0.3s0.2,0.2,0.3,0.3s0.2,0.2,0.2,0.3c0.2,0.2,0.3,0.4,0.4,0.5
		c0.1,0.2,0.2,0.3,0.2,0.4c0,0.1,0,0.1,0.1,0.1l0,0l0,0c0,0-0.1,0-0.1-0.1c-0.1-0.1-0.3-0.1-0.4-0.2c-0.2-0.1-0.3-0.2-0.5-0.4
		c-0.1-0.1-0.2-0.2-0.3-0.2c-0.1-0.1-0.2-0.2-0.3-0.3s-0.2-0.2-0.3-0.3s-0.2-0.2-0.2-0.3c-0.2-0.2-0.3-0.4-0.4-0.5
		c-0.1-0.2-0.2-0.3-0.2-0.4C153.2,55.2,153.2,55.2,153.2,55.1L153.2,55.1z"/>
	<path style="fill:#D2CD96;" d="M155.4,52.9C155.4,52.9,155.5,52.9,155.4,52.9c0.1,0,0.1,0,0.2,0.1c0.1,0,0.3,0.1,0.4,0.2
		c0.2,0.1,0.4,0.2,0.6,0.3c0.1,0.1,0.2,0.1,0.3,0.2c0.1,0.1,0.2,0.2,0.3,0.2c0.1,0.1,0.2,0.2,0.3,0.2c0.1,0.1,0.2,0.2,0.3,0.3
		c0.2,0.2,0.3,0.3,0.4,0.5c0.1,0.2,0.2,0.3,0.3,0.4l0.1,0.1l0,0l0,0h-0.1c-0.1,0-0.3-0.1-0.4-0.2c-0.2-0.1-0.4-0.2-0.6-0.3
		c-0.1-0.1-0.2-0.1-0.3-0.2c-0.1-0.1-0.2-0.2-0.3-0.2c-0.1-0.1-0.2-0.2-0.3-0.2c-0.1-0.1-0.2-0.2-0.3-0.3c-0.2-0.2-0.3-0.3-0.4-0.5
		c-0.1-0.2-0.2-0.3-0.3-0.4C155.5,53,155.5,52.9,155.4,52.9L155.4,52.9z"/>
</g>
<g style="opacity:0.4;">
	<g>
		<g>
			<path style="fill:#DFDBB0;" d="M295.6,90.1c0.3-0.3,0.9-0.7,1.8-1.2s1.6-0.7,2-0.8c-0.6,0-1.3,0.3-2.1,0.7
				C296.5,89.2,295.9,89.7,295.6,90.1z"/>
			<path style="fill:#DFDBB0;" d="M296.9,84.6c-0.4,0-0.9,0.2-1.5,0.5s-1,0.6-1.2,0.9c0.2-0.2,0.7-0.5,1.3-0.8
				C296.1,84.9,296.6,84.7,296.9,84.6z"/>
			<path style="fill:#DFDBB0;" d="M298.1,93.5c0.2-0.2,0.7-0.5,1.3-0.8c0.6-0.3,1.1-0.5,1.4-0.6c-0.4,0-0.9,0.2-1.5,0.5
				C298.7,92.9,298.3,93.2,298.1,93.5z"/>
			<path style="fill:#DFDBB0;" d="M298.4,86.2c-0.6,0-1.3,0.3-2.1,0.7c-0.8,0.4-1.4,0.9-1.7,1.3c0.3-0.3,0.9-0.7,1.8-1.2
				C297.3,86.6,298,86.3,298.4,86.2z"/>
			<path style="fill:#DFDBB0;" d="M300.4,90c-0.6,0-1.3,0.3-2.1,0.7c-0.8,0.4-1.4,0.9-1.7,1.3c0.3-0.2,0.9-0.7,1.8-1.2
				C299.3,90.3,300,90.1,300.4,90z"/>
			<path style="fill:#DFDBB0;" d="M294.9,83.1c-1.8,0.9-1.8,4.5,0,7.9s4.7,5.4,6.4,4.5c1.8-0.9,1.8-4.5,0-7.9
				C299.6,84.2,296.7,82.1,294.9,83.1z M293.9,86.3c0.2-0.4,0.7-0.8,1.5-1.2c0.8-0.4,1.4-0.6,1.9-0.5l0,0v0.1c0,0-0.7,0.1-1.8,0.7
				C294.4,85.8,294,86.3,293.9,86.3L293.9,86.3L293.9,86.3z M294.4,88.4c0.2-0.5,0.9-1.1,1.9-1.6s1.9-0.8,2.5-0.7l0,0v0.1
				c0,0-1,0.2-2.4,0.9C295.1,87.9,294.5,88.5,294.4,88.4L294.4,88.4L294.4,88.4z M301.2,92c0,0-0.7,0.1-1.8,0.7
				c-1.1,0.6-1.5,1-1.5,1l-0.1-0.1l0,0c0.2-0.4,0.7-0.8,1.5-1.2C300,92.1,300.7,91.9,301.2,92C301.2,91.9,301.2,91.9,301.2,92
				L301.2,92z M300.8,90c0,0-1,0.2-2.4,0.9c-1.4,0.7-2,1.3-2,1.4l0,0l0,0l0,0c0.2-0.5,0.9-1.1,1.9-1.6
				C299.2,90.1,300.1,89.8,300.8,90C300.8,89.9,300.8,89.9,300.8,90L300.8,90z M299.8,88.1c0,0-1,0.2-2.4,0.9c-1.4,0.7-2,1.3-2,1.4
				l-0.1-0.1l0,0c0.2-0.5,0.9-1.1,1.9-1.6s1.9-0.8,2.5-0.7C299.8,88,299.8,88,299.8,88.1L299.8,88.1z"/>
		</g>
		<g>
			<path style="fill:#DFDBB0;" d="M300.6,185.6c-0.3-0.3-0.9-0.7-1.8-1.2s-1.6-0.7-2-0.8c0.6,0,1.3,0.3,2.1,0.7
				C299.7,184.7,300.3,185.2,300.6,185.6z"/>
			<path style="fill:#DFDBB0;" d="M299.3,180.1c0.4,0.1,0.9,0.2,1.5,0.5s1,0.6,1.2,0.9c-0.2-0.2-0.7-0.5-1.3-0.8
				C300.2,180.4,299.7,180.2,299.3,180.1z"/>
			<path style="fill:#DFDBB0;" d="M298.2,189c-0.2-0.2-0.7-0.5-1.3-0.8c-0.6-0.3-1.1-0.5-1.4-0.6c0.4,0,0.9,0.2,1.5,0.5
				C297.5,188.4,297.9,188.7,298.2,189z"/>
			<path style="fill:#DFDBB0;" d="M297.8,181.8c0.6,0,1.3,0.3,2.1,0.7c0.8,0.4,1.4,0.9,1.7,1.3c-0.3-0.3-0.9-0.7-1.8-1.2
				C298.9,182.1,298.2,181.9,297.8,181.8z"/>
			<path style="fill:#DFDBB0;" d="M295.9,185.5c0.6,0,1.3,0.3,2.1,0.7c0.8,0.4,1.4,0.9,1.7,1.3c-0.3-0.3-0.9-0.7-1.8-1.1
				C297,185.9,296.3,185.6,295.9,185.5z"/>
			<path style="fill:#DFDBB0;" d="M294.9,183.1c-1.8,3.4-1.8,6.9,0,7.9c1.8,0.9,4.7-1.1,6.4-4.5c1.8-3.4,1.8-6.9,0-7.9
				C299.6,177.7,296.7,179.7,294.9,183.1z M302.4,181.8L302.4,181.8c-0.1,0-0.5-0.4-1.6-1s-1.8-0.7-1.8-0.7V180l0,0
				c0.5,0,1.2,0.1,1.9,0.5C301.7,181,302.2,181.4,302.4,181.8L302.4,181.8z M301.9,184L301.9,184c-0.1,0-0.7-0.6-2.1-1.3
				s-2.4-0.9-2.4-0.9v-0.1l0,0c0.6-0.1,1.5,0.2,2.5,0.7S301.6,183.5,301.9,184L301.9,184z M295,187.5L295,187.5c0.5,0,1.2,0.1,2,0.5
				s1.3,0.8,1.5,1.2l0,0l-0.1,0.1c0,0-0.5-0.5-1.5-1C295.8,187.7,295,187.6,295,187.5L295,187.5z M295.5,185.4L295.5,185.4
				c0.7-0.1,1.5,0.2,2.5,0.7s1.7,1.1,1.9,1.6l0,0l0,0l0,0c0,0-0.6-0.6-2-1.4C296.4,185.7,295.5,185.5,295.5,185.4L295.5,185.4z
				 M296.4,183.5C296.4,183.5,296.5,183.5,296.4,183.5c0.7-0.1,1.5,0.2,2.5,0.7s1.7,1.1,1.9,1.6l0,0l-0.1,0.1c0,0-0.6-0.6-2-1.4
				C297.4,183.8,296.5,183.6,296.4,183.5L296.4,183.5z"/>
		</g>
		<path style="fill:#DFDBB0;" d="M303.6,58c-0.4-2.7-2.5-4.4-5.5-4.4s-5.5,1.6-5.5,4.1s2.9,3.5,5.9,3.5
			C301.4,61.2,304,60.4,303.6,58z M296.6,57.3c-2.2-0.5-3.5-0.3-3.5-0.3c0.1,0,1-0.9,3.6-0.2c2.6,0.6,3.2,1.9,3.3,1.9
			C300,58.8,298.8,57.9,296.6,57.3z M297.6,55.9c-2.2-0.5-3.5-0.3-3.5-0.3c0.1,0,1-0.9,3.6-0.2c2.6,0.6,3.2,1.9,3.3,1.9
			C300.9,57.4,299.8,56.5,297.6,55.9z M298.7,54.6c-2.2-0.5-3.5-0.3-3.5-0.3c0.1,0,1-0.9,3.6-0.2c2.6,0.6,3.2,1.9,3.3,1.9
			C302.1,56.1,301,55.2,298.7,54.6z"/>
		<path style="fill:#DFDBB0;" d="M300.3,123.7c2.1-2.1,3.4-4.9,1.7-6.6c-1.7-1.7-4.7-1.1-6.8,1c-2.1,2.1-2.4,4.8-0.8,7
			C295.9,127.1,298.3,125.8,300.3,123.7z M297.6,123.1c0-0.1-0.4-1.4,0.9-3.7c1.4-2.3,2.7-2.4,2.7-2.4s-1.1,0.7-2.3,2.7
			C297.8,121.6,297.6,123.1,297.6,123.1z M295.9,122.8c0-0.1-0.4-1.4,0.9-3.7c1.4-2.3,2.7-2.4,2.7-2.4s-1.1,0.7-2.3,2.7
			C296.1,121.3,295.9,122.8,295.9,122.8z M294.1,122.7c0-0.1-0.4-1.4,0.9-3.7c1.4-2.3,2.7-2.4,2.7-2.4s-1.1,0.7-2.3,2.7
			C294.3,121.2,294.1,122.7,294.1,122.7z"/>
		<path style="fill:#DFDBB0;" d="M300.1,100.6c-2.4-0.1-5,1.6-6.3,4.3c-1.3,2.7-0.2,5,2.2,5c2.7,0,5.8-1.7,6.8-4.5
			C304.2,101.2,300.5,100.6,300.1,100.6z M299.6,101c0.2,0,0.3,0.2,0.2,0.4c-0.1,0.2-0.4,0.4-0.6,0.4s-0.3-0.2-0.2-0.4
			C299.1,101.2,299.4,101,299.6,101z M299,102.2c0.2,0,0.3,0.2,0.2,0.4c-0.1,0.2-0.4,0.4-0.6,0.4s-0.3-0.2-0.2-0.4
			C298.5,102.4,298.8,102.2,299,102.2z M297.4,103.6c0.2,0,0.3,0.2,0.2,0.4c-0.1,0.2-0.4,0.4-0.6,0.4s-0.3-0.2-0.2-0.4
			C296.9,103.7,297.2,103.5,297.4,103.6z M297.5,101.5c0.2,0,0.3,0.2,0.2,0.4c-0.1,0.2-0.4,0.4-0.6,0.4s-0.3-0.2-0.2-0.4
			C297,101.7,297.3,101.5,297.5,101.5z M294,105.7c-0.2,0-0.3-0.2-0.2-0.4c0.1-0.2,0.4-0.4,0.6-0.4s0.3,0.2,0.2,0.4
			C294.5,105.5,294.2,105.7,294,105.7z M294,106.9c-0.2,0-0.3-0.2-0.2-0.4c0.1-0.2,0.4-0.4,0.6-0.4s0.3,0.2,0.2,0.4
			C294.4,106.8,294.2,107,294,106.9z M295.8,103.6c-0.2,0-0.3-0.2-0.2-0.4c0.1-0.2,0.4-0.4,0.6-0.4s0.3,0.2,0.2,0.4
			C296.2,103.4,296,103.6,295.8,103.6z M295.4,105.1c0.1-0.2,0.4-0.4,0.6-0.4s0.3,0.2,0.2,0.4c-0.1,0.2-0.4,0.4-0.6,0.4
			C295.3,105.5,295.3,105.3,295.4,105.1z M294.8,107.7c-0.2,0-0.3-0.2-0.2-0.4c0.1-0.2,0.4-0.4,0.6-0.4s0.3,0.2,0.2,0.4
			C295.2,107.5,295,107.7,294.8,107.7z M296.4,105.4c0.1-0.2,0.4-0.4,0.6-0.4s0.3,0.2,0.2,0.4c-0.1,0.2-0.4,0.4-0.6,0.4
			S296.3,105.6,296.4,105.4z M296.4,107c-0.2,0-0.3-0.2-0.2-0.4c0.1-0.2,0.4-0.4,0.6-0.4s0.3,0.2,0.2,0.4
			C296.8,106.9,296.6,107.1,296.4,107z M298.5,103.7c0.1-0.2,0.4-0.4,0.6-0.4s0.3,0.2,0.2,0.4c-0.1,0.2-0.4,0.4-0.6,0.4
			C298.4,104.1,298.4,103.9,298.5,103.7z M298.5,105c0.2,0,0.3,0.2,0.2,0.4c-0.1,0.2-0.4,0.4-0.6,0.4s-0.3-0.2-0.2-0.4
			C298.1,105.2,298.3,105,298.5,105z M296.8,108.6c-0.2,0-0.3-0.2-0.2-0.4c0.1-0.2,0.4-0.4,0.6-0.4s0.3,0.2,0.2,0.4
			C297.2,108.4,297,108.6,296.8,108.6z M297.9,107.1c-0.2,0-0.3-0.2-0.2-0.4c0.1-0.2,0.4-0.4,0.6-0.4s0.3,0.2,0.2,0.4
			C298.3,106.9,298.1,107.1,297.9,107.1z M299.4,104.8c-0.2,0-0.3-0.2-0.2-0.4c0.1-0.2,0.4-0.4,0.6-0.4s0.3,0.2,0.2,0.4
			C299.8,104.7,299.6,104.9,299.4,104.8z M300.5,102.7c-0.2,0-0.3-0.2-0.2-0.4c0.1-0.2,0.4-0.4,0.6-0.4s0.3,0.2,0.2,0.4
			C300.9,102.5,300.7,102.7,300.5,102.7z M300.6,103.3c0.1-0.2,0.4-0.4,0.6-0.4s0.3,0.2,0.2,0.4c-0.1,0.2-0.4,0.4-0.6,0.4
			C300.6,103.7,300.5,103.5,300.6,103.3z M299.4,106.8c-0.2,0-0.3-0.2-0.2-0.4c0.1-0.2,0.4-0.4,0.6-0.4s0.3,0.2,0.2,0.4
			C299.8,106.6,299.6,106.8,299.4,106.8z M300.2,105.6c-0.2,0-0.3-0.2-0.2-0.4c0.1-0.2,0.4-0.4,0.6-0.4s0.3,0.2,0.2,0.4
			C300.6,105.4,300.4,105.6,300.2,105.6z"/>
		<path style="fill:#DFDBB0;" d="M302.9,166.9c-1.6-1.7-4.7-2.4-7.5-1.5s-3.7,3.4-2,5c1.9,1.9,5.3,2.9,8,1.6
			C305.3,170.3,303.1,167.2,302.9,166.9z M302.2,166.9c0.1,0.1,0.1,0.3-0.2,0.4c-0.2,0.1-0.5,0-0.7-0.1c-0.1-0.1-0.1-0.3,0.2-0.4
			C301.7,166.7,302,166.8,302.2,166.9z M300.9,167.3c0.1,0.1,0.1,0.3-0.2,0.4c-0.2,0.1-0.5,0-0.7-0.1c-0.1-0.1-0.1-0.3,0.2-0.4
			S300.8,167.2,300.9,167.3z M298.8,167.1c0.1,0.1,0.1,0.3-0.2,0.4c-0.2,0.1-0.5,0-0.7-0.1c-0.1-0.1-0.1-0.3,0.2-0.4
			C298.4,166.9,298.7,167,298.8,167.1z M300.3,165.7c0.1,0.1,0.1,0.3-0.2,0.4c-0.2,0.1-0.5,0-0.7-0.1c-0.1-0.1-0.1-0.3,0.2-0.4
			S300.2,165.6,300.3,165.7z M295,166.3c-0.1-0.1-0.1-0.3,0.2-0.4c0.2-0.1,0.5,0,0.7,0.1c0.1,0.1,0.1,0.3-0.2,0.4
			S295.1,166.4,295,166.3z M294,167.1c-0.1-0.1-0.1-0.3,0.2-0.4c0.2-0.1,0.5,0,0.7,0.1c0.1,0.1,0.1,0.3-0.2,0.4
			C294.5,167.3,294.2,167.3,294,167.1z M297.7,166c-0.1-0.1-0.1-0.3,0.2-0.4c0.2-0.1,0.5,0,0.7,0.1c0.1,0.1,0.1,0.3-0.2,0.4
			S297.8,166.2,297.7,166z M296.3,166.8c0.2-0.1,0.5,0,0.7,0.1c0.1,0.1,0.1,0.3-0.2,0.4c-0.2,0.1-0.5,0-0.7-0.1
			C296,167,296.1,166.9,296.3,166.8z M294.1,168.2c-0.1-0.1-0.1-0.3,0.2-0.4c0.2-0.1,0.5,0,0.7,0.1c0.1,0.1,0.1,0.3-0.2,0.4
			S294.2,168.4,294.1,168.2z M296.8,167.8c0.2-0.1,0.5,0,0.7,0.1c0.1,0.1,0.1,0.3-0.2,0.4c-0.2,0.1-0.5,0-0.7-0.1
			C296.5,168,296.6,167.9,296.8,167.8z M295.7,168.9c-0.1-0.1-0.1-0.3,0.2-0.4c0.2-0.1,0.5,0,0.7,0.1c0.1,0.1,0.1,0.3-0.2,0.4
			C296.1,169.1,295.8,169,295.7,168.9z M299.5,168c0.2-0.1,0.5,0,0.7,0.1c0.1,0.1,0.1,0.3-0.2,0.4c-0.2,0.1-0.5,0-0.7-0.1
			C299.2,168.3,299.3,168.1,299.5,168z M298.6,169c0.1,0.1,0.1,0.3-0.2,0.4c-0.2,0.1-0.5,0-0.7-0.1c-0.1-0.1-0.1-0.3,0.2-0.4
			S298.5,168.8,298.6,169z M294.9,170.3c-0.1-0.1-0.1-0.3,0.2-0.4c0.2-0.1,0.5,0,0.7,0.1c0.1,0.1,0.1,0.3-0.2,0.4
			S295,170.4,294.9,170.3z M296.7,170c-0.1-0.1-0.1-0.3,0.2-0.4c0.2-0.1,0.5,0,0.7,0.1c0.1,0.1,0.1,0.3-0.2,0.4
			S296.8,170.1,296.7,170z M299.3,169.5c-0.1-0.1-0.1-0.3,0.2-0.4c0.2-0.1,0.5,0,0.7,0.1c0.1,0.1,0.1,0.3-0.2,0.4
			C299.8,169.7,299.5,169.6,299.3,169.5z M301.6,168.7c-0.1-0.1-0.1-0.3,0.2-0.4c0.2-0.1,0.5,0,0.7,0.1c0.1,0.1,0.1,0.3-0.2,0.4
			C302.1,168.9,301.8,168.9,301.6,168.7z M301.3,169.2c0.2-0.1,0.5,0,0.7,0.1c0.1,0.1,0.1,0.3-0.2,0.4c-0.2,0.1-0.5,0-0.7-0.1
			C301,169.5,301.1,169.3,301.3,169.2z M298,170.8c-0.1-0.1-0.1-0.3,0.2-0.4c0.2-0.1,0.5,0,0.7,0.1c0.1,0.1,0.1,0.3-0.2,0.4
			S298.1,170.9,298,170.8z M299.4,170.5c-0.1-0.1-0.1-0.3,0.2-0.4c0.2-0.1,0.5,0,0.7,0.1c0.1,0.1,0,0.3-0.2,0.4
			C299.8,170.7,299.5,170.7,299.4,170.5z"/>
		<path style="fill:#DFDBB0;" d="M304.9,35.4c-0.7-0.3-2.2,0.2-4.1,1.4c2.3-0.6,3.3-0.1,3.4-0.1c0,0-1.5,0-3.8,0.7
			c-0.4,0.1-0.7,0.2-1,0.4c-0.6,0.4-1.2,0.9-1.8,1.4c0.2-0.1,0.4-0.2,0.6-0.2c2.7-0.9,3.9-0.3,4-0.3c0,0-1.5,0-3.8,0.7
			c-0.8,0.3-1.4,0.5-1.9,0.8c-0.2,0.1-0.3,0.3-0.5,0.4c-0.2,0.2-0.5,0.4-0.7,0.7c0.2-0.1,0.5-0.2,0.8-0.3c2.7-0.9,3.9-0.3,4-0.3
			c0,0-1.5,0-3.8,0.7c-0.7,0.2-1.3,0.5-1.7,0.7c-0.5,0.5-0.9,1-1.3,1.4c0.2-0.1,0.5-0.2,0.8-0.3c2.7-0.9,3.9-0.3,4-0.3
			c0,0-1.5,0-3.8,0.7c-0.6,0.2-1,0.4-1.4,0.6c-1.4,1.8-1.8,3.2-1.1,3.5c1.3,0.6,5.3-1.7,9-5.1C304.2,39.1,306.1,35.9,304.9,35.4z"/>
		<path style="fill:#DFDBB0;" d="M291.4,130.9c0.7-0.3,2.2,0.2,4.1,1.4c-2.3-0.6-3.3-0.1-3.4-0.1c0,0,1.5,0,3.8,0.7
			c0.4,0.1,0.7,0.2,1,0.4c0.6,0.4,1.2,0.9,1.8,1.4c-0.2-0.1-0.4-0.2-0.6-0.2c-2.7-0.9-3.9-0.3-4-0.3c0,0,1.5,0,3.8,0.7
			c0.8,0.3,1.4,0.5,1.9,0.8c0.2,0.1,0.3,0.3,0.5,0.4c0.2,0.2,0.5,0.4,0.7,0.7c-0.2-0.1-0.5-0.2-0.8-0.3c-2.7-0.9-3.9-0.3-4-0.3
			c0,0,1.5,0,3.8,0.7c0.7,0.2,1.3,0.5,1.7,0.7c0.5,0.5,0.9,1,1.3,1.4c-0.2-0.1-0.5-0.2-0.8-0.3c-2.7-0.9-3.9-0.3-4-0.3
			c0,0,1.5,0,3.8,0.7c0.6,0.2,1,0.4,1.4,0.6c1.4,1.8,1.8,3.2,1.1,3.5c-1.3,0.6-5.3-1.7-9-5.1C292.1,134.7,290.1,131.5,291.4,130.9z"
			/>
		<path style="fill:#DFDBB0;" d="M303.6,71.3c-0.7,2.3-3.5,3.2-6.4,3.2c-0.4,0-0.7,0-1.1,0c-1.6-0.1-2.6-0.7-2.9-1.5
			c-0.1-0.3-0.1-0.9,0.4-1.6c0.9-1.1,3.3-1.8,5.3-1.6c1,0.1,1.7,0.4,1.9,1c0.1,0.2,0.1,0.6-0.3,1.1c-0.6,0.7-2.1,1.2-3.4,1.1
			c-0.7-0.1-1.2-0.3-1.3-0.7c0-0.1-0.1-0.4,0.2-0.8c0.4-0.5,1.4-0.8,2.3-0.7c0.5,0,0.8,0.2,0.9,0.5c0,0.1,0.1,0.3-0.1,0.6
			c-0.3,0.3-0.9,0.5-1.5,0.5c-0.3,0-0.6-0.2-0.6-0.4c0-0.1,0-0.3,0.1-0.4l0.3,0.3l0,0c0,0,0.1,0,0.3,0.1c0.5,0,1-0.1,1.2-0.3
			c0-0.1,0.1-0.1,0.1-0.1c0-0.1-0.2-0.2-0.6-0.2c-0.7-0.1-1.6,0.2-2,0.6c-0.1,0.1-0.2,0.2-0.1,0.3c0.1,0.2,0.4,0.4,1,0.4
			c1.2,0.1,2.6-0.3,3.1-0.9c0.1-0.2,0.3-0.4,0.2-0.6c-0.1-0.4-0.8-0.6-1.6-0.7c-1.9-0.2-4.1,0.5-5,1.5c-0.2,0.3-0.5,0.7-0.4,1.1
			c0.2,0.6,1.2,1.1,2.6,1.2c2.4,0.2,6.6-0.3,7.2-3.1c-1.1-1.2-3.1-1.7-5.1-1.7c-3.3,0-6.4,1.7-6.2,4.7c0.2,2.9,3.1,3.7,6.4,3.5
			c3.9-0.3,5.4-1.5,5.7-3.6C304.3,72.8,304.1,71.9,303.6,71.3z"/>
		<path style="fill:#DFDBB0;" d="M301.8,148.4c0.5,2.3-1.5,4.5-4,5.9c-0.3,0.2-0.7,0.3-1,0.5c-1.4,0.6-2.6,0.7-3.2,0.1
			c-0.3-0.2-0.6-0.7-0.4-1.6c0.3-1.4,2-3.2,3.9-4c0.9-0.4,1.7-0.4,2.2-0.1c0.2,0.1,0.4,0.5,0.3,1.1c-0.2,0.9-1.3,2.1-2.5,2.6
			c-0.6,0.3-1.2,0.3-1.5,0c-0.1-0.1-0.3-0.3-0.2-0.8c0.1-0.6,0.9-1.4,1.6-1.7c0.4-0.2,0.8-0.2,1,0c0.1,0.1,0.2,0.3,0.1,0.6
			c-0.1,0.4-0.6,0.9-1.1,1.1c-0.3,0.1-0.6,0.1-0.7,0s-0.2-0.3-0.1-0.4l0.4,0.1l0,0c0,0,0.1,0,0.3-0.1c0.5-0.2,0.8-0.6,0.9-0.9
			c0-0.1,0-0.1,0-0.1c-0.1,0-0.3-0.1-0.6,0.1c-0.7,0.3-1.3,1-1.4,1.5c0,0.1,0,0.3,0.1,0.3c0.1,0.1,0.5,0.1,1-0.1
			c1.1-0.5,2.1-1.6,2.3-2.3c0-0.2,0.1-0.5-0.1-0.7c-0.3-0.3-1-0.2-1.7,0.1c-1.7,0.8-3.4,2.4-3.7,3.7c-0.1,0.4-0.1,0.8,0.2,1.1
			c0.5,0.4,1.6,0.4,2.8-0.2c2.2-1,5.6-3.4,4.8-6.2c-1.5-0.5-3.5,0-5.3,1c-2.9,1.6-4.8,4.6-3.1,7.1c1.6,2.4,4.5,1.8,7.3,0
			c3.3-2.1,4-3.9,3.3-5.9C303.2,149.4,302.6,148.8,301.8,148.4z"/>
	</g>
</g>
<text transform="matrix(1 0 0 1 158.0232 103.8514)" style="fill:#D2CD96; font-family:'GillSans'; font-size:8.5;">79 James Street, Brooklyn East</text>
<text transform="matrix(1 0 0 1 158.0232 114.8514)" style="fill:#D2CD96; font-family:'GillSans'; font-size:8.5;">New York City 1289</text>
<text transform="matrix(1 0 0 1 158.0232 131.8514)" style="fill:#D2CD96; font-family:'GillSans'; font-size:8.5;">Tel: 079-5889-3344</text>
<text transform="matrix(1 0 0 1 158.0232 142.8514)" style="fill:#D2CD96; font-family:'GillSans'; font-size:8.5;">Email: johnamiel@kmail.com</text>
<text transform="matrix(1 0 0 1 158.0232 153.8514)" style="fill:#D2CD96; font-family:'GillSans'; font-size:8.5;">Facebook: John_Amiel</text>
<text transform="matrix(1 0 0 1 158.0232 164.8514)" style="fill:#D2CD96; font-family:'GillSans'; font-size:8.5;">Twitter: @johnamiel</text>
<text transform="matrix(1 0 0 1 158.0232 180.8514)" style="fill:#D2CD96; font-family:'GillSans'; font-size:8.5;">www.freshlybaked.com</text>
<text transform="matrix(1 0 0 1 158.0233 74.3232)" style="fill:#D2CD96; font-family:'Handwriting-Dakota'; font-size:15;">John Amiel</text>
<text transform="matrix(1 0 0 1 158.0233 86.3232)" style="fill:#D2CD96; font-family:'GillSans-Italic'; font-size:8.5;">Chief Baker</text>
<path style="fill:#D2CD96;" d="M134.5,183.5h-0.6v-1.9h0.6V183.5z M134.5,179.7h-0.6v-1.9h0.6V179.7z M134.5,175.9h-0.6V174h0.6
	V175.9z M134.5,172h-0.6v-1.9h0.6V172z M134.5,168.2h-0.6v-1.9h0.6V168.2z M134.5,164.4h-0.6v-1.9h0.6V164.4z M134.5,160.6h-0.6
	v-1.9h0.6V160.6z M134.5,156.8h-0.6v-1.9h0.6V156.8z M134.5,153h-0.6v-2h0.6V153z M134.5,149.1h-0.6v-1.9h0.6V149.1z M134.5,145.3
	h-0.6v-1.9h0.6V145.3z M134.5,141.5h-0.6v-1.9h0.6V141.5z M134.5,137.7h-0.6v-1.9h0.6V137.7z M134.5,133.9h-0.6V132h0.6V133.9z
	 M134.5,130.1h-0.6v-1.9h0.6V130.1z M134.5,126.2h-0.6v-1.9h0.6V126.2z M134.5,122.4h-0.6v-1.9h0.6V122.4z M134.5,118.6h-0.6v-1.9
	h0.6V118.6z M134.5,114.8h-0.6v-1.9h0.6V114.8z M134.5,111h-0.6v-1.9h0.6V111z M134.5,107.1h-0.6v-1.9h0.6V107.1z M134.5,103.3h-0.6
	v-1.9h0.6V103.3z M134.5,99.5h-0.6v-1.9h0.6V99.5z M134.5,95.7h-0.6v-1.9h0.6V95.7z M134.5,91.9h-0.6V90h0.6V91.9z M134.5,88.1h-0.6
	v-1.9h0.6V88.1z M134.5,84.2h-0.6v-1.9h0.6V84.2z M134.5,80.4h-0.6v-1.9h0.6V80.4z M134.5,76.6h-0.6v-1.9h0.6V76.6z"/>
<g>
	<g>
		<g>
			<g>
				<path style="fill:#D2CD96;" d="M93.8,135.7c-0.3-0.2-0.8-0.4-1.3-0.6c-0.5-0.2-1.2-0.3-1.9-0.3c-0.7,0-1.3,0.1-1.4,0.1
					s-0.1,0-0.2,0c0,0.1,0,0.3,0,0.4c0.2,0,0.4,0,0.7,0c1.4,0,2.5,0.5,3.1,1.4C93.1,136.3,93.4,136,93.8,135.7z"/>
			</g>
			<g>
				<path style="fill:#D2CD96;" d="M89.1,134.7c0.3-0.1,1.3-0.3,2.2-0.3c0.6,0,1.1,0.1,1.5,0.2c0.6,0.2,1.1,0.5,1.4,0.8
					c0.1-0.1,0.3-0.2,0.4-0.4c-0.4-0.2-1-0.6-1.7-0.8c-0.5-0.2-1.2-0.3-1.9-0.3c-0.8,0-1.4,0.1-1.4,0.1c-0.1,0-0.2,0-0.2-0.1l0,0
					l0,0c0-0.1,1.2-0.4,2.3-0.4c0.6,0,1.1,0.1,1.5,0.2c0.9,0.3,1.5,0.8,1.8,1.1c0.3-0.2,0.5-0.4,0.8-0.6c-0.6-0.8-1.8-1.5-3.2-1.8
					c-0.4-0.1-0.8-0.1-1.3-0.1c-1.4,0-2.3,0.5-2.8,0.8c0.1,0.1,0.3,0.2,0.4,0.4C88.9,133.9,89.1,134.3,89.1,134.7z M89.4,133
					c0-0.1,1.3-0.4,2.2-0.4c0.6,0,1.1,0.1,1.5,0.2c1.4,0.5,1.9,1.3,2,1.5l0,0l0,0l0,0l0,0c0,0,0,0-0.2-0.1c-0.3-0.2-1-0.7-2-1.1
					c-0.5-0.2-1.2-0.3-1.9-0.3c-0.8,0-1.4,0.1-1.4,0.1C89.5,133.2,89.5,133.1,89.4,133L89.4,133L89.4,133z"/>
			</g>
			<g>
				<path style="fill:#D2CD96;" d="M88.3,141.5c-0.1,0-0.2,0-0.3,0c0.1,0.2,0.1,0.3,0.1,0.4C88.2,141.8,88.2,141.6,88.3,141.5
					C88.4,141.5,88.3,141.5,88.3,141.5z"/>
			</g>
			<g>
				<path style="fill:#D2CD96;" d="M83,138.2L83,138.2L83,138.2z"/>
			</g>
			<g>
				<path style="fill:#D2CD96;" d="M82.6,137.1c0.1,0,0.2,0,0.3,0.1c0,0,0,0,0.1,0c0,0,0,0,0.1,0c0,0,0,0,0.1,0c0,0,0,0,0.1,0
					c0,0,0,0,0.1,0c0.2,0,0.3,0.1,0.5,0.2l0,0c0.1-0.1,0.2-0.1,0.3,0c0,0,0,0.1,0,0.2c0.3,0.1,0.7,0.3,1,0.5c0.1-0.3,0.3-0.7,0.6-1
					c0.2-0.2,0.4-0.4,0.6-0.6c0,0,0,0,0.1,0c0,0,0,0,0.1,0c0.5-0.4,1.2-0.7,1.9-0.9c0,0,0,0,0.1,0h0.1h0.1c0.2,0,0.3-0.1,0.5-0.1
					c0.1-0.6,0-1.3-0.3-1.7c-0.1-0.1-0.2-0.3-0.4-0.4c0,0,0,0-0.1,0c0,0,0,0-0.1,0c-0.3-0.2-0.8-0.3-1.3-0.3c-0.8,0-1.8,0.3-2.6,0.9
					l-0.1,0.1c0,0,0,0-0.1,0c0,0,0,0-0.1,0C82.9,134.9,82.4,136.1,82.6,137.1z M83.4,136.6C83.4,136.6,83.4,136.7,83.4,136.6
					C83.3,136.7,83.3,136.7,83.4,136.6c-0.1,0.1-0.1,0.1-0.2,0.1l0,0c0,0-0.1,0-0.1-0.1l0,0v-0.1c0-0.1,0-0.1,0.1-0.1l0,0
					c0.1-0.1,0.1-0.1,0.2,0c0,0,0,0,0.1,0l0,0v0.1l0,0C83.4,136.5,83.4,136.6,83.4,136.6z M83.5,136L83.5,136L83.5,136
					c-0.1,0.1-0.2,0.1-0.2,0.1h-0.1l0,0l0,0c0,0,0,0,0-0.1s0-0.1,0.1-0.2l0,0h0.1c0.1,0,0.1,0,0.2,0C83.6,135.8,83.6,135.9,83.5,136
					z M84.1,136.9c0,0-0.1,0.1-0.2,0.1s-0.1,0-0.1-0.1c-0.1-0.1,0-0.2,0.1-0.3s0.2-0.1,0.3,0C84.2,136.7,84.2,136.8,84.1,136.9z
					 M84.3,136.1c0,0-0.1,0.1-0.2,0.1s-0.1,0-0.1-0.1c0,0,0-0.1,0-0.2l0.1-0.1c0.1-0.1,0.2-0.1,0.3,0
					C84.4,135.9,84.4,136,84.3,136.1z M84.9,137.7c0,0-0.1,0.1-0.2,0.1s-0.1,0-0.1-0.1c-0.1-0.1,0-0.2,0.1-0.3s0.2-0.1,0.3,0v0.1
					C85,137.6,84.9,137.6,84.9,137.7z M84.6,135.9c0-0.1,0-0.1,0.1-0.2c0.1-0.1,0.2-0.1,0.3,0v0.1c0,0.1,0,0.1-0.1,0.2
					c-0.1,0-0.1,0.1-0.2,0.1s-0.1,0-0.1-0.1C84.6,136,84.6,135.9,84.6,135.9z M84.9,136.9c0,0-0.1,0.1-0.2,0.1s-0.1,0-0.1-0.1
					c-0.1-0.1,0-0.2,0.1-0.3s0.2-0.1,0.3,0v0.1C85,136.8,85,136.9,84.9,136.9z M85.6,136.2c0,0.1-0.1,0.2-0.2,0.2l0,0
					c0,0-0.1,0-0.1-0.1s0-0.1,0-0.2c0-0.1,0.1-0.2,0.2-0.2l0,0c0,0,0.1,0,0.1,0.1C85.7,136,85.7,136.1,85.6,136.2z M85.7,135.5
					C85.7,135.6,85.6,135.6,85.7,135.5c-0.1,0-0.1,0.1-0.1,0.1l0,0c-0.1,0-0.1,0-0.1-0.1v-0.1c0,0,0,0,0-0.1c0,0,0,0,0.1-0.1
					c-0.1,0-0.1,0-0.1-0.1V135c0-0.1,0-0.1,0.1-0.2c0.1-0.1,0.2-0.1,0.3,0c0.1,0.1,0,0.2-0.1,0.3c0.1,0,0.1,0,0.1,0.1
					C85.8,135.4,85.8,135.5,85.7,135.5z M85.8,134.8c-0.1-0.1,0-0.2,0.1-0.3s0.2-0.1,0.3,0v0.1c0,0.1,0,0.1-0.1,0.2
					c0,0-0.1,0.1-0.2,0.1C85.9,134.9,85.9,134.9,85.8,134.8z M86.3,136.3L86.3,136.3C86.2,136.3,86.2,136.3,86.3,136.3L86.3,136.3
					L86.3,136.3h-0.2v-0.1l0,0c0,0,0,0,0-0.1c0,0,0,0,0-0.1l0,0c0.1-0.1,0.2-0.1,0.3,0C86.4,136.1,86.4,136.3,86.3,136.3z
					 M86.9,134.8c0,0.1-0.1,0.2-0.2,0.2l0,0c0,0-0.1,0-0.1-0.1s0-0.1,0-0.2c0-0.1,0.1-0.2,0.2-0.2l0,0c0,0,0.1,0,0.1,0.1
					C86.9,134.7,86.9,134.7,86.9,134.8z M87.4,135.6c-0.1,0-0.1,0.1-0.2,0.1s-0.1,0-0.1-0.1c-0.1-0.1,0-0.2,0.1-0.3s0.2-0.1,0.3,0
					C87.5,135.4,87.5,135.6,87.4,135.6z M87.6,134.5C87.6,134.5,87.6,134.4,87.6,134.5C87.6,134.4,87.7,134.4,87.6,134.5
					c0.1-0.1,0.3-0.1,0.3,0v0.1c0,0.1,0,0.1-0.1,0.2l0,0c0,0,0,0-0.1,0c0,0,0,0-0.1,0l0,0c-0.1,0-0.1,0-0.1-0.1L87.6,134.5
					C87.5,134.6,87.5,134.6,87.6,134.5L87.6,134.5z M87.2,133.4c0.1-0.1,0.2-0.1,0.3,0c0.1,0.1,0,0.2-0.1,0.3c0,0-0.1,0.1-0.2,0.1
					s-0.1,0-0.1-0.1C87.1,133.6,87.1,133.5,87.2,133.4z M87,134c0.1-0.1,0.2-0.1,0.3,0v0.1c0,0.1,0,0.1-0.1,0.2c0,0-0.1,0.1-0.2,0.1
					s-0.1,0-0.1-0.1C86.8,134.2,86.9,134.1,87,134z M86.5,134.2c0-0.1,0.1-0.2,0.2-0.2l0,0c0,0,0.1,0,0.1,0.1s0,0.1,0,0.2
					c0,0.1-0.1,0.2-0.2,0.2l0,0c0,0-0.1,0-0.1-0.1C86.5,134.3,86.5,134.3,86.5,134.2z M86.6,135.3c0.1,0.1,0,0.2-0.1,0.3
					c-0.1,0-0.1,0.1-0.2,0.1s-0.1,0-0.1-0.1c-0.1-0.1,0-0.2,0.1-0.3S86.5,135.2,86.6,135.3z M86,133.3c0,0,0-0.1,0.1-0.1
					c0.1-0.1,0.2-0.1,0.3,0c0.1,0.1,0,0.2-0.1,0.3c-0.1,0-0.1,0.1-0.2,0.1s-0.1,0-0.1-0.1C86,133.4,86,133.4,86,133.3z M85.7,134
					c0-0.1,0.1-0.2,0.2-0.2l0,0c0,0,0.1,0,0.1,0.1s0,0.1,0,0.2c0,0.1-0.1,0.2-0.2,0.2l0,0c0,0-0.1,0-0.1-0.1
					C85.6,134.2,85.6,134.1,85.7,134z M85.3,133.4c0-0.1,0.1-0.2,0.2-0.2c0,0,0.1,0,0.1,0.1c0,0,0,0.1,0,0.2c0,0.1-0.1,0.2-0.2,0.2
					l0,0c0,0-0.1,0-0.1-0.1C85.2,133.5,85.2,133.4,85.3,133.4z M85.2,134.1c0-0.1,0.1-0.2,0.2-0.2l0,0c0,0,0.1,0,0.1,0.1
					s0,0.1,0,0.2c0,0.1-0.1,0.2-0.2,0.2l0,0c0,0-0.1,0-0.1-0.1S85.2,134.1,85.2,134.1z M85.1,134.3c0,0,0.1,0,0.1,0.1
					c0,0,0,0.1,0,0.2c0,0.1-0.1,0.2-0.2,0.2l0,0c0,0-0.1,0-0.1-0.1s0-0.1,0-0.2C84.9,134.4,85,134.3,85.1,134.3z M84.5,133.8
					c0-0.1,0.1-0.2,0.2-0.2c0,0,0.1,0,0.1,0.1c0,0,0,0.1,0,0.2c0,0.1-0.1,0.2-0.2,0.2l0,0c0,0-0.1,0-0.1-0.1S84.5,133.9,84.5,133.8z
					 M84.5,135.2L84.5,135.2C84.6,135.2,84.6,135.2,84.5,135.2c0.1,0.1,0.1,0.1,0.1,0.2c0,0.1,0,0.1-0.1,0.2c0,0-0.1,0.1-0.2,0.1
					s-0.1,0-0.1-0.1c0,0,0,0,0-0.1v-0.1c0,0,0-0.1,0.1-0.1C84.3,135.2,84.4,135.2,84.5,135.2z M84,134.3c0.1-0.1,0.1-0.1,0.2,0h0.1
					c0,0,0,0,0,0.1l0,0c0,0.1,0,0.1-0.1,0.2c-0.1,0-0.1,0.1-0.2,0.1s-0.1,0-0.1-0.1v-0.1C83.9,134.4,84,134.3,84,134.3z M83.8,135
					C83.9,135,83.9,135,83.8,135c0.1,0,0.1,0,0.1,0.1l0,0v0.1c0,0.1,0,0.1-0.1,0.2c0,0-0.1,0.1-0.2,0.1h-0.1l0,0l0,0c0,0,0,0,0-0.1
					l0,0c0-0.1,0-0.1,0.1-0.2C83.7,135,83.8,135,83.8,135z"/>
			</g>
			<g>
				<path style="fill:#D2CD96;" d="M82.9,137.9L82.9,137.9L82.9,137.9L82.9,137.9z"/>
			</g>
			<g>
				<path style="fill:#D2CD96;" d="M90.6,138.6L90.6,138.6c0.3-0.2,0.7-0.6,1.1-1c0,0,0,0,0.1-0.1c0,0,0,0,0.1-0.1
					c0.2-0.2,0.5-0.5,0.8-0.7c-0.5-0.8-1.6-1.3-3-1.3c-0.2,0-0.5,0-0.7,0c0,0,0,0-0.1,0h-0.1c-0.1,0-0.2,0-0.3,0.1h-0.1h-0.1h-0.1
					c-0.5,0.1-0.9,0.3-1.3,0.5l0,0l0,0c-0.2,0.1-0.4,0.2-0.6,0.4c0,0,0,0-0.1,0c0,0,0,0-0.1,0c-0.2,0.2-0.4,0.4-0.6,0.6
					c-0.3,0.3-0.4,0.6-0.6,0.9c0,0,0.1,0,0.1,0.1c0.1,0.1,0.3,0.2,0.4,0.3c0,0,0,0,0.1,0l0,0l0,0l0,0c0,0,0,0,0.1,0.1l0.1,0.1
					c0,0,0,0,0.1,0c0,0,0,0,0.1,0c0.4,0.3,0.7,0.6,0.9,0.9c0,0,0.1,0,0.1-0.1c0.1,0,0.3,0,0.3,0.1v0.1c0,0.1-0.1,0.1-0.2,0.1
					c0.3,0.5,0.6,0.9,0.7,1.3c0.1,0,0.2,0,0.3,0c0.1,0,0.1,0,0.2,0c0.2-0.2,0.3-0.5,0.5-0.7c0,0,0,0,0-0.1c0,0,0,0,0-0.1
					c0.3-0.4,0.6-0.7,0.8-1l0,0l0.1-0.1c0.2-0.2,0.3-0.3,0.4-0.5l0,0C90.4,138.8,90.5,138.7,90.6,138.6z M87.7,136.2
					c0-0.1,0.1-0.1,0.2-0.1s0.3,0,0.3,0.1v0.1c0,0.1-0.1,0.1-0.2,0.1h-0.1c-0.1,0-0.2-0.1-0.2-0.1C87.6,136.3,87.6,136.2,87.7,136.2
					z M87.7,137.2c0.1,0,0.2,0,0.2,0s0,0,0.1,0c0,0,0,0,0,0.1l0,0v0.1c0,0.1-0.1,0.1-0.2,0.1l0,0l0,0l0,0h-0.1l-0.1-0.1
					C87.4,137.3,87.5,137.2,87.7,137.2z M86.2,138.1L86.2,138.1L86.2,138.1c0,0.1-0.1,0.2-0.2,0.2l0,0c0,0,0,0-0.1,0l0,0h-0.1
					l-0.1-0.1v-0.1c0-0.1,0.1-0.1,0.2-0.1C86,137.9,86.2,137.9,86.2,138.1C86.2,138,86.2,138,86.2,138.1L86.2,138.1z M86.3,137.7
					c-0.1,0-0.2-0.1-0.2-0.1v-0.1c0-0.1,0.1-0.1,0.2-0.1s0.3,0,0.3,0.1C86.6,137.5,86.5,137.7,86.3,137.7
					C86.4,137.7,86.3,137.7,86.3,137.7z M86.7,138.8C86.7,138.8,86.6,138.8,86.7,138.8c-0.2,0-0.3,0-0.3-0.1v-0.1l0,0
					c0-0.1,0.1-0.1,0.2-0.1c0,0,0,0,0.1,0s0.2,0,0.2,0.1C86.9,138.7,86.8,138.8,86.7,138.8z M86.9,136.9c0-0.1,0.1-0.1,0.2-0.1h0.1
					c0.1,0,0.2,0.1,0.2,0.1v0.1c0,0.1-0.1,0.1-0.2,0.1h-0.1c-0.1,0-0.2-0.1-0.2-0.1C86.9,136.9,86.9,136.9,86.9,136.9z M87.2,138.1
					C87.1,138.1,87.1,138.1,87.2,138.1C87.1,138.1,87.1,138.1,87.2,138.1L87.2,138.1L87.2,138.1L87.2,138.1L87.2,138.1
					c-0.1-0.1,0-0.2,0.1-0.2l0,0h0.1l0,0c0,0,0,0,0.1,0l0,0c0,0,0,0,0.1,0c0,0,0,0,0,0.1l0,0v0.1c0,0,0,0,0,0.1
					C87.3,138,87.3,138.1,87.2,138.1L87.2,138.1z M87.7,139.1c0,0.1-0.1,0.1-0.2,0.1h-0.1c-0.1,0-0.2,0-0.2-0.1s0.1-0.2,0.2-0.2
					S87.7,138.9,87.7,139.1C87.8,139.1,87.8,139.1,87.7,139.1z M88.1,138.1c0,0.1-0.1,0.1-0.2,0.1h-0.1c-0.1,0-0.2-0.1-0.2-0.1V138
					c0-0.1,0.1-0.1,0.2-0.1s0.3,0,0.3,0.1C88.1,138,88.1,138.1,88.1,138.1z M91.6,136.5c0.1,0,0.3,0,0.3,0.1s-0.1,0.2-0.2,0.2h-0.1
					c-0.1,0-0.2-0.1-0.2-0.1C91.4,136.7,91.5,136.6,91.6,136.5z M90.9,137.2L90.9,137.2L90.9,137.2c0.1-0.1,0.1-0.1,0.1-0.1
					s0,0,0.1,0s0.3,0,0.3,0.1c0,0,0,0,0,0.1c0,0,0,0,0,0.1c0,0,0,0,0,0.1l-0.1,0.1h-0.1c-0.1,0-0.2-0.1-0.2-0.1
					C90.8,137.3,90.9,137.3,90.9,137.2z M90.8,137.1C90.8,137.2,90.8,137.2,90.8,137.1c0,0.1,0,0.1-0.1,0.2
					c-0.1,0.1-0.1,0.1-0.2,0.1h-0.1l-0.1-0.1c0-0.1,0-0.1,0.1-0.2l0,0c0,0,0,0,0.1,0h0.1H90.8C90.8,137,90.8,137,90.8,137.1
					L90.8,137.1L90.8,137.1z M90.3,136c0-0.1,0.1-0.1,0.2-0.1s0.3,0,0.3,0.1s-0.1,0.2-0.2,0.2h-0.1C90.4,136.2,90.3,136.2,90.3,136
					C90.3,136,90.3,136,90.3,136z M90,136.6L90,136.6c0,0.1,0,0.1,0,0.1s0,0,0,0.1l0,0c-0.1,0.1-0.1,0.1-0.2,0.1h-0.1l-0.1-0.1
					c0-0.1,0-0.1,0.1-0.2l0,0l0,0c0,0,0,0,0.1,0S90,136.6,90,136.6C90,136.5,90,136.5,90,136.6z M89.5,135.6
					c0.1-0.1,0.2-0.1,0.3-0.1l0.1,0.1c0,0.1,0,0.1-0.1,0.2c-0.1,0.1-0.1,0.1-0.2,0.1h-0.1l-0.1-0.1
					C89.4,135.8,89.5,135.7,89.5,135.6z M89.2,136.3L89.2,136.3c0.1-0.1,0.1-0.1,0.2-0.1s0.1,0,0.2,0l0,0l0.1,0.1l0,0v0.1
					c0,0,0,0.1-0.1,0.1c-0.1,0.1-0.1,0.1-0.2,0.1h-0.1l-0.1-0.1C89.1,136.5,89.1,136.4,89.2,136.3z M89,136.7c0,0.1,0,0.1-0.1,0.2
					c-0.1,0.1-0.1,0.1-0.2,0.1h-0.1l-0.1-0.1c0-0.1,0-0.1,0.1-0.2c0.1-0.1,0.2-0.1,0.3-0.1C88.9,136.6,89,136.6,89,136.7z
					 M88.5,135.8L88.5,135.8C88.6,135.7,88.6,135.7,88.5,135.8c0.1-0.1,0.1-0.1,0.2-0.1h0.1c0,0,0,0,0.1,0l0,0c0,0,0,0,0,0.1l0,0
					c0,0,0,0,0,0.1c0,0,0,0,0,0.1c0,0,0,0,0,0.1l0,0l0,0h-0.1c0,0,0,0-0.1,0l0,0h-0.1l-0.1-0.1C88.5,135.9,88.5,135.8,88.5,135.8z
					 M88.5,138.9L88.5,138.9l-0.2-0.1c0-0.1,0-0.1,0.1-0.2c0.1-0.1,0.2-0.1,0.3-0.1l0.1,0.1c0,0.1,0,0.1-0.1,0.2
					C88.6,138.8,88.5,138.9,88.5,138.9z M89,140l-0.1,0.1l0,0l0,0c0,0,0,0-0.1,0l0,0c-0.1,0-0.2-0.1-0.2-0.1c0-0.1,0-0.1,0-0.1
					s0,0,0.1,0c0,0,0,0,0.1,0l0,0c0.1,0,0.3,0,0.3,0.1C89,139.9,89,139.9,89,140z M88.9,138.1c-0.1,0-0.2,0-0.2-0.1s0.1-0.2,0.2-0.2
					l0,0c-0.1,0-0.1-0.1-0.2-0.1v-0.1c0-0.1,0.1-0.1,0.2-0.1s0.3,0,0.3,0.1s-0.1,0.2-0.2,0.2l0,0c0.1,0,0.1,0.1,0.2,0.1
					C89.2,138,89.1,138.1,88.9,138.1C89,138.1,88.9,138.1,88.9,138.1z M89.3,139.2C89.3,139.3,89.2,139.3,89.3,139.2
					c-0.2,0-0.3,0-0.3-0.1V139c0-0.1,0.1-0.1,0.2-0.1s0.3,0,0.3,0.1C89.5,139.1,89.4,139.2,89.3,139.2z M89.7,137.2
					c0.1,0,0.3,0,0.3,0.1v0.1c0,0.1-0.1,0.1-0.2,0.1h-0.1c-0.1,0-0.2,0-0.2-0.1C89.5,137.3,89.6,137.2,89.7,137.2z M89.9,138.5
					C89.8,138.5,89.8,138.5,89.9,138.5c-0.2,0-0.3,0-0.3-0.1v-0.1c0-0.1,0.1-0.1,0.2-0.1s0.3,0,0.3,0.1S90,138.5,89.9,138.5z
					 M90.4,137.9L90.4,137.9l-0.2-0.1c0-0.1,0-0.1,0.1-0.2c0.1-0.1,0.2-0.1,0.3-0.1l0.1,0.1c0,0.1,0,0.1-0.1,0.2
					C90.5,137.9,90.5,137.9,90.4,137.9z"/>
			</g>
			<g>
				<path style="fill:#D2CD96;" d="M101.6,134.5c-0.6-0.8-1.6-1.3-2.8-1.3c-0.2,0-0.4,0-0.7,0c-0.7,0.1-1.5,0.5-2.4,1.1
					c0,0,0,0-0.1,0c0,0,0,0-0.1,0c-0.3,0.2-0.5,0.4-0.8,0.6c0,0,0,0-0.1,0l-0.1,0.1c0,0,0,0-0.1,0c-0.2,0.1-0.3,0.2-0.5,0.4
					c0,0,0,0-0.1,0c0,0,0,0-0.1,0c0,0-0.1,0-0.1,0.1c0,0,0,0-0.1,0c0,0,0,0-0.1,0c-0.4,0.3-0.8,0.7-1.1,1l0,0c0,0,0,0-0.1,0.1
					c-0.2,0.2-0.5,0.5-0.7,0.7c0,0,0,0-0.1,0.1c0,0,0,0-0.1,0.1s-0.1,0.1-0.2,0.2c0,0,0,0-0.1,0.1s-0.1,0.1-0.2,0.2c0,0,0,0-0.1,0
					c-0.2,0.2-0.4,0.4-0.5,0.5c0,0,0,0-0.1,0.1l0,0c0,0,0,0-0.1,0.1l-0.1,0.1l-0.1,0.1l0,0c-0.1,0.1-0.2,0.2-0.3,0.4
					c0,0,0,0-0.1,0.1c0,0,0,0-0.1,0.1l-0.1,0.1l0,0c0,0,0,0-0.1,0.1c-0.3,0.3-0.5,0.6-0.8,1c0,0,0,0,0,0.1c0,0,0,0-0.1,0.1
					c-0.1,0.2-0.3,0.4-0.4,0.6c0,0,0,0.1-0.1,0.1c0,0,0,0,0,0.1c-0.1,0.2-0.2,0.4-0.3,0.6c0.1,0.3,0.1,0.5,0.1,0.7
					c0,0.4,0,0.9,0,1.3l0,0l0,0l0,0l0,0l0,0c0,0,0,0,0,0.1c0.2,0.2,0.4,0.3,0.7,0.4c0.5,0.2,1.1,0.2,1.9,0.2l0,0
					c2.8,0,6.9-1.1,7.6-1.8c0.2-0.3,0.6-0.8,0.9-1.5c0-0.1,0.1-0.1,0.1-0.2c0.9-1.7,2-4.1,2.4-5C102.1,135.7,102,135,101.6,134.5z
					 M94.5,142.2L94.5,142.2C94.4,142.2,94.4,142.2,94.5,142.2c-0.1,0-1.1-1.4-2.2-1.9c-0.1-0.1-0.2-0.1-0.4-0.1c0,0,0,0-0.1,0h-0.1
					c-0.5-0.1-0.9-0.2-1.2-0.2c-0.2,0-0.3,0-0.3,0h-0.1v-0.1c0.1-0.1,0.5-0.3,1-0.3c0.3,0,0.6,0.1,0.9,0.2h0.1c0,0,0,0,0.1,0h0.1
					c0.9,0.3,1.6,1.1,2,2.3C94.5,142,94.5,142.1,94.5,142.2C94.5,142.1,94.5,142.1,94.5,142.2z M97,139.8L97,139.8
					C96.9,139.8,96.9,139.8,97,139.8c-0.1-0.1-0.9-1.5-1.9-2.1l0,0c0,0,0,0-0.1,0c0,0,0,0-0.1,0c-0.9-0.5-1.6-0.5-1.8-0.5l0,0l0,0
					H93v-0.1l0,0c0.2-0.1,0.5-0.2,0.8-0.2c0.4,0,0.9,0.1,1.4,0.4c0,0,0.1,0,0.1,0.1c0,0,0,0,0.1,0c0,0,0,0,0.1,0
					c0.5,0.3,1.2,1,1.5,2.3C97,139.6,97,139.7,97,139.8C97,139.7,97,139.7,97,139.8z M99.7,137.4L99.7,137.4L99.7,137.4
					c-0.1,0-1.1-1.4-2.2-1.9c-0.6-0.2-1-0.3-1.4-0.3c0,0,0,0-0.1,0c0,0,0,0-0.1,0h-0.1c-0.2,0-0.3,0-0.3,0h-0.1v-0.1
					c0.1-0.1,0.2-0.2,0.4-0.2c0,0,0,0,0.1,0c0,0,0,0,0.1,0s0.3-0.1,0.5-0.1c0.4,0,0.7,0.1,1.2,0.2c0.9,0.3,1.6,1.1,2,2.3
					C99.7,137.3,99.8,137.3,99.7,137.4C99.8,137.3,99.8,137.4,99.7,137.4z"/>
			</g>
			<g>
				<path style="fill:#D2CD96;" d="M88.1,142.3v-0.1v-0.1c-0.1-0.2-0.1-0.4-0.2-0.6c0,0,0,0,0-0.1v-0.1c-0.2-0.4-0.4-0.9-0.8-1.3
					c0-0.1-0.1-0.1-0.1-0.2c-0.3-0.3-0.6-0.6-0.9-0.9c0,0,0,0-0.1,0l0,0c-0.1-0.1-0.1-0.1-0.2-0.2l0,0c0,0,0,0-0.1,0l0,0
					c0,0,0,0-0.1,0l0,0c-0.1-0.1-0.3-0.2-0.4-0.3h-0.1c0,0,0,0-0.1,0c0,0,0,0-0.1,0c-0.3-0.2-0.6-0.4-1-0.5h-0.1
					c-0.1,0-0.1,0-0.2-0.1c0,0,0,0-0.1,0c-0.1-0.1-0.3-0.1-0.4-0.1c0,0,0,0-0.1,0c0,0,0,0-0.1,0l0,0c0,0,0,0-0.1,0c0,0,0,0-0.1,0
					s-0.2,0-0.2-0.1h-0.1c0,0,0,0-0.1,0c-0.4-0.1-0.8-0.1-1.1-0.1c-0.8,0-1.5,0.3-2,0.6c0,0,0,0-0.1,0c-1.4,1.1-1.6,2.8-1.1,3.8
					c0.1,0.2,0.3,0.4,0.6,0.7c0,0,0,0,0.1,0c0.5,0.4,1.1,0.8,1.9,1.3c1.1,0.5,2.9,0.9,4.1,1.1c0,0,0.3,0,0.6,0
					c0.5,0,1.4-0.1,2.1-0.3c0.1,0,0.1,0,0.2-0.1c0.1,0,0.1-0.1,0.2-0.1c0,0,0,0,0.1,0c0,0,0,0,0.1,0c0,0,0,0,0.1,0l0,0
					c0-0.4,0.1-0.8,0-1.2C88.2,142.7,88.2,142.6,88.1,142.3z M86,143.6L86,143.6c-0.2,0-0.2-0.1-0.3-0.1c-0.1-0.1-1.4-2-3.1-2.7
					c-0.5-0.2-1-0.4-1.4-0.5h-0.1H81c-0.6-0.1-1-0.2-1.2-0.2s-0.2,0-0.2-0.1v-0.1h0.1c0.1,0,0.5-0.1,1-0.1l0,0h0.1h0.1
					c0.7,0,1.3,0.2,2,0.5C84.6,140.9,86,143.4,86,143.6L86,143.6z M86.5,142.4L86.5,142.4c-0.2,0-0.2-0.1-0.3-0.1c0,0-0.4-0.6-1-1.2
					c0,0,0,0-0.1-0.1l0,0c0,0,0,0-0.1-0.1c-0.5-0.5-1.2-1.1-2-1.4c-1.3-0.5-2.4-0.7-2.8-0.8h-0.1H80c0,0-0.1,0-0.1-0.1l0,0l0,0l0,0
					l0,0c0.1,0,0.5-0.1,1-0.1c0.7,0,1.5,0.2,2.2,0.5s1.3,0.8,1.8,1.3c0,0,0,0,0.1,0.1l0.1,0.1c0,0,0,0,0.1,0.1
					C86,141.4,86.5,142.3,86.5,142.4L86.5,142.4z M87.3,141.5L87.3,141.5c-0.2,0-0.2-0.1-0.3-0.1c0,0,0,0,0-0.1c0,0,0-0.1-0.1-0.1
					l-0.1-0.1c-0.2-0.3-0.7-0.8-1.3-1.4c0,0,0,0-0.1,0c0,0,0,0-0.1,0l-0.1-0.1c0,0,0,0-0.1,0c0,0,0,0-0.1,0s-0.1-0.1-0.2-0.1
					c0,0-0.1,0-0.1-0.1c0,0-0.1,0-0.1-0.1c-0.3-0.2-0.6-0.4-0.9-0.5h-0.1c-0.1-0.1-0.3-0.1-0.4-0.2c-0.1-0.1-0.3-0.1-0.4-0.1
					c0,0,0,0-0.1,0l0,0c0,0,0,0-0.1,0c-0.8-0.3-1.5-0.4-1.8-0.4c-0.2,0-0.2,0-0.2-0.1v-0.1h0.1c0.1,0,0.5-0.1,1-0.1
					c0.2,0,0.5,0,0.8,0.1h0.1h0.1c0,0,0,0,0.1,0c0,0,0,0,0.1,0H83c0,0,0,0,0.1,0c0.3,0.1,0.7,0.2,1,0.3s0.5,0.3,0.7,0.4
					c0,0,0,0,0.1,0c0,0,0,0,0.1,0c0,0,0.1,0,0.1,0.1c0,0,0,0,0.1,0.1c0,0,0.1,0,0.1,0.1c0.1,0,0.1,0.1,0.2,0.1c0,0,0,0,0.1,0
					c0,0,0,0,0.1,0.1s0.1,0.1,0.2,0.2l0,0c0,0,0,0,0,0.1l0.1,0.1c0,0,0,0,0.1,0.1c0,0,0,0.1,0.1,0.1c0,0,0,0.1,0.1,0.1
					C86.9,140.4,87.3,141.1,87.3,141.5L87.3,141.5l0.1,0.1C87.3,141.4,87.3,141.4,87.3,141.5L87.3,141.5z"/>
			</g>
			<g>
				<path style="fill:#D2CD96;" d="M89,145.2c-0.3,0-0.7,0-1,0c0.2,0.4,0.4,0.9,0.7,1.3c0.1,0.1,0.2,0.2,0.3,0.3l0,0
					c0.6,0,1.2,0,1.8-0.1l0,0c-0.4-0.5-0.7-1.1-0.8-1.5C89.6,145.2,89.3,145.2,89,145.2z"/>
			</g>
			<g>
				<path style="fill:#D2CD96;" d="M83.2,144.7c0.2,0.4,0.4,0.8,0.8,1.2c0.2,0.2,0.4,0.4,0.6,0.6c0.6,0.1,1.1,0.1,1.7,0.2
					c-0.1-0.1-0.2-0.2-0.2-0.2c-0.4-0.5-0.6-1-0.8-1.4C84.6,144.9,83.9,144.8,83.2,144.7z"/>
			</g>
			<g>
				<path style="fill:#D2CD96;" d="M78.6,142.8c0.1,0.4,0.3,0.8,0.6,1.1c0.4,0.6,1.1,1.2,1.4,1.5c0.4,0.1,0.7,0.3,1.2,0.4
					c-0.1-0.1-0.3-0.2-0.4-0.4c-0.5-0.5-0.8-1.1-0.9-1.6C79.6,143.5,79,143.2,78.6,142.8z"/>
			</g>
			<g>
				<path style="fill:#D2CD96;" d="M98.5,143.4c-0.4,0.2-0.9,0.4-1.4,0.6c0.3,0.3,0.5,0.6,0.8,0.7c0.1,0.1,0.3,0.2,0.4,0.3
					c0.5-0.3,1-0.5,1.4-0.8C99.2,144,98.8,143.7,98.5,143.4z"/>
			</g>
			<g>
				<path style="fill:#D2CD96;" d="M99.8,142.3c-0.2,0.3-0.5,0.6-1,0.9c0.4,0.3,0.8,0.6,1.2,0.7l0,0c0.4-0.4,0.7-0.7,0.8-1.1
					c-0.1,0-0.2-0.1-0.2-0.1C100.4,142.6,100.1,142.5,99.8,142.3z"/>
			</g>
			<g>
				<path style="fill:#D2CD96;" d="M90.4,145.2c0.1,0.4,0.4,0.9,0.7,1.3c0.1,0.1,0.1,0.2,0.2,0.2c0.7-0.1,1.5-0.1,2.2-0.2
					c-0.1-0.1-0.2-0.2-0.3-0.4c-0.2-0.3-0.5-0.6-0.7-1C91.8,145.1,91.1,145.1,90.4,145.2z"/>
			</g>
			<g>
				<path style="fill:#D2CD96;" d="M80.9,144c0.2,0.4,0.4,0.8,0.7,1.2c0.2,0.3,0.5,0.5,0.9,0.8c0.5,0.1,1,0.2,1.5,0.3
					c-0.1-0.1-0.2-0.2-0.2-0.2c-0.5-0.5-0.8-1.1-0.9-1.5C82.1,144.4,81.5,144.2,80.9,144z"/>
			</g>
			<g>
				<path style="fill:#D2CD96;" d="M87.6,145.2c-0.6,0-1.3-0.1-1.9-0.1c0.2,0.5,0.4,0.8,0.7,1.1c0.1,0.2,0.3,0.3,0.5,0.5
					c0.5,0,1.1,0.1,1.6,0.1l-0.1-0.1C88,146.2,87.7,145.6,87.6,145.2z"/>
			</g>
			<g>
				<path style="fill:#D2CD96;" d="M79.7,145c-0.3-0.3-0.6-0.6-0.8-0.9c-0.6-0.9-0.9-2.5-0.9-2.6c0,0-0.2,0-0.3,0
					c-0.2,0.2-0.5,0.4-0.5,1C77.2,143.6,78.1,144.3,79.7,145z"/>
			</g>
			<g>
				<path style="fill:#D2CD96;" d="M99.9,141.2c0,0.1,0.1,0.3,0.1,0.4c0,0.1,0,0.2-0.1,0.4c0.3,0.2,0.5,0.3,0.8,0.4
					c0.1,0,0.1,0.1,0.2,0.1c0-0.1,0-0.2,0-0.3c0-0.3,0-1.2-0.5-1.6C100.3,140.7,100,141.2,99.9,141.2z"/>
			</g>
			<g>
				<path style="fill:#D2CD96;" d="M95,144.6c0.3,0.4,0.5,0.6,0.8,0.9c0.1,0.1,0.3,0.2,0.5,0.3c0.6-0.2,1.2-0.4,1.7-0.6
					c-0.1,0-0.2-0.1-0.2-0.1c-0.3-0.2-0.7-0.5-1-0.9C96.2,144.3,95.6,144.5,95,144.6z"/>
			</g>
			<g>
				<path style="fill:#D2CD96;" d="M92.8,145c0.2,0.3,0.3,0.6,0.5,0.9c0.1,0.2,0.3,0.3,0.5,0.5c0.7-0.1,1.3-0.3,1.9-0.4
					c-0.1-0.1-0.2-0.1-0.2-0.2c-0.3-0.3-0.6-0.6-0.9-1.1C94,144.8,93.4,144.9,92.8,145z"/>
			</g>
			<g>
				<path style="fill:#D2CD96;" d="M95.7,149.5c-1.1,0.3-2.3,0.6-3.5,0.7c0,0.5-0.1,0.9-0.1,1.4c1.2-0.1,2.4-0.4,3.5-0.7
					C95.6,150.5,95.6,150,95.7,149.5z"/>
			</g>
			<g>
				<path style="fill:#D2CD96;" d="M95.5,151.3c-1.1,0.3-2.3,0.5-3.5,0.7c0,0.4-0.1,0.8-0.1,1.2c1.2-0.1,2.4-0.3,3.4-0.6
					C95.4,152.3,95.4,151.8,95.5,151.3z"/>
			</g>
			<g>
				<path style="fill:#D2CD96;" d="M86.8,151.7c0-0.5-0.1-0.9-0.1-1.4c-1.2-0.1-2.4-0.3-3.5-0.5c0,0.5,0.1,1,0.1,1.4
					C84.4,151.4,85.6,151.6,86.8,151.7z"/>
			</g>
			<g>
				<path style="fill:#D2CD96;" d="M82.7,147.7c0-0.5-0.1-0.9-0.1-1.3c-1.1-0.3-2-0.6-2.9-1c0,0.4,0.1,0.8,0.1,1.2
					C80.7,147.1,81.7,147.4,82.7,147.7z"/>
			</g>
			<g>
				<path style="fill:#D2CD96;" d="M87.2,151.7c1.5,0.1,3,0.1,4.5,0c0-0.5,0.1-0.9,0.1-1.4c-1.6,0.2-3.2,0.1-4.8,0
					C87.1,150.8,87.1,151.3,87.2,151.7z"/>
			</g>
			<g>
				<path style="fill:#D2CD96;" d="M91.9,148.7c-1.7,0.2-3.4,0.2-5,0c0,0.4,0.1,0.8,0.1,1.2c1.5,0.1,3.2,0.1,4.8,0
					C91.9,149.5,91.9,149.1,91.9,148.7z"/>
			</g>
			<g>
				<path style="fill:#D2CD96;" d="M83.1,147.8c1.1,0.3,2.3,0.5,3.5,0.6c0-0.5-0.1-1-0.1-1.4c-1.2-0.1-2.4-0.3-3.5-0.5
					C83,146.9,83,147.3,83.1,147.8z"/>
			</g>
			<g>
				<path style="fill:#D2CD96;" d="M86.6,148.7c-1.2-0.1-2.4-0.3-3.5-0.6c0,0.4,0.1,0.8,0.1,1.2c1.1,0.3,2.3,0.4,3.5,0.6
					C86.6,149.5,86.6,149.1,86.6,148.7z"/>
			</g>
			<g>
				<path style="fill:#D2CD96;" d="M87.2,152.1c0,0.5,0.1,0.9,0.1,1.2c1.4,0.1,2.8,0.1,4.2,0c0-0.3,0.1-0.7,0.1-1.2
					C90.2,152.2,88.6,152.2,87.2,152.1z"/>
			</g>
			<g>
				<path style="fill:#D2CD96;" d="M87.4,153.6c0.1,0.5,0.1,0.8,0.2,1c0,0.1,0,0.1,0.1,0.2c0.8,0.1,1.5,0.1,2.1,0.1
					c0.5,0,1,0,1.5-0.1c0.1-0.2,0.1-0.7,0.2-1.3C90.1,153.7,88.7,153.7,87.4,153.6z"/>
			</g>
			<g>
				<path style="fill:#D2CD96;" d="M87,153.2c0-0.3-0.1-0.7-0.1-1.2c-1.2-0.1-2.4-0.3-3.5-0.5c0.1,0.6,0.1,1,0.2,1.2
					C84.7,153,85.8,153.1,87,153.2z"/>
			</g>
			<g>
				<path style="fill:#D2CD96;" d="M95.3,153c-1.1,0.3-2.2,0.5-3.4,0.6c-0.1,0.6-0.1,1-0.2,1.3c1-0.1,2.1-0.3,3-0.5
					c0.2-0.3,0.4-0.7,0.5-1.1C95.2,153.2,95.3,153.1,95.3,153z"/>
			</g>
			<g>
				<path style="fill:#D2CD96;" d="M95.6,152.9c0,0.2-0.1,0.4-0.1,0.5c-0.1,0.3-0.2,0.6-0.4,0.9c1.1-0.3,2-0.7,2.5-0.9
					c0.3-0.3,0.4-0.7,0.6-1.2c0-0.1,0-0.1,0.1-0.2C97.5,152.3,96.6,152.6,95.6,152.9z"/>
			</g>
			<g>
				<path style="fill:#D2CD96;" d="M87,153.6c-1.2-0.1-2.3-0.2-3.3-0.5c0.2,0.4,0.4,0.8,0.6,1.2c1,0.2,2,0.4,2.9,0.5c0,0,0,0,0-0.1
					C87.2,154.5,87.1,154.1,87,153.6z"/>
			</g>
			<g>
				<path style="fill:#D2CD96;" d="M95.9,146.3c-1.1,0.3-2.3,0.5-3.5,0.6c0,0.4-0.1,0.9-0.1,1.4c1.2-0.1,2.4-0.4,3.5-0.7
					C95.9,147.1,95.9,146.7,95.9,146.3z"/>
			</g>
			<g>
				<path style="fill:#D2CD96;" d="M95.8,148c-1.1,0.3-2.3,0.6-3.5,0.7c0,0.4-0.1,0.8-0.1,1.2c1.2-0.1,2.4-0.4,3.5-0.7
					C95.7,148.8,95.8,148.4,95.8,148z"/>
			</g>
			<g>
				<path style="fill:#D2CD96;" d="M83.3,153c-1-0.2-1.9-0.5-2.7-0.8c0.2,0.6,0.5,1,1,1.4c0.5,0.2,1.3,0.4,2.3,0.6
					C83.6,153.8,83.4,153.5,83.3,153L83.3,153z"/>
			</g>
			<g>
				<path style="fill:#D2CD96;" d="M98.9,149.6c0.6-0.3,1-0.6,1.3-0.8c0-0.4,0.1-0.9,0.1-1.4c-0.3,0.2-0.7,0.5-1.2,0.8
					C99,148.7,99,149.1,98.9,149.6z"/>
			</g>
			<g>
				<path style="fill:#D2CD96;" d="M78.7,151.3c0.4,0.9,1,1.6,1.8,1.9c0.1,0,0.2,0.1,0.3,0.1c-0.3-0.4-0.5-0.8-0.7-1.3
					C79.6,151.8,79.1,151.5,78.7,151.3z"/>
			</g>
			<g>
				<path style="fill:#D2CD96;" d="M82.8,149.3c0-0.4-0.1-0.8-0.1-1.2c-1-0.3-2-0.6-2.9-1c0,0.4,0.1,0.8,0.1,1.2
					C80.8,148.7,81.8,149,82.8,149.3z"/>
			</g>
			<g>
				<path style="fill:#D2CD96;" d="M79.6,148.5c-0.7-0.3-1.2-0.7-1.6-0.9c0.1,0.5,0.1,1,0.2,1.4c0.3,0.2,0.8,0.6,1.5,0.9
					C79.7,149.5,79.7,149,79.6,148.5z"/>
			</g>
			<g>
				<path style="fill:#D2CD96;" d="M79.5,146.9c-0.8-0.4-1.3-0.7-1.6-1c0,0.4,0.1,0.8,0.1,1.2c0.3,0.2,0.8,0.6,1.6,1
					C79.6,147.7,79.5,147.3,79.5,146.9z"/>
			</g>
			<g>
				<path style="fill:#D2CD96;" d="M98.6,152.2c-0.1,0.3-0.2,0.6-0.3,0.8c0.5-0.3,1.3-0.7,1.7-2c-0.4,0.2-0.8,0.5-1.3,0.7
					C98.6,151.9,98.6,152.1,98.6,152.2z"/>
			</g>
			<g>
				<path style="fill:#D2CD96;" d="M99.3,144.9c0,0.4-0.1,0.8-0.1,1.3c0.6-0.4,1-0.7,1.2-0.8c0-0.5,0-1,0.1-1.4
					C100.2,144.3,99.8,144.6,99.3,144.9z"/>
			</g>
			<g>
				<path style="fill:#D2CD96;" d="M99.1,147.8c0.6-0.3,1-0.6,1.2-0.8c0-0.4,0-0.8,0.1-1.2c-0.2,0.2-0.6,0.4-1.2,0.8
					C99.2,146.9,99.1,147.4,99.1,147.8z"/>
			</g>
			<g>
				<path style="fill:#D2CD96;" d="M98.7,151.3c0.6-0.3,1-0.6,1.3-0.8c0-0.2,0.1-0.6,0.1-1.2c-0.3,0.2-0.7,0.5-1.3,0.8
					C98.8,150.5,98.8,150.9,98.7,151.3z"/>
			</g>
			<g>
				<path style="fill:#D2CD96;" d="M79.8,150.3c-0.6-0.3-1.1-0.5-1.5-0.8c0.1,0.6,0.1,1,0.2,1.2v0.1l0,0c0.4,0.3,0.9,0.6,1.5,0.8
					C80,151.3,79.9,150.9,79.8,150.3z"/>
			</g>
			<g>
				<path style="fill:#D2CD96;" d="M79.4,145.3c-0.7-0.4-1.3-0.8-1.7-1.2c0,0.4,0.1,0.9,0.1,1.3c0.2,0.2,0.8,0.6,1.7,1.1
					C79.4,146.1,79.4,145.6,79.4,145.3z"/>
			</g>
			<g>
				<path style="fill:#D2CD96;" d="M98.5,150.2c-0.8,0.4-1.7,0.8-2.7,1c-0.1,0.5-0.1,0.9-0.2,1.2c0.9-0.3,1.8-0.6,2.7-1
					C98.4,151.1,98.5,150.7,98.5,150.2z"/>
			</g>
			<g>
				<path style="fill:#D2CD96;" d="M98.7,148.4c-0.8,0.4-1.7,0.8-2.7,1.1c0,0.5-0.1,1-0.1,1.4c1-0.3,1.9-0.7,2.7-1.1
					C98.6,149.3,98.7,148.9,98.7,148.4z"/>
			</g>
			<g>
				<path style="fill:#D2CD96;" d="M83,151.1c0-0.4-0.1-0.9-0.1-1.4c-1-0.3-2-0.6-2.9-1c0,0.5,0.1,1,0.1,1.4
					C81,150.5,82,150.8,83,151.1z"/>
			</g>
			<g>
				<path style="fill:#D2CD96;" d="M83.2,152.7c-0.1-0.3-0.1-0.7-0.2-1.2c-1-0.2-2-0.6-2.8-0.9c0.1,0.6,0.1,1,0.2,1.3
					C81.3,152.1,82.2,152.4,83.2,152.7z"/>
			</g>
			<g>
				<path style="fill:#D2CD96;" d="M86.9,148.4c1.6,0.1,3.4,0.1,5.1,0c0-0.5,0.1-1,0.1-1.4c-1.7,0.2-3.5,0.2-5.3,0.1
					C86.8,147.4,86.9,147.9,86.9,148.4z"/>
			</g>
			<g>
				<path style="fill:#D2CD96;" d="M98.8,146.7c-0.8,0.4-1.7,0.8-2.7,1.1c0,0.4-0.1,0.8-0.1,1.2c1-0.3,1.9-0.7,2.7-1.1
					C98.8,147.6,98.8,147.1,98.8,146.7z"/>
			</g>
			<g>
				<path style="fill:#D2CD96;" d="M99,145.1c-0.7,0.4-1.6,0.8-2.7,1.1c0,0.4-0.1,0.9-0.1,1.3c1-0.3,1.9-0.7,2.7-1.1
					C98.9,145.9,98.9,145.5,99,145.1z"/>
			</g>
			<g>
				<path style="fill:#D2CD96;" d="M78.9,137.8c0.6-0.6,0.9-0.7,1.8-0.8c0.5-0.1,1.3,0,1.7,0.1c-0.2-1,0.4-2.3,1.5-3.2
					c-0.9-1-1.8-1.9-2.4-2.2c-0.7-0.4-1.5-0.7-2.3-0.7s-1.4,0.3-1.7,0.8c-0.5,0.7-0.3,1.9,0.2,3.5C78,136,78.9,137.8,78.9,137.8z
					 M82.1,132.7c0.2,0,0.5,0.1,0.7,0.3v0.1c0,0,0,0-0.1,0l0,0c0,0,0,0-0.1,0c-0.2,0-0.6,0.1-1,0.5c-0.6,0.6-0.9,2.2-0.9,2.3
					c0,0,0,0.1-0.1,0.1l0,0c0,0-0.1,0-0.1-0.1c0,0,0,0,0-0.1c0-1.4,0.3-2.3,0.8-2.8C81.6,132.9,81.9,132.7,82.1,132.7z M80,132.1
					c0.2-0.2,0.5-0.3,0.7-0.3c0.1,0,0.3,0,0.4,0.1c-0.2,0-0.6,0.1-1.1,0.6c-0.4,0.4-0.6,1.1-0.8,1.6C79.4,133.2,79.7,132.5,80,132.1
					z"/>
			</g>
		</g>
	</g>
	<text transform="matrix(1 0 0 1 71.4258 165.8279)" style="fill:#D2CD96; font-family:'Handwriting-Dakota'; font-size:10;">Freshly</text>
	<text transform="matrix(1 0 0 1 67.4258 180.6279)" style="fill:#D2CD96; font-family:'GillSans-Light'; font-size:15;">BAKED</text>
</g>
</svg>
