<?xml version="1.0" encoding="utf-8"?>
<!-- Generator: Adobe Illustrator 17.0.0, SVG Export Plug-In . SVG Version: 6.00 Build 0)  -->
<!DOCTYPE svg PUBLIC "-//W3C//DTD SVG 1.1//EN" "http://www.w3.org/Graphics/SVG/1.1/DTD/svg11.dtd">
<svg version="1.1" id="design" xmlns="http://www.w3.org/2000/svg" xmlns:xlink="http://www.w3.org/1999/xlink" x="0px" y="0px"
	 width="354.3px" height="226.8px" viewBox="0 0 354.3 226.8" style="enable-background:new 0 0 354.3 226.8;" xml:space="preserve"
	>
<linearGradient id="SVGID_1_" gradientUnits="userSpaceOnUse" x1="185.51" y1="50.855" x2="185.51" y2="224.055" gradientTransform="matrix(1 0 0 -1 -8.36 250.855)">
	<stop  offset="0" style="stop-color:#413228"/>
	<stop  offset="0.4212" style="stop-color:#4B392E"/>
	<stop  offset="1" style="stop-color:#564033"/>
</linearGradient>
<rect x="39.6" y="26.8" style="fill:url(#SVGID_1_);" width="275.1" height="173.2"/>
<text transform="matrix(1 0 0 1 159.9491 103.7413)" style="fill:#CAAF86; font-family:'GillSans'; font-size:8.5;">79 James Street, Brooklyn East</text>
<text transform="matrix(1 0 0 1 159.9491 114.7413)" style="fill:#CAAF86; font-family:'GillSans'; font-size:8.5;">New York City 1289</text>
<text transform="matrix(1 0 0 1 159.9491 131.7413)" style="fill:#CAAF86; font-family:'GillSans'; font-size:8.5;">Tel: 079-5889-3344</text>
<text transform="matrix(1 0 0 1 159.9491 142.7413)" style="fill:#CAAF86; font-family:'GillSans'; font-size:8.5;">Email: johnamiel@kmail.com</text>
<text transform="matrix(1 0 0 1 159.9491 153.7413)" style="fill:#CAAF86; font-family:'GillSans'; font-size:8.5;">Facebook: John_Amiel</text>
<text transform="matrix(1 0 0 1 159.9491 164.7413)" style="fill:#CAAF86; font-family:'GillSans'; font-size:8.5;">Twitter: @johnamiel</text>
<text transform="matrix(1 0 0 1 159.9491 180.7413)" style="fill:#CAAF86; font-family:'GillSans'; font-size:8.5;">www.freshlybaked.com</text>
<text transform="matrix(1 0 0 1 159.9491 74.2131)" style="fill:#CAAF86; font-family:'Handwriting-Dakota'; font-size:15;">John Amiel</text>
<text transform="matrix(1 0 0 1 159.9491 86.2131)" style="fill:#CAAF86; font-family:'GillSans-Italic'; font-size:8.5;">Chief Baker</text>
<path style="fill:#CAAF86;" d="M136.4,183.4h-0.6v-1.9h0.6V183.4z M136.4,179.6h-0.6v-1.9h0.6V179.6z M136.4,175.8h-0.6v-1.9h0.6
	V175.8z M136.4,171.9h-0.6V170h0.6V171.9z M136.4,168.1h-0.6v-1.9h0.6V168.1z M136.4,164.3h-0.6v-1.9h0.6V164.3z M136.4,160.5h-0.6
	v-1.9h0.6V160.5z M136.4,156.7h-0.6v-1.9h0.6V156.7z M136.4,152.8h-0.6v-1.9h0.6V152.8z M136.4,149h-0.6v-1.9h0.6V149z M136.4,145.2
	h-0.6v-1.9h0.6V145.2z M136.4,141.4h-0.6v-1.9h0.6V141.4z M136.4,137.6h-0.6v-1.9h0.6V137.6z M136.4,133.8h-0.6v-1.9h0.6V133.8z
	 M136.4,129.9h-0.6V128h0.6V129.9z M136.4,126.1h-0.6v-1.9h0.6V126.1z M136.4,122.3h-0.6v-1.9h0.6V122.3z M136.4,118.5h-0.6v-1.9
	h0.6V118.5z M136.4,114.7h-0.6v-1.9h0.6V114.7z M136.4,110.9h-0.6V109h0.6V110.9z M136.4,107h-0.6v-1.9h0.6V107z M136.4,103.2h-0.6
	v-1.9h0.6V103.2z M136.4,99.4h-0.6v-1.9h0.6V99.4z M136.4,95.6h-0.6v-1.9h0.6V95.6z M136.4,91.8h-0.6v-1.9h0.6V91.8z M136.4,87.9
	h-0.6V86h0.6V87.9z M136.4,84.1h-0.6v-1.9h0.6V84.1z M136.4,80.3h-0.6v-1.9h0.6V80.3z M136.4,76.5h-0.6v-1.9h0.6V76.5z"/>
<path style="fill:#CAAF86;" d="M151,57.8c0,0,0,0.1-0.1,0.2c-0.1,0.1-0.1,0.2-0.3,0.4c-0.1,0.2-0.3,0.4-0.5,0.6
	c-0.2,0.2-0.5,0.4-0.8,0.7c-0.2,0.1-0.3,0.2-0.5,0.3s-0.4,0.2-0.6,0.2c-0.2,0.1-0.4,0.1-0.7,0.1c-0.2,0-0.5,0-0.7,0
	c-0.5-0.1-1-0.3-1.4-0.5c-0.1,0-0.1-0.1-0.2-0.1l0,0l0,0h-0.1c0,0-0.1-0.1-0.2-0.1l-0.2-0.1c-0.2-0.2-0.4-0.4-0.6-0.6
	c-0.3-0.4-0.6-0.9-0.8-1.4s-0.3-1-0.3-1.5s0.1-1,0.2-1.4c0.1-0.4,0.3-0.8,0.5-1.2c0.2-0.3,0.4-0.6,0.6-0.9c0.2-0.2,0.4-0.4,0.6-0.5
	c0.2-0.1,0.3-0.2,0.4-0.3c0.1,0,0.1,0,0.1-0.1l0,0l0.1,0.3c0,0,0,0-0.1,0.1s-0.2,0.2-0.4,0.3c-0.1,0.1-0.3,0.3-0.5,0.5
	s-0.3,0.5-0.5,0.8c-0.3,0.6-0.5,1.4-0.4,2.3c0,0.4,0.1,0.8,0.2,1.3c0.1,0.4,0.4,0.8,0.6,1.1c0.1,0.2,0.3,0.3,0.5,0.5l0.1,0.1
	l0.1,0.1l0.1,0.1l0,0l0,0l0.1,0.1c0.4,0.2,0.8,0.4,1.2,0.5s0.8,0.1,1.2,0.1c0.4-0.1,0.7-0.2,1-0.3c0.3-0.2,0.6-0.3,0.8-0.5
	s0.4-0.3,0.6-0.5C150.8,58,151,57.8,151,57.8z"/>
<path style="fill:#CAAF86;" d="M146.9,53.8c-0.2-0.2-0.4-0.5-0.6-0.7c-0.2-0.3-0.4-0.5-0.5-0.8c-0.2-0.3-0.3-0.6-0.4-0.9
	c-0.1-0.3-0.2-0.6-0.3-0.9c-0.1-0.3-0.1-0.6-0.1-1c0-0.3,0-0.7,0.1-1s0.1-0.6,0.2-1c0.1-0.3,0.2-0.6,0.4-0.9l0.1-0.2
	c0-0.1,0.1-0.1,0.1-0.2c0.1-0.1,0.2-0.3,0.3-0.4c0.2-0.3,0.4-0.5,0.7-0.7s0.5-0.4,0.9-0.6c0.3-0.2,0.6-0.3,1-0.4
	c0.3-0.1,0.7-0.1,1-0.2c0.3,0,0.7,0,1,0s0.7,0.1,1,0.1c0.2,0,0.3,0.1,0.5,0.1c0.1,0,0.2,0,0.2,0.1c0.1,0,0.2,0.1,0.2,0.1l-0.5,0.1
	c0.1-0.1,0.1-0.1,0.2-0.2c0.1-0.1,0.1-0.1,0.2-0.2c0.1-0.1,0.2-0.2,0.4-0.3c0.3-0.2,0.5-0.4,0.8-0.5c0.6-0.3,1.2-0.6,1.8-0.6
	c0.3,0,0.7,0,1,0c0.3,0.1,0.7,0.1,1,0.3c0.1,0,0.1,0.1,0.2,0.1c0.1,0,0.1,0.1,0.2,0.1l0.2,0.1l0.2,0.1l0.1,0.1l0.1,0.1l0.2,0.1
	c0.1,0.1,0.2,0.2,0.3,0.4c0.2,0.2,0.4,0.5,0.6,0.8c0.2,0.3,0.3,0.6,0.3,0.9c0.1,0.3,0.1,0.6,0.1,1c0,0.3,0,0.6-0.1,0.9
	c-0.1,0.6-0.4,1.2-0.7,1.7c-0.2,0.3-0.3,0.5-0.5,0.7s-0.4,0.4-0.7,0.6c0.2-0.2,0.4-0.5,0.6-0.7c0.2-0.2,0.3-0.5,0.4-0.8
	c0.2-0.5,0.4-1.1,0.5-1.7c0-0.3,0.1-0.6,0-0.9c0-0.3-0.1-0.6-0.1-0.8c-0.1-0.3-0.2-0.5-0.3-0.8c-0.1-0.2-0.3-0.5-0.5-0.6
	c-0.1-0.1-0.2-0.2-0.3-0.3l-0.2-0.1l-0.1-0.1l0,0l0,0l0,0l0,0l0,0l0,0l-0.2-0.1l-0.2-0.1c-0.1,0-0.1-0.1-0.2-0.1
	c-0.1,0-0.1-0.1-0.2-0.1c-0.3-0.1-0.5-0.2-0.8-0.2s-0.5,0-0.8,0c-0.5,0.1-1,0.3-1.5,0.6c-0.2,0.1-0.5,0.3-0.7,0.5
	c-0.1,0.1-0.2,0.2-0.3,0.3c-0.1,0-0.1,0.1-0.2,0.1l-0.1,0.1l-0.2,0.2l-0.3-0.1c-0.1,0-0.1,0-0.2-0.1c-0.1,0-0.1,0-0.2-0.1
	c-0.1,0-0.3-0.1-0.4-0.1c-0.3-0.1-0.6-0.1-0.9-0.1c-0.3,0-0.6,0-0.9,0c-0.3,0-0.6,0.1-0.9,0.1c-0.3,0.1-0.6,0.2-0.8,0.3
	c-0.3,0.1-0.5,0.3-0.7,0.5s-0.4,0.4-0.6,0.6c-0.1,0.1-0.2,0.2-0.3,0.3c0,0.1-0.1,0.1-0.1,0.2l-0.1,0.2c-0.1,0.3-0.3,0.5-0.4,0.8
	c-0.1,0.3-0.2,0.6-0.3,0.9c-0.1,0.3-0.1,0.6-0.1,0.9c0,0.3,0,0.6,0,0.9c0,0.3,0.1,0.6,0.2,0.9c0.1,0.3,0.2,0.6,0.3,0.9
	c0.1,0.3,0.3,0.6,0.4,0.8C146.5,53.2,146.7,53.5,146.9,53.8z"/>
<path style="fill:#CAAF86;" d="M159.1,49.2l0.3,0.1c0.1,0,0.2,0.1,0.3,0.1s0.2,0.1,0.3,0.1c0.1,0.1,0.2,0.1,0.3,0.2l0.3,0.2
	c0.1,0.1,0.2,0.1,0.3,0.2c0.1,0.1,0.2,0.1,0.3,0.2c0.1,0.1,0.2,0.1,0.3,0.2c0.2,0.1,0.4,0.3,0.6,0.4c0.2,0.1,0.4,0.3,0.6,0.4
	c0.2,0.1,0.4,0.3,0.6,0.4c0.2,0.1,0.4,0.3,0.6,0.5l0.2,0.2l-0.1,0.2c-0.2,0.3-0.3,0.6-0.5,0.9c-0.2,0.3-0.3,0.6-0.5,0.8
	c-0.2,0.3-0.4,0.5-0.6,0.8l-0.6,0.8c-0.1,0.1-0.2,0.3-0.3,0.4c-0.1,0.1-0.2,0.3-0.3,0.4c-0.1,0.1-0.2,0.3-0.3,0.4l-0.3,0.4
	c-0.1,0.1-0.2,0.3-0.3,0.4c-0.1,0.1-0.2,0.3-0.3,0.4l-0.3,0.4c-0.1,0.1-0.2,0.2-0.3,0.4c-0.2,0.2-0.4,0.5-0.7,0.7l-0.3,0.4l-0.3,0.3
	c-0.2,0.2-0.5,0.5-0.7,0.7s-0.5,0.4-0.7,0.6l-0.4,0.3c-0.1,0.1-0.3,0.2-0.4,0.3c-0.1,0.1-0.3,0.2-0.4,0.3c-0.1,0.1-0.3,0.2-0.4,0.3
	c-0.3,0.2-0.5,0.4-0.8,0.6c-0.3,0.2-0.6,0.4-0.9,0.5l-0.2,0.1L153,64c-0.1-0.1-0.2-0.2-0.3-0.3s-0.2-0.2-0.3-0.3
	c-0.2-0.2-0.3-0.4-0.5-0.6c-0.1-0.1-0.2-0.2-0.2-0.3l-0.2-0.3c-0.1-0.1-0.1-0.2-0.2-0.3c-0.1-0.1-0.1-0.2-0.2-0.3
	c-0.1-0.2-0.3-0.4-0.4-0.6c-0.1-0.2-0.2-0.4-0.4-0.7c-0.1-0.1-0.1-0.2-0.2-0.3c-0.1-0.1-0.1-0.2-0.1-0.3s-0.1-0.2-0.1-0.4
	c0-0.1-0.1-0.2-0.1-0.4h0.1c0.1,0.1,0.1,0.2,0.2,0.3c0.1,0.1,0.1,0.2,0.2,0.3c0.1,0.1,0.1,0.2,0.2,0.3c0.1,0.1,0.1,0.2,0.2,0.3
	c0.1,0.1,0.1,0.2,0.2,0.3c0.1,0.1,0.1,0.2,0.2,0.3c0.1,0.2,0.3,0.4,0.5,0.6c0.2,0.2,0.3,0.4,0.5,0.6c0.2,0.2,0.3,0.4,0.5,0.5
	c0.2,0.2,0.3,0.4,0.5,0.5l0.3,0.3c0.1,0.1,0.2,0.2,0.3,0.2h-0.4c0.3-0.2,0.5-0.3,0.8-0.5c0.1-0.1,0.3-0.2,0.4-0.3
	c0.1-0.1,0.3-0.2,0.4-0.3c0.3-0.2,0.5-0.4,0.8-0.6c0.3-0.2,0.5-0.4,0.8-0.6c0.3-0.2,0.5-0.4,0.8-0.6l0.7-0.6l0.4-0.3l0.4-0.3
	c0.2-0.2,0.5-0.4,0.7-0.6c0.2-0.2,0.5-0.4,0.7-0.7c0.1-0.1,0.2-0.2,0.3-0.4c0.1-0.1,0.2-0.2,0.3-0.4l0.3-0.4
	c0.1-0.1,0.2-0.3,0.3-0.4c0.1-0.1,0.2-0.3,0.3-0.4c0.1-0.1,0.2-0.3,0.3-0.4c0.1-0.1,0.2-0.3,0.3-0.4l0.2-0.4
	c0.2-0.3,0.3-0.6,0.5-0.9c0.1-0.3,0.3-0.6,0.4-0.9c0.1-0.3,0.3-0.6,0.4-0.9l0.1,0.3l-0.6-0.4c-0.2-0.1-0.4-0.3-0.6-0.4l-0.6-0.4
	c-0.2-0.1-0.4-0.3-0.6-0.4c-0.2-0.1-0.4-0.3-0.6-0.4c-0.1-0.1-0.2-0.1-0.3-0.2l-0.3-0.2c-0.1-0.1-0.2-0.1-0.3-0.2
	c-0.1-0.1-0.2-0.1-0.3-0.2c-0.1-0.1-0.2-0.1-0.3-0.2L159.1,49.2L159.1,49.2z"/>
<path style="fill:#CAAF86;" d="M152.8,57.3L152.8,57.3c0.1,0,0.1,0.1,0.2,0.1c0.1,0.1,0.2,0.2,0.4,0.3s0.3,0.3,0.5,0.4
	c0.1,0.1,0.2,0.2,0.3,0.3s0.2,0.2,0.3,0.3s0.2,0.2,0.2,0.3c0.1,0.1,0.1,0.2,0.2,0.3c0.1,0.2,0.3,0.4,0.3,0.6
	c0.1,0.2,0.2,0.3,0.2,0.4c0,0.1,0,0.1,0,0.1l0,0l0,0c0,0-0.1,0-0.1-0.1c-0.1-0.1-0.2-0.2-0.4-0.3s-0.3-0.3-0.5-0.4
	c-0.1-0.1-0.2-0.2-0.3-0.3s-0.2-0.2-0.3-0.3s-0.2-0.2-0.2-0.3c-0.1-0.1-0.1-0.2-0.2-0.3c-0.1-0.2-0.3-0.4-0.3-0.6
	C153,57.6,152.9,57.5,152.8,57.3C152.8,57.4,152.8,57.4,152.8,57.3L152.8,57.3z"/>
<path style="fill:#CAAF86;" d="M155.1,55L155.1,55c0.1,0,0.1,0.1,0.2,0.1c0.1,0.1,0.2,0.1,0.4,0.2c0.2,0.1,0.3,0.2,0.5,0.4
	c0.1,0.1,0.2,0.2,0.3,0.2c0.1,0.1,0.2,0.2,0.3,0.3s0.2,0.2,0.3,0.3s0.2,0.2,0.2,0.3c0.2,0.2,0.3,0.4,0.4,0.5
	c0.1,0.2,0.2,0.3,0.2,0.4c0,0.1,0,0.1,0.1,0.1l0,0l0,0c0,0-0.1,0-0.1-0.1c-0.1-0.1-0.3-0.1-0.4-0.2c-0.2-0.1-0.3-0.2-0.5-0.4
	c-0.1-0.1-0.2-0.2-0.3-0.2c-0.1-0.1-0.2-0.2-0.3-0.3s-0.2-0.2-0.3-0.3s-0.2-0.2-0.2-0.3c-0.2-0.2-0.3-0.4-0.4-0.5
	c-0.1-0.2-0.2-0.3-0.2-0.4C155.1,55.1,155.1,55.1,155.1,55L155.1,55z"/>
<path style="fill:#CAAF86;" d="M157.4,52.7L157.4,52.7c0.1,0,0.1,0,0.2,0.1c0.1,0,0.3,0.1,0.4,0.2c0.2,0.1,0.4,0.2,0.6,0.3
	c0.1,0.1,0.2,0.1,0.3,0.2c0.1,0.1,0.2,0.2,0.3,0.2c0.1,0.1,0.2,0.2,0.3,0.2c0.1,0.1,0.2,0.2,0.3,0.3c0.2,0.2,0.3,0.3,0.4,0.5
	c0.1,0.2,0.2,0.3,0.3,0.4l0.1,0.1l0,0l0,0h-0.1c-0.1,0-0.3-0.1-0.4-0.2c-0.2-0.1-0.4-0.2-0.6-0.3c-0.1-0.1-0.2-0.1-0.3-0.2
	c-0.1-0.1-0.2-0.2-0.3-0.2c-0.1-0.1-0.2-0.2-0.3-0.2c-0.1-0.1-0.2-0.2-0.3-0.3c-0.2-0.2-0.3-0.3-0.4-0.5c-0.1-0.2-0.2-0.3-0.3-0.4
	C157.4,52.9,157.4,52.8,157.4,52.7C157.4,52.8,157.4,52.7,157.4,52.7z"/>
<g>
	<g>
		<g>
			<path style="fill:#CAAF86;" d="M94.7,135.6c-0.3-0.2-0.8-0.4-1.3-0.6c-0.5-0.2-1.2-0.3-1.9-0.3c-0.7,0-1.3,0.1-1.4,0.1
				s-0.1,0-0.2,0c0,0.1,0,0.3,0,0.4c0.2,0,0.4,0,0.7,0c1.4,0,2.5,0.5,3.1,1.4C94,136.2,94.4,135.9,94.7,135.6z"/>
		</g>
		<g>
			<path style="fill:#CAAF86;" d="M90,134.6c0.3-0.1,1.3-0.3,2.2-0.3c0.6,0,1.1,0.1,1.5,0.2c0.6,0.2,1.1,0.5,1.4,0.8
				c0.1-0.1,0.3-0.2,0.4-0.4c-0.4-0.2-1-0.6-1.7-0.8c-0.5-0.2-1.2-0.3-1.9-0.3c-0.8,0-1.4,0.1-1.4,0.1c-0.1,0-0.2,0-0.2-0.1l0,0l0,0
				c0-0.1,1.2-0.4,2.3-0.4c0.6,0,1.1,0.1,1.5,0.2c0.9,0.3,1.5,0.8,1.8,1.1c0.3-0.2,0.5-0.4,0.8-0.6c-0.6-0.8-1.8-1.5-3.2-1.8
				c-0.4-0.1-0.8-0.1-1.3-0.1c-1.4,0-2.3,0.5-2.8,0.8c0.1,0.1,0.3,0.2,0.4,0.4C89.9,133.8,90,134.2,90,134.6z M90.3,132.9
				c0-0.1,1.3-0.4,2.2-0.4c0.6,0,1.1,0.1,1.5,0.2c1.4,0.5,1.9,1.3,2,1.5l0,0l0,0l0,0l0,0c0,0,0,0-0.2-0.1c-0.3-0.2-1-0.7-2-1.1
				c-0.5-0.2-1.2-0.3-1.9-0.3c-0.8,0-1.4,0.1-1.4,0.1C90.5,133,90.4,133,90.3,132.9L90.3,132.9L90.3,132.9z"/>
		</g>
		<g>
			<path style="fill:#CAAF86;" d="M89.2,141.4c-0.1,0-0.2,0-0.3,0c0.1,0.2,0.1,0.3,0.1,0.4C89.1,141.7,89.1,141.5,89.2,141.4
				C89.3,141.4,89.2,141.4,89.2,141.4z"/>
		</g>
		<g>
			<path style="fill:#CAAF86;" d="M84,138.1L84,138.1L84,138.1z"/>
		</g>
		<g>
			<path style="fill:#CAAF86;" d="M83.5,137c0.1,0,0.2,0,0.3,0.1c0,0,0,0,0.1,0c0,0,0,0,0.1,0c0,0,0,0,0.1,0c0,0,0,0,0.1,0
				c0,0,0,0,0.1,0c0.2,0,0.3,0.1,0.5,0.2l0,0c0.1-0.1,0.2-0.1,0.3,0c0,0,0,0.1,0,0.2c0.3,0.1,0.7,0.3,1,0.5c0.1-0.3,0.3-0.7,0.6-1
				c0.2-0.2,0.4-0.4,0.6-0.6c0,0,0,0,0.1,0c0,0,0,0,0.1,0c0.5-0.4,1.2-0.7,1.9-0.9c0,0,0,0,0.1,0h0.1h0.1c0.2,0,0.3-0.1,0.5-0.1
				c0.1-0.6,0-1.3-0.3-1.7c-0.1-0.1-0.2-0.3-0.4-0.4c0,0,0,0-0.1,0c0,0,0,0-0.1,0c-0.3-0.2-0.8-0.3-1.3-0.3c-0.8,0-1.8,0.3-2.6,0.9
				l-0.1,0.1c0,0,0,0-0.1,0c0,0,0,0-0.1,0C83.9,134.8,83.3,136,83.5,137z M84.3,136.5L84.3,136.5C84.3,136.6,84.2,136.6,84.3,136.5
				c-0.1,0.1-0.1,0.1-0.2,0.1l0,0c0,0-0.1,0-0.1-0.1l0,0v-0.1c0-0.1,0-0.1,0.1-0.1l0,0c0.1-0.1,0.1-0.1,0.2,0c0,0,0,0,0.1,0l0,0v0.1
				l0,0C84.4,136.4,84.4,136.5,84.3,136.5z M84.4,135.9L84.4,135.9L84.4,135.9c-0.1,0.1-0.2,0.1-0.2,0.1h-0.1l0,0l0,0c0,0,0,0,0-0.1
				s0-0.1,0.1-0.2l0,0h0.1c0.1,0,0.1,0,0.2,0C84.5,135.7,84.5,135.8,84.4,135.9z M85,136.7c0,0-0.1,0.1-0.2,0.1s-0.1,0-0.1-0.1
				c-0.1-0.1,0-0.2,0.1-0.3s0.2-0.1,0.3,0C85.1,136.5,85.1,136.7,85,136.7z M85.2,136c0,0-0.1,0.1-0.2,0.1s-0.1,0-0.1-0.1
				c0,0,0-0.1,0-0.2l0.1-0.1c0.1-0.1,0.2-0.1,0.3,0C85.3,135.8,85.3,135.9,85.2,136z M85.8,137.6c0,0-0.1,0.1-0.2,0.1
				s-0.1,0-0.1-0.1c-0.1-0.1,0-0.2,0.1-0.3s0.2-0.1,0.3,0v0.1C85.9,137.5,85.9,137.5,85.8,137.6z M85.5,135.8c0-0.1,0-0.1,0.1-0.2
				c0.1-0.1,0.2-0.1,0.3,0v0.1c0,0.1,0,0.1-0.1,0.2c-0.1,0-0.1,0.1-0.2,0.1s-0.1,0-0.1-0.1C85.5,135.9,85.5,135.8,85.5,135.8z
				 M85.8,136.8c0,0-0.1,0.1-0.2,0.1s-0.1,0-0.1-0.1c-0.1-0.1,0-0.2,0.1-0.3s0.2-0.1,0.3,0v0.1C85.9,136.7,85.9,136.8,85.8,136.8z
				 M86.6,136.1c0,0.1-0.1,0.2-0.2,0.2l0,0c0,0-0.1,0-0.1-0.1s0-0.1,0-0.2c0-0.1,0.1-0.2,0.2-0.2l0,0c0,0,0.1,0,0.1,0.1
				C86.6,135.9,86.6,136,86.6,136.1z M86.6,135.4C86.6,135.5,86.6,135.5,86.6,135.4c-0.1,0-0.1,0.1-0.1,0.1l0,0
				c-0.1,0-0.1,0-0.1-0.1v-0.1c0,0,0,0,0-0.1c0,0,0,0,0.1-0.1c-0.1,0-0.1,0-0.1-0.1v-0.1c0-0.1,0-0.1,0.1-0.2c0.1-0.1,0.2-0.1,0.3,0
				c0.1,0.1,0,0.2-0.1,0.3c0.1,0,0.1,0,0.1,0.1C86.8,135.2,86.7,135.4,86.6,135.4z M86.8,134.7c-0.1-0.1,0-0.2,0.1-0.3
				s0.2-0.1,0.3,0v0.1c0,0.1,0,0.1-0.1,0.2c0,0-0.1,0.1-0.2,0.1C86.8,134.8,86.8,134.7,86.8,134.7z M87.2,136.2L87.2,136.2
				C87.1,136.2,87.1,136.2,87.2,136.2L87.2,136.2L87.2,136.2H87v-0.1l0,0c0,0,0,0,0-0.1c0,0,0,0,0-0.1l0,0c0.1-0.1,0.2-0.1,0.3,0
				C87.4,136,87.3,136.1,87.2,136.2z M87.8,134.7c0,0.1-0.1,0.2-0.2,0.2l0,0c0,0-0.1,0-0.1-0.1s0-0.1,0-0.2c0-0.1,0.1-0.2,0.2-0.2
				l0,0c0,0,0.1,0,0.1,0.1C87.8,134.5,87.8,134.6,87.8,134.7z M88.3,135.5c-0.1,0-0.1,0.1-0.2,0.1s-0.1,0-0.1-0.1
				c-0.1-0.1,0-0.2,0.1-0.3s0.2-0.1,0.3,0C88.4,135.3,88.4,135.5,88.3,135.5z M88.5,134.4C88.5,134.4,88.5,134.3,88.5,134.4
				C88.6,134.3,88.6,134.3,88.5,134.4c0.1-0.1,0.3-0.1,0.3,0v0.1c0,0.1,0,0.1-0.1,0.2l0,0c0,0,0,0-0.1,0c0,0,0,0-0.1,0l0,0
				c-0.1,0-0.1,0-0.1-0.1L88.5,134.4C88.5,134.5,88.5,134.4,88.5,134.4L88.5,134.4z M88.2,133.3c0.1-0.1,0.2-0.1,0.3,0
				c0.1,0.1,0,0.2-0.1,0.3c0,0-0.1,0.1-0.2,0.1s-0.1,0-0.1-0.1C88,133.5,88.1,133.4,88.2,133.3z M87.9,133.9c0.1-0.1,0.2-0.1,0.3,0
				v0.1c0,0.1,0,0.1-0.1,0.2c0,0-0.1,0.1-0.2,0.1s-0.1,0-0.1-0.1C87.8,134.1,87.8,134,87.9,133.9z M87.4,134.1
				c0-0.1,0.1-0.2,0.2-0.2l0,0c0,0,0.1,0,0.1,0.1s0,0.1,0,0.2c0,0.1-0.1,0.2-0.2,0.2l0,0c0,0-0.1,0-0.1-0.1S87.4,134.2,87.4,134.1z
				 M87.5,135.2c0.1,0.1,0,0.2-0.1,0.3c-0.1,0-0.1,0.1-0.2,0.1s-0.1,0-0.1-0.1c-0.1-0.1,0-0.2,0.1-0.3
				C87.3,135.1,87.5,135.1,87.5,135.2z M87,133.2c0,0,0-0.1,0.1-0.1c0.1-0.1,0.2-0.1,0.3,0c0.1,0.1,0,0.2-0.1,0.3
				c-0.1,0-0.1,0.1-0.2,0.1s-0.1,0-0.1-0.1C86.9,133.3,86.9,133.2,87,133.2z M86.6,133.9c0-0.1,0.1-0.2,0.2-0.2l0,0
				c0,0,0.1,0,0.1,0.1s0,0.1,0,0.2c0,0.1-0.1,0.2-0.2,0.2l0,0c0,0-0.1,0-0.1-0.1C86.6,134.1,86.6,134,86.6,133.9z M86.2,133.3
				c0-0.1,0.1-0.2,0.2-0.2c0,0,0.1,0,0.1,0.1c0,0,0,0.1,0,0.2c0,0.1-0.1,0.2-0.2,0.2l0,0c0,0-0.1,0-0.1-0.1S86.2,133.3,86.2,133.3z
				 M86.1,133.9c0-0.1,0.1-0.2,0.2-0.2l0,0c0,0,0.1,0,0.1,0.1s0,0.1,0,0.2c0,0.1-0.1,0.2-0.2,0.2l0,0c0,0-0.1,0-0.1-0.1
				C86.1,134.1,86.1,134,86.1,133.9z M86,134.2c0,0,0.1,0,0.1,0.1c0,0,0,0.1,0,0.2c0,0.1-0.1,0.2-0.2,0.2l0,0c0,0-0.1,0-0.1-0.1
				s0-0.1,0-0.2S85.9,134.2,86,134.2z M85.4,133.7c0-0.1,0.1-0.2,0.2-0.2c0,0,0.1,0,0.1,0.1c0,0,0,0.1,0,0.2c0,0.1-0.1,0.2-0.2,0.2
				l0,0c0,0-0.1,0-0.1-0.1C85.4,133.8,85.4,133.8,85.4,133.7z M85.4,135.1C85.4,135.1,85.5,135.1,85.4,135.1
				C85.5,135.1,85.5,135.1,85.4,135.1c0.1,0.1,0.1,0.1,0.1,0.2c0,0.1,0,0.1-0.1,0.2c0,0-0.1,0.1-0.2,0.1s-0.1,0-0.1-0.1
				c0,0,0,0,0-0.1v-0.1c0,0,0-0.1,0.1-0.1C85.3,135.1,85.3,135,85.4,135.1z M85,134.2c0.1-0.1,0.1-0.1,0.2,0h0.1c0,0,0,0,0,0.1l0,0
				c0,0.1,0,0.1-0.1,0.2c-0.1,0-0.1,0.1-0.2,0.1s-0.1,0-0.1-0.1v-0.1C84.9,134.3,84.9,134.2,85,134.2z M84.8,134.9L84.8,134.9
				c0.1,0,0.1,0,0.1,0.1l0,0v0.1c0,0.1,0,0.1-0.1,0.2c0,0-0.1,0.1-0.2,0.1h-0.1l0,0l0,0c0,0,0,0,0-0.1l0,0c0-0.1,0-0.1,0.1-0.2
				C84.6,134.9,84.7,134.9,84.8,134.9z"/>
		</g>
		<g>
			<path style="fill:#CAAF86;" d="M83.8,137.8L83.8,137.8C83.8,137.7,83.8,137.7,83.8,137.8C83.8,137.7,83.8,137.8,83.8,137.8z"/>
		</g>
		<g>
			<path style="fill:#CAAF86;" d="M91.6,138.5L91.6,138.5c0.3-0.2,0.7-0.6,1.1-1c0,0,0,0,0.1-0.1c0,0,0,0,0.1-0.1
				c0.2-0.2,0.5-0.5,0.8-0.7c-0.5-0.8-1.6-1.3-3-1.3c-0.2,0-0.5,0-0.7,0c0,0,0,0-0.1,0h-0.1c-0.1,0-0.2,0-0.3,0.1h-0.1h-0.1h-0.1
				c-0.5,0.1-0.9,0.3-1.3,0.5l0,0l0,0c-0.2,0.1-0.4,0.2-0.6,0.4c0,0,0,0-0.1,0c0,0,0,0-0.1,0c-0.2,0.2-0.4,0.4-0.6,0.6
				c-0.3,0.3-0.4,0.6-0.6,0.9c0,0,0.1,0,0.1,0.1c0.1,0.1,0.3,0.2,0.4,0.3c0,0,0,0,0.1,0l0,0l0,0l0,0c0,0,0,0,0.1,0.1l0.1,0.1
				c0,0,0,0,0.1,0c0,0,0,0,0.1,0c0.4,0.3,0.7,0.6,0.9,0.9c0,0,0.1,0,0.1-0.1c0.1,0,0.3,0,0.3,0.1v0.1c0,0.1-0.1,0.1-0.2,0.1
				c0.3,0.5,0.6,0.9,0.7,1.3c0.1,0,0.2,0,0.3,0c0.1,0,0.1,0,0.2,0c0.2-0.2,0.3-0.5,0.5-0.7c0,0,0,0,0-0.1c0,0,0,0,0-0.1
				c0.3-0.4,0.6-0.7,0.8-1l0,0l0.1-0.1c0.2-0.2,0.3-0.3,0.4-0.5l0,0C91.4,138.7,91.4,138.5,91.6,138.5z M88.6,136.1
				c0-0.1,0.1-0.1,0.2-0.1s0.3,0,0.3,0.1v0.1c0,0.1-0.1,0.1-0.2,0.1h-0.1c-0.1,0-0.2-0.1-0.2-0.1C88.5,136.2,88.6,136.1,88.6,136.1z
				 M88.6,137.1c0.1,0,0.2,0,0.2,0s0,0,0.1,0c0,0,0,0,0,0.1l0,0v0.1c0,0.1-0.1,0.1-0.2,0.1l0,0l0,0l0,0h-0.1l-0.1-0.1
				C88.4,137.2,88.4,137.1,88.6,137.1z M87.1,138L87.1,138L87.1,138c0,0.1-0.1,0.2-0.2,0.2l0,0c0,0,0,0-0.1,0l0,0h-0.1l-0.1-0.1V138
				c0-0.1,0.1-0.1,0.2-0.1C87,137.8,87.1,137.8,87.1,138C87.1,137.9,87.1,137.9,87.1,138C87.1,137.9,87.1,138,87.1,138z M87.2,137.6
				c-0.1,0-0.2-0.1-0.2-0.1v-0.1c0-0.1,0.1-0.1,0.2-0.1s0.3,0,0.3,0.1C87.5,137.4,87.5,137.5,87.2,137.6
				C87.3,137.6,87.3,137.6,87.2,137.6z M87.6,138.7L87.6,138.7c-0.2,0-0.3,0-0.3-0.1v-0.1l0,0c0-0.1,0.1-0.1,0.2-0.1c0,0,0,0,0.1,0
				s0.2,0,0.2,0.1C87.8,138.5,87.7,138.7,87.6,138.7z M87.8,136.8c0-0.1,0.1-0.1,0.2-0.1h0.1c0.1,0,0.2,0.1,0.2,0.1v0.1
				c0,0.1-0.1,0.1-0.2,0.1H88c-0.1,0-0.2-0.1-0.2-0.1C87.8,136.8,87.8,136.8,87.8,136.8z M88.1,138C88.1,138,88,138,88.1,138
				C88,138,88,138,88.1,138L88.1,138L88.1,138L88.1,138L88.1,138c-0.1-0.1,0-0.2,0.1-0.2l0,0h0.1l0,0c0,0,0,0,0.1,0l0,0
				c0,0,0,0,0.1,0c0,0,0,0,0,0.1l0,0v0.1c0,0,0,0,0,0.1C88.3,137.9,88.2,138,88.1,138L88.1,138z M88.7,139c0,0.1-0.1,0.1-0.2,0.1
				h-0.1c-0.1,0-0.2,0-0.2-0.1s0.1-0.2,0.2-0.2S88.7,138.8,88.7,139C88.7,139,88.7,139,88.7,139z M89,138c0,0.1-0.1,0.1-0.2,0.1
				h-0.1c-0.1,0-0.2-0.1-0.2-0.1v-0.1c0-0.1,0.1-0.1,0.2-0.1s0.3,0,0.3,0.1C89.1,137.9,89.1,138,89,138z M92.5,136.4
				c0.1,0,0.3,0,0.3,0.1s-0.1,0.2-0.2,0.2h-0.1c-0.1,0-0.2-0.1-0.2-0.1C92.3,136.6,92.4,136.5,92.5,136.4z M91.8,137.1L91.8,137.1
				L91.8,137.1c0.1-0.1,0.1-0.1,0.1-0.1s0,0,0.1,0s0.3,0,0.3,0.1c0,0,0,0,0,0.1c0,0,0,0,0,0.1c0,0,0,0,0,0.1l-0.1,0.1h-0.1
				c-0.1,0-0.2-0.1-0.2-0.1C91.8,137.2,91.8,137.2,91.8,137.1z M91.8,137C91.8,137,91.8,137.1,91.8,137c0,0.1,0,0.1-0.1,0.2
				c-0.1,0.1-0.1,0.1-0.2,0.1h-0.1l-0.1-0.1c0-0.1,0-0.1,0.1-0.2l0,0c0,0,0,0,0.1,0h0.1H91.8C91.7,136.9,91.7,136.9,91.8,137
				C91.7,137,91.8,137,91.8,137L91.8,137z M91.3,135.8c0-0.1,0.1-0.1,0.2-0.1s0.3,0,0.3,0.1s-0.1,0.2-0.2,0.2h-0.1
				C91.4,136,91.3,136,91.3,135.8C91.2,135.9,91.2,135.9,91.3,135.8z M91,136.5L91,136.5c0,0.1,0,0.1,0,0.1s0,0,0,0.1l0,0
				c-0.1,0.1-0.1,0.1-0.2,0.1h-0.1l-0.1-0.1c0-0.1,0-0.1,0.1-0.2l0,0l0,0c0,0,0,0,0.1,0S91,136.5,91,136.5
				C90.9,136.4,91,136.4,91,136.5z M90.4,135.5c0.1-0.1,0.2-0.1,0.3-0.1l0.1,0.1c0,0.1,0,0.1-0.1,0.2c-0.1,0.1-0.1,0.1-0.2,0.1h-0.1
				l-0.1-0.1C90.4,135.7,90.4,135.6,90.4,135.5z M90.1,136.2L90.1,136.2c0.1-0.1,0.1-0.1,0.2-0.1s0.1,0,0.2,0l0,0l0.1,0.1l0,0v0.1
				c0,0,0,0.1-0.1,0.1c-0.1,0.1-0.1,0.1-0.2,0.1h-0.1l-0.1-0.1C90,136.4,90,136.3,90.1,136.2z M89.9,136.6c0,0.1,0,0.1-0.1,0.2
				c-0.1,0.1-0.1,0.1-0.2,0.1h-0.1l-0.1-0.1c0-0.1,0-0.1,0.1-0.2c0.1-0.1,0.2-0.1,0.3-0.1C89.9,136.5,89.9,136.5,89.9,136.6z
				 M89.5,135.7C89.5,135.7,89.5,135.6,89.5,135.7C89.5,135.6,89.5,135.6,89.5,135.7c0.1-0.1,0.1-0.1,0.2-0.1h0.1c0,0,0,0,0.1,0l0,0
				c0,0,0,0,0,0.1l0,0c0,0,0,0,0,0.1c0,0,0,0,0,0.1c0,0,0,0,0,0.1l0,0l0,0h-0.1c0,0,0,0-0.1,0l0,0h-0.1l-0.1-0.1
				C89.4,135.8,89.4,135.7,89.5,135.7z M89.4,138.8L89.4,138.8l-0.2-0.1c0-0.1,0-0.1,0.1-0.2c0.1-0.1,0.2-0.1,0.3-0.1l0.1,0.1
				c0,0.1,0,0.1-0.1,0.2C89.5,138.7,89.5,138.8,89.4,138.8z M89.9,139.8l-0.1,0.1l0,0l0,0c0,0,0,0-0.1,0l0,0c-0.1,0-0.2-0.1-0.2-0.1
				c0-0.1,0-0.1,0-0.1s0,0,0.1,0c0,0,0,0,0.1,0l0,0c0.1,0,0.3,0,0.3,0.1C89.9,139.8,89.9,139.8,89.9,139.8z M89.8,138
				c-0.1,0-0.2,0-0.2-0.1s0.1-0.2,0.2-0.2l0,0c-0.1,0-0.1-0.1-0.2-0.1v-0.1c0-0.1,0.1-0.1,0.2-0.1s0.3,0,0.3,0.1s-0.1,0.2-0.2,0.2
				l0,0c0.1,0,0.1,0.1,0.2,0.1C90.2,137.9,90.1,138,89.8,138C89.9,138,89.9,138,89.8,138z M90.2,139.1L90.2,139.1
				c-0.2,0-0.3,0-0.3-0.1v-0.1c0-0.1,0.1-0.1,0.2-0.1s0.3,0,0.3,0.1C90.4,139,90.4,139.1,90.2,139.1z M90.6,137.1
				c0.1,0,0.3,0,0.3,0.1v0.1c0,0.1-0.1,0.1-0.2,0.1h-0.1c-0.1,0-0.2,0-0.2-0.1C90.4,137.2,90.5,137.1,90.6,137.1z M90.8,138.4
				C90.8,138.4,90.7,138.4,90.8,138.4c-0.2,0-0.3,0-0.3-0.1v-0.1c0-0.1,0.1-0.1,0.2-0.1s0.3,0,0.3,0.1
				C91,138.3,90.9,138.4,90.8,138.4z M91.3,137.8L91.3,137.8l-0.2-0.1c0-0.1,0-0.1,0.1-0.2c0.1-0.1,0.2-0.1,0.3-0.1l0.1,0.1
				c0,0.1,0,0.1-0.1,0.2C91.5,137.8,91.4,137.8,91.3,137.8z"/>
		</g>
		<g>
			<path style="fill:#CAAF86;" d="M102.5,134.4c-0.6-0.8-1.6-1.3-2.8-1.3c-0.2,0-0.4,0-0.7,0c-0.7,0.1-1.5,0.5-2.4,1.1
				c0,0,0,0-0.1,0c0,0,0,0-0.1,0c-0.3,0.2-0.5,0.4-0.8,0.6c0,0,0,0-0.1,0l-0.1,0.1c0,0,0,0-0.1,0c-0.2,0.1-0.3,0.2-0.5,0.4
				c0,0,0,0-0.1,0c0,0,0,0-0.1,0c0,0-0.1,0-0.1,0.1c0,0,0,0-0.1,0c0,0,0,0-0.1,0c-0.4,0.3-0.8,0.7-1.1,1l0,0c0,0,0,0-0.1,0.1
				c-0.2,0.2-0.5,0.5-0.7,0.7c0,0,0,0-0.1,0.1c0,0,0,0-0.1,0.1s-0.1,0.1-0.2,0.2c0,0,0,0-0.1,0.1s-0.1,0.1-0.2,0.2c0,0,0,0-0.1,0
				c-0.2,0.2-0.4,0.4-0.5,0.5c0,0,0,0-0.1,0.1l0,0c0,0,0,0-0.1,0.1l-0.1,0.1l-0.1,0.1l0,0c-0.1,0.1-0.2,0.2-0.3,0.4c0,0,0,0-0.1,0.1
				c0,0,0,0-0.1,0.1l-0.1,0.1l0,0c0,0,0,0-0.1,0.1c-0.3,0.3-0.5,0.6-0.8,1c0,0,0,0,0,0.1c0,0,0,0-0.1,0.1c-0.1,0.2-0.3,0.4-0.4,0.6
				c0,0,0,0.1-0.1,0.1c0,0,0,0,0,0.1c-0.1,0.2-0.2,0.4-0.3,0.6c0.1,0.3,0.1,0.5,0.1,0.7c0,0.4,0,0.9,0,1.3l0,0l0,0l0,0l0,0l0,0
				c0,0,0,0,0,0.1c0.2,0.2,0.4,0.3,0.7,0.4c0.5,0.2,1.1,0.2,1.9,0.2l0,0c2.8,0,6.9-1.1,7.6-1.8c0.2-0.3,0.6-0.8,0.9-1.5
				c0-0.1,0.1-0.1,0.1-0.2c0.9-1.7,2-4.1,2.4-5C103.1,135.6,103,134.9,102.5,134.4z M95.4,142.1L95.4,142.1
				C95.4,142.1,95.3,142.1,95.4,142.1c-0.1,0-1.1-1.4-2.2-1.9c-0.1-0.1-0.2-0.1-0.4-0.1c0,0,0,0-0.1,0h-0.1
				c-0.5-0.1-0.9-0.2-1.2-0.2c-0.2,0-0.3,0-0.3,0H91v-0.1c0.1-0.1,0.5-0.3,1-0.3c0.3,0,0.6,0.1,0.9,0.2H93c0,0,0,0,0.1,0h0.1
				c0.9,0.3,1.6,1.1,2,2.3C95.4,141.9,95.4,142,95.4,142.1C95.5,142,95.5,142,95.4,142.1z M97.9,139.7L97.9,139.7
				C97.9,139.7,97.8,139.6,97.9,139.7c-0.1-0.1-0.9-1.5-1.9-2.1l0,0c0,0,0,0-0.1,0c0,0,0,0-0.1,0c-0.9-0.5-1.6-0.5-1.8-0.5l0,0l0,0
				h-0.1V137l0,0c0.2-0.1,0.5-0.2,0.8-0.2c0.4,0,0.9,0.1,1.4,0.4c0,0,0.1,0,0.1,0.1c0,0,0,0,0.1,0c0,0,0,0,0.1,0
				c0.5,0.3,1.2,1,1.5,2.3C97.9,139.5,97.9,139.6,97.9,139.7C98,139.6,97.9,139.6,97.9,139.7z M100.7,137.3
				C100.6,137.3,100.6,137.3,100.7,137.3C100.6,137.3,100.6,137.3,100.7,137.3c-0.1,0-1.1-1.4-2.2-1.9c-0.6-0.2-1-0.3-1.4-0.3
				c0,0,0,0-0.1,0c0,0,0,0-0.1,0h-0.1c-0.2,0-0.3,0-0.3,0h-0.1V135c0.1-0.1,0.2-0.2,0.4-0.2c0,0,0,0,0.1,0c0,0,0,0,0.1,0
				s0.3-0.1,0.5-0.1c0.4,0,0.7,0.1,1.2,0.2c0.9,0.3,1.6,1.1,2,2.3C100.7,137.2,100.7,137.2,100.7,137.3
				C100.7,137.2,100.7,137.3,100.7,137.3z"/>
		</g>
		<g>
			<path style="fill:#CAAF86;" d="M89.1,142.2v-0.1V142c-0.1-0.2-0.1-0.4-0.2-0.6c0,0,0,0,0-0.1v-0.1c-0.2-0.4-0.4-0.9-0.8-1.3
				c0-0.1-0.1-0.1-0.1-0.2c-0.3-0.3-0.6-0.6-0.9-0.9c0,0,0,0-0.1,0l0,0c-0.1-0.1-0.1-0.1-0.2-0.2l0,0c0,0,0,0-0.1,0l0,0
				c0,0,0,0-0.1,0l0,0c-0.1-0.1-0.3-0.2-0.4-0.3h-0.1c0,0,0,0-0.1,0c0,0,0,0-0.1,0c-0.3-0.2-0.6-0.4-1-0.5h-0.1
				c-0.1,0-0.1,0-0.2-0.1c0,0,0,0-0.1,0c-0.1-0.1-0.3-0.1-0.4-0.1c0,0,0,0-0.1,0c0,0,0,0-0.1,0l0,0c0,0,0,0-0.1,0c0,0,0,0-0.1,0
				s-0.2,0-0.2-0.1h-0.1c0,0,0,0-0.1,0c-0.4-0.1-0.8-0.1-1.1-0.1c-0.8,0-1.5,0.3-2,0.6c0,0,0,0-0.1,0c-1.4,1.1-1.6,2.8-1.1,3.8
				c0.1,0.2,0.3,0.4,0.6,0.7c0,0,0,0,0.1,0c0.5,0.4,1.1,0.8,1.9,1.3c1.1,0.5,2.9,0.9,4.1,1.1c0,0,0.3,0,0.6,0c0.5,0,1.4-0.1,2.1-0.3
				c0.1,0,0.1,0,0.2-0.1c0.1,0,0.1-0.1,0.2-0.1c0,0,0,0,0.1,0c0,0,0,0,0.1,0c0,0,0,0,0.1,0l0,0c0-0.4,0.1-0.8,0-1.2
				C89.1,142.6,89.1,142.4,89.1,142.2z M86.9,143.4L86.9,143.4c-0.2,0-0.2-0.1-0.3-0.1c-0.1-0.1-1.4-2-3.1-2.7
				c-0.5-0.2-1-0.4-1.4-0.5H82h-0.1c-0.6-0.1-1-0.2-1.2-0.2s-0.2,0-0.2-0.1v-0.1h0.1c0.1,0,0.5-0.1,1-0.1l0,0h0.1h0.1
				c0.7,0,1.3,0.2,2,0.5C85.5,140.8,86.9,143.2,86.9,143.4L86.9,143.4z M87.4,142.3L87.4,142.3c-0.2,0-0.2-0.1-0.3-0.1
				c0,0-0.4-0.6-1-1.2c0,0,0,0-0.1-0.1l0,0c0,0,0,0-0.1-0.1c-0.5-0.5-1.2-1.1-2-1.4c-1.3-0.5-2.4-0.7-2.8-0.8H81h-0.1
				c0,0-0.1,0-0.1-0.1l0,0l0,0l0,0l0,0c0.1,0,0.5-0.1,1-0.1c0.7,0,1.5,0.2,2.2,0.5s1.3,0.8,1.8,1.3c0,0,0,0,0.1,0.1l0.1,0.1
				c0,0,0,0,0.1,0.1C87,141.3,87.4,142.2,87.4,142.3L87.4,142.3z M88.2,141.4L88.2,141.4c-0.2,0-0.2-0.1-0.3-0.1c0,0,0,0,0-0.1
				c0,0,0-0.1-0.1-0.1l-0.1-0.1c-0.2-0.3-0.7-0.8-1.3-1.4c0,0,0,0-0.1,0c0,0,0,0-0.1,0l-0.1-0.1c0,0,0,0-0.1,0c0,0,0,0-0.1,0
				s-0.1-0.1-0.2-0.1c0,0-0.1,0-0.1-0.1c0,0-0.1,0-0.1-0.1c-0.3-0.2-0.6-0.4-0.9-0.5h-0.1c-0.1-0.1-0.3-0.1-0.4-0.2
				c-0.1-0.1-0.3-0.1-0.4-0.1c0,0,0,0-0.1,0l0,0c0,0,0,0-0.1,0c-0.8-0.3-1.5-0.4-1.8-0.4c-0.2,0-0.2,0-0.2-0.1v-0.1h0.1
				c0.1,0,0.5-0.1,1-0.1c0.2,0,0.5,0,0.8,0.1h0.1h0.1c0,0,0,0,0.1,0c0,0,0,0,0.1,0h0.1c0,0,0,0,0.1,0c0.3,0.1,0.7,0.2,1,0.3
				s0.5,0.3,0.7,0.4c0,0,0,0,0.1,0c0,0,0,0,0.1,0c0,0,0.1,0,0.1,0.1c0,0,0,0,0.1,0.1c0,0,0.1,0,0.1,0.1c0.1,0,0.1,0.1,0.2,0.1
				c0,0,0,0,0.1,0c0,0,0,0,0.1,0.1s0.1,0.1,0.2,0.2l0,0c0,0,0,0,0,0.1l0.1,0.1c0,0,0,0,0.1,0.1c0,0,0,0.1,0.1,0.1c0,0,0,0.1,0.1,0.1
				C87.8,140.3,88.2,141,88.2,141.4L88.2,141.4l0.1,0.1C88.2,141.3,88.2,141.3,88.2,141.4L88.2,141.4z"/>
		</g>
		<g>
			<path style="fill:#CAAF86;" d="M89.9,145.1c-0.3,0-0.7,0-1,0c0.2,0.4,0.4,0.9,0.7,1.3c0.1,0.1,0.2,0.2,0.3,0.3l0,0
				c0.6,0,1.2,0,1.8-0.1l0,0c-0.4-0.5-0.7-1.1-0.8-1.5C90.6,145.1,90.2,145.1,89.9,145.1z"/>
		</g>
		<g>
			<path style="fill:#CAAF86;" d="M84.2,144.6c0.2,0.4,0.4,0.8,0.8,1.2c0.2,0.2,0.4,0.4,0.6,0.6c0.6,0.1,1.1,0.1,1.7,0.2
				c-0.1-0.1-0.2-0.2-0.2-0.2c-0.4-0.5-0.6-1-0.8-1.4C85.5,144.8,84.8,144.7,84.2,144.6z"/>
		</g>
		<g>
			<path style="fill:#CAAF86;" d="M79.5,142.7c0.1,0.4,0.3,0.8,0.6,1.1c0.4,0.6,1.1,1.2,1.4,1.5c0.4,0.1,0.7,0.3,1.2,0.4
				c-0.1-0.1-0.3-0.2-0.4-0.4c-0.5-0.5-0.8-1.1-0.9-1.6C80.5,143.4,79.9,143.1,79.5,142.7z"/>
		</g>
		<g>
			<path style="fill:#CAAF86;" d="M99.4,143.3c-0.4,0.2-0.9,0.4-1.4,0.6c0.3,0.3,0.5,0.6,0.8,0.7c0.1,0.1,0.3,0.2,0.4,0.3
				c0.5-0.3,1-0.5,1.4-0.8C100.2,143.9,99.7,143.6,99.4,143.3z"/>
		</g>
		<g>
			<path style="fill:#CAAF86;" d="M100.7,142.2c-0.2,0.3-0.5,0.6-1,0.9c0.4,0.3,0.8,0.6,1.2,0.7l0,0c0.4-0.4,0.7-0.7,0.8-1.1
				c-0.1,0-0.2-0.1-0.2-0.1C101.3,142.5,101,142.4,100.7,142.2z"/>
		</g>
		<g>
			<path style="fill:#CAAF86;" d="M91.3,145c0.1,0.4,0.4,0.9,0.7,1.3c0.1,0.1,0.1,0.2,0.2,0.2c0.7-0.1,1.5-0.1,2.2-0.2
				c-0.1-0.1-0.2-0.2-0.3-0.4c-0.2-0.3-0.5-0.6-0.7-1C92.7,145,92,145,91.3,145z"/>
		</g>
		<g>
			<path style="fill:#CAAF86;" d="M81.8,143.9c0.2,0.4,0.4,0.8,0.7,1.2c0.2,0.3,0.5,0.5,0.9,0.8c0.5,0.1,1,0.2,1.5,0.3
				c-0.1-0.1-0.2-0.2-0.2-0.2c-0.5-0.5-0.8-1.1-0.9-1.5C83,144.3,82.4,144.1,81.8,143.9z"/>
		</g>
		<g>
			<path style="fill:#CAAF86;" d="M88.5,145c-0.6,0-1.3-0.1-1.9-0.1c0.2,0.5,0.4,0.8,0.7,1.1c0.1,0.2,0.3,0.3,0.5,0.5
				c0.5,0,1.1,0.1,1.6,0.1l-0.1-0.1C88.9,146.1,88.7,145.5,88.5,145z"/>
		</g>
		<g>
			<path style="fill:#CAAF86;" d="M80.6,144.9c-0.3-0.3-0.6-0.6-0.8-0.9c-0.6-0.9-0.9-2.5-0.9-2.6c0,0-0.2,0-0.3,0
				c-0.2,0.2-0.5,0.4-0.5,1C78.2,143.4,79,144.2,80.6,144.9z"/>
		</g>
		<g>
			<path style="fill:#CAAF86;" d="M100.9,141.1c0,0.1,0.1,0.3,0.1,0.4c0,0.1,0,0.2-0.1,0.4c0.3,0.2,0.5,0.3,0.8,0.4
				c0.1,0,0.1,0.1,0.2,0.1c0-0.1,0-0.2,0-0.3c0-0.3,0-1.2-0.5-1.6C101.2,140.6,100.9,141.1,100.9,141.1z"/>
		</g>
		<g>
			<path style="fill:#CAAF86;" d="M95.9,144.5c0.3,0.4,0.5,0.6,0.8,0.9c0.1,0.1,0.3,0.2,0.5,0.3c0.6-0.2,1.2-0.4,1.7-0.6
				c-0.1,0-0.2-0.1-0.2-0.1c-0.3-0.2-0.7-0.5-1-0.9C97.1,144.2,96.6,144.4,95.9,144.5z"/>
		</g>
		<g>
			<path style="fill:#CAAF86;" d="M93.8,144.9c0.2,0.3,0.3,0.6,0.5,0.9c0.1,0.2,0.3,0.3,0.5,0.5c0.7-0.1,1.3-0.3,1.9-0.4
				c-0.1-0.1-0.2-0.1-0.2-0.2c-0.3-0.3-0.6-0.6-0.9-1.1C95,144.7,94.4,144.8,93.8,144.9z"/>
		</g>
		<g>
			<path style="fill:#CAAF86;" d="M96.6,149.4c-1.1,0.3-2.3,0.6-3.5,0.7c0,0.5-0.1,0.9-0.1,1.4c1.2-0.1,2.4-0.4,3.5-0.7
				C96.5,150.4,96.6,149.9,96.6,149.4z"/>
		</g>
		<g>
			<path style="fill:#CAAF86;" d="M96.4,151.2c-1.1,0.3-2.3,0.5-3.5,0.7c0,0.4-0.1,0.8-0.1,1.2c1.2-0.1,2.4-0.3,3.4-0.6
				C96.3,152.1,96.4,151.7,96.4,151.2z"/>
		</g>
		<g>
			<path style="fill:#CAAF86;" d="M87.7,151.6c0-0.5-0.1-0.9-0.1-1.4c-1.2-0.1-2.4-0.3-3.5-0.5c0,0.5,0.1,1,0.1,1.4
				C85.4,151.3,86.5,151.5,87.7,151.6z"/>
		</g>
		<g>
			<path style="fill:#CAAF86;" d="M83.6,147.6c0-0.5-0.1-0.9-0.1-1.3c-1.1-0.3-2-0.6-2.9-1c0,0.4,0.1,0.8,0.1,1.2
				C81.6,147,82.6,147.3,83.6,147.6z"/>
		</g>
		<g>
			<path style="fill:#CAAF86;" d="M88.1,151.6c1.5,0.1,3,0.1,4.5,0c0-0.5,0.1-0.9,0.1-1.4c-1.6,0.2-3.2,0.1-4.8,0
				C88,150.7,88.1,151.1,88.1,151.6z"/>
		</g>
		<g>
			<path style="fill:#CAAF86;" d="M92.9,148.6c-1.7,0.2-3.4,0.2-5,0c0,0.4,0.1,0.8,0.1,1.2c1.5,0.1,3.2,0.1,4.8,0
				C92.8,149.4,92.8,149,92.9,148.6z"/>
		</g>
		<g>
			<path style="fill:#CAAF86;" d="M84,147.7c1.1,0.3,2.3,0.5,3.5,0.6c0-0.5-0.1-1-0.1-1.4c-1.2-0.1-2.4-0.3-3.5-0.5
				C83.9,146.8,83.9,147.2,84,147.7z"/>
		</g>
		<g>
			<path style="fill:#CAAF86;" d="M87.5,148.6c-1.2-0.1-2.4-0.3-3.5-0.6c0,0.4,0.1,0.8,0.1,1.2c1.1,0.3,2.3,0.4,3.5,0.6
				C87.6,149.4,87.5,149,87.5,148.6z"/>
		</g>
		<g>
			<path style="fill:#CAAF86;" d="M88.1,151.9c0,0.5,0.1,0.9,0.1,1.2c1.4,0.1,2.8,0.1,4.2,0c0-0.3,0.1-0.7,0.1-1.2
				C91.1,152.1,89.6,152,88.1,151.9z"/>
		</g>
		<g>
			<path style="fill:#CAAF86;" d="M88.3,153.5c0.1,0.5,0.1,0.8,0.2,1c0,0.1,0,0.1,0.1,0.2c0.8,0.1,1.5,0.1,2.1,0.1
				c0.5,0,1,0,1.5-0.1c0.1-0.2,0.1-0.7,0.2-1.3C91.1,153.6,89.6,153.6,88.3,153.5z"/>
		</g>
		<g>
			<path style="fill:#CAAF86;" d="M87.9,153.1c0-0.3-0.1-0.7-0.1-1.2c-1.2-0.1-2.4-0.3-3.5-0.5c0.1,0.6,0.1,1,0.2,1.2
				C85.6,152.9,86.7,153,87.9,153.1z"/>
		</g>
		<g>
			<path style="fill:#CAAF86;" d="M96.2,152.8c-1.1,0.3-2.2,0.5-3.4,0.6c-0.1,0.6-0.1,1-0.2,1.3c1-0.1,2.1-0.3,3-0.5
				c0.2-0.3,0.4-0.7,0.5-1.1C96.2,153.1,96.2,153,96.2,152.8z"/>
		</g>
		<g>
			<path style="fill:#CAAF86;" d="M96.6,152.7c0,0.2-0.1,0.4-0.1,0.5c-0.1,0.3-0.2,0.6-0.4,0.9c1.1-0.3,2-0.7,2.5-0.9
				c0.3-0.3,0.4-0.7,0.6-1.2c0-0.1,0-0.1,0.1-0.2C98.4,152.1,97.5,152.5,96.6,152.7z"/>
		</g>
		<g>
			<path style="fill:#CAAF86;" d="M88,153.5c-1.2-0.1-2.3-0.2-3.3-0.5c0.2,0.4,0.4,0.8,0.6,1.2c1,0.2,2,0.4,2.9,0.5c0,0,0,0,0-0.1
				C88.1,154.4,88,154,88,153.5z"/>
		</g>
		<g>
			<path style="fill:#CAAF86;" d="M96.9,146.1c-1.1,0.3-2.3,0.5-3.5,0.6c0,0.4-0.1,0.9-0.1,1.4c1.2-0.1,2.4-0.4,3.5-0.7
				C96.8,147,96.8,146.6,96.9,146.1z"/>
		</g>
		<g>
			<path style="fill:#CAAF86;" d="M96.7,147.8c-1.1,0.3-2.3,0.6-3.5,0.7c0,0.4-0.1,0.8-0.1,1.2c1.2-0.1,2.4-0.4,3.5-0.7
				C96.7,148.7,96.7,148.3,96.7,147.8z"/>
		</g>
		<g>
			<path style="fill:#CAAF86;" d="M84.2,152.9c-1-0.2-1.9-0.5-2.7-0.8c0.2,0.6,0.5,1,1,1.4c0.5,0.2,1.3,0.4,2.3,0.6
				C84.5,153.7,84.4,153.4,84.2,152.9L84.2,152.9z"/>
		</g>
		<g>
			<path style="fill:#CAAF86;" d="M99.9,149.5c0.6-0.3,1-0.6,1.3-0.8c0-0.4,0.1-0.9,0.1-1.4c-0.3,0.2-0.7,0.5-1.2,0.8
				C100,148.6,99.9,149,99.9,149.5z"/>
		</g>
		<g>
			<path style="fill:#CAAF86;" d="M79.6,151.2c0.4,0.9,1,1.6,1.8,1.9c0.1,0,0.2,0.1,0.3,0.1c-0.3-0.4-0.5-0.8-0.7-1.3
				C80.5,151.7,80.1,151.4,79.6,151.2z"/>
		</g>
		<g>
			<path style="fill:#CAAF86;" d="M83.8,149.2c0-0.4-0.1-0.8-0.1-1.2c-1-0.3-2-0.6-2.9-1c0,0.4,0.1,0.8,0.1,1.2
				C81.8,148.6,82.7,148.9,83.8,149.2z"/>
		</g>
		<g>
			<path style="fill:#CAAF86;" d="M80.6,148.4c-0.7-0.3-1.2-0.7-1.6-0.9c0.1,0.5,0.1,1,0.2,1.4c0.3,0.2,0.8,0.6,1.5,0.9
				C80.7,149.4,80.6,148.9,80.6,148.4z"/>
		</g>
		<g>
			<path style="fill:#CAAF86;" d="M80.4,146.8c-0.8-0.4-1.3-0.7-1.6-1c0,0.4,0.1,0.8,0.1,1.2c0.3,0.2,0.8,0.6,1.6,1
				C80.5,147.6,80.5,147.2,80.4,146.8z"/>
		</g>
		<g>
			<path style="fill:#CAAF86;" d="M99.5,152.1c-0.1,0.3-0.2,0.6-0.3,0.8c0.5-0.3,1.3-0.7,1.7-2c-0.4,0.2-0.8,0.5-1.3,0.7
				C99.6,151.8,99.5,152,99.5,152.1z"/>
		</g>
		<g>
			<path style="fill:#CAAF86;" d="M100.2,144.8c0,0.4-0.1,0.8-0.1,1.3c0.6-0.4,1-0.7,1.2-0.8c0-0.5,0-1,0.1-1.4
				C101.1,144.2,100.7,144.5,100.2,144.8z"/>
		</g>
		<g>
			<path style="fill:#CAAF86;" d="M100,147.7c0.6-0.3,1-0.6,1.2-0.8c0-0.4,0-0.8,0.1-1.2c-0.2,0.2-0.6,0.4-1.2,0.8
				C100.1,146.8,100.1,147.2,100,147.7z"/>
		</g>
		<g>
			<path style="fill:#CAAF86;" d="M99.7,151.1c0.6-0.3,1-0.6,1.3-0.8c0-0.2,0.1-0.6,0.1-1.2c-0.3,0.2-0.7,0.5-1.3,0.8
				C99.8,150.4,99.7,150.8,99.7,151.1z"/>
		</g>
		<g>
			<path style="fill:#CAAF86;" d="M80.8,150.2c-0.6-0.3-1.1-0.5-1.5-0.8c0.1,0.6,0.1,1,0.2,1.2v0.1l0,0c0.4,0.3,0.9,0.6,1.5,0.8
				C80.9,151.2,80.8,150.8,80.8,150.2z"/>
		</g>
		<g>
			<path style="fill:#CAAF86;" d="M80.3,145.1c-0.7-0.4-1.3-0.8-1.7-1.2c0,0.4,0.1,0.9,0.1,1.3c0.2,0.2,0.8,0.6,1.7,1.1
				C80.4,145.9,80.3,145.5,80.3,145.1z"/>
		</g>
		<g>
			<path style="fill:#CAAF86;" d="M99.4,150.1c-0.8,0.4-1.7,0.8-2.7,1c-0.1,0.5-0.1,0.9-0.2,1.2c0.9-0.3,1.8-0.6,2.7-1
				C99.3,151,99.4,150.6,99.4,150.1z"/>
		</g>
		<g>
			<path style="fill:#CAAF86;" d="M99.6,148.3c-0.8,0.4-1.7,0.8-2.7,1.1c0,0.5-0.1,1-0.1,1.4c1-0.3,1.9-0.7,2.7-1.1
				C99.5,149.2,99.6,148.8,99.6,148.3z"/>
		</g>
		<g>
			<path style="fill:#CAAF86;" d="M83.9,151c0-0.4-0.1-0.9-0.1-1.4c-1-0.3-2-0.6-2.9-1c0,0.5,0.1,1,0.1,1.4
				C81.9,150.4,82.9,150.7,83.9,151z"/>
		</g>
		<g>
			<path style="fill:#CAAF86;" d="M84.1,152.6c-0.1-0.3-0.1-0.7-0.2-1.2c-1-0.2-2-0.6-2.8-0.9c0.1,0.6,0.1,1,0.2,1.3
				C82.2,152,83.1,152.3,84.1,152.6z"/>
		</g>
		<g>
			<path style="fill:#CAAF86;" d="M87.8,148.3c1.6,0.1,3.4,0.1,5.1,0c0-0.5,0.1-1,0.1-1.4c-1.7,0.2-3.5,0.2-5.3,0.1
				C87.8,147.3,87.8,147.8,87.8,148.3z"/>
		</g>
		<g>
			<path style="fill:#CAAF86;" d="M99.8,146.6c-0.8,0.4-1.7,0.8-2.7,1.1c0,0.4-0.1,0.8-0.1,1.2c1-0.3,1.9-0.7,2.7-1.1
				C99.7,147.4,99.7,147,99.8,146.6z"/>
		</g>
		<g>
			<path style="fill:#CAAF86;" d="M99.9,145c-0.7,0.4-1.6,0.8-2.7,1.1c0,0.4-0.1,0.9-0.1,1.3c1-0.3,1.9-0.7,2.7-1.1
				C99.8,145.8,99.9,145.4,99.9,145z"/>
		</g>
		<g>
			<path style="fill:#CAAF86;" d="M79.8,137.7c0.6-0.6,0.9-0.7,1.8-0.8c0.5-0.1,1.3,0,1.7,0.1c-0.2-1,0.4-2.3,1.5-3.2
				c-0.9-1-1.8-1.9-2.4-2.2c-0.7-0.4-1.5-0.7-2.3-0.7s-1.4,0.3-1.7,0.8c-0.5,0.7-0.3,1.9,0.2,3.5C78.9,135.8,79.8,137.7,79.8,137.7z
				 M83.1,132.6c0.2,0,0.5,0.1,0.7,0.3v0.1c0,0,0,0-0.1,0l0,0c0,0,0,0-0.1,0c-0.2,0-0.6,0.1-1,0.5c-0.6,0.6-0.9,2.2-0.9,2.3
				c0,0,0,0.1-0.1,0.1l0,0c0,0-0.1,0-0.1-0.1c0,0,0,0,0-0.1c0-1.4,0.3-2.3,0.8-2.8C82.5,132.7,82.8,132.6,83.1,132.6z M81,132
				c0.2-0.2,0.5-0.3,0.7-0.3c0.1,0,0.3,0,0.4,0.1c-0.2,0-0.6,0.1-1.1,0.6c-0.4,0.4-0.6,1.1-0.8,1.6C80.4,133.1,80.6,132.4,81,132z"
				/>
		</g>
	</g>
</g>
<text transform="matrix(1 0 0 1 72.351 165.7179)" style="fill:#CAAF86; font-family:'Handwriting-Dakota'; font-size:10;">Freshly</text>
<text transform="matrix(1 0 0 1 68.351 180.5179)" style="fill:#CAAF86; font-family:'GillSans-Light'; font-size:15;">BAKED</text>
<g>
	<path style="fill:#CAAF86;" d="M295.6,91.1c0.3-0.3,0.9-0.7,1.8-1.2s1.6-0.7,2-0.8c-0.6,0-1.3,0.3-2.1,0.7
		C296.5,90.2,295.9,90.7,295.6,91.1z"/>
	<path style="fill:#CAAF86;" d="M296.9,85.6c-0.4,0-0.9,0.2-1.5,0.5s-1,0.6-1.2,0.9c0.2-0.2,0.7-0.5,1.3-0.8
		C296.1,85.9,296.6,85.7,296.9,85.6z"/>
	<path style="fill:#CAAF86;" d="M298.1,94.5c0.2-0.2,0.7-0.5,1.3-0.8c0.6-0.3,1.1-0.5,1.4-0.6c-0.4,0-0.9,0.2-1.5,0.5
		C298.7,93.9,298.3,94.2,298.1,94.5z"/>
	<path style="fill:#CAAF86;" d="M298.4,87.2c-0.6,0-1.3,0.3-2.1,0.7c-0.8,0.4-1.4,0.9-1.7,1.3c0.3-0.3,0.9-0.7,1.8-1.2
		C297.3,87.6,298,87.3,298.4,87.2z"/>
	<path style="fill:#CAAF86;" d="M300.4,91c-0.6,0-1.3,0.3-2.1,0.7c-0.8,0.4-1.4,0.9-1.7,1.3c0.3-0.2,0.9-0.7,1.8-1.2
		C299.3,91.3,300,91.1,300.4,91z"/>
	<path style="fill:#CAAF86;" d="M294.9,84.1c-1.8,0.9-1.8,4.5,0,7.9s4.7,5.4,6.4,4.5c1.8-0.9,1.8-4.5,0-7.9
		C299.6,85.2,296.7,83.1,294.9,84.1z M293.9,87.3c0.2-0.4,0.7-0.8,1.5-1.2c0.8-0.4,1.4-0.6,1.9-0.5l0,0v0.1c0,0-0.7,0.1-1.8,0.7
		C294.4,86.8,294,87.3,293.9,87.3L293.9,87.3L293.9,87.3z M294.4,89.4c0.2-0.5,0.9-1.1,1.9-1.6s1.9-0.8,2.5-0.7l0,0v0.1
		c0,0-1,0.2-2.4,0.9C295.1,88.9,294.5,89.5,294.4,89.4L294.4,89.4L294.4,89.4z M301.2,93c0,0-0.7,0.1-1.8,0.7c-1.1,0.6-1.5,1-1.5,1
		l-0.1-0.1l0,0c0.2-0.4,0.7-0.8,1.5-1.2C300,93.1,300.7,92.9,301.2,93C301.2,92.9,301.2,92.9,301.2,93L301.2,93z M300.8,91
		c0,0-1,0.2-2.4,0.9c-1.4,0.7-2,1.3-2,1.4l0,0l0,0l0,0c0.2-0.5,0.9-1.1,1.9-1.6C299.2,91.1,300.1,90.8,300.8,91
		C300.8,90.9,300.8,90.9,300.8,91L300.8,91z M299.8,89.1c0,0-1,0.2-2.4,0.9c-1.4,0.7-2,1.3-2,1.4l-0.1-0.1l0,0
		c0.2-0.5,0.9-1.1,1.9-1.6s1.9-0.8,2.5-0.7C299.8,89,299.8,89,299.8,89.1L299.8,89.1z"/>
</g>
<g>
	<path style="fill:#CAAF86;" d="M300.6,186.6c-0.3-0.3-0.9-0.7-1.8-1.2s-1.6-0.7-2-0.8c0.6,0,1.3,0.3,2.1,0.7
		C299.7,185.7,300.3,186.2,300.6,186.6z"/>
	<path style="fill:#CAAF86;" d="M299.3,181.1c0.4,0,0.9,0.2,1.5,0.5s1,0.6,1.2,0.9c-0.2-0.2-0.7-0.5-1.3-0.8
		C300.2,181.4,299.7,181.2,299.3,181.1z"/>
	<path style="fill:#CAAF86;" d="M298.2,190c-0.2-0.2-0.7-0.5-1.3-0.8c-0.6-0.3-1.1-0.5-1.4-0.6c0.4,0,0.9,0.2,1.5,0.5
		C297.5,189.4,297.9,189.7,298.2,190z"/>
	<path style="fill:#CAAF86;" d="M297.8,182.8c0.6,0,1.3,0.3,2.1,0.7c0.8,0.4,1.4,0.9,1.7,1.3c-0.3-0.3-0.9-0.7-1.8-1.2
		C298.9,183.1,298.2,182.9,297.8,182.8z"/>
	<path style="fill:#CAAF86;" d="M295.9,186.5c0.6,0,1.3,0.3,2.1,0.7c0.8,0.4,1.4,0.9,1.7,1.3c-0.3-0.3-0.9-0.7-1.8-1.2
		C297,186.9,296.3,186.6,295.9,186.5z"/>
	<path style="fill:#CAAF86;" d="M294.9,184.1c-1.8,3.4-1.8,6.9,0,7.9c1.8,0.9,4.7-1.1,6.4-4.5c1.8-3.4,1.8-6.9,0-7.9
		C299.6,178.7,296.7,180.7,294.9,184.1z M302.4,182.8L302.4,182.8c-0.1,0-0.5-0.4-1.6-1s-1.8-0.7-1.8-0.7V181l0,0
		c0.5,0,1.2,0.1,1.9,0.5C301.7,182,302.2,182.4,302.4,182.8L302.4,182.8z M301.9,185L301.9,185c-0.1,0-0.7-0.6-2.1-1.3
		s-2.4-0.9-2.4-0.9v-0.1l0,0c0.6-0.1,1.5,0.2,2.5,0.7S301.6,184.5,301.9,185L301.9,185z M295,188.5L295,188.5c0.5,0,1.2,0.1,2,0.5
		s1.3,0.8,1.5,1.2l0,0l-0.1,0.1c0,0-0.5-0.5-1.5-1C295.8,188.7,295,188.6,295,188.5L295,188.5z M295.5,186.4L295.5,186.4
		c0.7-0.1,1.5,0.2,2.5,0.7s1.7,1.1,1.9,1.6l0,0l0,0l0,0c0,0-0.6-0.6-2-1.4C296.4,186.7,295.5,186.5,295.5,186.4L295.5,186.4z
		 M296.4,184.5C296.4,184.5,296.5,184.5,296.4,184.5c0.7-0.1,1.5,0.2,2.5,0.7s1.7,1.1,1.9,1.6l0,0l-0.1,0.1c0,0-0.6-0.6-2-1.4
		C297.4,184.8,296.5,184.6,296.4,184.5L296.4,184.5z"/>
</g>
<path style="fill:#CAAF86;" d="M303.6,59c-0.4-2.7-2.5-4.4-5.5-4.4s-5.5,1.6-5.5,4.1s2.9,3.5,5.9,3.5C301.4,62.2,304,61.4,303.6,59z
	 M296.6,58.3c-2.2-0.5-3.5-0.3-3.5-0.3c0.1,0,1-0.9,3.6-0.2c2.6,0.6,3.2,1.9,3.3,1.9C300,59.8,298.8,58.9,296.6,58.3z M297.6,56.9
	c-2.2-0.5-3.5-0.3-3.5-0.3c0.1,0,1-0.9,3.6-0.2c2.6,0.6,3.2,1.9,3.3,1.9C300.9,58.4,299.8,57.5,297.6,56.9z M298.7,55.6
	c-2.2-0.5-3.5-0.3-3.5-0.3c0.1,0,1-0.9,3.6-0.2c2.6,0.6,3.2,1.9,3.3,1.9C302.1,57.1,301,56.2,298.7,55.6z"/>
<path style="fill:#CAAF86;" d="M300.3,124.7c2.1-2.1,3.4-4.9,1.7-6.6c-1.7-1.7-4.7-1.1-6.8,1c-2.1,2.1-2.4,4.8-0.8,7
	C295.9,128.1,298.3,126.8,300.3,124.7z M297.6,124.1c0-0.1-0.4-1.4,0.9-3.7c1.4-2.3,2.7-2.4,2.7-2.4s-1.1,0.7-2.3,2.7
	C297.8,122.6,297.6,124.1,297.6,124.1z M295.9,123.8c0-0.1-0.4-1.4,0.9-3.7c1.4-2.3,2.7-2.4,2.7-2.4s-1.1,0.7-2.3,2.7
	C296.1,122.3,295.9,123.8,295.9,123.8z M294.1,123.7c0-0.1-0.4-1.4,0.9-3.7c1.4-2.3,2.7-2.4,2.7-2.4s-1.1,0.7-2.3,2.7
	C294.3,122.2,294.1,123.7,294.1,123.7z"/>
<path style="fill:#CAAF86;" d="M300.1,101.6c-2.4-0.1-5,1.6-6.3,4.3c-1.3,2.7-0.2,5,2.2,5c2.7,0,5.8-1.7,6.8-4.5
	C304.2,102.2,300.5,101.6,300.1,101.6z M299.6,102c0.2,0,0.3,0.2,0.2,0.4c-0.1,0.2-0.4,0.4-0.6,0.4s-0.3-0.2-0.2-0.4
	C299.1,102.2,299.4,102,299.6,102z M299,103.2c0.2,0,0.3,0.2,0.2,0.4c-0.1,0.2-0.4,0.4-0.6,0.4s-0.3-0.2-0.2-0.4
	C298.5,103.4,298.8,103.2,299,103.2z M297.4,104.6c0.2,0,0.3,0.2,0.2,0.4c-0.1,0.2-0.4,0.4-0.6,0.4s-0.3-0.2-0.2-0.4
	C296.9,104.7,297.2,104.5,297.4,104.6z M297.5,102.5c0.2,0,0.3,0.2,0.2,0.4c-0.1,0.2-0.4,0.4-0.6,0.4s-0.3-0.2-0.2-0.4
	C297,102.7,297.3,102.5,297.5,102.5z M294,106.7c-0.2,0-0.3-0.2-0.2-0.4c0.1-0.2,0.4-0.4,0.6-0.4s0.3,0.2,0.2,0.4
	C294.5,106.5,294.2,106.7,294,106.7z M294,107.9c-0.2,0-0.3-0.2-0.2-0.4c0.1-0.2,0.4-0.4,0.6-0.4s0.3,0.2,0.2,0.4
	C294.4,107.8,294.2,108,294,107.9z M295.8,104.6c-0.2,0-0.3-0.2-0.2-0.4c0.1-0.2,0.4-0.4,0.6-0.4s0.3,0.2,0.2,0.4
	C296.2,104.4,296,104.6,295.8,104.6z M295.4,106.1c0.1-0.2,0.4-0.4,0.6-0.4s0.3,0.2,0.2,0.4c-0.1,0.2-0.4,0.4-0.6,0.4
	C295.3,106.5,295.3,106.3,295.4,106.1z M294.8,108.7c-0.2,0-0.3-0.2-0.2-0.4c0.1-0.2,0.4-0.4,0.6-0.4s0.3,0.2,0.2,0.4
	C295.2,108.5,295,108.7,294.8,108.7z M296.4,106.4c0.1-0.2,0.4-0.4,0.6-0.4s0.3,0.2,0.2,0.4c-0.1,0.2-0.4,0.4-0.6,0.4
	S296.3,106.6,296.4,106.4z M296.4,108c-0.2,0-0.3-0.2-0.2-0.4c0.1-0.2,0.4-0.4,0.6-0.4s0.3,0.2,0.2,0.4
	C296.8,107.9,296.6,108.1,296.4,108z M298.5,104.7c0.1-0.2,0.4-0.4,0.6-0.4s0.3,0.2,0.2,0.4c-0.1,0.2-0.4,0.4-0.6,0.4
	C298.4,105.1,298.4,104.9,298.5,104.7z M298.5,106c0.2,0,0.3,0.2,0.2,0.4c-0.1,0.2-0.4,0.4-0.6,0.4s-0.3-0.2-0.2-0.4
	C298.1,106.2,298.3,106,298.5,106z M296.8,109.6c-0.2,0-0.3-0.2-0.2-0.4c0.1-0.2,0.4-0.4,0.6-0.4s0.3,0.2,0.2,0.4
	C297.2,109.4,297,109.6,296.8,109.6z M297.9,108.1c-0.2,0-0.3-0.2-0.2-0.4c0.1-0.2,0.4-0.4,0.6-0.4s0.3,0.2,0.2,0.4
	C298.3,107.9,298.1,108.1,297.9,108.1z M299.4,105.9c-0.2,0-0.3-0.2-0.2-0.4c0.1-0.2,0.4-0.4,0.6-0.4s0.3,0.2,0.2,0.4
	C299.8,105.7,299.6,105.9,299.4,105.9z M300.5,103.7c-0.2,0-0.3-0.2-0.2-0.4c0.1-0.2,0.4-0.4,0.6-0.4s0.3,0.2,0.2,0.4
	C300.9,103.5,300.7,103.7,300.5,103.7z M300.6,104.3c0.1-0.2,0.4-0.4,0.6-0.4s0.3,0.2,0.2,0.4c-0.1,0.2-0.4,0.4-0.6,0.4
	C300.6,104.7,300.5,104.5,300.6,104.3z M299.4,107.8c-0.2,0-0.3-0.2-0.2-0.4c0.1-0.2,0.4-0.4,0.6-0.4s0.3,0.2,0.2,0.4
	C299.8,107.6,299.6,107.8,299.4,107.8z M300.2,106.6c-0.2,0-0.3-0.2-0.2-0.4c0.1-0.2,0.4-0.4,0.6-0.4s0.3,0.2,0.2,0.4
	C300.6,106.4,300.4,106.6,300.2,106.6z"/>
<path style="fill:#CAAF86;" d="M302.9,167.9c-1.6-1.7-4.7-2.4-7.5-1.5s-3.7,3.4-2,5c1.9,1.9,5.3,2.9,8,1.6
	C305.3,171.3,303.1,168.2,302.9,167.9z M302.2,167.9c0.1,0.1,0.1,0.3-0.2,0.4c-0.2,0.1-0.5,0-0.7-0.1c-0.1-0.1-0.1-0.3,0.2-0.4
	C301.7,167.7,302,167.8,302.2,167.9z M300.9,168.3c0.1,0.1,0.1,0.3-0.2,0.4c-0.2,0.1-0.5,0-0.7-0.1c-0.1-0.1-0.1-0.3,0.2-0.4
	S300.8,168.2,300.9,168.3z M298.8,168.1c0.1,0.1,0.1,0.3-0.2,0.4c-0.2,0.1-0.5,0-0.7-0.1c-0.1-0.1-0.1-0.3,0.2-0.4
	C298.4,167.9,298.7,168,298.8,168.1z M300.3,166.7c0.1,0.1,0.1,0.3-0.2,0.4c-0.2,0.1-0.5,0-0.7-0.1c-0.1-0.1-0.1-0.3,0.2-0.4
	S300.2,166.6,300.3,166.7z M295,167.3c-0.1-0.1-0.1-0.3,0.2-0.4s0.5,0,0.7,0.1c0.1,0.1,0.1,0.3-0.2,0.4S295.1,167.4,295,167.3z
	 M294,168.1c-0.1-0.1-0.1-0.3,0.2-0.4c0.2-0.1,0.5,0,0.7,0.1c0.1,0.1,0.1,0.3-0.2,0.4C294.5,168.3,294.2,168.3,294,168.1z
	 M297.7,167c-0.1-0.1-0.1-0.3,0.2-0.4c0.2-0.1,0.5,0,0.7,0.1c0.1,0.1,0.1,0.3-0.2,0.4S297.8,167.2,297.7,167z M296.3,167.8
	c0.2-0.1,0.5,0,0.7,0.1c0.1,0.1,0.1,0.3-0.2,0.4c-0.2,0.1-0.5,0-0.7-0.1C296,168,296.1,167.9,296.3,167.8z M294.1,169.2
	c-0.1-0.1-0.1-0.3,0.2-0.4c0.2-0.1,0.5,0,0.7,0.1c0.1,0.1,0.1,0.3-0.2,0.4S294.2,169.4,294.1,169.2z M296.8,168.8
	c0.2-0.1,0.5,0,0.7,0.1c0.1,0.1,0.1,0.3-0.2,0.4c-0.2,0.1-0.5,0-0.7-0.1C296.5,169,296.6,168.9,296.8,168.8z M295.7,169.9
	c-0.1-0.1-0.1-0.3,0.2-0.4c0.2-0.1,0.5,0,0.7,0.1c0.1,0.1,0.1,0.3-0.2,0.4C296.1,170.1,295.8,170,295.7,169.9z M299.5,169
	c0.2-0.1,0.5,0,0.7,0.1c0.1,0.1,0.1,0.3-0.2,0.4c-0.2,0.1-0.5,0-0.7-0.1C299.2,169.3,299.3,169.1,299.5,169z M298.6,170
	c0.1,0.1,0.1,0.3-0.2,0.4c-0.2,0.1-0.5,0-0.7-0.1c-0.1-0.1-0.1-0.3,0.2-0.4S298.5,169.8,298.6,170z M294.9,171.3
	c-0.1-0.1-0.1-0.3,0.2-0.4c0.2-0.1,0.5,0,0.7,0.1c0.1,0.1,0.1,0.3-0.2,0.4S295,171.4,294.9,171.3z M296.7,171
	c-0.1-0.1-0.1-0.3,0.2-0.4c0.2-0.1,0.5,0,0.7,0.1c0.1,0.1,0.1,0.3-0.2,0.4S296.8,171.1,296.7,171z M299.3,170.5
	c-0.1-0.1-0.1-0.3,0.2-0.4c0.2-0.1,0.5,0,0.7,0.1c0.1,0.1,0.1,0.3-0.2,0.4C299.8,170.7,299.5,170.6,299.3,170.5z M301.6,169.7
	c-0.1-0.1-0.1-0.3,0.2-0.4c0.2-0.1,0.5,0,0.7,0.1c0.1,0.1,0.1,0.3-0.2,0.4S301.8,169.9,301.6,169.7z M301.3,170.2
	c0.2-0.1,0.5,0,0.7,0.1c0.1,0.1,0.1,0.3-0.2,0.4c-0.2,0.1-0.5,0-0.7-0.1C301,170.5,301.1,170.3,301.3,170.2z M298,171.8
	c-0.1-0.1-0.1-0.3,0.2-0.4c0.2-0.1,0.5,0,0.7,0.1c0.1,0.1,0.1,0.3-0.2,0.4S298.1,171.9,298,171.8z M299.4,171.5
	c-0.1-0.1-0.1-0.3,0.2-0.4c0.2-0.1,0.5,0,0.7,0.1c0.1,0.1,0,0.3-0.2,0.4C299.8,171.7,299.5,171.7,299.4,171.5z"/>
<path style="fill:#CAAF86;" d="M304.9,36.4c-0.7-0.3-2.2,0.2-4.1,1.4c2.3-0.6,3.3-0.1,3.4-0.1c0,0-1.5,0-3.8,0.7
	c-0.4,0.1-0.7,0.2-1,0.4c-0.6,0.4-1.2,0.9-1.8,1.4c0.2-0.1,0.4-0.2,0.6-0.2c2.7-0.9,3.9-0.3,4-0.3c0,0-1.5,0-3.8,0.7
	c-0.8,0.3-1.4,0.5-1.9,0.8c-0.2,0.1-0.3,0.3-0.5,0.4c-0.2,0.2-0.5,0.4-0.7,0.7c0.2-0.1,0.5-0.2,0.8-0.3c2.7-0.9,3.9-0.3,4-0.3
	c0,0-1.5,0-3.8,0.7c-0.7,0.2-1.3,0.5-1.7,0.7c-0.5,0.5-0.9,1-1.3,1.4c0.2-0.1,0.5-0.2,0.8-0.3c2.7-0.9,3.9-0.3,4-0.3
	c0,0-1.5,0-3.8,0.7c-0.6,0.2-1,0.4-1.4,0.6c-1.4,1.8-1.8,3.2-1.1,3.5c1.3,0.6,5.3-1.7,9-5.1C304.2,40.1,306.1,36.9,304.9,36.4z"/>
<path style="fill:#CAAF86;" d="M291.4,131.9c0.7-0.3,2.2,0.2,4.1,1.4c-2.3-0.6-3.3-0.1-3.4-0.1c0,0,1.5,0,3.8,0.7
	c0.4,0.1,0.7,0.2,1,0.4c0.6,0.4,1.2,0.9,1.8,1.4c-0.2-0.1-0.4-0.2-0.6-0.2c-2.7-0.9-3.9-0.3-4-0.3c0,0,1.5,0,3.8,0.7
	c0.8,0.3,1.4,0.5,1.9,0.8c0.2,0.1,0.3,0.3,0.5,0.4c0.2,0.2,0.5,0.4,0.7,0.7c-0.2-0.1-0.5-0.2-0.8-0.3c-2.7-0.9-3.9-0.3-4-0.3
	c0,0,1.5,0,3.8,0.7c0.7,0.2,1.3,0.5,1.7,0.7c0.5,0.5,0.9,1,1.3,1.4c-0.2-0.1-0.5-0.2-0.8-0.3c-2.7-0.9-3.9-0.3-4-0.3
	c0,0,1.5,0,3.8,0.7c0.6,0.2,1,0.4,1.4,0.6c1.4,1.8,1.8,3.2,1.1,3.5c-1.3,0.6-5.3-1.7-9-5.1C292.1,135.7,290.1,132.5,291.4,131.9z"/>
<path style="fill:#CAAF86;" d="M303.6,72.3c-0.7,2.3-3.5,3.2-6.4,3.2c-0.4,0-0.7,0-1.1,0c-1.6-0.1-2.6-0.7-2.9-1.5
	c-0.1-0.3-0.1-0.9,0.4-1.6c0.9-1.1,3.3-1.8,5.3-1.6c1,0.1,1.7,0.4,1.9,1c0.1,0.2,0.1,0.6-0.3,1.1c-0.6,0.7-2.1,1.2-3.4,1.1
	c-0.7-0.1-1.2-0.3-1.3-0.7c0-0.1-0.1-0.4,0.2-0.8c0.4-0.5,1.4-0.8,2.3-0.7c0.5,0,0.8,0.2,0.9,0.5c0,0.1,0.1,0.3-0.1,0.6
	c-0.3,0.3-0.9,0.5-1.5,0.5c-0.3,0-0.6-0.2-0.6-0.4c0-0.1,0-0.3,0.1-0.4l0.3,0.3l0,0c0,0,0.1,0,0.3,0.1c0.5,0,1-0.1,1.2-0.3
	c0-0.1,0.1-0.1,0.1-0.1c0-0.1-0.2-0.2-0.6-0.2c-0.7-0.1-1.6,0.2-2,0.6c-0.1,0.1-0.2,0.2-0.1,0.3c0.1,0.2,0.4,0.4,1,0.4
	c1.2,0.1,2.6-0.3,3.1-0.9c0.1-0.2,0.3-0.4,0.2-0.6c-0.1-0.4-0.8-0.6-1.6-0.7c-1.9-0.2-4.1,0.5-5,1.5c-0.2,0.3-0.5,0.7-0.4,1.1
	c0.2,0.6,1.2,1.1,2.6,1.2c2.4,0.2,6.6-0.3,7.2-3.1c-1.1-1.2-3.1-1.7-5.1-1.7c-3.3,0-6.4,1.7-6.2,4.7c0.2,2.9,3.1,3.7,6.4,3.5
	c3.9-0.3,5.4-1.5,5.7-3.6C304.3,73.8,304.1,72.9,303.6,72.3z"/>
<path style="fill:#CAAF86;" d="M301.8,149.4c0.5,2.3-1.5,4.5-4,5.9c-0.3,0.2-0.7,0.3-1,0.5c-1.4,0.6-2.6,0.7-3.2,0.1
	c-0.3-0.2-0.6-0.7-0.4-1.6c0.3-1.4,2-3.2,3.9-4c0.9-0.4,1.7-0.5,2.2-0.1c0.2,0.1,0.4,0.5,0.3,1.1c-0.2,0.9-1.3,2.1-2.5,2.6
	c-0.6,0.3-1.2,0.3-1.5,0c-0.1-0.1-0.3-0.3-0.2-0.8c0.1-0.6,0.9-1.4,1.6-1.7c0.4-0.2,0.8-0.2,1,0c0.1,0.1,0.2,0.3,0.1,0.6
	c-0.1,0.4-0.6,0.9-1.1,1.1c-0.3,0.1-0.6,0.1-0.7,0s-0.2-0.3-0.1-0.4l0.4,0.1l0,0c0,0,0.1,0,0.3-0.1c0.5-0.2,0.8-0.6,0.9-0.9
	c0-0.1,0-0.1,0-0.1c-0.1,0-0.3-0.1-0.6,0.1c-0.7,0.3-1.3,1-1.4,1.5c0,0.1,0,0.3,0.1,0.3c0.1,0.1,0.5,0.1,1-0.1
	c1.1-0.5,2.1-1.6,2.3-2.3c0-0.2,0.1-0.5-0.1-0.7c-0.3-0.3-1-0.2-1.7,0.1c-1.7,0.8-3.4,2.4-3.7,3.7c-0.1,0.4-0.1,0.8,0.2,1.2
	c0.5,0.4,1.6,0.4,2.8-0.2c2.2-1,5.6-3.4,4.8-6.2c-1.5-0.5-3.5,0-5.3,1c-2.9,1.6-4.8,4.6-3.1,7.1c1.6,2.4,4.5,1.8,7.3,0
	c3.3-2.1,4-3.9,3.3-5.9C303.2,150.4,302.6,149.8,301.8,149.4z"/>
<g id="New_Symbol">
</g>
</svg>
