<?xml version="1.0" encoding="utf-8"?>
<!-- Generator: Adobe Illustrator 17.0.0, SVG Export Plug-In . SVG Version: 6.00 Build 0)  -->
<!DOCTYPE svg PUBLIC "-//W3C//DTD SVG 1.1//EN" "http://www.w3.org/Graphics/SVG/1.1/DTD/svg11.dtd">
<svg version="1.1" id="Layer_1" xmlns="http://www.w3.org/2000/svg" xmlns:xlink="http://www.w3.org/1999/xlink" x="0px" y="0px"
	 width="226.8px" height="354.3px" viewBox="0 0 226.8 354.3" style="enable-background:new 0 0 226.8 354.3;" xml:space="preserve"
	>
<g>
	<rect x="26.9" y="39.7" style="fill:#BD9C69;" width="173" height="275"/>
	<path style="fill:#F1EBE0;" d="M182.5,234.2c-2.6-36.4,2.7-53.2,0-89.7c-1.3-17.7,3.9-41.5,1.5-59c-1.5-10.7,2.5-23.5-3.2-27.3
		c-4.9-3.3-22.6-1.4-28.3-1.7c-9.3-0.5-18.6,2-28.1,2c-10.4,0-21.2-2.9-31.5-2c-7.5,0.7-15.5,1.2-23,0c-9.2-1.4-14.7-0.2-21.3,2
		c-6.4,2.1-5.4,10.4-5,15.3c1,10.6,0.8,17.9,0,28c-0.8,10-0.8,23.2,0,33.2c0.9,10.5-1.1,27.4-0.5,38.1c0.8,15.4-1.9,30.2-0.8,45.4
		c1.2,16.8,2.2,35.8,1.3,52.7c-0.4,7.9-0.8,18,5,23.2c4.7,4.2,11.1,3,20.3,2.9c8.5,0,13-1.2,21.3,0c9.2,1.3,20.7-1.6,30,0
		c11.2,1.9,23.6,1.1,34.9,0c6.2-0.6,20.7,1.7,25.4-3.6c3.8-4.4,2.6-17.4,2.8-22.8C183.7,261.9,183.1,242.9,182.5,234.2z"/>
	<g>
		<path style="fill:#72301A;" d="M126.1,230.7l-3.8,3.9l-16.4-0.2l-3.2-4.3l-1.3,3.2c0,0-9.2,30.5,7.5,33.7l-0.1,7.7l-2.1,0.9
			l2.1-0.1l0.3,1.8l0.6-1.7l1.7,0.5l-1.3-1.5l-0.2-7.4c3.8,0.7,6.9,0.7,9.2,0.3l0.2,6.7l-0.9,1.6l1.3-0.8l0.9,1.2l0.1-1.4l1.3,0.1
			l-1.2-1.2l-0.8-6.5c9.2-2,7.6-10.9,7.8-13.8C128.3,250.2,126.1,230.7,126.1,230.7z"/>
		<ellipse style="fill:#D3716A;" cx="107.5" cy="244.5" rx="3.9" ry="3.7"/>
		<ellipse style="fill:#D3716A;" cx="119.7" cy="244.6" rx="4.2" ry="3.9"/>
		<ellipse style="fill:#72301A;" cx="107.8" cy="244.5" rx="0.8" ry="0.8"/>
		<ellipse style="fill:#72301A;" cx="120" cy="244.6" rx="0.9" ry="0.8"/>
		<ellipse style="fill:#DBE079;" cx="106.5" cy="239.8" rx="0.4" ry="0.4"/>
		<ellipse style="fill:#DBE079;" cx="104.7" cy="240.6" rx="0.4" ry="0.4"/>
		<ellipse style="fill:#DBE079;" cx="103.1" cy="242.1" rx="0.4" ry="0.4"/>
		<ellipse style="fill:#DBE079;" cx="102.6" cy="244" rx="0.4" ry="0.4"/>
		<ellipse style="fill:#DBE079;" cx="102.7" cy="245.8" rx="0.4" ry="0.4"/>
		<ellipse style="fill:#DBE079;" cx="103.5" cy="247.4" rx="0.4" ry="0.4"/>
		<ellipse style="fill:#DBE079;" cx="105" cy="248.6" rx="0.4" ry="0.4"/>
		<ellipse style="fill:#DBE079;" cx="106.7" cy="249.2" rx="0.4" ry="0.4"/>
		<ellipse style="fill:#DBE079;" cx="108.6" cy="249.3" rx="0.4" ry="0.4"/>
		<ellipse style="fill:#DBE079;" cx="110.2" cy="248.5" rx="0.4" ry="0.4"/>
		<ellipse style="fill:#DBE079;" cx="111.5" cy="247.3" rx="0.4" ry="0.4"/>
		<ellipse style="fill:#DBE079;" cx="112.2" cy="246" rx="0.4" ry="0.4"/>
		<ellipse style="fill:#DBE079;" cx="112.4" cy="244.3" rx="0.4" ry="0.4"/>
		<ellipse style="fill:#DBE079;" cx="112.3" cy="242.6" rx="0.4" ry="0.4"/>
		<ellipse style="fill:#DBE079;" cx="111.2" cy="241.1" rx="0.4" ry="0.4"/>
		<ellipse style="fill:#DBE079;" cx="109.9" cy="240.1" rx="0.4" ry="0.4"/>
		<ellipse style="fill:#DBE079;" cx="108.4" cy="239.8" rx="0.4" ry="0.4"/>
		<ellipse style="fill:#DBE079;" cx="118.6" cy="239.9" rx="0.4" ry="0.4"/>
		<ellipse style="fill:#DBE079;" cx="116.8" cy="240.7" rx="0.4" ry="0.4"/>
		<ellipse style="fill:#DBE079;" cx="115.3" cy="242.2" rx="0.4" ry="0.4"/>
		<ellipse style="fill:#DBE079;" cx="114.7" cy="244.2" rx="0.4" ry="0.4"/>
		<ellipse style="fill:#DBE079;" cx="114.8" cy="245.9" rx="0.4" ry="0.4"/>
		<ellipse style="fill:#DBE079;" cx="115.6" cy="247.6" rx="0.4" ry="0.4"/>
		<ellipse style="fill:#DBE079;" cx="117.1" cy="248.7" rx="0.4" ry="0.4"/>
		<ellipse style="fill:#DBE079;" cx="118.8" cy="249.3" rx="0.4" ry="0.4"/>
		<ellipse style="fill:#DBE079;" cx="120.7" cy="249.4" rx="0.4" ry="0.4"/>
		<ellipse style="fill:#DBE079;" cx="122.3" cy="248.6" rx="0.4" ry="0.4"/>
		<ellipse style="fill:#DBE079;" cx="123.7" cy="247.4" rx="0.4" ry="0.4"/>
		<ellipse style="fill:#DBE079;" cx="124.3" cy="246.1" rx="0.4" ry="0.4"/>
		<ellipse style="fill:#DBE079;" cx="124.6" cy="244.4" rx="0.4" ry="0.4"/>
		<ellipse style="fill:#DBE079;" cx="124.4" cy="242.7" rx="0.4" ry="0.4"/>
		<ellipse style="fill:#DBE079;" cx="123.3" cy="241.2" rx="0.4" ry="0.4"/>
		<ellipse style="fill:#DBE079;" cx="122" cy="240.3" rx="0.4" ry="0.4"/>
		<ellipse style="fill:#DBE079;" cx="120.6" cy="239.9" rx="0.4" ry="0.4"/>
		<path style="fill:#DBE079;" d="M113.3,247.1c0,0-1.3,2.3-2.4,2.8c-1.1,0.6,2.7,5.1,2.7,5.1l3.3-4.7l-3-3.3L113.3,247.1
			L113.3,247.1z"/>
		<path style="fill:#72301A;" d="M113.6,248.1c0,0-0.5,1.7-0.5,2.6c0.1,0.9,0.5,3.4,0.5,3.4s0.7-2.8,0.6-3.4
			C114.1,250.1,113.6,248.1,113.6,248.1z"/>
		<path style="fill:#D3716A;" d="M102,255.6c0,0,9.6,1.1,11.8,1.1c2.2-0.1,12.4-1.9,12.4-1.9s-0.6,7.7-2.6,8.9s-7.1,2.6-9.4,2.5
			s-7.9-1.2-9.5-3.2S102.4,257.2,102,255.6z"/>
		<path style="fill:#DBE079;" d="M103.5,255.8c0,0,0.1,1.9,1.4,2c1.3,0.2,2.3-1.7,2.3-1.7L103.5,255.8z"/>
		<path style="fill:#DBE079;" d="M105.3,257.9c0,0,0.1,1.9,1.4,2c1.3,0.2,2.3-1.7,2.3-1.7L105.3,257.9z"/>
		<path style="fill:#DBE079;" d="M107.3,259.9c0,0,0.1,1.9,1.4,2c1.3,0.2,2.3-1.7,2.3-1.7L107.3,259.9z"/>
		<path style="fill:#DBE079;" d="M103.3,259.8c0,0,0.1,1.9,1.4,2c1.3,0.2,2.3-1.7,2.3-1.7L103.3,259.8z"/>
		<path style="fill:#DBE079;" d="M112.1,259.8c0,0,0.2,1.8,1.6,1.9c1.3,0.1,2.2-1.9,2.2-1.9H112.1z"/>
		<path style="fill:#DBE079;" d="M110.2,261.3c0,0,0.1,1.9,1.4,2c1.3,0.2,2.3-1.7,2.3-1.7L110.2,261.3z"/>
		<path style="fill:#DBE079;" d="M105.2,261.7c0,0,0.1,1.9,1.4,2c1.3,0.2,2.3-1.7,2.3-1.7L105.2,261.7z"/>
		<path style="fill:#DBE079;" d="M119.4,261c0,0,0.1,1.9,1.4,2c1.3,0.2,2.3-1.7,2.3-1.7L119.4,261z"/>
		<path style="fill:#DBE079;" d="M117.2,262.8c0,0,0.1,1.9,1.4,2c1.3,0.2,2.3-1.7,2.3-1.7L117.2,262.8z"/>
		<path style="fill:#DBE079;" d="M108.2,262.9c0,0,0.1,1.9,1.4,2c1.3,0.2,2.3-1.7,2.3-1.7L108.2,262.9z"/>
		<path style="fill:#DBE079;" d="M115,261.2c0,0,0.2,1.8,1.6,1.9c1.3,0.1,2.2-1.9,2.2-1.9H115z"/>
		<path style="fill:#DBE079;" d="M112.5,263.2c0,0,0.2,1.8,1.6,1.9c1.3,0.1,2.2-1.9,2.2-1.9H112.5z"/>
		<path style="fill:#DBE079;" d="M117.6,259.5c0,0,0.4,1.8,1.7,1.8c1.3,0,2-2,2-2L117.6,259.5z"/>
		<path style="fill:#DBE079;" d="M121.7,259.3c0,0,0.4,1.8,1.7,1.8c1.3,0,2-2,2-2L121.7,259.3z"/>
		<path style="fill:#DBE079;" d="M109.7,258.1c0,0,0.1,1.9,1.4,2c1.3,0.2,2.3-1.7,2.3-1.7L109.7,258.1z"/>
		<path style="fill:#DBE079;" d="M114.8,258c0,0,0.2,1.8,1.6,1.9c1.3,0.1,2.1-1.9,2.1-1.9H114.8z"/>
		<path style="fill:#DBE079;" d="M119.8,257.6c0,0,0.4,1.8,1.7,1.8c1.3,0,2-2.1,2-2.1L119.8,257.6z"/>
		<path style="fill:#DBE079;" d="M107.9,256.3c0,0,0.1,1.9,1.4,2c1.3,0.2,2.3-1.7,2.3-1.7L107.9,256.3z"/>
		<path style="fill:#DBE079;" d="M112.2,256.6c0,0,0.2,1.8,1.6,1.9c1.3,0.1,2.1-1.9,2.1-1.9H112.2z"/>
		<path style="fill:#DBE079;" d="M117.3,256.3c0,0,0.5,1.8,1.8,1.7c1.3-0.1,1.8-2.2,1.8-2.2L117.3,256.3z"/>
		<path style="fill:#DBE079;" d="M121.9,255.5c0,0,0.5,1.8,1.8,1.7s1.8-2.2,1.8-2.2L121.9,255.5z"/>
	</g>
</g>
	<text transform="matrix(1 0 0 1 52.7067 118.6856)" style="fill:#72301A; font-family:'AppleCasual'; font-size:8;">79 James Street, Brooklyn East, </text>
	<text transform="matrix(1 0 0 1 77.1067 128.2856)" style="fill:#72301A; font-family:'AppleCasual'; font-size:8;">New York City 1289</text>
	<text transform="matrix(1 0 0 1 78.3067 147.4855)" style="fill:#72301A; font-family:'AppleCasual'; font-size:8;">Tel: 079-5889-3344</text>
	<text transform="matrix(1 0 0 1 55.4067 157.0856)" style="fill:#72301A; font-family:'AppleCasual'; font-size:8;">Email: particiagibson@kmail.com</text>
	<text transform="matrix(1 0 0 1 66.3067 166.6856)" style="fill:#72301A; font-family:'AppleCasual'; font-size:8;">Facebook: Patricia_Gibson</text>
	<text transform="matrix(1 0 0 1 69.5067 176.2856)" style="fill:#72301A; font-family:'AppleCasual'; font-size:8;">Twitter: @patriciagibson</text>
	<text transform="matrix(1 0 0 1 71.1067 195.4856)" style="fill:#72301A; font-family:'AppleCasual'; font-size:8;">www.patriciagibson.com</text>
	<text transform="matrix(1 0 0 1 74.5871 85.6866)" style="fill:#72301A; font-family:'AppleCasual'; font-size:10;">PATRICIA GIBSON</text>
	<text transform="matrix(1 0 0 1 68.3871 95.2866)" style="fill:#72301A; font-family:'AppleCasual'; font-size:8;">Online Shop for Toddlers</text>
</svg>
